<svg width="512" height="512" viewBox="0 0 512 512" fill="none" xmlns="http://www.w3.org/2000/svg">
<g clip-path="url(#clip0_1628_362)">
<mask id="mask0_1628_362" style="mask-type:luminance" maskUnits="userSpaceOnUse" x="0" y="0" width="512" height="512">
<path d="M256 512C397.385 512 512 397.385 512 256C512 114.615 397.385 0 256 0C114.615 0 0 114.615 0 256C0 397.385 114.615 512 256 512Z" fill="white"/>
</mask>
<g mask="url(#mask0_1628_362)">
<path d="M0 0H144.7L180.7 254.6L144.7 512H0V0Z" fill="#0052B4"/>
<path d="M367.302 0H512.002V512H367.302L337.602 254.7L367.302 0Z" fill="#D80027"/>
<path d="M144.703 0H367.303V512H144.703V0Z" fill="#FFDA44"/>
<path d="M256.003 354.499V255.999H322.803V303.299L256.003 354.499ZM189.203 189.199H256.003V255.999H189.203V189.199Z" fill="#D80027"/>
<path d="M289.4 166.999C289.393 163.093 288.36 159.257 286.404 155.876C284.449 152.495 281.639 149.686 278.257 147.732C274.875 145.778 271.039 144.746 267.133 144.74C263.227 144.735 259.388 145.755 256 147.699C252.63 145.737 248.8 144.702 244.9 144.699C232.6 144.699 222.6 154.699 222.6 166.999H167V278.299C167 319.699 199.9 343.699 225.7 356.099C223.721 359.499 222.685 363.365 222.7 367.299C222.717 371.191 223.752 375.01 225.703 378.377C227.653 381.745 230.451 384.543 233.818 386.495C237.184 388.446 241.003 389.483 244.895 389.501C248.786 389.519 252.615 388.519 256 386.599C259.37 388.561 263.2 389.596 267.1 389.599C271.012 389.585 274.852 388.541 278.233 386.573C281.615 384.605 284.419 381.782 286.364 378.388C288.31 374.994 289.328 371.147 289.317 367.235C289.305 363.323 288.265 359.482 286.3 356.099C312.1 343.699 345 319.699 345 278.299V166.999H289.4ZM311.7 278.299C311.7 284.099 311.7 301.699 284.2 319.199C275.339 324.695 265.877 329.158 256 332.499C249 330.099 238.2 325.799 227.8 319.199C200.3 301.699 200.3 284.099 200.3 278.199V200.299H311.7V278.299Z" fill="#FF9811"/>
</g>
</g>
<defs>
<clipPath id="clip0_1628_362">
<rect width="512" height="512" fill="white"/>
</clipPath>
</defs>
</svg>
