<svg width="512" height="512" viewBox="0 0 512 512" fill="none" xmlns="http://www.w3.org/2000/svg">
<g clip-path="url(#clip0_1628_388)">
<mask id="mask0_1628_388" style="mask-type:luminance" maskUnits="userSpaceOnUse" x="0" y="0" width="512" height="512">
<path d="M256 512C397.385 512 512 397.385 512 256C512 114.615 397.385 0 256 0C114.615 0 0 114.615 0 256C0 397.385 114.615 512 256 512Z" fill="white"/>
</mask>
<g mask="url(#mask0_1628_388)">
<path d="M144.697 0H367.297L404.297 257.7L367.297 512H144.697L102.297 256.8L144.697 0Z" fill="#D80027"/>
<path d="M367.297 0H511.997V512H367.297V0Z" fill="#496E2D"/>
<path d="M0 0H144.7V512H0V0Z" fill="#333333"/>
<path d="M256 167C232.396 167 209.758 176.377 193.067 193.067C176.377 209.758 167 232.396 167 256C167 279.604 176.377 302.242 193.067 318.932C209.758 335.623 232.396 345 256 345C279.604 345 302.242 335.623 318.932 318.932C335.623 302.242 345 279.604 345 256C345 232.396 335.623 209.758 318.932 193.067C302.242 176.377 279.604 167 256 167ZM256 311.7C241.227 311.7 227.06 305.832 216.614 295.386C206.168 284.94 200.3 270.773 200.3 256C200.3 241.227 206.168 227.06 216.614 216.614C227.06 206.168 241.227 200.3 256 200.3C270.773 200.3 284.94 206.168 295.386 216.614C305.832 227.06 311.7 241.227 311.7 256C311.7 270.773 305.832 284.94 295.386 295.386C284.94 305.832 270.773 311.7 256 311.7Z" fill="#FFDA44"/>
<path d="M256.003 222.602C243.703 222.602 233.703 232.602 233.703 244.902V278.302H278.303V244.902C278.303 232.602 268.303 222.602 256.003 222.602Z" fill="#FFDA44"/>
</g>
</g>
<defs>
<clipPath id="clip0_1628_388">
<rect width="512" height="512" fill="white"/>
</clipPath>
</defs>
</svg>
