<svg width="512" height="512" viewBox="0 0 512 512" fill="none" xmlns="http://www.w3.org/2000/svg">
<g clip-path="url(#clip0_1628_399)">
<mask id="mask0_1628_399" style="mask-type:luminance" maskUnits="userSpaceOnUse" x="0" y="0" width="512" height="512">
<path d="M256 512C397.385 512 512 397.385 512 256C512 114.615 397.385 0 256 0C114.615 0 0 114.615 0 256C0 397.385 114.615 512 256 512Z" fill="white"/>
</mask>
<g mask="url(#mask0_1628_399)">
<path d="M0 160L256 128L512 160V352L256 384L0 352V160Z" fill="#EEEEEE"/>
<path d="M0 0H512V160H0V0Z" fill="#0052B4"/>
<path d="M0 352H512V512H0V352Z" fill="#496E2D"/>
<path d="M0 0V512L256 256L0 0Z" fill="#D80027"/>
<path d="M345 229L333 240L373 280L333 320L344 331L384 291L424 331L435 320L395 280L435 240L424 229L384 269L345 229Z" fill="#FF9811"/>
<path d="M384 181L405 243L351 205H417L364 244L384 181Z" fill="#D80027"/>
</g>
</g>
<defs>
<clipPath id="clip0_1628_399">
<rect width="512" height="512" fill="white"/>
</clipPath>
</defs>
</svg>
