<svg width="512" height="512" viewBox="0 0 512 512" fill="none" xmlns="http://www.w3.org/2000/svg">
<g clip-path="url(#clip0_1628_410)">
<mask id="mask0_1628_410" style="mask-type:luminance" maskUnits="userSpaceOnUse" x="0" y="0" width="512" height="512">
<path d="M256 512C397.385 512 512 397.385 512 256C512 114.615 397.385 0 256 0C114.615 0 0 114.615 0 256C0 397.385 114.615 512 256 512Z" fill="white"/>
</mask>
<g mask="url(#mask0_1628_410)">
<path d="M256 0H512V512H0V256L256 0Z" fill="#0052B4"/>
<path d="M0 0V32L32 64L0 96V256H32L64 224L96 256H128V173L211 256H256L248 240L256 225V211L173 128H256V96L224 64L256 32V0H96L64 32L32 0H0Z" fill="#EEEEEE"/>
<path d="M32 0V32H0V96H32V256H96V96H256V32H96V0H32ZM128 128L256 256V225L159 128H128Z" fill="#D80027"/>
<path d="M432.998 293.599C441.012 282.747 445.292 269.589 445.198 256.099V144.799C435.568 152.031 423.842 155.928 411.798 155.899C403.167 155.907 394.652 153.905 386.928 150.052C379.204 146.199 372.484 140.6 367.298 133.699C362.113 140.6 355.393 146.199 347.669 150.052C339.945 153.905 331.43 155.907 322.798 155.899C310.755 155.928 299.029 152.031 289.398 144.799V256.099C289.398 271.099 294.398 283.399 301.698 293.599H432.898H432.998Z" fill="#EEEEEE"/>
<path d="M409.803 235.499C413.33 226.684 415.456 217.372 416.103 207.899C416.103 197.799 402.903 189.599 402.903 189.599C402.903 189.599 389.703 197.799 389.703 207.899C390.35 217.372 392.476 226.684 396.003 235.499L388.403 252.599C397.696 256.4 408.11 256.4 417.403 252.599L409.803 235.499ZM358.303 179.899C348.926 181.244 339.816 184.044 331.303 188.199C322.503 193.199 322.003 208.699 322.003 208.699C322.003 208.699 335.703 216.099 344.403 210.999C349.903 207.899 359.403 199.199 365.203 191.799L383.803 189.799C383.157 184.872 381.561 180.118 379.103 175.799C376.617 171.508 373.323 167.738 369.403 164.699L358.303 179.899ZM335.903 252.099C341.754 259.573 348.739 266.085 356.603 271.399C365.403 276.399 379.103 269.099 379.103 269.099C379.103 269.099 378.503 253.599 369.803 248.599C361.296 244.41 352.186 241.575 342.803 240.199L331.703 225.099C327.793 228.109 324.5 231.843 322.003 236.099C319.51 240.41 317.88 245.165 317.203 250.099L335.903 252.099Z" fill="#FF9811"/>
<path d="M298.998 289.5C319.698 322.8 367.298 334 367.298 334C367.298 334 414.898 322.8 435.698 289.5H298.898H298.998Z" fill="#338AF3"/>
</g>
</g>
<defs>
<clipPath id="clip0_1628_410">
<rect width="512" height="512" fill="white"/>
</clipPath>
</defs>
</svg>
