<svg width="512" height="512" viewBox="0 0 512 512" fill="none" xmlns="http://www.w3.org/2000/svg">
<g clip-path="url(#clip0_1628_431)">
<mask id="mask0_1628_431" style="mask-type:luminance" maskUnits="userSpaceOnUse" x="0" y="0" width="512" height="512">
<path d="M256 512C397.385 512 512 397.385 512 256C512 114.615 397.385 0 256 0C114.615 0 0 114.615 0 256C0 397.385 114.615 512 256 512Z" fill="white"/>
</mask>
<g mask="url(#mask0_1628_431)">
<path d="M0 0H512V512H0V0Z" fill="#D80027"/>
<path d="M400.697 189.998H307.997C312.542 185.28 315.594 179.326 316.771 172.881C317.948 166.436 317.198 159.788 314.614 153.767C312.031 147.747 307.73 142.622 302.248 139.034C296.766 135.447 290.348 133.556 283.797 133.598C278.293 133.591 272.872 134.948 268.021 137.548C263.169 140.148 259.038 143.911 255.997 148.498C253.44 144.627 250.106 141.331 246.205 138.82C242.304 136.309 237.923 134.638 233.341 133.914C228.759 133.189 224.076 133.427 219.591 134.613C215.106 135.798 210.917 137.905 207.292 140.798C203.666 143.692 200.682 147.309 198.532 151.42C196.381 155.53 195.11 160.044 194.8 164.672C194.49 169.301 195.148 173.943 196.731 178.304C198.315 182.664 200.789 186.647 203.997 189.998H111.297C111.636 201.953 116.638 213.301 125.234 221.617C133.83 229.932 145.337 234.555 157.297 234.498H155.797C155.797 259.098 175.797 279.098 200.297 279.098C200.297 287.098 202.397 294.498 206.097 300.898L169.097 337.898L197.497 366.198L237.697 325.998C239.288 326.601 240.927 327.069 242.597 327.398L218.297 382.198L255.997 422.998L293.697 382.198L269.397 327.398C271.067 327.07 272.706 326.601 274.297 325.998L314.497 366.198L342.797 337.898L305.797 300.898C309.618 294.265 311.651 286.753 311.697 279.098C336.197 279.098 356.197 259.098 356.197 234.498H354.697C379.297 234.498 400.697 214.598 400.697 189.998Z" fill="#333333"/>
</g>
</g>
<defs>
<clipPath id="clip0_1628_431">
<rect width="512" height="512" fill="white"/>
</clipPath>
</defs>
</svg>
