<svg width="512" height="512" viewBox="0 0 512 512" fill="none" xmlns="http://www.w3.org/2000/svg">
<g clip-path="url(#clip0_1628_446)">
<mask id="mask0_1628_446" style="mask-type:luminance" maskUnits="userSpaceOnUse" x="0" y="0" width="512" height="512">
<path d="M256 512C397.385 512 512 397.385 512 256C512 114.615 397.385 0 256 0C114.615 0 0 114.615 0 256C0 397.385 114.615 512 256 512Z" fill="white"/>
</mask>
<g mask="url(#mask0_1628_446)">
<path d="M0 0H171L256 32L341 0H512V171L480 256L512 341V512H341L256 480L171 512H0V341L32 256L0 171V0Z" fill="#EEEEEE"/>
<path d="M171 0H341V512H171V0Z" fill="#D80027"/>
<path d="M512 171V341H0V171H512Z" fill="#0052B4"/>
<path d="M236 247L288 210H224L276 247L256 186L236 247ZM191 326L243 289H179L231 326L211 265L191 326ZM281 326L333 289H269L321 326L301 265L281 326ZM355 279L407 242H343L395 279L375 218L355 279ZM117 279L169 242H105L157 279L137 218L117 279Z" fill="#EEEEEE"/>
</g>
</g>
<defs>
<clipPath id="clip0_1628_446">
<rect width="512" height="512" fill="white"/>
</clipPath>
</defs>
</svg>
