<svg width="512" height="512" viewBox="0 0 512 512" fill="none" xmlns="http://www.w3.org/2000/svg">
<g clip-path="url(#clip0_1628_455)">
<mask id="mask0_1628_455" style="mask-type:luminance" maskUnits="userSpaceOnUse" x="0" y="0" width="512" height="512">
<path d="M256 512C397.385 512 512 397.385 512 256C512 114.615 397.385 0 256 0C114.615 0 0 114.615 0 256C0 397.385 114.615 512 256 512Z" fill="white"/>
</mask>
<g mask="url(#mask0_1628_455)">
<path d="M0 0H512V256L259 292.6L0 256V0Z" fill="#D80027"/>
<path d="M0 256H512V512H0V256Z" fill="#333333"/>
<path d="M220.906 203.6L242.606 219.4L234.306 244.9L256.006 229L277.706 244.7L269.406 219.2L291.106 203.5H264.306L256.006 178L247.706 203.5L220.906 203.6Z" fill="#FFDA44"/>
<path d="M320.003 145.099C300.545 133.881 278.463 128.015 256.003 128.099V161.399C272.615 161.378 288.936 165.76 303.303 174.099C323.686 187.296 338.22 207.819 343.903 231.427C349.586 255.035 345.983 279.924 333.839 300.951C321.695 321.979 301.938 337.538 278.649 344.414C255.361 351.29 230.321 348.958 208.703 337.899C195.988 330.568 185.166 320.363 177.103 308.099L149.203 326.499C161.238 344.691 177.72 359.508 197.086 369.547C216.451 379.586 238.06 384.513 259.863 383.862C281.666 383.211 302.942 377.004 321.674 365.827C340.407 354.651 355.975 338.876 366.903 319.999C383.861 290.582 388.447 255.637 379.653 222.841C370.859 190.046 349.404 162.083 320.003 145.099Z" fill="#FFDA44"/>
<path d="M182.206 233.699C180.092 237.552 178.758 241.784 178.282 246.153C177.806 250.522 178.197 254.942 179.433 259.16C180.669 263.377 182.724 267.31 185.483 270.731C188.241 274.153 191.647 276.997 195.506 279.099L303.906 338.299C296.506 351.799 300.506 368.299 313.906 375.599L343.206 391.599C346.409 393.364 349.929 394.479 353.564 394.881C357.199 395.284 360.877 394.965 364.389 393.943C367.9 392.921 371.176 391.216 374.027 388.927C376.879 386.637 379.25 383.807 381.006 380.599L397.006 351.299L182.206 233.699Z" fill="#FFDA44"/>
</g>
</g>
<defs>
<clipPath id="clip0_1628_455">
<rect width="512" height="512" fill="white"/>
</clipPath>
</defs>
</svg>
