<svg width="512" height="512" viewBox="0 0 512 512" fill="none" xmlns="http://www.w3.org/2000/svg">
<g clip-path="url(#clip0_1628_488)">
<mask id="mask0_1628_488" style="mask-type:luminance" maskUnits="userSpaceOnUse" x="0" y="0" width="512" height="512">
<path d="M256 512C397.385 512 512 397.385 512 256C512 114.615 397.385 0 256 0C114.615 0 0 114.615 0 256C0 397.385 114.615 512 256 512Z" fill="white"/>
</mask>
<g mask="url(#mask0_1628_488)">
<path d="M511.997 20.3984V489.998L23.7969 255.798L511.997 20.3984Z" fill="#EEEEEE"/>
<path d="M445.203 246.501H414.703C422.703 236.901 422.203 222.801 413.203 213.801C417.734 209.263 420.279 203.113 420.279 196.701C420.279 190.288 417.734 184.138 413.203 179.601L412.703 180.101C417.292 175.502 419.91 169.298 420.003 162.802C420.096 156.306 417.658 150.029 413.203 145.301L276.203 282.301C278.426 284.55 281.073 286.336 283.991 287.555C286.91 288.774 290.041 289.402 293.203 289.402C296.366 289.402 299.497 288.774 302.415 287.555C305.333 286.336 307.98 284.55 310.203 282.301L312.803 279.801L378.403 273.801V302.101H400.703V271.901L434.103 268.901L445.203 246.501Z" fill="#A2001D"/>
<path d="M278.3 311.698L256 300.498L278.3 289.398H423V311.698H278.3Z" fill="#FFDA44"/>
<path d="M0 0V512H512L28.7 256.2L512 0H0Z" fill="#0052B4"/>
<path d="M512 0L0 256L512 512V490L43.8 256L512 20.4V0Z" fill="#D80027"/>
</g>
</g>
<defs>
<clipPath id="clip0_1628_488">
<rect width="512" height="512" fill="white"/>
</clipPath>
</defs>
</svg>
