<svg width="512" height="512" viewBox="0 0 512 512" fill="none" xmlns="http://www.w3.org/2000/svg">
<g clip-path="url(#clip0_1628_513)">
<mask id="mask0_1628_513" style="mask-type:luminance" maskUnits="userSpaceOnUse" x="0" y="0" width="512" height="512">
<path d="M256 512C397.385 512 512 397.385 512 256C512 114.615 397.385 0 256 0C114.615 0 0 114.615 0 256C0 397.385 114.615 512 256 512Z" fill="white"/>
</mask>
<g mask="url(#mask0_1628_513)">
<path d="M0 0H170L234 256L170 512H0V0Z" fill="#0052B4"/>
<path d="M170 0H512V512H170V0Z" fill="#FFDA44"/>
<path d="M135.997 189L142.997 203.7L158.897 200L151.697 214.7L164.397 224.7L148.497 228.4V244.7L135.897 234.5L123.197 244.7V228.4L107.297 224.8L120.097 214.7L112.997 200L128.897 203.7L135.997 189ZM90.9969 146L97.9969 160.7L113.897 157L106.697 171.7L119.397 181.7L103.497 185.4V201.7L90.8969 191.5L78.1969 201.7V185.4L62.2969 181.8L75.0969 171.7L67.9969 157L83.8969 160.7L90.9969 146ZM109.997 238L115.597 255H133.397L118.897 265.5L124.397 282.5L109.897 272L95.4969 282.5L100.997 265.5L86.4969 255H104.497L109.997 238ZM39.9969 204L46.9969 218.7L62.8969 215L55.6969 229.7L68.3969 239.7L52.4969 243.4V259.7L39.8969 249.5L27.1969 259.7V243.4L11.2969 239.8L24.0969 229.7L16.9969 215L32.8969 218.7L39.9969 204ZM90.9969 303L84.9969 320L67.9969 312L75.9969 329L58.9969 335L75.9969 341L67.9969 358L84.9969 350L90.9969 367L96.9969 350L113.997 358L105.997 341L122.997 335L105.997 329L113.997 312L96.9969 320L90.9969 303Z" fill="#EEEEEE"/>
<path d="M276 222C271.491 222 267.167 223.791 263.979 226.979C260.791 230.167 259 234.491 259 239H208C208 243.509 209.791 247.833 212.979 251.021C216.167 254.209 220.491 256 225 256C225 260.509 226.791 264.833 229.979 268.021C233.167 271.209 237.491 273 242 273C242 277.509 243.791 281.833 246.979 285.021C250.167 288.209 254.491 290 259 290H330V222H276Z" fill="#0052B4"/>
<path d="M384 222C388.509 222 392.833 223.791 396.021 226.979C399.209 230.167 401 234.491 401 239H452C452 243.509 450.209 247.833 447.021 251.021C443.833 254.209 439.509 256 435 256C435 260.509 433.209 264.833 430.021 268.021C426.833 271.209 422.509 273 418 273C418 277.509 416.209 281.833 413.021 285.021C409.833 288.209 405.509 290 401 290H330V222H384Z" fill="#EEEEEE"/>
<path d="M285.5 222V290C285.5 324 330 334 330 334C330 334 374.5 324 374.5 290V222H285.5Z" fill="#0052B4"/>
<path d="M294.398 226L291.898 233.5L318.698 243.5L291.898 253.5L294.398 261L329.998 247.7L365.698 261L368.198 253.5L341.298 243.5L368.198 233.5L365.698 226L329.998 239.3L294.398 226ZM319.398 257.2V276H313.198V266.8H298.198V306H361.898V267.2H346.898V276H339.398V257.2H319.398Z" fill="#EEEEEE"/>
<path d="M330 328.199C334.971 328.199 339 324.17 339 319.199C339 314.229 334.971 310.199 330 310.199C325.029 310.199 321 314.229 321 319.199C321 324.17 325.029 328.199 330 328.199Z" fill="#EEEEEE"/>
</g>
</g>
<defs>
<clipPath id="clip0_1628_513">
<rect width="512" height="512" fill="white"/>
</clipPath>
</defs>
</svg>
