<svg width="512" height="512" viewBox="0 0 512 512" fill="none" xmlns="http://www.w3.org/2000/svg">
<g clip-path="url(#clip0_1628_527)">
<mask id="mask0_1628_527" style="mask-type:luminance" maskUnits="userSpaceOnUse" x="0" y="0" width="512" height="512">
<path d="M256 512C397.385 512 512 397.385 512 256C512 114.615 397.385 0 256 0C114.615 0 0 114.615 0 256C0 397.385 114.615 512 256 512Z" fill="white"/>
</mask>
<g mask="url(#mask0_1628_527)">
<path d="M256 0H512V512H0V256L256 0Z" fill="#0052B4"/>
<path d="M0 0V32L32 64L0 96V256H32L64 224L96 256H128V173L211 256H256L248 240L256 225V211L173 128H256V96L224 64L256 32V0H96L64 32L32 0H0Z" fill="#EEEEEE"/>
<path d="M32 0V32H0V96H32V256H96V96H256V32H96V0H32ZM128 128L256 256V225L159 128H128Z" fill="#D80027"/>
<path d="M402 185H362C349.855 188.445 338.793 194.939 329.866 203.866C320.939 212.793 314.445 223.855 311 236V276C314.445 288.145 320.939 299.207 329.866 308.134C338.793 317.061 349.855 323.555 362 327H402C414.145 323.555 425.207 317.061 434.134 308.134C443.061 299.207 449.555 288.145 453 276V236C449.555 223.855 443.061 212.793 434.134 203.866C425.207 194.939 414.145 188.445 402 185Z" fill="#EEEEEE"/>
<path d="M382 182C375.227 182.08 368.498 183.089 362 185V236H311C309.089 242.498 308.08 249.227 308 256C308.08 262.773 309.089 269.502 311 276H362V327C368.498 328.911 375.227 329.92 382 330C388.773 329.92 395.502 328.911 402 327V276H453C454.911 269.502 455.92 262.773 456 256C455.92 249.227 454.911 242.498 453 236H402V185C395.502 183.089 388.773 182.08 382 182Z" fill="#D80027"/>
<path d="M382 295L379 303L371 299L375 307L367 310L375 313L371 321L379 317L382 325L385 317L393 321L389 313L397 310L389 307L393 299L385 303L382 295ZM436 241L433 249L425 245L429 253L421 256L429 259L425 267L433 263L436 271L439 263L447 267L443 259L451 256L443 253L447 245L439 249L436 241ZM328 241L325 249L317 245L321 253L313 256L321 259L317 267L325 263L328 271L331 263L339 267L335 259L343 256L335 253L339 245L331 249L328 241ZM382 187L379 195L371 191L375 199L367 202L375 205L371 213L379 209L382 217L385 209L393 213L389 205L397 202L389 199L393 191L385 195L382 187ZM372 239C370.481 239.205 369.071 239.903 367.987 240.987C366.903 242.071 366.205 243.481 366 245V250H363V248C363 245 360 242 357 242L356 244V256L358 257H366C365.853 257.867 365.899 258.756 366.134 259.604C366.369 260.452 366.788 261.237 367.36 261.905C367.933 262.573 368.645 263.107 369.447 263.469C370.249 263.831 371.12 264.012 372 264V266H369C368.25 265.985 367.506 266.139 366.824 266.45C366.142 266.761 365.538 267.222 365.058 267.798C364.578 268.374 364.233 269.051 364.05 269.779C363.867 270.506 363.85 271.265 364 272L365 273H377L379 272V264L396 263V266H393C391.674 266 390.402 266.527 389.464 267.464C388.527 268.402 388 269.674 388 271L389 273H402L403 271V255C406 255 408 253 408 250C408 248 406 245 403 245H387L385 244L387 242H403V239H387C385.674 239 384.402 239.527 383.464 240.464C382.527 241.402 382 242.674 382 244C382 246 384 249 387 249H403L405 250L403 252H385C384.12 252.012 383.249 251.831 382.447 251.469C381.645 251.107 380.933 250.573 380.36 249.905C379.788 249.237 379.369 248.452 379.134 247.604C378.899 246.756 378.853 245.867 379 245C378.758 243.322 377.915 241.788 376.627 240.685C375.34 239.581 373.696 238.983 372 239Z" fill="#FFDA44"/>
</g>
</g>
<defs>
<clipPath id="clip0_1628_527">
<rect width="512" height="512" fill="white"/>
</clipPath>
</defs>
</svg>
