<svg width="512" height="512" viewBox="0 0 512 512" fill="none" xmlns="http://www.w3.org/2000/svg">
<g clip-path="url(#clip0_1628_538)">
<mask id="mask0_1628_538" style="mask-type:luminance" maskUnits="userSpaceOnUse" x="0" y="0" width="512" height="512">
<path d="M256 512C397.385 512 512 397.385 512 256C512 114.615 397.385 0 256 0C114.615 0 0 114.615 0 256C0 397.385 114.615 512 256 512Z" fill="white"/>
</mask>
<g mask="url(#mask0_1628_538)">
<path d="M0 0H171L235 256L171 512H0V0Z" fill="#333333"/>
<path d="M171 0H512V512H171V0Z" fill="#FF9811"/>
<path d="M341 282C347 279 354 279 359 282C354 279 353 271 354 265C356 259 361 252 367 251C361 252 354 248 350 244C346 239 344 231 346 225C344 231 336 234 330 234C324 234 317 231 314 225C316 231 314 239 310 244C307 248 300 252 294 251C300 252 304 259 306 265C307 271 306 279 301 282C306 279 314 279 319 282C325 284 330 290 330 297C330 290 335 284 341 282Z" fill="#333333"/>
<path d="M358.002 237.001C372.002 255.001 433.002 237.001 403.002 200.001C374.002 163.001 343.002 218.001 358.002 237.001Z" fill="#EEEEEE"/>
<path d="M329.997 224C352.997 224 376.997 165 329.997 165C282.997 165 306.997 224 329.997 224Z" fill="#EEEEEE"/>
<path d="M302.998 237.001C316.998 218.001 285.998 163.001 256.998 200.001C226.998 237.001 287.998 255.001 301.998 237.001H302.998ZM344.998 290.001C323.998 301.001 327.998 363.001 370.998 343.001C412.998 323.001 365.998 280.001 344.998 290.001Z" fill="#EEEEEE"/>
<path d="M314.999 290.001C293.999 280.001 246.999 323.001 288.999 343.001C331.999 363.001 335.999 301.001 314.999 290.001ZM363.999 267.001C358.999 289.001 410.999 325.001 420.999 280.001C431.999 234.001 368.999 244.001 363.999 267.001Z" fill="#EEEEEE"/>
<path d="M296 267C290 244 228 234 239 280C249 325 301 289 296 267ZM136 189L143 204L159 200L152 215L164 225L149 228V245L136 234L123 245V228L107 225L120 215L113 200L129 204L136 189ZM91 146L98 161L114 157L107 172L119 182L104 185V202L91 191L78 202V185L62 182L75 172L68 157L84 161L91 146ZM110 238L116 255H133L119 266L124 283L110 272L96 283L101 266L87 255H105L110 238ZM40 204L47 219L63 215L56 230L68 240L52 243V260L40 249L27 260V243L11 240L24 230L17 215L33 219L40 204ZM91 303L85 320L68 312L76 329L59 335L76 341L68 358L85 350L91 367L97 350L114 358L106 341L123 335L106 329L114 312L97 320L91 303Z" fill="#EEEEEE"/>
</g>
</g>
<defs>
<clipPath id="clip0_1628_538">
<rect width="512" height="512" fill="white"/>
</clipPath>
</defs>
</svg>
