<svg width="512" height="512" viewBox="0 0 512 512" fill="none" xmlns="http://www.w3.org/2000/svg">
<g clip-path="url(#clip0_1628_551)">
<mask id="mask0_1628_551" style="mask-type:luminance" maskUnits="userSpaceOnUse" x="0" y="0" width="512" height="512">
<path d="M256 512C397.385 512 512 397.385 512 256C512 114.615 397.385 0 256 0C114.615 0 0 114.615 0 256C0 397.385 114.615 512 256 512Z" fill="white"/>
</mask>
<g mask="url(#mask0_1628_551)">
<path d="M256 0H512V512H0V256L256 0Z" fill="#0052B4"/>
<path d="M0 0V32L32 64L0 96V256H32L64 224L96 256H128V173L211 256H256L248 240L256 225V211L173 128H256V96L224 64L256 32V0H96L64 32L32 0H0Z" fill="#EEEEEE"/>
<path d="M32 0V32H0V96H32V256H96V96H256V32H96V0H32ZM128 128L256 256V225L159 128H128Z" fill="#D80027"/>
<path d="M382 330C422.869 330 456 296.869 456 256C456 215.131 422.869 182 382 182C341.131 182 308 215.131 308 256C308 296.869 341.131 330 382 330Z" fill="#EEEEEE"/>
<path d="M404.998 322.101L381.998 312.001L358.998 322.201L381.998 256.101L404.998 322.101ZM404.998 189.901L381.998 200.001L358.998 189.801L381.998 255.901L404.998 189.901ZM315.898 279.001L326.098 256.001L315.898 233.001L381.998 256.001L315.898 279.001ZM448.098 279.001L437.998 256.001L448.198 233.001L382.098 256.001L448.098 279.001Z" fill="#338AF3"/>
<path d="M376.997 228V233H371.997V243H376.997V252.4C374.013 249.911 370.189 248.66 366.311 248.903C362.433 249.147 358.795 250.866 356.145 253.708C353.496 256.55 352.035 260.299 352.063 264.184C352.091 268.07 353.606 271.797 356.297 274.6V284H407.997V274.6C410.688 271.797 412.203 268.07 412.232 264.184C412.26 260.299 410.799 256.55 408.149 253.708C405.499 250.866 401.862 249.147 397.984 248.903C394.105 248.66 390.282 249.911 387.297 252.4V243H392.297V233H387.297V228H376.997Z" fill="#FFDA44"/>
</g>
</g>
<defs>
<clipPath id="clip0_1628_551">
<rect width="512" height="512" fill="white"/>
</clipPath>
</defs>
</svg>
