<svg width="512" height="512" viewBox="0 0 512 512" fill="none" xmlns="http://www.w3.org/2000/svg">
<g clip-path="url(#clip0_1628_572)">
<mask id="mask0_1628_572" style="mask-type:luminance" maskUnits="userSpaceOnUse" x="0" y="0" width="512" height="512">
<path d="M256 512C397.385 512 512 397.385 512 256C512 114.615 397.385 0 256 0C114.615 0 0 114.615 0 256C0 397.385 114.615 512 256 512Z" fill="white"/>
</mask>
<g mask="url(#mask0_1628_572)">
<path d="M256 0H512V512H0V256L256 0Z" fill="#0052B4"/>
<path d="M0 0V32L32 64L0 96V256H32L64 224L96 256H128V173L211 256H256L248 240L256 225V211L173 128H256V96L224 64L256 32V0H96L64 32L32 0H0Z" fill="#EEEEEE"/>
<path d="M32 0V32H0V96H32V256H96V96H256V32H96V0H32ZM128 128L256 256V225L159 128H128Z" fill="#D80027"/>
<path d="M382 330C422.869 330 456 296.869 456 256C456 215.131 422.869 182 382 182C341.131 182 308 215.131 308 256C308 296.869 341.131 330 382 330Z" fill="#FF9811"/>
<path d="M382 228C378.287 228 374.726 229.475 372.1 232.101C369.475 234.726 368 238.287 368 242H326C326 245.713 327.475 249.274 330.1 251.899C332.726 254.525 336.287 256 340 256C340 259.713 341.475 263.274 344.1 265.9C346.726 268.525 350.287 270 354 270C354 273.713 355.475 277.274 358.1 279.9C360.726 282.525 364.287 284 368 284H396C399.713 284 403.274 282.525 405.9 279.9C408.525 277.274 410 273.713 410 270C413.713 270 417.274 268.525 419.9 265.9C422.525 263.274 424 259.713 424 256C427.713 256 431.274 254.525 433.9 251.899C436.525 249.274 438 245.713 438 242H396C396 238.287 394.525 234.726 391.9 232.101C389.274 229.475 385.713 228 382 228Z" fill="#333333"/>
</g>
</g>
<defs>
<clipPath id="clip0_1628_572">
<rect width="512" height="512" fill="white"/>
</clipPath>
</defs>
</svg>
