<svg width="512" height="512" viewBox="0 0 512 512" fill="none" xmlns="http://www.w3.org/2000/svg">
<g clip-path="url(#clip0_1628_582)">
<mask id="mask0_1628_582" style="mask-type:luminance" maskUnits="userSpaceOnUse" x="0" y="0" width="512" height="512">
<path d="M256 512C397.385 512 512 397.385 512 256C512 114.615 397.385 0 256 0C114.615 0 0 114.615 0 256C0 397.385 114.615 512 256 512Z" fill="white"/>
</mask>
<g mask="url(#mask0_1628_582)">
<path d="M256 0H512V512H0V256L256 0Z" fill="#0052B4"/>
<path d="M0 0V32L32 64L0 96V256H32L64 224L96 256H128V173L211 256H256L248 240L256 225V211L173 128H256V96L224 64L256 32V0H96L64 32L32 0H0Z" fill="#EEEEEE"/>
<path d="M32 0V32H0V96H32V256H96V96H256V32H96V0H32ZM128 128L256 256V225L159 128H128Z" fill="#D80027"/>
<path d="M382 330C422.869 330 456 296.869 456 256C456 215.131 422.869 182 382 182C341.131 182 308 215.131 308 256C308 296.869 341.131 330 382 330Z" fill="#EEEEEE"/>
<path d="M363 221C359.287 221 355.726 222.475 353.1 225.101C350.475 227.726 349 231.287 349 235V245H344V239C344 233 339 228 333 228C332.204 228 331.441 228.316 330.879 228.879C330.316 229.441 330 230.204 330 231V256C330 257 331 259 333 259H349C349.252 262.272 350.733 265.327 353.144 267.552C355.555 269.778 358.719 271.01 362 271V277H357C350 277 345 282 345 288L348 291H373C375 291 376 289 376 288V271H410V276H405C399 276 394 281 394 287C394 289 395 290 397 290H421C423 290 424 289 424 287V254C429 254 434 250 434 245C434 239 429 235 424 235H392C391.204 235 390.441 234.684 389.879 234.121C389.316 233.559 389 232.796 389 232C389 230 390 229 392 229H424V222H392C389.999 222.658 388.257 223.93 387.022 225.636C385.787 227.342 385.122 229.394 385.122 231.5C385.122 233.606 385.787 235.658 387.022 237.364C388.257 239.07 389.999 240.342 392 241H424C426 241 427 243 427 245C427 246 426 248 424 248H389C382 248 376 242 376 235C376.009 231.454 374.672 228.036 372.259 225.438C369.846 222.839 366.537 221.253 363 221Z" fill="#D80027"/>
</g>
</g>
<defs>
<clipPath id="clip0_1628_582">
<rect width="512" height="512" fill="white"/>
</clipPath>
</defs>
</svg>
