<svg width="512" height="512" viewBox="0 0 512 512" fill="none" xmlns="http://www.w3.org/2000/svg">
<g clip-path="url(#clip0_1628_562)">
<mask id="mask0_1628_562" style="mask-type:luminance" maskUnits="userSpaceOnUse" x="0" y="0" width="512" height="512">
<path d="M256 512C397.385 512 512 397.385 512 256C512 114.615 397.385 0 256 0C114.615 0 0 114.615 0 256C0 397.385 114.615 512 256 512Z" fill="white"/>
</mask>
<g mask="url(#mask0_1628_562)">
<path d="M256 0H512V512H0V256L256 0Z" fill="#0052B4"/>
<path d="M0 0V32L32 64L0 96V256H32L64 224L96 256H128V173L211 256H256L248 240L256 225V211L173 128H256V96L224 64L256 32V0H96L64 32L32 0H0Z" fill="#EEEEEE"/>
<path d="M32 0V32H0V96H32V256H96V96H256V32H96V0H32ZM128 128L256 256V225L159 128H128Z" fill="#D80027"/>
<path d="M313 267L320 282L335 278L328 293L341 303L325 306V322L312 312L300 322V306L284 303L297 293L290 278L306 282L313 267ZM379 206L386 221L401 217L394 232L407 242L391 246V262L378 252L366 262V246L350 242L363 232L356 217L372 221L379 206ZM380 352L420 323H370L410 352L395 304L380 352ZM379 381L384 396L398 389L391 404L406 409L391 414L398 429L384 422L379 437L373 422L359 429L366 414L351 409L366 404L359 389L373 396L379 381ZM436 267L428 281H412L420 295L412 309H428L436 322L444 309H460L452 295L460 281H444L436 267Z" fill="#EEEEEE"/>
<path d="M370 93V101H362V118H370V133C365.093 128.491 358.597 126.116 351.939 126.398C345.282 126.679 339.008 129.593 334.5 134.5C329.991 139.407 327.616 145.903 327.897 152.561C328.179 159.218 331.093 165.491 336 170V185H421V170C425.906 165.491 428.821 159.218 429.102 152.561C429.383 145.903 427.008 139.407 422.5 134.5C417.991 129.593 411.718 126.679 405.06 126.398C398.403 126.116 391.906 128.491 387 133V118H395V101H387V93H370Z" fill="#FFDA44"/>
</g>
</g>
<defs>
<clipPath id="clip0_1628_562">
<rect width="512" height="512" fill="white"/>
</clipPath>
</defs>
</svg>
