<svg width="512" height="512" viewBox="0 0 512 512" fill="none" xmlns="http://www.w3.org/2000/svg">
<g clip-path="url(#clip0_1628_592)">
<mask id="mask0_1628_592" style="mask-type:luminance" maskUnits="userSpaceOnUse" x="0" y="0" width="512" height="512">
<path d="M256 512C397.385 512 512 397.385 512 256C512 114.615 397.385 0 256 0C114.615 0 0 114.615 0 256C0 397.385 114.615 512 256 512Z" fill="white"/>
</mask>
<g mask="url(#mask0_1628_592)">
<path d="M256 0H512V512H0V256L256 0Z" fill="#0052B4"/>
<path d="M0 0V32L32 64L0 96V256H32L64 224L96 256H128V173L211 256H256L248 240L256 225V211L173 128H256V96L224 64L256 32V0H96L64 32L32 0H0Z" fill="#EEEEEE"/>
<path d="M32 0V32H0V96H32V256H96V96H256V32H96V0H32ZM128 128L256 256V225L159 128H128Z" fill="#D80027"/>
<path d="M382 330C422.869 330 456 296.869 456 256C456 215.131 422.869 182 382 182C341.131 182 308 215.131 308 256C308 296.869 341.131 330 382 330Z" fill="#FFDA44"/>
<path d="M397 299.8C345.6 307.6 343.8 275.8 343.8 275.8C341.8 252.9 365.201 246.2 372.201 233.5C379.201 220.9 362.9 219 363.9 227.1C364.9 235.3 360.1 236.7 359.9 237.3C359.6 238 352.6 244.9 351.6 243.6C350.6 242.3 354.5 237.3 354.5 237.3C354.5 237.3 351.5 235.6 350.3 231.7C347.1 222.9 363.301 201 380.201 215.8C397.001 230.6 374.6 247.8 368.8 256.2C363 264.5 363.2 270.8 366.8 271.9C370.5 273.1 373.3 269.4 374.8 263.8C376.3 258.5 385.6 241.1 405.3 246.9C420 251.3 418.2 257.4 430 254.2C434.1 293.8 397 299.8 397 299.8Z" fill="#333333"/>
</g>
</g>
<defs>
<clipPath id="clip0_1628_592">
<rect width="512" height="512" fill="white"/>
</clipPath>
</defs>
</svg>
