<svg width="512" height="512" viewBox="0 0 512 512" fill="none" xmlns="http://www.w3.org/2000/svg">
<g clip-path="url(#clip0_1628_602)">
<mask id="mask0_1628_602" style="mask-type:luminance" maskUnits="userSpaceOnUse" x="0" y="0" width="512" height="512">
<path d="M256 512C397.385 512 512 397.385 512 256C512 114.615 397.385 0 256 0C114.615 0 0 114.615 0 256C0 397.385 114.615 512 256 512Z" fill="white"/>
</mask>
<g mask="url(#mask0_1628_602)">
<path d="M0 0H512V512H0V0Z" fill="#0052B4"/>
<path d="M154 300L168 330L200 322L186 352L211 372L179 379L180 412L154 391L128 412L129 379L96 372L122 352L108 322L140 330L154 300ZM376 273H423L385 300L400 256L414 300L376 273ZM383 111L390 126L406 122L399 137L411 147L396 150V167L383 156L370 167V150L355 147L367 137L360 122L376 126L383 111ZM440 178L447 193L463 189L456 204L468 214L453 217V233L440 223L427 234V217L412 214L424 204L417 189L433 193L440 178ZM318 200L325 215L341 211L334 226L346 236L331 239V255L318 245L305 256V239L290 236L302 226L295 211L311 215L318 200ZM383 356L390 371L406 367L399 382L411 392L396 395V412L383 401L370 412V395L355 392L367 382L360 367L376 371L383 356ZM0 0V32L32 64L0 96V256H32L64 224L96 256H128V173L211 256H256L248 240L256 225V211L173 128H256V96L224 64L256 32V0H96L64 32L32 0H0Z" fill="#EEEEEE"/>
<path d="M32 0V32H0V96H32V256H96V96H256V32H96V0H32ZM128 128L256 256V225L159 128H128Z" fill="#D80027"/>
</g>
</g>
<defs>
<clipPath id="clip0_1628_602">
<rect width="512" height="512" fill="white"/>
</clipPath>
</defs>
</svg>
