<svg width="512" height="512" viewBox="0 0 512 512" fill="none" xmlns="http://www.w3.org/2000/svg">
<g clip-path="url(#clip0_1628_610)">
<mask id="mask0_1628_610" style="mask-type:luminance" maskUnits="userSpaceOnUse" x="0" y="0" width="512" height="512">
<path d="M256 512C397.385 512 512 397.385 512 256C512 114.615 397.385 0 256 0C114.615 0 0 114.615 0 256C0 397.385 114.615 512 256 512Z" fill="white"/>
</mask>
<g mask="url(#mask0_1628_610)">
<path d="M0 322.798L253.6 304.398L512 322.798V356.198L254 371.498L0 356.198V322.798ZM0 389.598L257.2 375.798L512 389.598V422.998L259 439.898L0 422.998V389.598Z" fill="#FFDA44"/>
<path d="M0 0H512V322.8H0V0ZM0 356.2H512V389.6H0V356.2ZM0 423H512V512H0V423Z" fill="#338AF3"/>
<path d="M117.297 161.501L67.2969 139.401L117.297 117.401L139.297 67.3008L161.497 117.301L211.497 139.301L161.497 161.501L139.397 211.501L117.297 161.501Z" fill="#EEEEEE"/>
<path d="M139.397 94.8984L152.997 125.798L183.997 139.398L152.997 152.998L139.397 183.998L125.797 152.998L94.7969 139.398L125.797 125.798L139.397 94.8984Z" fill="#D80027"/>
</g>
</g>
<defs>
<clipPath id="clip0_1628_610">
<rect width="512" height="512" fill="white"/>
</clipPath>
</defs>
</svg>
