<svg width="512" height="512" viewBox="0 0 512 512" fill="none" xmlns="http://www.w3.org/2000/svg">
<g clip-path="url(#clip0_1628_627)">
<mask id="mask0_1628_627" style="mask-type:luminance" maskUnits="userSpaceOnUse" x="0" y="0" width="512" height="512">
<path d="M256 512C397.385 512 512 397.385 512 256C512 114.615 397.385 0 256 0C114.615 0 0 114.615 0 256C0 397.385 114.615 512 256 512Z" fill="white"/>
</mask>
<g mask="url(#mask0_1628_627)">
<path d="M0 166.902L253 135.102L512 166.902V344.902L254.5 382.302L0 345.002V166.902Z" fill="#D80027"/>
<path d="M0 0H512V166.9H0V0Z" fill="#338AF3"/>
<path d="M0 344.898H512V511.998H0V344.898Z" fill="#6DA544"/>
<path d="M261.604 328.202C250.616 328.171 239.781 325.637 229.92 320.791C220.059 315.946 211.432 308.917 204.694 300.238C197.957 291.559 193.286 281.459 191.036 270.704C188.787 259.95 189.018 248.824 191.712 238.173C194.406 227.521 199.493 217.623 206.585 209.232C213.677 200.84 222.589 194.176 232.643 189.744C242.696 185.312 253.628 183.23 264.607 183.656C275.586 184.082 286.323 187.005 296.004 192.202C283.477 179.959 267.616 171.685 250.409 168.416C233.201 165.146 215.411 167.027 199.267 173.823C183.124 180.619 169.344 192.027 159.655 206.618C149.965 221.21 144.797 238.336 144.797 255.852C144.797 273.367 149.965 290.493 159.655 305.085C169.344 319.677 183.124 331.085 199.267 337.88C215.411 344.676 233.201 346.557 250.409 343.288C267.616 340.018 283.477 331.744 296.004 319.502C285.442 325.226 273.617 328.217 261.604 328.202Z" fill="#EEEEEE"/>
<path d="M317.202 206L326.802 232.8L352.602 220.5L340.402 246.3L367.302 255.9L340.302 265.5L352.602 291.3L326.802 279L317.202 306L307.602 279L281.802 291.3L294.102 265.5L267.102 255.9L294.102 246.3L281.802 220.5L307.602 232.8L317.202 206Z" fill="#EEEEEE"/>
</g>
</g>
<defs>
<clipPath id="clip0_1628_627">
<rect width="512" height="512" fill="white"/>
</clipPath>
</defs>
</svg>
