<svg width="512" height="512" viewBox="0 0 512 512" fill="none" xmlns="http://www.w3.org/2000/svg">
<g clip-path="url(#clip0_1628_638)">
<mask id="mask0_1628_638" style="mask-type:luminance" maskUnits="userSpaceOnUse" x="0" y="0" width="512" height="512">
<path d="M256 512C397.385 512 512 397.385 512 256C512 114.615 397.385 0 256 0C114.615 0 0 114.615 0 256C0 397.385 114.615 512 256 512Z" fill="white"/>
</mask>
<g mask="url(#mask0_1628_638)">
<path d="M0 0H445.3L479.2 255L445.3 512L121.6 377.7L0 66.8V0Z" fill="#FFDA44"/>
<path d="M0 66.8008V512.001H445.4L0 66.8008Z" fill="#0052B4"/>
<path d="M445.297 0H511.997V512H445.297V0Z" fill="#0052B4"/>
<path d="M354.598 456.001L346.298 481.601H319.498L341.198 497.401L332.898 522.901L354.598 507.101L376.298 522.901L367.998 497.401L389.698 481.601H362.898L354.598 456.001ZM299.598 400.601L291.298 426.101H264.498L286.198 441.901L277.898 467.401L299.598 451.601L321.298 467.401L312.998 441.901L334.698 426.101H307.898L299.598 400.601ZM244.398 345.001L236.098 370.501H209.298L230.998 386.301L222.698 411.801L244.398 396.001L266.098 411.801L257.798 386.301L279.498 370.501H252.698L244.398 345.001ZM189.298 289.301L180.998 314.801H154.198L175.898 330.601L167.598 356.101L189.298 340.301L210.998 356.001L202.698 330.501L224.398 314.701H197.598L189.298 289.301ZM133.898 233.601L125.598 259.101H98.7984L120.498 274.901L112.198 300.401L133.898 284.601L155.598 300.401L147.298 274.901L168.998 259.001H142.198L133.898 233.601ZM78.6984 178.001L70.3984 203.501H43.5984L65.2984 219.301L56.9984 244.801L78.6984 229.001L100.398 244.801L92.0984 219.301L113.798 203.501H86.9984L78.6984 178.001ZM23.4984 122.301L15.1984 147.801H-11.6016L10.0984 163.601L1.79844 189.001L23.4984 173.201L45.1984 189.001L36.8984 163.501L58.5984 147.701H31.7984L23.4984 122.301Z" fill="#EEEEEE"/>
</g>
</g>
<defs>
<clipPath id="clip0_1628_638">
<rect width="512" height="512" fill="white"/>
</clipPath>
</defs>
</svg>
