<svg width="512" height="512" viewBox="0 0 512 512" fill="none" xmlns="http://www.w3.org/2000/svg">
<g clip-path="url(#clip0_1628_654)">
<mask id="mask0_1628_654" style="mask-type:luminance" maskUnits="userSpaceOnUse" x="0" y="0" width="512" height="512">
<path d="M256 512C397.385 512 512 397.385 512 256C512 114.615 397.385 0 256 0C114.615 0 0 114.615 0 256C0 397.385 114.615 512 256 512Z" fill="white"/>
</mask>
<g mask="url(#mask0_1628_654)">
<path d="M0 0H144.8L257.7 36.7L367.4 0H512V512H367.4L258.5 473.9L144.8 512H0V0Z" fill="#0052B4"/>
<path d="M144.797 0H367.397V512H144.797V0Z" fill="#FFDA44"/>
<path d="M334.097 155.802L348.897 163.302L333.997 155.802L318.997 148.402C318.197 150.202 298.697 189.802 295.497 250.402H272.797V155.802L256.097 133.602L239.397 155.802V250.402H216.697C215.354 215.215 207.346 180.602 193.097 148.402L163.297 163.302C163.497 163.702 183.797 205.002 183.797 267.102V283.802H239.397V378.402H272.797V283.802H328.397V267.102C328.397 235.102 333.997 208.502 338.697 192.002C343.697 174.002 348.897 163.402 348.997 163.302L333.997 155.802H334.097Z" fill="#333333"/>
</g>
</g>
<defs>
<clipPath id="clip0_1628_654">
<rect width="512" height="512" fill="white"/>
</clipPath>
</defs>
</svg>
