<svg width="512" height="512" viewBox="0 0 512 512" fill="none" xmlns="http://www.w3.org/2000/svg">
<g clip-path="url(#clip0_1628_670)">
<mask id="mask0_1628_670" style="mask-type:luminance" maskUnits="userSpaceOnUse" x="0" y="0" width="512" height="512">
<path d="M256 512C397.385 512 512 397.385 512 256C512 114.615 397.385 0 256 0C114.615 0 0 114.615 0 256C0 397.385 114.615 512 256 512Z" fill="white"/>
</mask>
<g mask="url(#mask0_1628_670)">
<path d="M0 0H512V256L256.8 304L0 256V0Z" fill="#D80027"/>
<path d="M0 256H512V512H0V256Z" fill="#6DA544"/>
<path d="M256.002 167L275.302 226.5H338.002L287.402 263.3L306.702 322.8L256.002 286L205.402 322.8L224.702 263.3L174.102 226.5H236.702L256.002 167Z" fill="#FFDA44"/>
</g>
</g>
<defs>
<clipPath id="clip0_1628_670">
<rect width="512" height="512" fill="white"/>
</clipPath>
</defs>
</svg>
