<svg width="512" height="512" viewBox="0 0 512 512" fill="none" xmlns="http://www.w3.org/2000/svg">
<g clip-path="url(#clip0_1628_693)">
<mask id="mask0_1628_693" style="mask-type:luminance" maskUnits="userSpaceOnUse" x="0" y="0" width="512" height="512">
<path d="M256 512C397.385 512 512 397.385 512 256C512 114.615 397.385 0 256 0C114.615 0 0 114.615 0 256C0 397.385 114.615 512 256 512Z" fill="white"/>
</mask>
<g mask="url(#mask0_1628_693)">
<path d="M0 0H47.2L254.7 30L464.8 0H512V47.2L477.4 256L512 464.8V512H464.8L255.7 476.2L47.2 512H0V464.8L32.8 262.1L0 47.2V0Z" fill="#EEEEEE"/>
<path d="M47.2031 0L256.003 208.8L464.803 0H47.2031ZM256.003 303.2L47.2031 512H464.803L256.003 303.2Z" fill="#D80027"/>
<path d="M0 47.1992V464.799L208.8 255.999L0 47.1992ZM512 47.1992L303.2 255.999L512 464.799V47.1992Z" fill="#6DA544"/>
<path d="M256.003 367.299C317.472 367.299 367.303 317.469 367.303 255.999C367.303 194.53 317.472 144.699 256.003 144.699C194.534 144.699 144.703 194.53 144.703 255.999C144.703 317.469 194.534 367.299 256.003 367.299Z" fill="#EEEEEE"/>
<path d="M256 178L265.6 194.8H285L275.4 211.5L285 228.2H265.7L256.1 244.9L246.5 228.2H227L236.6 211.5L227 194.8H246.3L256 178ZM207 256L216.6 272.7H236L226.4 289.4L236 306.1H216.7L207.1 322.8L197.5 306.1H178L187.6 289.4L178 272.7H197.3L207 256ZM305 256L314.6 272.7H334L324.4 289.4L334 306.1H314.7L305.1 322.8L295.5 306.1H276L285.6 289.4L276 272.7H295.3L305 256Z" fill="#D80027"/>
</g>
</g>
<defs>
<clipPath id="clip0_1628_693">
<rect width="512" height="512" fill="white"/>
</clipPath>
</defs>
</svg>
