<svg width="512" height="512" viewBox="0 0 512 512" fill="none" xmlns="http://www.w3.org/2000/svg">
<g clip-path="url(#clip0_1628_711)">
<mask id="mask0_1628_711" style="mask-type:luminance" maskUnits="userSpaceOnUse" x="0" y="0" width="512" height="512">
<path d="M256 512C397.385 512 512 397.385 512 256C512 114.615 397.385 0 256 0C114.615 0 0 114.615 0 256C0 397.385 114.615 512 256 512Z" fill="white"/>
</mask>
<g mask="url(#mask0_1628_711)">
<path d="M0 0H512V512H0V0Z" fill="#EEEEEE"/>
<path d="M167 178C159.574 178 152.452 180.95 147.201 186.201C141.95 191.452 139 198.574 139 206H55C55 213.426 57.95 220.548 63.201 225.799C68.452 231.05 75.5739 234 83 234C83 241.426 85.95 248.548 91.201 253.799C96.452 259.05 103.574 262 111 262C111 269.426 113.95 276.548 119.201 281.799C124.452 287.05 131.574 290 139 290H373C380.426 290 387.548 287.05 392.799 281.799C398.05 276.548 401 269.426 401 262C408.426 262 415.548 259.05 420.799 253.799C426.05 248.548 429 241.426 429 234C436.426 234 443.548 231.05 448.799 225.799C454.05 220.548 457 213.426 457 206H373C373 198.574 370.05 191.452 364.799 186.201C359.548 180.95 352.426 178 345 178H167Z" fill="#ACABB1"/>
<path d="M123 357H167V401H123V357ZM345 357H389V401H345V357ZM167 368H345V412H167V368ZM234 100V133.5L223 145L211 139V122H167V178L256 192L345 178V122H301V139L289 145L278 133.5V100H234Z" fill="#FFDA44"/>
<path d="M167 178V290C167 358 256 378.5 256 378.5C256 378.5 345 358.1 345 290V178H167Z" fill="#0052B4"/>
<path d="M167 222.102H345V291.102H167V222.102Z" fill="#D80027"/>
</g>
</g>
<defs>
<clipPath id="clip0_1628_711">
<rect width="512" height="512" fill="white"/>
</clipPath>
</defs>
</svg>
