<svg width="512" height="512" viewBox="0 0 512 512" fill="none" xmlns="http://www.w3.org/2000/svg">
<g clip-path="url(#clip0_1628_721)">
<mask id="mask0_1628_721" style="mask-type:luminance" maskUnits="userSpaceOnUse" x="0" y="0" width="512" height="512">
<path d="M256 512C397.385 512 512 397.385 512 256C512 114.615 397.385 0 256 0C114.615 0 0 114.615 0 256C0 397.385 114.615 512 256 512Z" fill="white"/>
</mask>
<g mask="url(#mask0_1628_721)">
<path d="M256 0H512V512H0V256L256 0Z" fill="#D80027"/>
<path d="M0 0H33.4L65.2 16.4L100.2 0H256V133.6L246.7 167.3L256 208.8V256H208.8L169.5 249L133.6 256.1L0 256V100.2L15.4 65.7L0 33.4V0Z" fill="#EEEEEE"/>
<path d="M267.002 235.5L165.002 133.5H133.602L267.002 267V235.5Z" fill="#D80027"/>
<path d="M33.4 0V33.4H0V100.2H33.4V270.8H100.2V100.2H270.4V33.4H100.2V0H33.4Z" fill="#D80027"/>
<path d="M180.802 133.602H256.002V208.802L180.802 133.602ZM133.602 180.802V256.102L208.802 256.002L133.602 180.802Z" fill="#0052B4"/>
<path d="M289.398 133.602V256.002C289.398 315.602 445.198 315.602 445.198 256.002V133.602H289.398Z" fill="#EEEEEE"/>
<path d="M289.397 256C289.397 315.6 367.297 334 367.297 334C367.297 334 445.297 315.6 445.297 256H289.297H289.397Z" fill="#6DA544"/>
<path d="M367.302 207L331.102 222.6V256L367.302 278.3L403.502 256V222.6L367.302 207Z" fill="#A2001D"/>
<path d="M331.1 189.199H403.5V222.599H331L331.1 189.199Z" fill="#338AF3"/>
</g>
</g>
<defs>
<clipPath id="clip0_1628_721">
<rect width="512" height="512" fill="white"/>
</clipPath>
</defs>
</svg>
