<svg width="512" height="512" viewBox="0 0 512 512" fill="none" xmlns="http://www.w3.org/2000/svg">
<g clip-path="url(#clip0_1628_735)">
<mask id="mask0_1628_735" style="mask-type:luminance" maskUnits="userSpaceOnUse" x="0" y="0" width="512" height="512">
<path d="M256 512C397.385 512 512 397.385 512 256C512 114.615 397.385 0 256 0C114.615 0 0 114.615 0 256C0 397.385 114.615 512 256 512Z" fill="white"/>
</mask>
<g mask="url(#mask0_1628_735)">
<path d="M0 0H512V326.7L492.7 403.2L512 480.9V512H0V185.2L21.4 108.7L0 31V0Z" fill="#FFDA44"/>
<path d="M0 31V148.2L512 443.9V326.7L0 31Z" fill="#EEEEEE"/>
<path d="M0 108.199V185.199L512 480.999V403.999L0 108.199Z" fill="#333333"/>
<path d="M328.295 228.201C328.265 239.188 325.731 250.024 320.885 259.885C316.04 269.746 309.011 278.373 300.332 285.11C291.653 291.848 281.553 296.519 270.798 298.768C260.044 301.018 248.918 300.786 238.266 298.092C227.615 295.398 217.717 290.311 209.326 283.219C200.934 276.127 194.269 267.215 189.838 257.162C185.406 247.108 183.324 236.176 183.75 225.197C184.176 214.219 187.098 203.481 192.295 193.801C180.053 206.327 171.779 222.188 168.509 239.396C165.24 256.604 167.121 274.394 173.917 290.537C180.712 306.681 192.12 320.46 206.712 330.15C221.304 339.839 238.43 345.008 255.945 345.008C273.461 345.008 290.587 339.839 305.179 330.15C319.77 320.46 331.178 306.681 337.974 290.537C344.77 274.394 346.651 256.604 343.381 239.396C340.112 222.188 331.838 206.327 319.595 193.801C325.32 204.362 328.311 216.188 328.295 228.201Z" fill="#D80027"/>
<path d="M239.297 144.699H272.697V311.699H239.297V144.699Z" fill="#D80027"/>
<path d="M311.594 178H200.394C200.394 185.8 206.994 192 214.694 192H214.294C214.294 195.696 215.755 199.242 218.359 201.864C220.963 204.487 224.498 205.974 228.194 206C228.246 209.661 229.73 213.156 232.329 215.736C234.927 218.315 238.432 219.774 242.094 219.8H269.894C273.59 219.8 277.135 218.339 279.758 215.735C282.381 213.131 283.867 209.596 283.894 205.9C287.555 205.848 291.05 204.363 293.629 201.765C296.209 199.167 297.668 195.661 297.694 192H297.294C304.894 192 311.594 185.8 311.594 178.1V178ZM178.094 322.9H333.894V356.3H178.094V322.9Z" fill="#D80027"/>
<path d="M289.397 333.898H356.197V367.298H289.397V333.898ZM155.797 333.898H222.597V367.298H155.797V333.898Z" fill="#D80027"/>
</g>
</g>
<defs>
<clipPath id="clip0_1628_735">
<rect width="512" height="512" fill="white"/>
</clipPath>
</defs>
</svg>
