<svg width="512" height="512" viewBox="0 0 512 512" fill="none" xmlns="http://www.w3.org/2000/svg">
<g clip-path="url(#clip0_1628_775)">
<mask id="mask0_1628_775" style="mask-type:luminance" maskUnits="userSpaceOnUse" x="0" y="0" width="512" height="512">
<path d="M256 512C397.385 512 512 397.385 512 256C512 114.615 397.385 0 256 0C114.615 0 0 114.615 0 256C0 397.385 114.615 512 256 512Z" fill="white"/>
</mask>
<g mask="url(#mask0_1628_775)">
<path d="M113.7 119.8L276 0H512V31.7L306 289.5L31.6 512H0V276L113.7 119.8Z" fill="#EEEEEE"/>
<path d="M0 0V276L276 0H0Z" fill="#FFDA44"/>
<path d="M512.003 31.6992L31.7031 511.999H512.003V31.6992Z" fill="#0052B4"/>
<path d="M255.002 245.699L277.102 233.699L255.102 221.699C252.547 205.377 244.876 190.288 233.194 178.607C221.512 166.925 206.423 159.254 190.102 156.699L178.102 134.699L166.102 156.699C149.78 159.254 134.691 166.925 123.009 178.607C111.327 190.288 103.656 205.377 101.102 221.699L79.1016 233.699L101.102 245.699C103.656 262.021 111.327 277.11 123.009 288.792C134.691 300.474 149.78 308.145 166.102 310.699L178.102 332.799L190.102 310.799C206.423 308.245 221.512 300.574 233.194 288.892C244.876 277.21 252.547 262.121 255.102 245.799L255.002 245.699ZM178.002 278.299C166.199 278.299 154.881 273.611 146.535 265.265C138.19 256.92 133.502 245.601 133.502 233.799C133.502 221.997 138.19 210.678 146.535 202.333C154.881 193.988 166.199 189.299 178.002 189.299C189.804 189.299 201.122 193.988 209.468 202.333C217.813 210.678 222.502 221.997 222.502 233.799C222.502 245.601 217.813 256.92 209.468 265.265C201.122 273.611 189.804 278.299 178.002 278.299Z" fill="#333333"/>
<path d="M178.003 200.301L187.703 217.001H207.003L197.403 233.701L207.003 250.401H187.703L178.103 267.101L168.403 250.401H149.203L158.803 233.701L149.203 217.001H168.403L178.003 200.301Z" fill="#D80027"/>
</g>
</g>
<defs>
<clipPath id="clip0_1628_775">
<rect width="512" height="512" fill="white"/>
</clipPath>
</defs>
</svg>
