<svg width="512" height="512" viewBox="0 0 512 512" fill="none" xmlns="http://www.w3.org/2000/svg">
<g clip-path="url(#clip0_1628_765)">
<mask id="mask0_1628_765" style="mask-type:luminance" maskUnits="userSpaceOnUse" x="0" y="0" width="512" height="512">
<path d="M256 512C397.385 512 512 397.385 512 256C512 114.615 397.385 0 256 0C114.615 0 0 114.615 0 256C0 397.385 114.615 512 256 512Z" fill="white"/>
</mask>
<g mask="url(#mask0_1628_765)">
<path d="M0 44.6L255.3 18L512 44.6V239.3L493.7 256L512 272.7V467.4L256.5 494.9L0 467.4V272.7L17.5 255.4L0 239.3V44.6Z" fill="#0052B4"/>
<path d="M100.203 256.102L256.003 158.102L411.803 256.102L256.003 354.102L100.203 256.102Z" fill="#EEEEEE"/>
<path d="M167 300.601H367.3L322.8 233.801L300.5 256.101L278.3 245.101L256 278.401H211.5L189.2 256.101L167 300.601Z" fill="#6DA544"/>
<path d="M256.002 189.301L261.502 206.301H279.502L264.902 216.801L270.502 233.801L256.002 223.301L241.502 233.801L247.102 216.801L232.602 206.301H250.502L256.002 189.301Z" fill="#FFDA44"/>
<path d="M0 0V44.6H239.4V140.6L82.4 239.3H0V272.7H82L239.3 371.7V467.4H0V512H512V467.4H272.7V371.6L430 272.7H512V239.3H429.6L272.7 140.7V44.7H512V0H0ZM256 169.6L393.6 256.1L256 342.6L118.4 256.1L256 169.6Z" fill="#D80027"/>
</g>
</g>
<defs>
<clipPath id="clip0_1628_765">
<rect width="512" height="512" fill="white"/>
</clipPath>
</defs>
</svg>
