<svg width="512" height="512" viewBox="0 0 512 512" fill="none" xmlns="http://www.w3.org/2000/svg">
<g clip-path="url(#clip0_1628_803)">
<mask id="mask0_1628_803" style="mask-type:luminance" maskUnits="userSpaceOnUse" x="0" y="0" width="512" height="512">
<path d="M256 512C397.385 512 512 397.385 512 256C512 114.615 397.385 0 256 0C114.615 0 0 114.615 0 256C0 397.385 114.615 512 256 512Z" fill="white"/>
</mask>
<g mask="url(#mask0_1628_803)">
<path d="M0 0H512V512H0V0Z" fill="#6DA544"/>
<path d="M256 100.199L467.5 255.999L256 411.799L44.5 255.999L256 100.199Z" fill="#FFDA44"/>
<path d="M174.199 220.998C169.224 232.442 166.768 244.822 166.999 257.298L328.999 307.098C336.136 296.903 341.043 285.318 343.399 273.098C302.799 207.798 223.699 192.798 174.299 221.098L174.199 220.998Z" fill="#EEEEEE"/>
<path d="M255.7 167C241.075 167.037 226.684 170.678 213.8 177.6C196.068 187.168 182.107 202.468 174.2 221C204.499 214.567 235.939 215.985 265.535 225.121C295.131 234.258 321.9 250.808 343.3 273.2C347.275 252.956 344.094 231.959 334.3 213.8C326.661 199.616 315.315 187.771 301.473 179.529C287.631 171.287 271.81 166.957 255.7 167ZM212 250.5C196.74 250.449 181.563 252.743 167 257.3C167.168 271.579 170.77 285.607 177.5 298.2C183.038 308.499 190.552 317.606 199.611 325C208.671 332.394 219.098 337.93 230.298 341.292C241.498 344.654 253.251 345.775 264.885 344.593C276.519 343.41 287.805 339.947 298.1 334.4C310.322 327.819 320.836 318.47 328.8 307.1C314.764 289.576 296.997 275.402 276.791 265.611C256.586 255.82 234.452 250.658 212 250.5Z" fill="#0052B4"/>
</g>
</g>
<defs>
<clipPath id="clip0_1628_803">
<rect width="512" height="512" fill="white"/>
</clipPath>
</defs>
</svg>
