<svg width="512" height="512" viewBox="0 0 512 512" fill="none" xmlns="http://www.w3.org/2000/svg">
<g clip-path="url(#clip0_1628_812)">
<mask id="mask0_1628_812" style="mask-type:luminance" maskUnits="userSpaceOnUse" x="0" y="0" width="512" height="512">
<path d="M256 512C397.385 512 512 397.385 512 256C512 114.615 397.385 0 256 0C114.615 0 0 114.615 0 256C0 397.385 114.615 512 256 512Z" fill="white"/>
</mask>
<g mask="url(#mask0_1628_812)">
<path d="M0 0H512L281 293.2L0 512V0Z" fill="#FFDA44"/>
<path d="M506.7 0L0 506.7V512H512V0H506.7Z" fill="#FF9811"/>
<path d="M398.202 141.999V97.6992H312.902L306.402 104.199C283.202 127.399 287.102 154.399 289.902 174.199C292.602 192.499 292.902 199.499 286.102 206.199C279.302 213.199 272.102 212.799 253.902 210.199C234.202 207.199 207.102 203.399 183.902 226.599C160.702 249.799 164.602 276.899 167.502 296.599C170.102 314.899 170.502 321.999 163.502 328.799C156.802 335.599 149.802 335.299 131.502 332.599C124.302 331.599 117.002 330.599 109.102 330.399L108.602 374.999C113.602 374.999 119.202 375.799 125.102 376.699C132.102 377.699 140.102 378.899 148.602 378.899C157.302 378.899 166.602 377.599 175.602 373.699V409.299H242.402V375.899H209.002V353.699H231.302V320.299H213.302C214.202 309.499 212.702 299.099 211.302 290.299C208.802 271.899 208.302 264.899 215.302 258.099C222.102 251.299 229.102 251.599 247.502 254.299C261.802 256.299 280.102 258.999 297.902 251.299V286.899H364.702V253.499H331.402V230.999H353.702V197.599H335.902C336.397 187.556 335.726 177.488 333.902 167.599C332.102 154.799 331.402 147.599 333.502 141.999H398.202Z" fill="#EEEEEE"/>
</g>
</g>
<defs>
<clipPath id="clip0_1628_812">
<rect width="512" height="512" fill="white"/>
</clipPath>
</defs>
</svg>
