<svg width="512" height="512" viewBox="0 0 512 512" fill="none" xmlns="http://www.w3.org/2000/svg">
<g clip-path="url(#clip0_1628_828)">
<mask id="mask0_1628_828" style="mask-type:luminance" maskUnits="userSpaceOnUse" x="0" y="0" width="512" height="512">
<path d="M256 512C397.385 512 512 397.385 512 256C512 114.615 397.385 0 256 0C114.615 0 0 114.615 0 256C0 397.385 114.615 512 256 512Z" fill="white"/>
</mask>
<g mask="url(#mask0_1628_828)">
<path d="M0 0H512V178L481 254.9L512 334V512H0V334L37 253.3L0 178V0Z" fill="#338AF3"/>
<path d="M0 211.501L256 192.301L512 211.501V300.501L257.4 321.201L0 300.501V211.501Z" fill="#333333"/>
<path d="M0 178H512V211.5H0V178ZM0 300.5H512V334H0V300.5Z" fill="#EEEEEE"/>
</g>
</g>
<defs>
<clipPath id="clip0_1628_828">
<rect width="512" height="512" fill="white"/>
</clipPath>
</defs>
</svg>
