<svg width="512" height="512" viewBox="0 0 512 512" fill="none" xmlns="http://www.w3.org/2000/svg">
<g clip-path="url(#clip0_1628_836)">
<mask id="mask0_1628_836" style="mask-type:luminance" maskUnits="userSpaceOnUse" x="0" y="0" width="512" height="512">
<path d="M256 512C397.385 512 512 397.385 512 256C512 114.615 397.385 0 256 0C114.615 0 0 114.615 0 256C0 397.385 114.615 512 256 512Z" fill="white"/>
</mask>
<g mask="url(#mask0_1628_836)">
<path d="M0 0H155.8L190.8 254.6L155.8 512H0V0Z" fill="#EEEEEE"/>
<path d="M155.797 0H511.997V345.1L328.997 382.5L155.797 345.1V0Z" fill="#A2001D"/>
<path d="M155.797 345.102H511.997V512.002H155.797V345.102Z" fill="#6DA544"/>
<path d="M49.9969 0.199219L22.2969 49.9992L50.0969 100.399L77.8969 49.9992L49.9969 0.199219ZM105.797 0.199219L77.9969 49.9992L105.697 100.399L133.697 49.9992L105.797 0.199219ZM49.9969 137.499L22.2969 187.099L50.0969 237.599L77.7969 187.099L49.9969 137.499ZM105.797 137.499L77.9969 187.099L105.697 237.599L133.697 187.099L105.797 137.499ZM49.9969 274.699L22.2969 324.399L50.0969 374.799L77.8969 324.399L49.9969 274.699ZM105.797 274.699L77.9969 324.399L105.697 374.799L133.697 324.399L105.797 274.699ZM49.9969 411.999L22.2969 461.599L50.0969 512.099L77.7969 461.599L49.9969 411.999ZM105.797 411.999L77.9969 461.599L105.697 512.099L133.697 461.599L105.797 411.999Z" fill="#A2001D"/>
</g>
</g>
<defs>
<clipPath id="clip0_1628_836">
<rect width="512" height="512" fill="white"/>
</clipPath>
</defs>
</svg>
