<svg width="512" height="512" viewBox="0 0 512 512" fill="none" xmlns="http://www.w3.org/2000/svg">
<g clip-path="url(#clip0_1628_845)">
<mask id="mask0_1628_845" style="mask-type:luminance" maskUnits="userSpaceOnUse" x="0" y="0" width="512" height="512">
<path d="M256 512C397.385 512 512 397.385 512 256C512 114.615 397.385 0 256 0C114.615 0 0 114.615 0 256C0 397.385 114.615 512 256 512Z" fill="white"/>
</mask>
<g mask="url(#mask0_1628_845)">
<path d="M0 44.5008L257.8 20.8008L512 44.5008V467.501L259.5 493.501L0 467.501V44.5008Z" fill="#0052B4"/>
<path d="M256.002 378.402C323.601 378.402 378.402 323.601 378.402 256.002C378.402 188.402 323.601 133.602 256.002 133.602C188.402 133.602 133.602 188.402 133.602 256.002C133.602 323.601 188.402 378.402 256.002 378.402Z" fill="#EEEEEE"/>
<path d="M255.997 356.201C311.336 356.201 356.197 311.34 356.197 256.001C356.197 200.662 311.336 155.801 255.997 155.801C200.658 155.801 155.797 200.662 155.797 256.001C155.797 311.34 200.658 356.201 255.997 356.201Z" fill="#6DA544"/>
<path d="M256.003 322.799C292.896 322.799 322.803 292.892 322.803 255.999C322.803 219.107 292.896 189.199 256.003 189.199C219.111 189.199 189.203 219.107 189.203 255.999C189.203 292.892 219.111 322.799 256.003 322.799Z" fill="#EEEEEE"/>
<path d="M255.997 239.301L219.797 256.001V283.801L255.997 306.101L292.197 283.801V256.001L255.997 239.301Z" fill="#0052B4"/>
<path d="M219.797 222.602H292.197V256.002H219.797V222.602Z" fill="#FFDA44"/>
<path d="M0 0H512V44.5H0V0ZM0 467.5H512V512H0V467.5Z" fill="#A2001D"/>
</g>
</g>
<defs>
<clipPath id="clip0_1628_845">
<rect width="512" height="512" fill="white"/>
</clipPath>
</defs>
</svg>
