<svg width="512" height="512" viewBox="0 0 512 512" fill="none" xmlns="http://www.w3.org/2000/svg">
<g clip-path="url(#clip0_1628_857)">
<mask id="mask0_1628_857" style="mask-type:luminance" maskUnits="userSpaceOnUse" x="0" y="0" width="512" height="512">
<path d="M256 512C397.385 512 512 397.385 512 256C512 114.615 397.385 0 256 0C114.615 0 0 114.615 0 256C0 397.385 114.615 512 256 512Z" fill="white"/>
</mask>
<g mask="url(#mask0_1628_857)">
<path d="M0 61.2L80.7 0H96.7L115.2 6L128.1 0H222.7L256.5 19.2L289.5 0H352.6L364.5 7.3L384 0H431.2L512 61.2V94.6L491.3 128L512 161.4V194.8L490 224.5L512 256V269.1L502.3 288.1L512 303.4V335.7L499.3 355.5L512 370V402.8L483.6 459.8L37.4 458.8L0.1 402.8V370L13.5 356.3L0 335.7V303.4L14.2 289.2L0 269V256L27.4 225.4L0 194.8V161.4L25.5 127.9L0 94.6V61.2Z" fill="#EEEEEE"/>
<path d="M0 0V61.2H142.1L80.7 0H0ZM431.3 0L370.1 61.2H512V0H431.3ZM0 194.8V256H80.9L142.1 194.8H0ZM370.1 194.8L431.3 256H512V194.8H370.1ZM189.3 242L175.3 256H189.3V242ZM322.9 242V256H336.9L322.9 242ZM0 269.1V303.4H0.1C21.4 303.4 21.4 322.9 42.7 322.9C64.1 322.9 64.1 303.4 85.4 303.4C106.7 303.4 106.7 322.9 128.1 322.9C149.5 322.9 149.4 303.4 170.7 303.4C192.1 303.4 192.1 322.9 213.4 322.9C234.7 322.9 234.7 303.4 256.1 303.4C277.5 303.4 277.5 322.9 298.8 322.9C320.1 322.9 320.1 303.4 341.5 303.4C362.8 303.4 362.8 322.9 384.1 322.9C405.5 322.9 405.5 303.4 426.8 303.4C448.1 303.4 448.1 322.9 469.5 322.9C490.9 322.9 490.8 303.5 512 303.4V269.1C490.8 269.1 490.8 288.6 469.5 288.6C448.2 288.6 448.1 269.1 426.8 269.1C405.5 269.1 405.5 288.6 384.1 288.6C362.8 288.6 362.8 269.1 341.5 269.1C320.1 269.1 320.1 288.6 298.8 288.6C277.5 288.6 277.5 269.1 256.1 269.1C234.7 269.1 234.7 288.6 213.4 288.6C192.1 288.6 192.1 269.1 170.7 269.1C149.4 269.1 149.4 288.6 128.1 288.6C106.8 288.6 106.7 269.1 85.4 269.1C64.1 269.1 64.1 288.6 42.7 288.6C21.4 288.6 21.4 269.1 0.1 269.1H0ZM0 335.7V370H0.1C21.5 370 21.5 389.5 42.8 389.5C64.1 389.5 64.1 370 85.5 370C106.8 370 106.8 389.5 128.1 389.5C149.5 389.5 149.5 370 170.8 370C192.1 370 192.1 389.5 213.5 389.5C234.9 389.5 234.8 370 256.1 370C277.5 370 277.5 389.5 298.8 389.5C320.1 389.5 320.1 370 341.5 370C362.9 370 362.9 389.5 384.2 389.5C405.5 389.5 405.5 370 426.9 370C448.2 370 448.2 389.5 469.5 389.5C490.8 389.5 490.9 370.1 512 370V335.7C490.9 335.8 490.8 355.2 469.5 355.2C448.2 355.2 448.2 335.7 426.9 335.7C405.5 335.7 405.5 355.2 384.2 355.2C362.9 355.2 362.9 335.7 341.5 335.7C320.1 335.7 320.1 355.2 298.8 355.2C277.5 355.2 277.5 335.7 256.1 335.7C234.8 335.7 234.8 355.2 213.5 355.2C192.2 355.2 192.1 335.7 170.8 335.7C149.5 335.7 149.5 355.2 128.1 355.2C106.8 355.2 106.8 335.7 85.5 335.7C64.1 335.7 64.1 355.2 42.8 355.2C21.5 355.2 21.5 335.7 0.1 335.7H0ZM0 402.8V512H92.6L260.7 490.7L419.4 512H512V402.8C490.8 402.8 490.8 422.3 469.5 422.3C448.2 422.3 448.1 402.8 426.8 402.8C405.5 402.8 405.5 422.3 384.1 422.3C362.8 422.3 362.8 402.8 341.5 402.8C320.1 402.8 320.1 422.3 298.8 422.3C277.5 422.3 277.5 402.8 256.1 402.8C234.7 402.8 234.7 422.3 213.4 422.3C192.1 422.3 192.1 402.8 170.7 402.8C149.4 402.8 149.4 422.3 128.1 422.3C106.8 422.3 106.7 402.8 85.4 402.8C64.1 402.8 64.1 422.3 42.7 422.3C21.4 422.3 21.4 402.8 0.1 402.8H0Z" fill="#0052B4"/>
<path d="M96.7 0L157.9 61.2H189.3L128.1 0H96.7ZM222.7 0V94.6H0V161.4H222.6V256H289.4V161.4H512V94.6H289.5V0H222.7ZM352.6 0L322.9 29.7V61.2L384.1 0H352.6ZM189.4 194.8L128.1 256H159.6L189.4 226.3V194.8ZM322.9 194.8L384.1 256H415.6L354.4 194.8H322.9Z" fill="#D80027"/>
<path d="M201.902 345L191.902 423.7L114.102 408.8L151.802 477.5C130.674 486.422 110.779 498.016 92.6016 512H419.402C401.287 498.031 381.459 486.437 360.402 477.5L398.102 408.8L320.202 423.8L310.302 345L256.102 403L201.902 345Z" fill="#FFDA44"/>
</g>
</g>
<defs>
<clipPath id="clip0_1628_857">
<rect width="512" height="512" fill="white"/>
</clipPath>
</defs>
</svg>
