<svg width="512" height="512" viewBox="0 0 512 512" fill="none" xmlns="http://www.w3.org/2000/svg">
<g clip-path="url(#clip0_1628_873)">
<mask id="mask0_1628_873" style="mask-type:luminance" maskUnits="userSpaceOnUse" x="0" y="0" width="512" height="512">
<path d="M256 512C397.385 512 512 397.385 512 256C512 114.615 397.385 0 256 0C114.615 0 0 114.615 0 256C0 397.385 114.615 512 256 512Z" fill="white"/>
</mask>
<g mask="url(#mask0_1628_873)">
<path d="M0 0V512H144L256 448L368 512H512V0H368L256 64L144 0H0Z" fill="#D80027"/>
<path d="M144 0H368V512H144V0Z" fill="#EEEEEE"/>
<path d="M301 289L345 267L323 256V234L278 256L301 212H278L256 178L234 211H211L234 256L189 234V256L167 267L212 289L200 312H245V345H267V312H312L301 289Z" fill="#D80027"/>
</g>
</g>
<defs>
<clipPath id="clip0_1628_873">
<rect width="512" height="512" fill="white"/>
</clipPath>
</defs>
</svg>
