<svg width="512" height="512" viewBox="0 0 512 512" fill="none" xmlns="http://www.w3.org/2000/svg">
<g clip-path="url(#clip0_1628_881)">
<mask id="mask0_1628_881" style="mask-type:luminance" maskUnits="userSpaceOnUse" x="0" y="0" width="512" height="512">
<path d="M256 512C397.385 512 512 397.385 512 256C512 114.615 397.385 0 256 0C114.615 0 0 114.615 0 256C0 397.385 114.615 512 256 512Z" fill="white"/>
</mask>
<g mask="url(#mask0_1628_881)">
<path d="M0 0H512V512H0V0Z" fill="#6DA544"/>
<path d="M393.002 367.3L400.002 382L415.902 378.3L408.802 393L421.502 403L405.602 406.7V423L393.002 412.8L380.302 423V406.7L364.402 403.1L377.202 393L370.102 378.3L386.002 382L393.002 367.3ZM327.602 211.5L334.602 226.2L350.602 222.5L343.402 237.2L356.202 247.2L340.202 250.8L340.302 267.1L327.602 256.9L314.902 267.1V250.8L299.102 247.3L311.802 237.2L304.802 222.5L320.602 226.2L327.602 211.5ZM393.002 122.5L400.002 137.1L415.902 133.5L408.802 148.1L421.502 158.2L405.602 161.8V178.1L393.002 167.9L380.302 178.1V161.8L364.402 158.2L377.202 148.2L370.102 133.5L386.002 137L393.002 122.5ZM450.002 189.2L457.002 203.9L473.002 200.2L465.902 214.9L478.602 225L462.702 228.6V244.9L450.102 234.7L437.402 244.9V228.6L421.502 225L434.302 214.9L427.202 200.2L443.002 204L450.002 189.2ZM409.202 267.2L414.802 284.2H432.702L418.202 294.6L423.702 311.6L409.202 301.1L394.802 311.7L400.302 294.7L385.802 284.1H403.802L409.202 267.2Z" fill="#FFDA44"/>
<path d="M283.799 328.3C272.811 328.27 261.976 325.735 252.115 320.89C242.254 316.045 233.627 309.015 226.889 300.337C220.152 291.658 215.481 281.557 213.231 270.803C210.982 260.049 211.213 248.923 213.907 238.271C216.601 227.62 221.688 217.722 228.78 209.331C235.872 200.939 244.784 194.274 254.838 189.843C264.891 185.411 275.823 183.329 286.802 183.755C297.781 184.181 308.518 187.103 318.199 192.3C305.672 180.058 289.811 171.784 272.603 168.514C255.396 165.245 237.606 167.126 221.462 173.922C205.318 180.717 191.539 192.125 181.85 206.717C172.16 221.308 166.992 238.435 166.992 255.95C166.992 273.466 172.16 290.592 181.85 305.184C191.539 319.775 205.318 331.183 221.462 337.979C237.606 344.774 255.396 346.655 272.603 343.386C289.811 340.117 305.672 331.843 318.199 319.6C307.637 325.325 295.811 328.315 283.799 328.3ZM160.999 100.2C157.094 93.4298 151.476 87.807 144.709 83.8975C137.942 79.988 130.264 77.9297 122.449 77.9297C114.633 77.9297 106.956 79.988 100.188 83.8975C93.4209 87.807 87.8026 93.4298 83.8985 100.2H160.899H160.999ZM161.099 100.4L122.399 139.1L83.6985 100.4C79.8829 107.104 77.8836 114.687 77.8985 122.4C77.8985 128.244 79.0495 134.031 81.2859 139.43C83.5222 144.829 86.8001 149.734 90.9323 153.867C95.0645 157.999 99.9701 161.277 105.369 163.513C110.768 165.749 116.555 166.9 122.399 166.9C128.242 166.9 134.029 165.749 139.428 163.513C144.827 161.277 149.733 157.999 153.865 153.867C157.997 149.734 161.275 144.829 163.511 139.43C165.747 134.031 166.899 128.244 166.899 122.4C166.913 114.687 164.914 107.104 161.099 100.4Z" fill="#FFDA44"/>
<path d="M111.297 128V165.6C114.923 166.531 118.653 167.001 122.397 167C126.297 167 129.997 166.5 133.597 165.6V128H111.297Z" fill="#A2001D"/>
</g>
</g>
<defs>
<clipPath id="clip0_1628_881">
<rect width="512" height="512" fill="white"/>
</clipPath>
</defs>
</svg>
