<svg width="512" height="512" viewBox="0 0 512 512" fill="none" xmlns="http://www.w3.org/2000/svg">
<g clip-path="url(#clip0_1628_944)">
<mask id="mask0_1628_944" style="mask-type:luminance" maskUnits="userSpaceOnUse" x="0" y="0" width="512" height="512">
<path d="M256 512C397.385 512 512 397.385 512 256C512 114.615 397.385 0 256 0C114.615 0 0 114.615 0 256C0 397.385 114.615 512 256 512Z" fill="white"/>
</mask>
<g mask="url(#mask0_1628_944)">
<path d="M256 0H512V512H0V256L256 0Z" fill="#0052B4"/>
<path d="M0 0V32L32 64L0 96V256H32L64 224L96 256H128V173L211 256H256L248 240L256 225V211L173 128H256V96L224 64L256 32V0H96L64 32L32 0H0Z" fill="#EEEEEE"/>
<path d="M32 0V32H0V96H32V256H96V96H256V32H96V0H32ZM128 128L256 256V225L159 128H128Z" fill="#D80027"/>
<path d="M345 256L349.8 270.6H365L352.6 279.6L357.3 294.2L344.9 285.2L332.5 294.2L337.3 279.6L324.9 270.6H340.2L345 256ZM282 282L295.7 289L306.6 278.2L304.2 293.3L317.8 300.3L302.7 302.7L300.3 317.8L293.3 304.2L278.2 306.6L289 295.7L282 282ZM256 345L270.6 340.3V325L279.6 337.4L294.2 332.6L285.2 345L294.2 357.4L279.6 352.7L270.6 365.1V349.8L256 345ZM282 408L289 394.4L278.2 383.5L293.3 385.9L300.3 372.3L302.7 387.3L317.8 389.8L304.2 396.8L306.6 411.8L295.7 401L282 408ZM345 434L340.3 419.5H325L337.4 410.5L332.6 395.9L345 404.9L357.4 395.9L352.7 410.5L365.1 419.5H349.8L345 434ZM408 408L394.4 401L383.5 411.9L385.9 396.7L372.3 389.7L387.3 387.4L389.8 372.3L396.8 385.9L411.8 383.5L401 394.4L408 408ZM434 345L419.5 349.8V365L410.5 352.6L395.9 357.3L404.9 344.9L395.9 332.5L410.5 337.3L419.5 324.9V340.2L434 345ZM408 282L401 295.7L411.9 306.6L396.7 304.2L389.7 317.8L387.4 302.7L372.3 300.3L385.9 293.3L383.5 278.2L394.4 289L408 282Z" fill="#EEEEEE"/>
</g>
</g>
<defs>
<clipPath id="clip0_1628_944">
<rect width="512" height="512" fill="white"/>
</clipPath>
</defs>
</svg>
