<svg width="512" height="512" viewBox="0 0 512 512" fill="none" xmlns="http://www.w3.org/2000/svg">
<g clip-path="url(#clip0_1628_970)">
<mask id="mask0_1628_970" style="mask-type:luminance" maskUnits="userSpaceOnUse" x="0" y="0" width="512" height="512">
<path d="M256 512C397.385 512 512 397.385 512 256C512 114.615 397.385 0 256 0C114.615 0 0 114.615 0 256C0 397.385 114.615 512 256 512Z" fill="white"/>
</mask>
<g mask="url(#mask0_1628_970)">
<path d="M0 0H512V512H0V0Z" fill="#D80027"/>
<path d="M282.397 193.7C276.597 217.9 266.297 213.3 261.197 234.4C247.094 230.711 234.999 221.64 227.508 209.135C220.017 196.629 217.728 181.685 221.131 167.51C224.534 153.335 233.358 141.059 245.71 133.317C258.062 125.575 272.957 122.984 287.197 126.1C277.097 168.3 287.597 172.1 282.397 193.7ZM204.997 211.6C226.197 224.6 218.597 233 237.097 244.4C229.113 256.406 216.785 264.849 202.704 267.952C188.623 271.055 173.887 268.578 161.596 261.04C149.305 253.502 140.415 241.491 136.798 227.533C133.18 213.576 135.115 198.76 142.197 186.2C179.197 208.9 185.997 200 204.997 211.6ZM197.997 290.9C216.997 274.7 222.697 284.5 239.197 270.5C248.032 281.817 252.155 296.109 250.707 310.393C249.258 324.676 242.35 337.849 231.424 347.163C220.498 356.477 206.397 361.212 192.064 360.38C177.731 359.549 164.273 353.215 154.497 342.7C187.497 314.5 181.097 305.3 198.097 290.9H197.997ZM271.397 321.9C261.797 298.9 272.897 296.6 264.597 276.6C278.069 271.745 292.893 272.265 305.991 278.052C319.09 283.839 329.456 294.449 334.938 307.678C340.42 320.906 340.596 335.739 335.431 349.094C330.265 362.45 320.154 373.303 307.197 379.4C290.597 339.4 279.897 342.5 271.397 322V321.9ZM323.597 261.9C298.697 263.9 299.897 252.6 278.297 254.3C277.639 239.858 282.623 225.726 292.194 214.89C301.765 204.055 315.174 197.366 329.587 196.236C344 195.106 358.288 199.625 369.43 208.837C380.573 218.048 387.697 231.232 389.297 245.6C345.997 249 345.697 260.1 323.597 261.9Z" fill="#EEEEEE"/>
</g>
</g>
<defs>
<clipPath id="clip0_1628_970">
<rect width="512" height="512" fill="white"/>
</clipPath>
</defs>
</svg>
