<svg width="512" height="512" viewBox="0 0 512 512" fill="none" xmlns="http://www.w3.org/2000/svg">
<g clip-path="url(#clip0_1628_977)">
<mask id="mask0_1628_977" style="mask-type:luminance" maskUnits="userSpaceOnUse" x="0" y="0" width="512" height="512">
<path d="M256 512C397.385 512 512 397.385 512 256C512 114.615 397.385 0 256 0C114.615 0 0 114.615 0 256C0 397.385 114.615 512 256 512Z" fill="white"/>
</mask>
<g mask="url(#mask0_1628_977)">
<path d="M0 0H512V512H0V0Z" fill="#338AF3"/>
<path d="M312.003 256L428.003 218L356.003 317V195L428.003 294L312.003 256ZM320.003 325C305.165 348.423 283.122 366.394 257.191 376.21C231.26 386.026 202.842 387.157 176.213 379.432C149.584 371.707 126.183 355.544 109.531 333.374C92.8783 311.205 83.875 284.227 83.875 256.5C83.875 228.773 92.8783 201.796 109.531 179.626C126.183 157.456 149.584 141.293 176.213 133.568C202.842 125.843 231.26 126.974 257.191 136.79C283.122 146.606 305.165 164.577 320.003 188C306.169 172.736 288.037 162.02 267.994 157.26C247.951 152.5 226.937 153.921 207.717 161.335C188.498 168.749 171.973 181.809 160.319 198.796C148.665 215.782 142.427 235.9 142.427 256.5C142.427 277.1 148.665 297.218 160.319 314.204C171.973 331.191 188.498 344.251 207.717 351.665C226.937 359.079 247.951 360.5 267.994 355.74C288.037 350.98 306.169 340.264 320.003 325Z" fill="#EEEEEE"/>
</g>
</g>
<defs>
<clipPath id="clip0_1628_977">
<rect width="512" height="512" fill="white"/>
</clipPath>
</defs>
</svg>
