<svg width="512" height="512" viewBox="0 0 512 512" fill="none" xmlns="http://www.w3.org/2000/svg">
<g clip-path="url(#clip0_1628_984)">
<mask id="mask0_1628_984" style="mask-type:luminance" maskUnits="userSpaceOnUse" x="0" y="0" width="512" height="512">
<path d="M256 512C397.385 512 512 397.385 512 256C512 114.615 397.385 0 256 0C114.615 0 0 114.615 0 256C0 397.385 114.615 512 256 512Z" fill="white"/>
</mask>
<g mask="url(#mask0_1628_984)">
<path d="M0 0H512V512H0V0Z" fill="#D80027"/>
<path d="M140.1 155.798L162.2 223.798H233.7L175.9 265.898L198 333.898L140.1 291.898L82.2 333.898L104.4 265.898L46.5 223.798H118L140.1 155.798ZM303.5 396.498L286.6 375.698L261.6 385.398L276.1 362.898L259.2 341.998L285.1 348.898L299.7 326.398L301.1 353.198L327.1 360.098L302 369.698L303.5 396.498ZM337.1 335.498L345.1 309.898L323.2 294.398L350 293.998L357.9 268.398L366.6 293.798L393.4 293.498L371.9 309.498L380.5 334.898L358.6 319.398L337.1 335.498ZM382.4 187.898L370.6 211.998L389.8 230.698L363.3 226.898L351.5 250.898L346.9 224.498L320.3 220.698L344.1 208.198L339.5 181.698L358.7 200.398L382.4 187.898ZM304.2 114.898L302.2 141.598L327.1 151.698L301 158.098L299.1 184.898L285 162.098L258.9 168.498L276.2 147.998L262 125.298L286.9 135.398L304.2 114.898Z" fill="#FFDA44"/>
</g>
</g>
<defs>
<clipPath id="clip0_1628_984">
<rect width="512" height="512" fill="white"/>
</clipPath>
</defs>
</svg>
