<svg width="512" height="512" viewBox="0 0 512 512" fill="none" xmlns="http://www.w3.org/2000/svg">
<g clip-path="url(#clip0_1628_1020)">
<mask id="mask0_1628_1020" style="mask-type:luminance" maskUnits="userSpaceOnUse" x="0" y="0" width="512" height="512">
<path d="M256 512C397.385 512 512 397.385 512 256C512 114.615 397.385 0 256 0C114.615 0 0 114.615 0 256C0 397.385 114.615 512 256 512Z" fill="white"/>
</mask>
<g mask="url(#mask0_1628_1020)">
<path d="M304 0H512V208L480 256L512 304V512H304L256 480L208 512H0V304L304 0Z" fill="#EEEEEE"/>
<path d="M0 0V304H208V512H304V304H512V208H304V0H0Z" fill="#D80027"/>
<path d="M120 27C113.9 27 108.05 29.4232 103.737 33.7365C99.4232 38.0499 97 43.9 97 50V66H88V57C88 47 80 39 70 39C68 39 66 41 66 43V85C66 87 68 89 70 89H97C96.8646 91.8407 97.3076 94.6794 98.3021 97.3438C99.2967 100.008 100.822 102.443 102.786 104.5C104.749 106.557 107.11 108.194 109.726 109.311C112.341 110.429 115.156 111.003 118 111V120H110C99 120 91 128 91 138C91 141 93 143 96 143H137C140 143 142 141 142 138V110H199V119H190C180 119 172 127 172 137C172 139 174 141 176 141H218C220 141 222 139 222 137V82C231 82 238 75 238 66C238 57 231 50 222 50H168C165 50 163 48 163 45C163 42 165 39 168 39H222V29H168C160 29 152 36 152 45C152 53 160 61 168 61H222C225 61 228 63 228 66C228 69 225 71 222 71H164C152 71 142 62 142 50C142.006 44.0694 139.72 38.3658 135.621 34.0801C131.521 29.7944 125.925 27.2579 120 27ZM120 162C113.9 162 108.05 164.423 103.737 168.737C99.4232 173.05 97 178.9 97 185V201H88V192C88 182 80 174 70 174C68 174 66 176 66 178V220C66 222 68 224 70 224H97C96.8646 226.841 97.3076 229.679 98.3021 232.344C99.2967 235.008 100.822 237.443 102.786 239.5C104.749 241.557 107.11 243.194 109.726 244.311C112.341 245.429 115.156 246.003 118 246V255H110C99 255 91 263 91 273C91 276 93 278 96 278H137C140 278 142 276 142 273V245H199V254H190C180 254 172 262 172 272C172 274 174 276 176 276H218C220 276 222 274 222 272V217C231 217 238 210 238 201C238 192 231 185 222 185H168C165 185 163 183 163 180C163 177 165 174 168 174H222V164H168C160 164 152 171 152 180C152 188 160 196 168 196H222C225 196 228 198 228 201C228 204 225 206 222 206H164C152 206 142 197 142 185C142.006 179.069 139.72 173.366 135.621 169.08C131.521 164.794 125.925 162.258 120 162Z" fill="#FFDA44"/>
</g>
</g>
<defs>
<clipPath id="clip0_1628_1020">
<rect width="512" height="512" fill="white"/>
</clipPath>
</defs>
</svg>
