<svg width="512" height="512" viewBox="0 0 512 512" fill="none" xmlns="http://www.w3.org/2000/svg">
<g clip-path="url(#clip0_1628_1028)">
<mask id="mask0_1628_1028" style="mask-type:luminance" maskUnits="userSpaceOnUse" x="0" y="0" width="512" height="512">
<path d="M256 512C397.385 512 512 397.385 512 256C512 114.615 397.385 0 256 0C114.615 0 0 114.615 0 256C0 397.385 114.615 512 256 512Z" fill="white"/>
</mask>
<g mask="url(#mask0_1628_1028)">
<path d="M0 0H512V89L445.7 256.5L512 423V512H0V423L69.7 255.7L0 89V0Z" fill="#0052B4"/>
<path d="M0 89H512V167L472.3 258.1L512 345V423H0V345L36.3 259.4L0 167V89Z" fill="#EEEEEE"/>
<path d="M0 167H512V345H0V167Z" fill="#D80027"/>
</g>
</g>
<defs>
<clipPath id="clip0_1628_1028">
<rect width="512" height="512" fill="white"/>
</clipPath>
</defs>
</svg>
