<svg width="512" height="512" viewBox="0 0 512 512" fill="none" xmlns="http://www.w3.org/2000/svg">
<g clip-path="url(#clip0_1628_1046)">
<mask id="mask0_1628_1046" style="mask-type:luminance" maskUnits="userSpaceOnUse" x="0" y="0" width="512" height="512">
<path d="M256 512C397.385 512 512 397.385 512 256C512 114.615 397.385 0 256 0C114.615 0 0 114.615 0 256C0 397.385 114.615 512 256 512Z" fill="white"/>
</mask>
<g mask="url(#mask0_1628_1046)">
<path d="M0 0H512V256.2L470.1 320.5L512 384.2V512H0V384.2L41.3 320L0 256.2V0Z" fill="#0052B4"/>
<path d="M0 256.199H512V299.099L496.3 320.699L512 341.699V384.199H0V341.699L15.1 320.199L0 298.999V256.199Z" fill="#EEEEEE"/>
<path d="M0 299.102H512V341.702H0V299.102Z" fill="#D80027"/>
<path d="M182.8 190.398L188 206.798H205.1L191.3 216.798L196.6 233.098L182.8 223.098L168.8 233.098L174.2 216.798L160.3 206.798H177.4L182.8 190.398ZM182.8 403.698L188 419.998H205.1L191.3 429.998L196.6 446.198L182.8 436.198L168.8 446.198L174 429.998L160 419.998H177.2L182.8 403.698ZM83.6 331.598L88.8 347.798H105.9L92.1 357.998L97.3 374.198L83.6 364.198L69.6 374.198L75 357.998L61 347.898H78.2L83.6 331.598ZM121.5 211.798L126.5 227.798H143.7L129.9 238.098L135.1 254.298L121.4 244.298L107.4 254.298L112.8 237.998L98.8 227.898H116L121.5 211.798ZM61.1 278.798H78.1L83.6 262.598L88.8 278.798H105.9L92.1 288.998L97.3 305.398L83.6 294.998L69.6 305.298L75 288.898L61.1 278.798ZM107.6 421.798L112.9 405.598L99 395.398H116.1L121.5 379.198L126.7 395.498H143.8L130 405.598L135.3 421.798L121.5 411.798L107.6 421.798ZM282 331.598L276.6 347.798H259.6L273.4 357.998L268.1 374.198L282 364.198L295.8 374.198L290.6 357.898L304.3 347.798H287.3L282 331.598ZM244 211.798L238.7 227.998H221.6L235.6 238.198L230.2 254.398L244.1 244.398L257.9 254.398L252.6 238.098L266.4 227.998H249.4L244 211.798ZM304.3 278.798H287.3L282 262.598L276.6 278.798H259.6L273.4 288.898L268.1 305.298L282 294.998L295.8 305.298L290.6 288.898L304.3 278.798ZM257.9 421.798L252.6 405.598L266.4 395.398H249.4L244.1 379.198L238.7 395.498H221.6L235.6 405.598L230.2 421.798L244.1 411.798L257.9 421.798Z" fill="#FFDA44"/>
</g>
</g>
<defs>
<clipPath id="clip0_1628_1046">
<rect width="512" height="512" fill="white"/>
</clipPath>
</defs>
</svg>
