<svg width="512" height="512" viewBox="0 0 512 512" fill="none" xmlns="http://www.w3.org/2000/svg">
<g clip-path="url(#clip0_1628_1063)">
<mask id="mask0_1628_1063" style="mask-type:luminance" maskUnits="userSpaceOnUse" x="0" y="0" width="512" height="512">
<path d="M256 512C397.385 512 512 397.385 512 256C512 114.615 397.385 0 256 0C114.615 0 0 114.615 0 256C0 397.385 114.615 512 256 512Z" fill="white"/>
</mask>
<g mask="url(#mask0_1628_1063)">
<path d="M0 0L216.9 301.6L512 512V0H0Z" fill="#6DA544"/>
<path d="M0 0L512 512H0V0Z" fill="#0052B4"/>
<path d="M256.003 322.799C292.896 322.799 322.803 292.892 322.803 255.999C322.803 219.107 292.896 189.199 256.003 189.199C219.111 189.199 189.203 219.107 189.203 255.999C189.203 292.892 219.111 322.799 256.003 322.799Z" fill="#FFDA44"/>
<path d="M95.2969 367.301L102.297 382.001L118.297 378.301L110.997 393.001L123.997 403.001L107.997 406.601L108.097 422.901L95.3969 412.701L82.5969 423.001V406.701L66.8969 403.001L79.4969 393.001L72.4969 378.301L88.2969 382.001L95.2969 367.301ZM49.2969 245.001L56.3969 259.701L72.2969 256.001L65.1969 270.601L77.8969 280.801L61.9969 284.301V300.601L49.3969 290.401L36.6969 300.601V284.301L20.7969 280.801L33.5969 270.601L26.4969 256.001L42.2969 259.701L49.2969 245.001ZM95.2969 144.801L102.297 159.501L118.297 155.801L111.097 170.501L123.897 180.501L107.897 184.201L107.997 200.401L95.2969 190.301L82.5969 200.401V184.201L66.7969 180.601L79.4969 170.501L72.4969 155.801L88.2969 159.501L95.2969 144.801ZM152.397 222.801L159.397 237.401L175.297 233.701L168.197 248.401L180.897 258.501L165.097 262.101V278.401L152.397 268.001L139.697 278.201V262.001L123.897 258.401L136.597 248.301L129.597 233.601L145.397 237.301L152.397 222.801ZM111.597 289.501L117.097 306.501H134.997L120.497 317.001L126.097 334.001L111.597 323.501L96.9969 333.901L102.597 316.901L88.0969 306.401H105.997L111.597 289.501Z" fill="#EEEEEE"/>
<path d="M256 300.502H278.3C278.3 300.502 287.9 283.502 278.3 267.102L300.5 244.902L289.4 222.602H278.3C278.3 222.602 272.7 239.302 250.4 239.302C228.1 239.302 222.6 222.602 222.6 222.602H211.5L222.6 244.902L211.5 267.102L222.6 278.302C222.6 278.302 233.7 256.002 256 267.002C256 267.002 265.5 281.002 256 300.402V300.502Z" fill="#6DA544"/>
<path d="M422.197 140.198C424.218 129.532 422.288 118.494 416.768 109.146C411.247 99.7983 402.514 92.7788 392.197 89.3984C399.809 104.852 402.43 122.29 399.697 139.298C396.921 134.864 393.403 130.94 389.297 127.698C381.748 121.676 372.485 118.199 362.837 117.768C353.189 117.337 343.653 119.973 335.597 125.298C348.391 128.104 360.367 133.818 370.597 141.998C378.897 148.598 385.597 157.498 390.797 166.098L322.797 187.398C389.597 198.598 445.197 153.998 445.197 153.998C439.097 141.698 429.497 139.598 422.197 140.198Z" fill="#FFDA44"/>
</g>
</g>
<defs>
<clipPath id="clip0_1628_1063">
<rect width="512" height="512" fill="white"/>
</clipPath>
</defs>
</svg>
