<svg width="512" height="512" viewBox="0 0 512 512" fill="none" xmlns="http://www.w3.org/2000/svg">
<g clip-path="url(#clip0_1628_1074)">
<mask id="mask0_1628_1074" style="mask-type:luminance" maskUnits="userSpaceOnUse" x="0" y="0" width="512" height="512">
<path d="M256 512C397.385 512 512 397.385 512 256C512 114.615 397.385 0 256 0C114.615 0 0 114.615 0 256C0 397.385 114.615 512 256 512Z" fill="white"/>
</mask>
<g mask="url(#mask0_1628_1074)">
<path d="M0 0H512V512H0V0Z" fill="#EEEEEE"/>
<path d="M400.697 222.602H367.297C367.297 252.12 355.571 280.43 334.698 301.303C313.825 322.175 285.515 333.902 255.997 333.902C226.478 333.902 198.169 322.175 177.296 301.303C156.423 280.43 144.697 252.12 144.697 222.602H111.297C111.297 288.802 155.797 344.602 216.497 361.802C213.118 368.195 211.687 375.438 212.38 382.636C213.073 389.834 215.86 396.67 220.397 402.302L256.697 373.102L293.097 402.302C297.663 396.621 300.451 389.719 301.109 382.46C301.767 375.202 300.267 367.911 296.797 361.502C326.79 352.67 353.119 334.368 371.847 309.331C390.575 284.294 400.696 253.868 400.697 222.602Z" fill="#6DA544"/>
<path d="M167 211.502C167 211.502 167 267.102 222.6 267.102L233.7 278.302H256C256 278.302 267.1 244.902 289.4 244.902C289.4 244.902 289.4 222.602 311.7 222.602H345C345 222.602 334 178.102 389.6 144.702L367.3 133.602C367.3 133.602 289.3 189.202 233.7 178.102V200.302H211.5L200.3 189.302L167 211.502Z" fill="#FFDA44"/>
</g>
</g>
<defs>
<clipPath id="clip0_1628_1074">
<rect width="512" height="512" fill="white"/>
</clipPath>
</defs>
</svg>
