<svg width="512" height="512" viewBox="0 0 512 512" fill="none" xmlns="http://www.w3.org/2000/svg">
<g clip-path="url(#clip0_1628_1126)">
<mask id="mask0_1628_1126" style="mask-type:luminance" maskUnits="userSpaceOnUse" x="0" y="0" width="512" height="512">
<path d="M256 512C397.385 512 512 397.385 512 256C512 114.615 397.385 0 256 0C114.615 0 0 114.615 0 256C0 397.385 114.615 512 256 512Z" fill="white"/>
</mask>
<g mask="url(#mask0_1628_1126)">
<path d="M0 0H208L256 32L304 0H512V208L480 256L512 304V512H304L256 480L208 512H0V304L32 256L0 208V0Z" fill="#496E2D"/>
<path d="M512 240V272L256 304L0 272V240L256 208L512 240Z" fill="#333333"/>
<path d="M512 208V240H0V208H512Z" fill="#FFDA44"/>
<path d="M240 0H272L304 256L272 512H240L208 256L240 0Z" fill="#333333"/>
<path d="M208 0H240V512H208V0Z" fill="#FFDA44"/>
<path d="M272 0H304V512H272V0Z" fill="#EEEEEE"/>
<path d="M512 272V304H0V272H512Z" fill="#EEEEEE"/>
<path d="M256.002 378.402C323.601 378.402 378.402 323.601 378.402 256.002C378.402 188.402 323.601 133.602 256.002 133.602C188.402 133.602 133.602 188.402 133.602 256.002C133.602 323.601 188.402 378.402 256.002 378.402Z" fill="#D80027"/>
<path d="M284 270C275 251 263 233 263 233V220C262.435 216.961 260.879 214.194 258.576 212.132C256.274 210.07 253.353 208.828 250.27 208.599C247.188 208.371 244.116 209.169 241.535 210.87C238.953 212.57 237.007 215.077 236 218C233.538 218.124 231.188 219.071 229.329 220.69C227.469 222.309 226.208 224.506 225.746 226.928C225.285 229.35 225.651 231.857 226.785 234.046C227.919 236.235 229.756 237.98 232 239C232.805 236.964 234.018 235.115 235.567 233.567C237.115 232.018 238.964 230.805 241 230C241.597 230.732 242.268 231.403 243 232H245C245 232 238 251 238 261C238 288 257 297 257 297L247 306H266V288L275 297C275 297 292 286 284 270ZM256 156L260 169H274L263 177L267 189L256 181L245 189L249 177L238 169H252L256 156ZM197 175L208 183L219 175L215 188L226 196H212L208 208L204 196H190L201 188L197 175ZM161 225H174L178 212L182 225H196L185 233L189 246L178 238L167 246L172 233L161 225ZM161 287L172 279L167 266L178 274L189 266L185 279L196 287H182L178 300L174 287H161ZM197 337L201 324L190 316H204L208 304L212 316H225L215 324L219 337L208 329L197 337ZM256 356L252 343H238L249 335L245 323L256 331L267 323L263 335L274 344H260L256 356ZM315 337L304 329L293 337L297 324L287 316H300L304 304L308 316H322L311 324L315 337ZM351 287H338L334 300L330 287H316L327 279L323 266L334 274L345 266L340 279L351 287ZM351 225L340 233L345 246L334 238L323 246L327 233L316 225H330L334 212L338 225H351ZM315 175L311 188L322 196H308L304 208L300 196H286L297 188L293 175L304 183L315 175Z" fill="#496E2D"/>
</g>
</g>
<defs>
<clipPath id="clip0_1628_1126">
<rect width="512" height="512" fill="white"/>
</clipPath>
</defs>
</svg>
