<svg width="512" height="512" viewBox="0 0 512 512" fill="none" xmlns="http://www.w3.org/2000/svg">
<g clip-path="url(#clip0_1628_1140)">
<mask id="mask0_1628_1140" style="mask-type:luminance" maskUnits="userSpaceOnUse" x="0" y="0" width="512" height="512">
<path d="M256 512C397.385 512 512 397.385 512 256C512 114.615 397.385 0 256 0C114.615 0 0 114.615 0 256C0 397.385 114.615 512 256 512Z" fill="white"/>
</mask>
<g mask="url(#mask0_1628_1140)">
<path d="M35.5 256H479.5L512 189.2V0H322.8L256 31.8V476.4L189.2 512H0V322.8L35.5 256Z" fill="#D80027"/>
<path d="M479.5 256H35.5L0 189.2V0H189.2L256 31.8V476.4L322.8 512H512V322.8L479.5 256Z" fill="#0052B4"/>
<path d="M189.2 0H322.8V189.2H512V322.8H322.8V512H189.2V322.8H0V189.2H189.2V0Z" fill="#EEEEEE"/>
<path d="M322.803 255.999C322.803 264.772 321.075 273.458 317.718 281.562C314.361 289.667 309.441 297.031 303.238 303.234C297.035 309.437 289.671 314.357 281.566 317.714C273.462 321.071 264.775 322.799 256.003 322.799C247.231 322.799 238.544 321.071 230.44 317.714C222.335 314.357 214.971 309.437 208.768 303.234C202.565 297.031 197.645 289.667 194.288 281.562C190.931 273.458 189.203 264.772 189.203 255.999C189.203 219.099 256.003 189.199 256.003 189.199C256.003 189.199 322.803 219.199 322.803 255.999Z" fill="#496E2D"/>
<path d="M189.203 255.999C189.203 247.227 190.931 238.541 194.288 230.436C197.645 222.331 202.565 214.967 208.768 208.764C214.971 202.562 222.335 197.641 230.44 194.284C238.544 190.927 247.231 189.199 256.003 189.199C264.775 189.199 273.462 190.927 281.566 194.284C289.671 197.641 297.035 202.562 303.238 208.764C309.441 214.967 314.361 222.331 317.718 230.436C321.075 238.541 322.803 247.227 322.803 255.999" fill="#0052B4"/>
<path d="M218.398 222.602V264.302C218.398 274.274 222.36 283.837 229.411 290.889C236.463 297.94 246.026 301.902 255.998 301.902C265.971 301.902 275.534 297.94 282.586 290.889C289.637 283.837 293.598 274.274 293.598 264.302V222.602H218.398Z" fill="#D80027"/>
</g>
</g>
<defs>
<clipPath id="clip0_1628_1140">
<rect width="512" height="512" fill="white"/>
</clipPath>
</defs>
</svg>
