<svg width="512" height="512" viewBox="0 0 512 512" fill="none" xmlns="http://www.w3.org/2000/svg">
<g clip-path="url(#clip0_1628_1151)">
<mask id="mask0_1628_1151" style="mask-type:luminance" maskUnits="userSpaceOnUse" x="0" y="0" width="512" height="512">
<path d="M256 512C397.385 512 512 397.385 512 256C512 114.615 397.385 0 256 0C114.615 0 0 114.615 0 256C0 397.385 114.615 512 256 512Z" fill="white"/>
</mask>
<g mask="url(#mask0_1628_1151)">
<path d="M0 0H256L301.3 251.8L256 512H0V0Z" fill="#496E2D"/>
<path d="M256 0H512V512H256V0Z" fill="#EEEEEE"/>
<path d="M311 206.898L290 235.898L256 224.898L277 253.698L256 282.698L290 271.598L311 300.598V264.798L345 253.698L311 242.698V206.898Z" fill="#D80027"/>
<path d="M277.199 328.299C266.216 328.253 255.388 325.706 245.537 320.851C235.686 315.995 227.07 308.959 220.344 300.276C213.618 291.594 208.959 281.493 206.719 270.741C204.48 259.989 204.72 248.868 207.42 238.222C210.121 227.576 215.211 217.686 222.305 209.301C229.399 200.917 238.31 194.259 248.361 189.832C258.413 185.406 269.34 183.327 280.315 183.755C291.289 184.182 302.022 187.104 311.699 192.299C299.172 180.057 283.312 171.783 266.104 168.513C248.896 165.244 231.106 167.125 214.962 173.921C198.819 180.716 185.039 192.124 175.35 206.716C165.661 221.307 160.492 238.434 160.492 255.949C160.492 273.465 165.661 290.591 175.35 305.183C185.039 319.774 198.819 331.182 214.962 337.978C231.106 344.774 248.896 346.655 266.104 343.385C283.312 340.116 299.172 331.842 311.699 319.599C301.108 325.34 289.246 328.331 277.199 328.299Z" fill="#D80027"/>
</g>
</g>
<defs>
<clipPath id="clip0_1628_1151">
<rect width="512" height="512" fill="white"/>
</clipPath>
</defs>
</svg>
