<svg width="512" height="512" viewBox="0 0 512 512" fill="none" xmlns="http://www.w3.org/2000/svg">
<g clip-path="url(#clip0_1628_1161)">
<mask id="mask0_1628_1161" style="mask-type:luminance" maskUnits="userSpaceOnUse" x="0" y="0" width="512" height="512">
<path d="M256 512C397.385 512 512 397.385 512 256C512 114.615 397.385 0 256 0C114.615 0 0 114.615 0 256C0 397.385 114.615 512 256 512Z" fill="white"/>
</mask>
<g mask="url(#mask0_1628_1161)">
<path d="M0 0H512V512H0V0Z" fill="#0052B4"/>
<path d="M302.701 233.699C276.169 234.869 251.111 246.231 232.75 265.42C214.389 284.608 204.141 310.141 204.141 336.699C204.141 363.257 214.389 388.791 232.75 407.979C251.111 427.167 276.169 438.53 302.701 439.699C329.233 438.53 354.29 427.167 372.651 407.979C391.013 388.791 401.261 363.257 401.261 336.699C401.261 310.141 391.013 284.608 372.651 265.42C354.29 246.231 329.233 234.869 302.701 233.699ZM302.701 253.699C348.701 253.699 385.701 290.699 385.701 336.699C385.701 382.699 348.701 419.699 302.701 419.699C256.701 419.699 219.701 382.699 219.701 336.699C219.701 290.699 256.701 253.699 302.701 253.699Z" fill="#EEEEEE"/>
<path d="M209.396 72.3008C182.864 73.4702 157.807 84.833 139.445 104.021C121.084 123.209 110.836 148.743 110.836 175.301C110.836 201.859 121.084 227.392 139.445 246.58C157.807 265.769 182.864 277.131 209.396 278.301C235.928 277.131 260.986 265.769 279.347 246.58C297.708 227.392 307.956 201.859 307.956 175.301C307.956 148.743 297.708 123.209 279.347 104.021C260.986 84.833 235.928 73.4702 209.396 72.3008ZM209.396 92.3008C255.396 92.3008 292.396 129.301 292.396 175.301C292.396 221.301 255.396 258.301 209.396 258.301C163.396 258.301 126.396 221.301 126.396 175.301C126.396 129.301 163.396 92.3008 209.396 92.3008Z" fill="#EEEEEE"/>
<path d="M302.701 72.3008C276.169 73.4702 251.111 84.833 232.75 104.021C214.389 123.209 204.141 148.743 204.141 175.301C204.141 201.859 214.389 227.392 232.75 246.58C251.111 265.769 276.169 277.131 302.701 278.301C329.233 277.131 354.29 265.769 372.651 246.58C391.013 227.392 401.261 201.859 401.261 175.301C401.261 148.743 391.013 123.209 372.651 104.021C354.29 84.833 329.233 73.4702 302.701 72.3008ZM302.701 92.3008C348.701 92.3008 385.701 129.301 385.701 175.301C385.701 221.301 348.701 258.301 302.701 258.301C256.701 258.301 219.701 221.301 219.701 175.301C219.701 129.301 256.701 92.3008 302.701 92.3008Z" fill="#EEEEEE"/>
<path d="M349.201 153C322.669 154.169 297.611 165.532 279.25 184.72C260.889 203.909 250.641 229.442 250.641 256C250.641 282.558 260.889 308.091 279.25 327.28C297.611 346.468 322.669 357.831 349.201 359C375.733 357.831 400.79 346.468 419.151 327.28C437.513 308.091 447.761 282.558 447.761 256C447.761 229.442 437.513 203.909 419.151 184.72C400.79 165.532 375.733 154.169 349.201 153ZM349.201 173C395.201 173 432.201 210 432.201 256C432.201 302 395.201 339 349.201 339C303.201 339 266.201 302 266.201 256C266.201 210 303.201 173 349.201 173Z" fill="#EEEEEE"/>
<path d="M209.396 233.699C182.864 234.869 157.807 246.231 139.445 265.42C121.084 284.608 110.836 310.141 110.836 336.699C110.836 363.257 121.084 388.791 139.445 407.979C157.807 427.167 182.864 438.53 209.396 439.699C235.928 438.53 260.986 427.167 279.347 407.979C297.708 388.791 307.956 363.257 307.956 336.699C307.956 310.141 297.708 284.608 279.347 265.42C260.986 246.231 235.928 234.869 209.396 233.699ZM209.396 253.699C255.396 253.699 292.396 290.699 292.396 336.699C292.396 382.699 255.396 419.699 209.396 419.699C163.396 419.699 126.396 382.699 126.396 336.699C126.396 290.699 163.396 253.699 209.396 253.699Z" fill="#EEEEEE"/>
<path d="M162.802 153C136.27 154.169 111.213 165.532 92.8517 184.72C74.4906 203.909 64.2422 229.442 64.2422 256C64.2422 282.558 74.4906 308.091 92.8517 327.28C111.213 346.468 136.27 357.831 162.802 359C189.334 357.831 214.392 346.468 232.753 327.28C251.114 308.091 261.363 282.558 261.363 256C261.363 229.442 251.114 203.909 232.753 184.72C214.392 165.532 189.334 154.169 162.802 153ZM162.802 173C208.802 173 245.802 210 245.802 256C245.802 302 208.802 339 162.802 339C116.802 339 79.8024 302 79.8024 256C79.8024 210 116.802 173 162.802 173Z" fill="#EEEEEE"/>
<path d="M255.998 153.102C229.466 154.271 204.408 165.634 186.047 184.822C167.686 204.01 157.437 229.544 157.438 256.102C157.437 282.659 167.686 308.193 186.047 327.381C204.408 346.569 229.466 357.932 255.998 359.102C282.53 357.932 307.587 346.569 325.948 327.381C344.309 308.193 354.558 282.659 354.558 256.102C354.558 229.544 344.309 204.01 325.948 184.822C307.587 165.634 282.53 154.271 255.998 153.102ZM255.998 173.102C301.998 173.102 338.998 210.102 338.998 256.102C338.998 302.002 301.998 339.102 255.998 339.102C209.998 339.102 172.998 302.002 172.998 256.102C172.998 210.102 209.998 173.102 255.998 173.102Z" fill="#EEEEEE"/>
</g>
</g>
<defs>
<clipPath id="clip0_1628_1161">
<rect width="512" height="512" fill="white"/>
</clipPath>
</defs>
</svg>
