<svg width="512" height="512" viewBox="0 0 512 512" fill="none" xmlns="http://www.w3.org/2000/svg">
<g clip-path="url(#clip0_1628_1189)">
<mask id="mask0_1628_1189" style="mask-type:luminance" maskUnits="userSpaceOnUse" x="0" y="0" width="512" height="512">
<path d="M256 512C397.385 512 512 397.385 512 256C512 114.615 397.385 0 256 0C114.615 0 0 114.615 0 256C0 397.385 114.615 512 256 512Z" fill="white"/>
</mask>
<g mask="url(#mask0_1628_1189)">
<path d="M0 0H512V512H0V0Z" fill="#EEEEEE"/>
<path d="M334.002 211.5V233.7H364.502C351.687 251.54 334.69 265.962 315.002 275.7C311.535 272.036 307.134 269.388 302.274 268.042C297.413 266.695 292.277 266.702 287.419 268.06C282.562 269.419 278.168 272.078 274.71 275.75C271.253 279.423 268.864 283.969 267.802 288.9C259.95 289.59 252.053 289.59 244.202 288.9C243.108 283.99 240.704 279.469 237.243 275.818C233.783 272.168 229.397 269.524 224.553 268.169C219.709 266.815 214.588 266.799 209.736 268.126C204.884 269.452 200.483 272.07 197.002 275.7C177.313 265.962 160.316 251.54 147.502 233.7H178.102V211.5H100.102C100.102 252.834 116.521 292.475 145.749 321.703C174.977 350.93 214.618 367.35 255.952 367.35C297.286 367.35 336.927 350.93 366.154 321.703C395.382 292.475 411.802 252.834 411.802 211.5H334.002Z" fill="#D80027"/>
</g>
</g>
<defs>
<clipPath id="clip0_1628_1189">
<rect width="512" height="512" fill="white"/>
</clipPath>
</defs>
</svg>
