<svg width="512" height="512" viewBox="0 0 512 512" fill="none" xmlns="http://www.w3.org/2000/svg">
<g clip-path="url(#clip0_1628_1204)">
<mask id="mask0_1628_1204" style="mask-type:luminance" maskUnits="userSpaceOnUse" x="0" y="0" width="512" height="512">
<path d="M256 512C397.385 512 512 397.385 512 256C512 114.615 397.385 0 256 0C114.615 0 0 114.615 0 256C0 397.385 114.615 512 256 512Z" fill="white"/>
</mask>
<g mask="url(#mask0_1628_1204)">
<path d="M0 384.001L254.7 351.301L512 383.901V512.001H0V384.001Z" fill="#D80027"/>
<path d="M0 256L255 229L512 256V384H0V256Z" fill="#0052B4"/>
<path d="M0 0H512V256H0V0Z" fill="#FFDA44"/>
<path d="M256 345C305.153 345 345 305.153 345 256C345 206.847 305.153 167 256 167C206.847 167 167 206.847 167 256C167 305.153 206.847 345 256 345Z" fill="#FFDA44"/>
<path d="M255.997 311.598C225.297 311.598 200.297 286.598 200.297 255.998V222.598C200.297 207.826 206.165 193.658 216.611 183.213C227.057 172.767 241.224 166.898 255.997 166.898C270.769 166.898 284.937 172.767 295.383 183.213C305.828 193.658 311.697 207.826 311.697 222.598V255.998C311.697 286.598 286.697 311.598 255.997 311.598Z" fill="#338AF3"/>
<path d="M345 122.402H278.3C278.3 116.487 275.951 110.815 271.768 106.633C267.586 102.451 261.914 100.102 256 100.102C250.086 100.102 244.414 102.451 240.232 106.633C236.049 110.815 233.7 116.487 233.7 122.402H167C167.182 128.379 169.685 134.051 173.979 138.214C178.273 142.377 184.019 144.704 190 144.702H189.2C189.2 157.002 199.2 167.002 211.5 167.002C211.5 179.302 221.5 189.202 233.7 189.202H278.3C290.6 189.202 300.5 179.202 300.5 167.002C312.8 167.002 322.8 157.002 322.8 144.702H322C327.981 144.704 333.727 142.377 338.021 138.214C342.315 134.051 344.818 128.379 345 122.402Z" fill="#333333"/>
</g>
</g>
<defs>
<clipPath id="clip0_1628_1204">
<rect width="512" height="512" fill="white"/>
</clipPath>
</defs>
</svg>
