<svg width="512" height="512" viewBox="0 0 512 512" fill="none" xmlns="http://www.w3.org/2000/svg">
<g clip-path="url(#clip0_1628_1232)">
<mask id="mask0_1628_1232" style="mask-type:luminance" maskUnits="userSpaceOnUse" x="0" y="0" width="512" height="512">
<path d="M256 512C397.385 512 512 397.385 512 256C512 114.615 397.385 0 256 0C114.615 0 0 114.615 0 256C0 397.385 114.615 512 256 512Z" fill="white"/>
</mask>
<g mask="url(#mask0_1628_1232)">
<path d="M90.1 144.802L300.6 117.102L512 144.802V367.402L303 399.802L90 367.402L90.1 144.802Z" fill="#EEEEEE"/>
<path d="M0 0H512V144.8H28.2L0 0Z" fill="#333333"/>
<path d="M39.5 367.398H512V511.998H0L39.5 367.398Z" fill="#496E2D"/>
<path d="M0 0.101562V512.002H0.1L256 256.102L0 0.101562ZM365.1 178.202C354.175 178.398 343.413 180.888 333.512 185.51C323.611 190.132 314.791 196.783 307.625 205.031C300.458 213.279 295.105 222.942 291.911 233.391C288.717 243.841 287.755 254.845 289.086 265.69C290.417 276.536 294.012 286.981 299.637 296.348C305.263 305.715 312.794 313.796 321.743 320.066C330.691 326.337 340.857 330.658 351.582 332.748C362.307 334.839 373.352 334.652 384 332.202C366.718 328.316 351.273 318.663 340.207 304.832C329.14 291.001 323.111 273.815 323.111 256.102C323.111 238.388 329.14 221.202 340.207 207.371C351.273 193.54 366.718 183.887 384 180.002C377.796 178.636 371.45 178.032 365.1 178.202Z" fill="#D80027"/>
<path d="M387.298 206.102L398.298 240.102H434.098L405.098 261.102L416.198 295.102L387.198 274.102L358.298 295.102L369.398 261.102L340.398 240.102H376.198L387.298 206.102Z" fill="#D80027"/>
</g>
</g>
<defs>
<clipPath id="clip0_1628_1232">
<rect width="512" height="512" fill="white"/>
</clipPath>
</defs>
</svg>
