<svg width="512" height="512" viewBox="0 0 512 512" fill="none" xmlns="http://www.w3.org/2000/svg">
<g clip-path="url(#clip0_1628_1242)">
<mask id="mask0_1628_1242" style="mask-type:luminance" maskUnits="userSpaceOnUse" x="0" y="0" width="512" height="512">
<path d="M256 512C397.385 512 512 397.385 512 256C512 114.615 397.385 0 256 0C114.615 0 0 114.615 0 256C0 397.385 114.615 512 256 512Z" fill="white"/>
</mask>
<g mask="url(#mask0_1628_1242)">
<path d="M0 0H512V256H62L0 0Z" fill="#6DA544"/>
<path d="M62 256H512V512H0L62 256Z" fill="#338AF3"/>
<path d="M0 0V512L512 256L0 0Z" fill="#D80027"/>
<path d="M133.602 150.301C84.5016 150.301 44.6016 190.301 44.6016 239.301V272.701C45.6862 295.575 55.5366 317.154 72.1085 332.959C88.6804 348.763 110.701 357.581 133.602 357.581C156.502 357.581 178.523 348.763 195.095 332.959C211.667 317.154 221.517 295.575 222.602 272.701V239.301C222.602 190.301 182.602 150.301 133.602 150.301ZM189.202 272.701C189.202 297.601 172.802 318.701 150.202 325.701V289.401L173.902 265.801L150.302 242.201V222.601H116.902V256.001L93.3016 279.601L116.902 303.201V325.801C105.598 322.248 95.7226 315.184 88.709 305.635C81.6954 296.086 77.9096 284.549 77.9016 272.701V239.301C78.5101 224.95 84.6392 211.388 95.009 201.449C105.379 191.509 119.188 185.96 133.552 185.96C147.916 185.96 161.724 191.509 172.094 201.449C182.464 211.388 188.593 224.95 189.202 239.301V272.701Z" fill="#FFDA44"/>
</g>
</g>
<defs>
<clipPath id="clip0_1628_1242">
<rect width="512" height="512" fill="white"/>
</clipPath>
</defs>
</svg>
