<svg width="512" height="512" viewBox="0 0 512 512" fill="none" xmlns="http://www.w3.org/2000/svg">
<g clip-path="url(#clip0_1628_1261)">
<mask id="mask0_1628_1261" style="mask-type:luminance" maskUnits="userSpaceOnUse" x="0" y="0" width="512" height="512">
<path d="M256 512C397.385 512 512 397.385 512 256C512 114.615 397.385 0 256 0C114.615 0 0 114.615 0 256C0 397.385 114.615 512 256 512Z" fill="white"/>
</mask>
<g mask="url(#mask0_1628_1261)">
<path d="M0 0L140.5 27.8L256 0H512L485.7 132.8L512 256V512L373.3 481.5L256 512H0L30 372.1L0 256V0Z" fill="#EEEEEE"/>
<path d="M0 0L256 256V0H0ZM256 256H512V0L256 256ZM256 256V512H512L256 256ZM256 256H0V512L256 256Z" fill="#333333"/>
<path d="M167 178L256 189.2L345 178.1V124.7L309.4 142.5L256 89L202.6 142.5L167 124.7V178Z" fill="#FFDA44"/>
<path d="M256 389.602C206.9 389.602 167 349.602 167 300.602V211.502L200.3 178.102H311.7L345 211.502V300.502C345 324.106 335.623 346.743 318.932 363.434C302.242 380.125 279.604 389.502 256 389.502V389.602Z" fill="#D80027"/>
<path d="M255.997 356.2C225.297 356.2 200.297 331.2 200.297 300.5V211.5H311.697V300.5C311.697 331.2 286.697 356.2 255.997 356.2Z" fill="#EEEEEE"/>
<path d="M167 178H200.3V211.5H167V178ZM311.7 178H345V211.5H311.7V178ZM311.7 250.4H345V283.8H311.7V250.4ZM167 250.4H200.3V283.8H167V250.4ZM256 356.2C250.2 356.2 244.6 355.2 239.3 353.6V388C250.334 390.108 261.666 390.108 272.7 388V353.6C267.299 355.314 261.667 356.191 256 356.2ZM201 309.6L174.4 336.2C179.012 346.69 185.599 356.196 193.8 364.2L217.4 340.5C208.763 332.197 203.045 321.322 201.1 309.5L201 309.6ZM337.6 336.2L310.9 309.6C308.9 321.6 303.1 332.4 294.6 340.6L318.2 364.1C326.391 356.126 332.977 346.655 337.6 336.2Z" fill="#FFDA44"/>
<path d="M244.9 230V248.6C244.9 251.544 246.069 254.367 248.151 256.449C250.233 258.531 253.056 259.7 256 259.7C258.944 259.7 261.767 258.531 263.849 256.449C265.931 254.367 267.1 251.544 267.1 248.6V230H245H244.9ZM244.9 304.2V322.8C244.9 325.744 246.069 328.567 248.151 330.649C250.233 332.731 253.056 333.9 256 333.9C258.944 333.9 261.767 332.731 263.849 330.649C265.931 328.567 267.1 325.744 267.1 322.8V304.2H245H244.9ZM278.3 267.2V285.7C278.3 288.644 279.469 291.467 281.551 293.549C283.633 295.631 286.456 296.8 289.4 296.8C292.344 296.8 295.167 295.631 297.249 293.549C299.331 291.467 300.5 288.644 300.5 285.7V267H278.3V267.2ZM244.9 267.2V285.7C244.9 288.644 246.069 291.467 248.151 293.549C250.233 295.631 253.056 296.8 256 296.8C258.944 296.8 261.767 295.631 263.849 293.549C265.931 291.467 267.1 288.644 267.1 285.7V267H245L244.9 267.2ZM211.5 267.2V285.7C211.5 288.644 212.669 291.467 214.751 293.549C216.833 295.631 219.656 296.8 222.6 296.8C225.544 296.8 228.367 295.631 230.449 293.549C232.531 291.467 233.7 288.644 233.7 285.7V267H211.5V267.2Z" fill="#0052B4"/>
</g>
</g>
<defs>
<clipPath id="clip0_1628_1261">
<rect width="512" height="512" fill="white"/>
</clipPath>
</defs>
</svg>
