<svg width="512" height="512" viewBox="0 0 512 512" fill="none" xmlns="http://www.w3.org/2000/svg">
<g clip-path="url(#clip0_1628_1290)">
<mask id="mask0_1628_1290" style="mask-type:luminance" maskUnits="userSpaceOnUse" x="0" y="0" width="512" height="512">
<path d="M256 512C397.385 512 512 397.385 512 256C512 114.615 397.385 0 256 0C114.615 0 0 114.615 0 256C0 397.385 114.615 512 256 512Z" fill="white"/>
</mask>
<g mask="url(#mask0_1628_1290)">
<path d="M0 0V57L32 86L0 114V171L32 200L0 228V285L32 313L0 341V398L32 427L0 455V512H512V455L480 427L512 398V341L480 313L512 285V228L480 200L512 171V114L480 86L512 57V0H0Z" fill="#FFDA44"/>
<path d="M0 57H512V114H0V57ZM0 171H512V228H0V171ZM0 285H512V341H0V285ZM0 398H512V455H0V398Z" fill="#D80027"/>
</g>
</g>
<defs>
<clipPath id="clip0_1628_1290">
<rect width="512" height="512" fill="white"/>
</clipPath>
</defs>
</svg>
