<svg width="512" height="512" viewBox="0 0 512 512" fill="none" xmlns="http://www.w3.org/2000/svg">
<g clip-path="url(#clip0_1628_1297)">
<mask id="mask0_1628_1297" style="mask-type:luminance" maskUnits="userSpaceOnUse" x="0" y="0" width="512" height="512">
<path d="M256 512C397.385 512 512 397.385 512 256C512 114.615 397.385 0 256 0C114.615 0 0 114.615 0 256C0 397.385 114.615 512 256 512Z" fill="white"/>
</mask>
<g mask="url(#mask0_1628_1297)">
<path d="M0 256L256 0H512V56.8L497.3 86.6L512 113.8V170.6L496.2 199L512 227.6V284.4L493.6 313.8L512 341.3V398.2L495.3 427L512 455.1V512H0V455.1L24.2 427.7L0 398.2V341.3L21 313.6L0 284.4V256Z" fill="#FFDA44"/>
<path d="M242 56.8008V113.801H512V56.8008H242ZM242 170.601V227.601H512V170.601H242ZM0 284.401V341.301H512V284.401H0ZM0 398.201V455.101H512V398.201H0Z" fill="#D80027"/>
<path d="M0 0H256V256H0V0Z" fill="#4A1F63"/>
<path d="M211.502 133.601V155.801H200.302V133.601H178.102V155.801H167.002V111.301H122.402V155.801H111.402V133.601H89.0016V155.801H78.0016V133.601H55.6016V200.301H233.602V133.601H211.502Z" fill="#EEEEEE"/>
</g>
</g>
<defs>
<clipPath id="clip0_1628_1297">
<rect width="512" height="512" fill="white"/>
</clipPath>
</defs>
</svg>
