<svg width="512" height="512" viewBox="0 0 512 512" fill="none" xmlns="http://www.w3.org/2000/svg">
<g clip-path="url(#clip0_1628_1306)">
<mask id="mask0_1628_1306" style="mask-type:luminance" maskUnits="userSpaceOnUse" x="0" y="0" width="512" height="512">
<path d="M256 512C397.385 512 512 397.385 512 256C512 114.615 397.385 0 256 0C114.615 0 0 114.615 0 256C0 397.385 114.615 512 256 512Z" fill="white"/>
</mask>
<g mask="url(#mask0_1628_1306)">
<path d="M0 0H512V512H0V0Z" fill="#338AF3"/>
<path d="M122.398 278.301H389.598V311.701H122.398V278.301Z" fill="#ACABB1"/>
<path d="M167 178L256 189.2L345 178.1V124.7L309.4 142.5L256 89L202.6 142.5L167 124.7V178Z" fill="#FFDA44"/>
<path d="M144.697 344.998H111.297V283.798L122.397 267.098L111.297 250.398V211.398H144.697V344.998ZM400.697 344.998H367.297V211.598H400.697V250.598L389.597 267.598L400.697 283.898V344.998Z" fill="#EEEEEE"/>
<path d="M111.297 250.398H400.697V283.798H111.297V250.398Z" fill="#ACABB1"/>
<path d="M256 389.6C206.9 389.6 167 349.6 167 300.6V178H345V300.4C345 312.088 342.698 323.661 338.225 334.459C333.753 345.257 327.197 355.068 318.932 363.332C310.668 371.597 300.857 378.153 290.059 382.625C279.261 387.098 267.688 389.4 256 389.4V389.6Z" fill="#EEEEEE"/>
<path d="M255.998 356.2C241.243 356.174 227.101 350.293 216.677 339.851C206.253 329.408 200.398 315.255 200.398 300.5V211.5H311.598V300.5C311.598 315.255 305.744 329.408 295.32 339.851C284.896 350.293 270.754 356.174 255.998 356.2Z" fill="#0052B4"/>
<path d="M167 178H200.4V211.5H167V178ZM311.7 178H345V211.5H311.6L311.7 178ZM311.7 250.4H345V283.8H311.6L311.7 250.4ZM167 250.4H200.3V283.8H167V250.4ZM239.3 178.1H272.7V211.5H239.3V178.1ZM256 356C250.2 356 244.6 355.2 239.3 353.5V388C250.334 390.098 261.666 390.098 272.7 388V353.6C267.299 355.314 261.667 356.191 256 356.2V356ZM201.1 309.5L174.4 336.1C179.01 346.592 185.597 356.098 193.8 364.1L217.4 340.4C208.763 332.097 203.045 321.222 201.1 309.4V309.5ZM337.6 336.1L310.9 309.5C308.948 321.319 303.231 332.192 294.6 340.5L318.2 364C326.391 356.026 332.977 346.555 337.6 336.1Z" fill="#D80027"/>
</g>
</g>
<defs>
<clipPath id="clip0_1628_1306">
<rect width="512" height="512" fill="white"/>
</clipPath>
</defs>
</svg>
