<svg width="512" height="512" viewBox="0 0 512 512" fill="none" xmlns="http://www.w3.org/2000/svg">
<g clip-path="url(#clip0_1628_1319)">
<mask id="mask0_1628_1319" style="mask-type:luminance" maskUnits="userSpaceOnUse" x="0" y="0" width="512" height="512">
<path d="M256 512C397.385 512 512 397.385 512 256C512 114.615 397.385 0 256 0C114.615 0 0 114.615 0 256C0 397.385 114.615 512 256 512Z" fill="white"/>
</mask>
<g mask="url(#mask0_1628_1319)">
<path d="M0 47.2L47.2 0H222.6L256 27.3L289.4 0H465L512 47.3V222.6L487.8 257.8L512 289.4V464.8L464.8 512H289.4L257.4 485.6L222.6 512H47.2L0 464.8V289.4L25 257L0 222.6V47.2Z" fill="#D80027"/>
<path d="M0 0V47.2L208.8 256L0 464.8V512H47.2L256 303.2L464.8 512H512V464.8L303.2 256L512 47.3V0H465L256 208.8L47.2 0H0Z" fill="#496E2D"/>
<path d="M222.6 0V222.6H0V289.4H222.6V512H289.4V289.4H512V222.6H289.4V0H222.6Z" fill="#EEEEEE"/>
</g>
</g>
<defs>
<clipPath id="clip0_1628_1319">
<rect width="512" height="512" fill="white"/>
</clipPath>
</defs>
</svg>
