<svg width="512" height="512" viewBox="0 0 512 512" fill="none" xmlns="http://www.w3.org/2000/svg">
<g clip-path="url(#clip0_1628_1334)">
<mask id="mask0_1628_1334" style="mask-type:luminance" maskUnits="userSpaceOnUse" x="0" y="0" width="512" height="512">
<path d="M256 512C397.385 512 512 397.385 512 256C512 114.615 397.385 0 256 0C114.615 0 0 114.615 0 256C0 397.385 114.615 512 256 512Z" fill="white"/>
</mask>
<g mask="url(#mask0_1628_1334)">
<path d="M0 128L256 96L512 128V384L256 416L0 384V128Z" fill="#FFDA44"/>
<path d="M0 0H512V128H0V0ZM0 384H512V512H0V384Z" fill="#D80027"/>
<path d="M144 304H128V224H144V304ZM272 304H288V224H272V304Z" fill="#EEEEEE"/>
<path d="M208 328C234.51 328 256 313.673 256 296C256 278.327 234.51 264 208 264C181.49 264 160 278.327 160 296C160 313.673 181.49 328 208 328Z" fill="#EEEEEE"/>
<path d="M144 200C144 195.582 140.418 192 136 192C131.582 192 128 195.582 128 200V208C128 212.418 131.582 216 136 216C140.418 216 144 212.418 144 208V200Z" fill="#D80027"/>
<path d="M288 200C288 195.582 284.418 192 280 192C275.582 192 272 195.582 272 200V208C272 212.418 275.582 216 280 216C284.418 216 288 212.418 288 208V200Z" fill="#D80027"/>
<path d="M208 272V296C208 302.365 210.529 308.47 215.029 312.971C219.53 317.471 225.635 320 232 320C238.365 320 244.47 317.471 248.971 312.971C253.471 308.47 256 302.365 256 296V272H232H208Z" fill="#D80027"/>
<path d="M144 208H128C123.582 208 120 211.582 120 216C120 220.418 123.582 224 128 224H144C148.418 224 152 220.418 152 216C152 211.582 148.418 208 144 208Z" fill="#FF9811"/>
<path d="M288 208H272C267.582 208 264 211.582 264 216C264 220.418 267.582 224 272 224H288C292.418 224 296 220.418 296 216C296 211.582 292.418 208 288 208Z" fill="#FF9811"/>
<path d="M144 304H128C123.582 304 120 307.582 120 312C120 316.418 123.582 320 128 320H144C148.418 320 152 316.418 152 312C152 307.582 148.418 304 144 304Z" fill="#FF9811"/>
<path d="M288 304H272C267.582 304 264 307.582 264 312C264 316.418 267.582 320 272 320H288C292.418 320 296 316.418 296 312C296 307.582 292.418 304 288 304Z" fill="#FF9811"/>
<path d="M160 272V296C160 304 164 310 169 315L174 309L179 319C182.285 319.805 185.715 319.805 189 319L194 309L199 315C205 310 208 304 208 296V272H199L194 280L189 272H179L174 280L169 272H160Z" fill="#FF9811"/>
<path d="M122 252H294ZM122 276H150ZM266 276H294Z" fill="black"/>
<path d="M122 248C120.939 248 119.922 248.421 119.172 249.172C118.421 249.922 118 250.939 118 252C118 253.061 118.421 254.078 119.172 254.828C119.922 255.579 120.939 256 122 256H294C295.061 256 296.078 255.579 296.828 254.828C297.579 254.078 298 253.061 298 252C298 250.939 297.579 249.922 296.828 249.172C296.078 248.421 295.061 248 294 248H122ZM122 272C120.939 272 119.922 272.421 119.172 273.172C118.421 273.922 118 274.939 118 276C118 277.061 118.421 278.078 119.172 278.828C119.922 279.579 120.939 280 122 280H150C151.061 280 152.078 279.579 152.828 278.828C153.579 278.078 154 277.061 154 276C154 274.939 153.579 273.922 152.828 273.172C152.078 272.421 151.061 272 150 272H122ZM266 272C264.939 272 263.922 272.421 263.172 273.172C262.421 273.922 262 274.939 262 276C262 277.061 262.421 278.078 263.172 278.828C263.922 279.579 264.939 280 266 280H294C295.061 280 296.078 279.579 296.828 278.828C297.579 278.078 298 277.061 298 276C298 274.939 297.579 273.922 296.828 273.172C296.078 272.421 295.061 272 294 272H266Z" fill="#D80027"/>
<path d="M196 168C189 168 183 173 181 179L176 178C167 178 160 185 160 194C160 203 167 210 176 210C183 210 189 206 191 199C193.916 200.052 197.076 200.234 200.094 199.524C203.112 198.814 205.859 197.242 208 195C210.141 197.242 212.888 198.814 215.906 199.524C218.924 200.234 222.084 200.052 225 199C225.97 202.029 227.821 204.7 230.317 206.672C232.812 208.644 235.838 209.827 239.009 210.071C242.181 210.315 245.352 209.609 248.12 208.042C250.888 206.475 253.126 204.119 254.548 201.274C255.97 198.429 256.513 195.225 256.106 192.071C255.699 188.917 254.361 185.955 252.263 183.565C250.165 181.174 247.402 179.463 244.327 178.65C241.253 177.837 238.005 177.959 235 179C234.036 176.407 232.415 174.109 230.298 172.33C228.18 170.55 225.637 169.35 222.917 168.846C220.198 168.342 217.393 168.552 214.779 169.456C212.164 170.359 209.829 171.925 208 174C205 170 201 168 196 168ZM196 176C201 176 204 180 204 184C204 189 201 192 196 192C192 192 188 189 188 184C188 180 192 176 196 176ZM220 176C225 176 228 180 228 184C228 189 225 192 220 192C216 192 212 189 212 184C212 180 216 176 220 176ZM176 186L180 187L184 195C184 199 180 202 176 202C172 202 168 199 168 194C168 190 172 186 176 186ZM240 186C245 186 248 190 248 194C248 199 245 202 240 202C236 202 232 199 232 195L236 187L240 186Z" fill="#EEEEEE"/>
<path d="M200 160H216V192H200V160Z" fill="#FF9811"/>
<path d="M208 224H256V272H208V224Z" fill="#EEEEEE"/>
<path d="M248 208L240 216H176L168 208C168 195 186 184 208 184C230 184 248 195 248 208ZM160 224H208V272H160V224Z" fill="#D80027"/>
<path d="M242 242C242 236.477 237.523 232 232 232C226.477 232 222 236.477 222 242V254C222 259.523 226.477 264 232 264C237.523 264 242 259.523 242 254V242Z" fill="#D80027"/>
<path d="M168 232V240H176V256H168V264H200V256H192V240H200V232H168ZM176 216H240V224H176V216Z" fill="#FF9811"/>
<path d="M186 208C189.314 208 192 205.314 192 202C192 198.686 189.314 196 186 196C182.686 196 180 198.686 180 202C180 205.314 182.686 208 186 208Z" fill="#FFDA44"/>
<path d="M208 208C211.314 208 214 205.314 214 202C214 198.686 211.314 196 208 196C204.686 196 202 198.686 202 202C202 205.314 204.686 208 208 208Z" fill="#FFDA44"/>
<path d="M230 208C233.314 208 236 205.314 236 202C236 198.686 233.314 196 230 196C226.686 196 224 198.686 224 202C224 205.314 226.686 208 230 208Z" fill="#FFDA44"/>
<path d="M169 272V315C171.987 317.074 175.407 318.441 179 319V272H169ZM189 272V319C192.593 318.441 196.013 317.074 199 315V272H189Z" fill="#D80027"/>
<path d="M208 288C216.837 288 224 280.837 224 272C224 263.163 216.837 256 208 256C199.163 256 192 263.163 192 272C192 280.837 199.163 288 208 288Z" fill="#338AF3"/>
<path d="M288 320H272C267.582 320 264 323.582 264 328C264 332.418 267.582 336 272 336H288C292.418 336 296 332.418 296 328C296 323.582 292.418 320 288 320Z" fill="#338AF3"/>
<path d="M144 320H128C123.582 320 120 323.582 120 328C120 332.418 123.582 336 128 336H144C148.418 336 152 332.418 152 328C152 323.582 148.418 320 144 320Z" fill="#338AF3"/>
</g>
</g>
<defs>
<clipPath id="clip0_1628_1334">
<rect width="512" height="512" fill="white"/>
</clipPath>
</defs>
</svg>
