<svg width="512" height="512" viewBox="0 0 512 512" fill="none" xmlns="http://www.w3.org/2000/svg">
<g clip-path="url(#clip0_1628_1371)">
<mask id="mask0_1628_1371" style="mask-type:luminance" maskUnits="userSpaceOnUse" x="0" y="0" width="512" height="512">
<path d="M256 512C397.385 512 512 397.385 512 256C512 114.615 397.385 0 256 0C114.615 0 0 114.615 0 256C0 397.385 114.615 512 256 512Z" fill="white"/>
</mask>
<g mask="url(#mask0_1628_1371)">
<path d="M0 160L256 128L512 160V352L256 384L0 352V160Z" fill="#EEEEEE"/>
<path d="M0 0H512V160H0V0Z" fill="#D80027"/>
<path d="M0 352H512V512H0V352Z" fill="#333333"/>
<path d="M233 294C233 319 207 336 207 336H305C305 336 279 319 279 294H233Z" fill="#6DA544"/>
<path d="M255.999 176C246.999 176 238.999 180 232.999 186C228.402 183.3 223.202 181.792 217.873 181.613C212.544 181.434 207.255 182.589 202.486 184.973C197.717 187.358 193.62 190.896 190.566 195.267C187.512 199.637 185.598 204.702 184.999 210C179.267 212.632 174.44 216.9 171.125 222.267C167.811 227.634 166.156 233.861 166.37 240.165C166.584 246.47 168.656 252.571 172.326 257.701C175.997 262.831 181.102 266.762 186.999 269C187.588 274.1 189.396 278.983 192.269 283.238C195.142 287.492 198.997 290.993 203.508 293.445C208.018 295.896 213.053 297.226 218.186 297.323C223.319 297.42 228.4 296.28 232.999 294C238.999 300 246.999 304 255.999 304C264.999 304 272.999 300 278.999 294C282.999 297 287.999 298 292.999 298C309.999 298 323.999 285 324.999 269C330.897 266.762 336.002 262.831 339.673 257.701C343.343 252.571 345.415 246.47 345.629 240.165C345.843 233.861 344.188 227.634 340.874 222.267C337.559 216.9 332.732 212.632 326.999 210C326.4 204.702 324.487 199.637 321.433 195.267C318.379 190.896 314.282 187.358 309.513 184.973C304.744 182.589 299.455 181.434 294.126 181.613C288.797 181.792 283.597 183.3 278.999 186C272.999 180 264.999 176 255.999 176Z" fill="#496E2D"/>
</g>
</g>
<defs>
<clipPath id="clip0_1628_1371">
<rect width="512" height="512" fill="white"/>
</clipPath>
</defs>
</svg>
