<svg width="512" height="512" viewBox="0 0 512 512" fill="none" xmlns="http://www.w3.org/2000/svg">
<g clip-path="url(#clip0_1628_1381)">
<mask id="mask0_1628_1381" style="mask-type:luminance" maskUnits="userSpaceOnUse" x="0" y="0" width="512" height="512">
<path d="M256 512C397.385 512 512 397.385 512 256C512 114.615 397.385 0 256 0C114.615 0 0 114.615 0 256C0 397.385 114.615 512 256 512Z" fill="white"/>
</mask>
<g mask="url(#mask0_1628_1381)">
<path d="M0 0H512V512H0L64 256L0 0Z" fill="#D80027"/>
<path d="M0 0V512L256 256L0 0ZM404 168V344L300 202L468 256L300 310L404 168Z" fill="#FFDA44"/>
</g>
</g>
<defs>
<clipPath id="clip0_1628_1381">
<rect width="512" height="512" fill="white"/>
</clipPath>
</defs>
</svg>
