<svg width="512" height="512" viewBox="0 0 512 512" fill="none" xmlns="http://www.w3.org/2000/svg">
<g clip-path="url(#clip0_1628_1388)">
<mask id="mask0_1628_1388" style="mask-type:luminance" maskUnits="userSpaceOnUse" x="0" y="0" width="512" height="512">
<path d="M256 512C397.385 512 512 397.385 512 256C512 114.615 397.385 0 256 0C114.615 0 0 114.615 0 256C0 397.385 114.615 512 256 512Z" fill="white"/>
</mask>
<g mask="url(#mask0_1628_1388)">
<path d="M0 345L255.7 314L512 345V512H0V345Z" fill="#D80027"/>
<path d="M0 167.001L258 126.301L512 167.001V345.001H0V167.001Z" fill="#FFDA44"/>
<path d="M0 0H512V167H0V0Z" fill="#6DA544"/>
<path d="M256.002 378.402C323.601 378.402 378.402 323.601 378.402 256.002C378.402 188.402 323.601 133.602 256.002 133.602C188.402 133.602 133.602 188.402 133.602 256.002C133.602 323.601 188.402 378.402 256.002 378.402Z" fill="#0052B4"/>
<path d="M256.003 161.199L278.003 229.199H349.703L291.703 271.199L314.003 339.499L256.003 297.199L198.003 339.399L220.203 271.299L162.203 229.299H234.003L256.003 161.199Z" fill="#FFDA44"/>
<path d="M344.106 273.001L274.106 250.101L317.306 190.501L299.306 177.501L256.006 237.001L212.706 177.301L194.706 190.401L238.006 250.101L167.906 272.801L174.806 294.001L244.806 271.201V345.001H267.106V271.301L337.206 294.101L344.106 273.001Z" fill="#FFDA44"/>
</g>
</g>
<defs>
<clipPath id="clip0_1628_1388">
<rect width="512" height="512" fill="white"/>
</clipPath>
</defs>
</svg>
