<svg width="512" height="512" viewBox="0 0 512 512" fill="none" xmlns="http://www.w3.org/2000/svg">
<g clip-path="url(#clip0_1628_1414)">
<mask id="mask0_1628_1414" style="mask-type:luminance" maskUnits="userSpaceOnUse" x="0" y="0" width="512" height="512">
<path d="M256 512C397.385 512 512 397.385 512 256C512 114.615 397.385 0 256 0C114.615 0 0 114.615 0 256C0 397.385 114.615 512 256 512Z" fill="white"/>
</mask>
<g mask="url(#mask0_1628_1414)">
<path d="M0 167L256 135L512 167V345L256 377L0 345V167Z" fill="#D80027"/>
<path d="M0 0H512V167H0V0ZM0 345H512V512H0V345Z" fill="#6DA544"/>
<path d="M110 200L146 312L51 243H168L74 312L110 200ZM256 200L292 312L198 243H315L220 312L256 200ZM402 200L438 312L344 243H461L366 312L402 200Z" fill="#FFDA44"/>
</g>
</g>
<defs>
<clipPath id="clip0_1628_1414">
<rect width="512" height="512" fill="white"/>
</clipPath>
</defs>
</svg>
