<svg width="512" height="512" viewBox="0 0 512 512" fill="none" xmlns="http://www.w3.org/2000/svg">
<g clip-path="url(#clip0_1628_1429)">
<mask id="mask0_1628_1429" style="mask-type:luminance" maskUnits="userSpaceOnUse" x="0" y="0" width="512" height="512">
<path d="M256 512C397.385 512 512 397.385 512 256C512 114.615 397.385 0 256 0C114.615 0 0 114.615 0 256C0 397.385 114.615 512 256 512Z" fill="white"/>
</mask>
<g mask="url(#mask0_1628_1429)">
<path d="M256 0H512V512H0V256L256 0Z" fill="#338AF3"/>
<path d="M0 0V32L32 64L0 96V256H32L64 224L96 256H128L170 240L211 256H256L248 240L256 225V211L240 169L256 128V96L224 64L256 32V0H96L64 32L32 0H0Z" fill="#EEEEEE"/>
<path d="M128 256V173L211 256H128ZM256 211L173 128H256V211Z" fill="#0052B4"/>
<path d="M367.297 144.699L289.297 166.999H289.397V233.699L298.597 244.699L289.397 255.999C289.397 301.499 334.697 322.999 356.197 330.599L367.697 321.799L378.397 330.599C399.897 322.899 445.197 301.499 445.197 255.999L437.197 244.999L445.197 233.699V166.999L367.297 144.699Z" fill="#EEEEEE"/>
<path d="M32 0V32H0V96H32V256H96V96H256V32H96V0H32ZM128 128L256 256V225L159 128H128ZM445.2 167V133.6H289.4V167H356.2V233.7H289.4V256H356.2V330.6C359.838 331.926 363.543 333.061 367.3 334C367.3 334 371.7 333 378.4 330.6V256H445.2V233.7H378.4V167H445.2Z" fill="#D80027"/>
</g>
</g>
<defs>
<clipPath id="clip0_1628_1429">
<rect width="512" height="512" fill="white"/>
</clipPath>
</defs>
</svg>
