<svg width="512" height="512" viewBox="0 0 512 512" fill="none" xmlns="http://www.w3.org/2000/svg">
<g clip-path="url(#clip0_1628_1439)">
<mask id="mask0_1628_1439" style="mask-type:luminance" maskUnits="userSpaceOnUse" x="0" y="0" width="512" height="512">
<path d="M256 512C397.385 512 512 397.385 512 256C512 114.615 397.385 0 256 0C114.615 0 0 114.615 0 256C0 397.385 114.615 512 256 512Z" fill="white"/>
</mask>
<g mask="url(#mask0_1628_1439)">
<path d="M256 0H512V512H0V256L256 0Z" fill="#0052B4"/>
<path d="M0 0V32L32 64L0 96V256H32L64 224L96 256H128V173L211 256H256L248 240L256 225V211L173 128H256V96L224 64L256 32V0H96L64 32L32 0H0Z" fill="#EEEEEE"/>
<path d="M32 0V32H0V96H32V256H96V96H256V32H96V0H32ZM128 128L256 256V225L159 128H128Z" fill="#D80027"/>
<path d="M411.798 300.5V311.7H322.798V300.5H289.398V345H311.698V356.2H422.998V345H445.198V300.5H411.798Z" fill="#FFDA44"/>
<path d="M289.397 133.602V256.002C289.397 315.602 367.297 334.002 367.297 334.002C367.297 334.002 445.297 315.602 445.297 256.002V133.602H289.297H289.397Z" fill="#338AF3"/>
<path d="M367.297 224.9C347.797 224.9 347.797 242.7 328.297 242.7C308.797 242.7 308.897 224.9 289.297 224.9V256C308.897 256 308.897 273.8 328.297 273.8C347.697 273.8 347.797 256 367.297 256C386.797 256 386.797 273.8 406.297 273.8C425.797 273.8 425.697 256 445.297 256V224.8C425.697 224.8 425.697 242.6 406.297 242.6C386.797 242.6 386.797 224.8 367.297 224.8V224.9ZM367.297 162.5C347.797 162.5 347.797 180.3 328.297 180.3C308.797 180.3 308.897 162.5 289.297 162.5V193.7C308.897 193.7 308.897 211.5 328.297 211.5C347.697 211.5 347.797 193.7 367.297 193.7C386.797 193.7 386.797 211.5 406.297 211.5C425.797 211.5 425.697 193.7 445.297 193.7V162.5C425.697 162.5 425.697 180.3 406.297 180.3C386.797 180.3 386.797 162.5 367.297 162.5Z" fill="#EEEEEE"/>
</g>
</g>
<defs>
<clipPath id="clip0_1628_1439">
<rect width="512" height="512" fill="white"/>
</clipPath>
</defs>
</svg>
