<svg width="512" height="512" viewBox="0 0 512 512" fill="none" xmlns="http://www.w3.org/2000/svg">
<g clip-path="url(#clip0_1628_1450)">
<mask id="mask0_1628_1450" style="mask-type:luminance" maskUnits="userSpaceOnUse" x="0" y="0" width="512" height="512">
<path d="M256 512C397.385 512 512 397.385 512 256C512 114.615 397.385 0 256 0C114.615 0 0 114.615 0 256C0 397.385 114.615 512 256 512Z" fill="white"/>
</mask>
<g mask="url(#mask0_1628_1450)">
<path d="M0 0H512V512H0V0Z" fill="#338AF3"/>
<path d="M255.997 111.301L266.997 145.301H302.797L273.797 166.301L284.897 200.301L255.997 179.301L226.997 200.301L238.097 166.301L209.097 145.301H244.997L255.997 111.301ZM111.297 256.001L145.297 245.001V209.201L166.297 238.201L200.297 227.101L179.297 256.001L200.297 285.001L166.297 273.901L145.297 302.901V267.001L111.297 256.001ZM255.997 400.701L244.997 366.701H209.197L238.197 345.701L227.097 311.701L255.997 332.701L284.997 311.701L273.897 345.701L302.897 366.701H266.997L255.997 400.701ZM400.697 256.001L366.697 267.001V302.801L345.697 273.801L311.697 284.901L332.697 256.001L311.697 227.001L345.697 238.101L366.697 209.101V245.001L400.697 256.001Z" fill="#EEEEEE"/>
</g>
</g>
<defs>
<clipPath id="clip0_1628_1450">
<rect width="512" height="512" fill="white"/>
</clipPath>
</defs>
</svg>
