<svg width="512" height="512" viewBox="0 0 512 512" fill="none" xmlns="http://www.w3.org/2000/svg">
<g clip-path="url(#clip0_1628_1465)">
<mask id="mask0_1628_1465" style="mask-type:luminance" maskUnits="userSpaceOnUse" x="0" y="0" width="512" height="512">
<path d="M256 512C397.385 512 512 397.385 512 256C512 114.615 397.385 0 256 0C114.615 0 0 114.615 0 256C0 397.385 114.615 512 256 512Z" fill="white"/>
</mask>
<g mask="url(#mask0_1628_1465)">
<path d="M0 0H512V512H0V0Z" fill="#EEEEEE"/>
<path d="M345.097 216.799C345.121 194.322 337.417 172.52 323.278 155.047C309.139 137.575 289.423 125.494 267.435 120.829C245.448 116.164 222.525 119.2 202.509 129.426C182.494 139.652 166.602 156.448 157.497 176.999L145.497 220.799L156.497 231.999L134.297 276.499L156.597 287.599L145.397 298.699V309.999L156.597 321.099V343.399L167.697 354.399L201.097 343.399C201.097 343.399 201.097 354.399 212.197 365.599C223.297 376.799 234.497 398.999 234.497 398.999C234.497 398.999 267.897 410.099 290.097 376.799C312.397 343.399 334.697 332.199 334.697 332.199L313.197 289.299C323.272 280.12 331.322 268.94 336.832 256.473C342.342 244.007 345.191 230.528 345.197 216.899L345.097 216.799Z" fill="#333333"/>
<path d="M353.1 254.302C398.4 246.702 405.9 158.102 405.9 158.102H343.6C375.8 236.102 342.1 241.302 342.1 241.302C284.564 212.949 226.693 185.281 168.5 158.302C167.2 160.002 162.6 164.302 157 178.102C151.4 191.802 150 204.102 150 204.102C210.104 225.944 270.51 246.946 331.2 267.102C340.4 273.002 351.6 290.802 345.3 343.702L405.3 326.802C405.3 326.802 384.9 272.702 353.1 254.302Z" fill="#ACABB1"/>
</g>
</g>
<defs>
<clipPath id="clip0_1628_1465">
<rect width="512" height="512" fill="white"/>
</clipPath>
</defs>
</svg>
