<svg width="512" height="512" viewBox="0 0 512 512" fill="none" xmlns="http://www.w3.org/2000/svg">
<g clip-path="url(#clip0_1628_1473)">
<mask id="mask0_1628_1473" style="mask-type:luminance" maskUnits="userSpaceOnUse" x="0" y="0" width="512" height="512">
<path d="M256 512C397.385 512 512 397.385 512 256C512 114.615 397.385 0 256 0C114.615 0 0 114.615 0 256C0 397.385 114.615 512 256 512Z" fill="white"/>
</mask>
<g mask="url(#mask0_1628_1473)">
<path d="M0 0H256L512 57V114L480 142L512 171V228L480 256L512 285V341L480 370L512 398V455L256 484L0 455V398L32 370L0 341V285L32 256L0 228V0Z" fill="#EEEEEE"/>
<path d="M256 0H512V57H256V0ZM256 114H512V171H256V114ZM0 228H512V285H0V228ZM0 341H512V398H0V341ZM0 455H512V512H0V455ZM16 72L35 86L54 72L35 32L16 72Z" fill="#333333"/>
<path d="M46.7031 38.3984C50.0168 38.3984 52.7031 35.7121 52.7031 32.3984C52.7031 29.0847 50.0168 26.3984 46.7031 26.3984C43.3894 26.3984 40.7031 29.0847 40.7031 32.3984C40.7031 35.7121 43.3894 38.3984 46.7031 38.3984Z" fill="#333333"/>
<path d="M22.7031 38.3984C26.0168 38.3984 28.7031 35.7121 28.7031 32.3984C28.7031 29.0847 26.0168 26.3984 22.7031 26.3984C19.3894 26.3984 16.7031 29.0847 16.7031 32.3984C16.7031 35.7121 19.3894 38.3984 22.7031 38.3984Z" fill="#333333"/>
<path d="M34.7031 26.3984C38.0168 26.3984 40.7031 23.7121 40.7031 20.3984C40.7031 17.0847 38.0168 14.3984 34.7031 14.3984C31.3894 14.3984 28.7031 17.0847 28.7031 20.3984C28.7031 23.7121 31.3894 26.3984 34.7031 26.3984Z" fill="#333333"/>
<path d="M109 72L128 86L147 72L128 32L109 72Z" fill="#333333"/>
<path d="M140.398 38.3984C143.712 38.3984 146.398 35.7121 146.398 32.3984C146.398 29.0847 143.712 26.3984 140.398 26.3984C137.085 26.3984 134.398 29.0847 134.398 32.3984C134.398 35.7121 137.085 38.3984 140.398 38.3984Z" fill="#333333"/>
<path d="M116.398 38.3984C119.712 38.3984 122.398 35.7121 122.398 32.3984C122.398 29.0847 119.712 26.3984 116.398 26.3984C113.085 26.3984 110.398 29.0847 110.398 32.3984C110.398 35.7121 113.085 38.3984 116.398 38.3984Z" fill="#333333"/>
<path d="M128.398 26.3984C131.712 26.3984 134.398 23.7121 134.398 20.3984C134.398 17.0847 131.712 14.3984 128.398 14.3984C125.085 14.3984 122.398 17.0847 122.398 20.3984C122.398 23.7121 125.085 26.3984 128.398 26.3984Z" fill="#333333"/>
<path d="M203 72L222 86L241 72L222 32L203 72Z" fill="#333333"/>
<path d="M234.102 38.3984C237.415 38.3984 240.102 35.7121 240.102 32.3984C240.102 29.0847 237.415 26.3984 234.102 26.3984C230.788 26.3984 228.102 29.0847 228.102 32.3984C228.102 35.7121 230.788 38.3984 234.102 38.3984Z" fill="#333333"/>
<path d="M210.102 38.3984C213.415 38.3984 216.102 35.7121 216.102 32.3984C216.102 29.0847 213.415 26.3984 210.102 26.3984C206.788 26.3984 204.102 29.0847 204.102 32.3984C204.102 35.7121 206.788 38.3984 210.102 38.3984Z" fill="#333333"/>
<path d="M222.102 26.3984C225.415 26.3984 228.102 23.7121 228.102 20.3984C228.102 17.0847 225.415 14.3984 222.102 14.3984C218.788 14.3984 216.102 17.0847 216.102 20.3984C216.102 23.7121 218.788 26.3984 222.102 26.3984Z" fill="#333333"/>
<path d="M156 138L175 152L194 138L175 98L156 138Z" fill="#333333"/>
<path d="M187.203 104.199C190.517 104.199 193.203 101.513 193.203 98.1992C193.203 94.8855 190.517 92.1992 187.203 92.1992C183.889 92.1992 181.203 94.8855 181.203 98.1992C181.203 101.513 183.889 104.199 187.203 104.199Z" fill="#333333"/>
<path d="M163.203 104.199C166.517 104.199 169.203 101.513 169.203 98.1992C169.203 94.8855 166.517 92.1992 163.203 92.1992C159.889 92.1992 157.203 94.8855 157.203 98.1992C157.203 101.513 159.889 104.199 163.203 104.199Z" fill="#333333"/>
<path d="M175.203 92.1992C178.517 92.1992 181.203 89.5129 181.203 86.1992C181.203 82.8855 178.517 80.1992 175.203 80.1992C171.889 80.1992 169.203 82.8855 169.203 86.1992C169.203 89.5129 171.889 92.1992 175.203 92.1992Z" fill="#333333"/>
<path d="M63 138L82 152L100 138L82 98L63 138Z" fill="#333333"/>
<path d="M93.5 104.199C96.8137 104.199 99.5 101.513 99.5 98.1992C99.5 94.8855 96.8137 92.1992 93.5 92.1992C90.1863 92.1992 87.5 94.8855 87.5 98.1992C87.5 101.513 90.1863 104.199 93.5 104.199Z" fill="#333333"/>
<path d="M69.5 104.199C72.8137 104.199 75.5 101.513 75.5 98.1992C75.5 94.8855 72.8137 92.1992 69.5 92.1992C66.1863 92.1992 63.5 94.8855 63.5 98.1992C63.5 101.513 66.1863 104.199 69.5 104.199Z" fill="#333333"/>
<path d="M81.5 92.1992C84.8137 92.1992 87.5 89.5129 87.5 86.1992C87.5 82.8855 84.8137 80.1992 81.5 80.1992C78.1863 80.1992 75.5 82.8855 75.5 86.1992C75.5 89.5129 78.1863 92.1992 81.5 92.1992Z" fill="#333333"/>
<path d="M16 204L35 218L54 204L35 164L16 204Z" fill="#333333"/>
<path d="M46.7031 170C50.0168 170 52.7031 167.314 52.7031 164C52.7031 160.686 50.0168 158 46.7031 158C43.3894 158 40.7031 160.686 40.7031 164C40.7031 167.314 43.3894 170 46.7031 170Z" fill="#333333"/>
<path d="M22.7031 170C26.0168 170 28.7031 167.314 28.7031 164C28.7031 160.686 26.0168 158 22.7031 158C19.3894 158 16.7031 160.686 16.7031 164C16.7031 167.314 19.3894 170 22.7031 170Z" fill="#333333"/>
<path d="M34.7031 158C38.0168 158 40.7031 155.314 40.7031 152C40.7031 148.686 38.0168 146 34.7031 146C31.3894 146 28.7031 148.686 28.7031 152C28.7031 155.314 31.3894 158 34.7031 158Z" fill="#333333"/>
<path d="M109 204L128 218L147 204L128 164L109 204Z" fill="#333333"/>
<path d="M140.398 170C143.712 170 146.398 167.314 146.398 164C146.398 160.686 143.712 158 140.398 158C137.085 158 134.398 160.686 134.398 164C134.398 167.314 137.085 170 140.398 170Z" fill="#333333"/>
<path d="M116.398 170C119.712 170 122.398 167.314 122.398 164C122.398 160.686 119.712 158 116.398 158C113.085 158 110.398 160.686 110.398 164C110.398 167.314 113.085 170 116.398 170Z" fill="#333333"/>
<path d="M128.398 158C131.712 158 134.398 155.314 134.398 152C134.398 148.686 131.712 146 128.398 146C125.085 146 122.398 148.686 122.398 152C122.398 155.314 125.085 158 128.398 158Z" fill="#333333"/>
<path d="M203 204L222 218L241 204L222 164L203 204Z" fill="#333333"/>
<path d="M234.102 170C237.415 170 240.102 167.314 240.102 164C240.102 160.686 237.415 158 234.102 158C230.788 158 228.102 160.686 228.102 164C228.102 167.314 230.788 170 234.102 170Z" fill="#333333"/>
<path d="M210.102 170C213.415 170 216.102 167.314 216.102 164C216.102 160.686 213.415 158 210.102 158C206.788 158 204.102 160.686 204.102 164C204.102 167.314 206.788 170 210.102 170Z" fill="#333333"/>
<path d="M222.102 158C225.415 158 228.102 155.314 228.102 152C228.102 148.686 225.415 146 222.102 146C218.788 146 216.102 148.686 216.102 152C216.102 155.314 218.788 158 222.102 158Z" fill="#333333"/>
</g>
</g>
<defs>
<clipPath id="clip0_1628_1473">
<rect width="512" height="512" fill="white"/>
</clipPath>
</defs>
</svg>
