<svg width="512" height="512" viewBox="0 0 512 512" fill="none" xmlns="http://www.w3.org/2000/svg">
<g clip-path="url(#clip0_1628_1544)">
<mask id="mask0_1628_1544" style="mask-type:luminance" maskUnits="userSpaceOnUse" x="0" y="0" width="512" height="512">
<path d="M256 512C397.385 512 512 397.385 512 256C512 114.615 397.385 0 256 0C114.615 0 0 114.615 0 256C0 397.385 114.615 512 256 512Z" fill="white"/>
</mask>
<g mask="url(#mask0_1628_1544)">
<path d="M0 0H208L256 32L304 0H512V208L480 256L512 304V512H304L256 480L208 512H0V304L32 256L0 208V0Z" fill="#333333"/>
<path d="M208 0V208H0V304H208V512H304V304H512V208H304V0H208Z" fill="#EEEEEE"/>
</g>
</g>
<defs>
<clipPath id="clip0_1628_1544">
<rect width="512" height="512" fill="white"/>
</clipPath>
</defs>
</svg>
