<svg width="512" height="512" viewBox="0 0 512 512" fill="none" xmlns="http://www.w3.org/2000/svg">
<g clip-path="url(#clip0_1628_1558)">
<mask id="mask0_1628_1558" style="mask-type:luminance" maskUnits="userSpaceOnUse" x="0" y="0" width="512" height="512">
<path d="M256 512C397.385 512 512 397.385 512 256C512 114.615 397.385 0 256 0C114.615 0 0 114.615 0 256C0 397.385 114.615 512 256 512Z" fill="white"/>
</mask>
<g mask="url(#mask0_1628_1558)">
<path d="M0 0H224L256 32L288 0H512V224L480 256L512 288V512H288L256 480L224 512H0V288L32 256L0 224V0Z" fill="#EEEEEE"/>
<path d="M224 0V224H0V288H224V512H288V288H512V224H288V0H224Z" fill="#D80027"/>
<path d="M256 104L212 180H125L168 256L125 332H212L256 408L300 332H387L344 256L387 180H300L256 104Z" fill="#ACABB1"/>
<path d="M256 131L220 193H147L184 256L147 319H220L256 382L292 319H365L328 256L365 193H292L256 131Z" fill="#EEEEEE"/>
<path d="M259 195C254 195 254 200 254 200V239H251V206C251 206 251 200 246 200C240 200 240 206 240 206V241L237 242V217C237 217 237 211 232 211C226 211 226 217 226 217V260C226 270 231 280 238 286V307H274V290C283 285 290 276 292 265C292 259 294 254 296 249L300 235C300 235 301 230 296 228C291 226 289 231 289 231L281 250H278V203C278 203 278 198 273 198C267 198 267 203 267 203V239H265V200C265 200 265 195 259 195Z" fill="#D80027"/>
<path d="M245.001 38V49H234.001V71H245.001V92C239.001 86 231.001 83 223.001 83C216.363 82.9291 209.858 84.8618 204.335 88.5458C198.813 92.2297 194.53 97.4936 192.046 103.65C189.562 109.806 188.992 116.568 190.411 123.053C191.831 129.538 195.173 135.444 200.001 140V160H312.001V140C318.001 133 322.001 125 322.001 116C321.888 109.68 319.962 103.526 316.452 98.2694C312.943 93.0125 307.998 88.8741 302.204 86.3462C296.411 83.8183 290.014 83.0073 283.773 84.0095C277.533 85.0118 271.711 87.7852 267.001 92V71H278.001V49H267.001V38H245.001Z" fill="#FFDA44"/>
</g>
</g>
<defs>
<clipPath id="clip0_1628_1558">
<rect width="512" height="512" fill="white"/>
</clipPath>
</defs>
</svg>
