<svg width="512" height="512" viewBox="0 0 512 512" fill="none" xmlns="http://www.w3.org/2000/svg">
<g clip-path="url(#clip0_1628_1600)">
<mask id="mask0_1628_1600" style="mask-type:luminance" maskUnits="userSpaceOnUse" x="0" y="0" width="512" height="512">
<path d="M256 512C397.385 512 512 397.385 512 256C512 114.615 397.385 0 256 0C114.615 0 0 114.615 0 256C0 397.385 114.615 512 256 512Z" fill="white"/>
</mask>
<g mask="url(#mask0_1628_1600)">
<path d="M23.6016 23.6992H488.402V488.399H23.6016V23.6992Z" fill="#FFDA44"/>
<path d="M0 75.1L38 38L474.3 474.4L512 436.9V75L472.4 39.5L40.2 471.8L0 436.8V75.1Z" fill="#496E2D"/>
<path d="M256 345.102C305.153 345.102 345 305.255 345 256.102C345 206.948 305.153 167.102 256 167.102C206.847 167.102 167 206.948 167 256.102C167 305.255 206.847 345.102 256 345.102Z" fill="#A2001D"/>
<path d="M255.998 167L275.998 228.5H340.598L288.298 266.5L308.298 327.8L255.998 289.8L203.698 327.8L223.698 266.5L171.398 228.5H235.998L255.998 167Z" fill="#FFDA44"/>
<path d="M0 0H512V75.1H0V0ZM0 436.8H512V511.9H0V436.8Z" fill="#A2001D"/>
<path d="M255.997 28L260.097 40.7H273.597L262.697 48.7L266.897 61.3L255.997 53.4L245.197 61.4L249.297 48.6L238.397 40.6H251.997L255.997 28ZM193.997 28L197.997 40.7H211.497L200.597 48.7L204.797 61.3L193.897 53.4L183.097 61.4L187.197 48.6L176.397 40.6H189.797L193.997 28ZM317.997 28L322.197 40.7H335.597L324.797 48.7L328.897 61.3L318.097 53.4L307.197 61.4L311.397 48.6L300.497 40.6H313.997L317.997 28ZM255.997 450.8L260.097 463.5H273.597L262.697 471.5L266.897 484.2L255.997 476.2L245.197 484.2L249.297 471.4L238.397 463.5H251.997L255.997 450.8ZM193.997 450.8L197.997 463.5H211.497L200.597 471.5L204.797 484.2L193.897 476.2L183.097 484.2L187.197 471.4L176.397 463.5H189.797L193.997 450.8ZM317.997 450.8L322.197 463.5H335.597L324.797 471.5L328.897 484.2L318.097 476.2L307.197 484.2L311.397 471.4L300.497 463.5H313.997L317.997 450.8ZM77.9968 251.8C80.8489 256.778 81.6728 262.664 80.2972 268.233C78.9215 273.803 75.4521 278.628 70.6103 281.706C65.7686 284.784 59.9269 285.877 54.2999 284.758C48.6728 283.64 43.6934 280.395 40.3968 275.7C28.3968 256.9 35.3968 226.2 35.3968 226.2C35.3968 226.2 65.9968 233 77.9968 251.9V251.8Z" fill="#FFDA44"/>
<path d="M65.1 284.302C71.2304 284.302 76.2 279.332 76.2 273.202C76.2 267.071 71.2304 262.102 65.1 262.102C58.9696 262.102 54 267.071 54 273.202C54 279.332 58.9696 284.302 65.1 284.302Z" fill="#A2001D"/>
</g>
</g>
<defs>
<clipPath id="clip0_1628_1600">
<rect width="512" height="512" fill="white"/>
</clipPath>
</defs>
</svg>
