<svg width="512" height="512" viewBox="0 0 512 512" fill="none" xmlns="http://www.w3.org/2000/svg">
<g clip-path="url(#clip0_1628_1612)">
<mask id="mask0_1628_1612" style="mask-type:luminance" maskUnits="userSpaceOnUse" x="0" y="0" width="512" height="512">
<path d="M256 512C397.385 512 512 397.385 512 256C512 114.615 397.385 0 256 0C114.615 0 0 114.615 0 256C0 397.385 114.615 512 256 512Z" fill="white"/>
</mask>
<g mask="url(#mask0_1628_1612)">
<path d="M256.6 28.8008L512 73.0008V146.201L481.4 183.201L512 219.301V292.501L474.5 328.401L512 365.601V438.801L270 475.501L0 438.901V365.701L28.2 330.401L0 292.601V219.401L256.6 28.8008Z" fill="#EEEEEE"/>
<path d="M256 0L199.9 73.1H512V0H256ZM199.9 146.3L256 219.4H512V146.3H199.9ZM0 292.6V365.7H512V292.6H0ZM0 438.9V512H512V438.9H0Z" fill="#6DA544"/>
<path d="M0 0H256V219.4H0V0Z" fill="#D80027"/>
<path d="M128.003 196.301L116.903 174.001V129.501L144.703 107.201L172.503 129.501V162.901L183.703 151.701V174.001L161.403 196.301H128.003ZM68.1031 128.001L71.1031 137.001H80.6031L72.9031 142.701L75.9031 151.701L68.1031 146.101L60.4031 151.701L63.4031 142.701L55.7031 137.101H65.2031L68.1031 128.001ZM90.4031 105.701L93.4031 114.801H102.903L95.2031 120.401L98.2031 129.401L90.4031 123.901L82.7031 129.501L85.7031 120.501L77.9031 114.801H87.4031L90.4031 105.701ZM112.703 83.5008L115.603 92.5008H125.103L117.403 98.2008L120.403 107.201L112.703 101.601L104.903 107.201L107.903 98.2008L100.203 92.5008H109.703L112.703 83.5008ZM221.303 128.001L218.303 137.001H208.803L216.503 142.701L213.503 151.701L221.303 146.101L229.003 151.701L226.003 142.701L233.703 137.101H224.203L221.303 128.001ZM199.003 105.701L196.003 114.801H186.503L194.203 120.401L191.203 129.401L199.003 123.901L206.703 129.501L203.703 120.501L211.503 114.801H201.903L199.003 105.701ZM176.703 83.5008L173.703 92.5008H164.303L172.003 98.2008L169.003 107.201L176.703 101.601L184.503 107.201L181.503 98.2008L189.203 92.5008H179.703L176.703 83.5008ZM144.703 72.3008L141.703 81.4008H132.203L140.003 87.0008L137.003 96.0008L144.803 90.5008L152.503 96.1008L149.503 87.1008L157.303 81.4008H147.703L144.703 72.3008Z" fill="#EEEEEE"/>
</g>
</g>
<defs>
<clipPath id="clip0_1628_1612">
<rect width="512" height="512" fill="white"/>
</clipPath>
</defs>
</svg>
