<svg width="512" height="512" viewBox="0 0 512 512" fill="none" xmlns="http://www.w3.org/2000/svg">
<g clip-path="url(#clip0_1628_1621)">
<mask id="mask0_1628_1621" style="mask-type:luminance" maskUnits="userSpaceOnUse" x="0" y="0" width="512" height="512">
<path d="M256 512C397.385 512 512 397.385 512 256C512 114.615 397.385 0 256 0C114.615 0 0 114.615 0 256C0 397.385 114.615 512 256 512Z" fill="white"/>
</mask>
<g mask="url(#mask0_1628_1621)">
<path d="M0 0H224L256 32L288 0H512V224L480 256L512 288V512H288L256 480L224 512H0V288L32 256L0 224V0Z" fill="#EEEEEE"/>
<path d="M224 0V224H0V288H224V512H288V288H512V224H288V0H224ZM128 96V128H96V160H128V192H160V160H192V128H160V96H128ZM352 96V128H320V160H352V192H384V160H416V128H384V96H352ZM128 320V352H96V384H128V416H160V384H192V352H160V320H128ZM352 320V352H320V384H352V416H384V384H416V352H384V320H352Z" fill="#D80027"/>
</g>
</g>
<defs>
<clipPath id="clip0_1628_1621">
<rect width="512" height="512" fill="white"/>
</clipPath>
</defs>
</svg>
