<svg width="512" height="512" viewBox="0 0 512 512" fill="none" xmlns="http://www.w3.org/2000/svg">
<g clip-path="url(#clip0_1628_1636)">
<mask id="mask0_1628_1636" style="mask-type:luminance" maskUnits="userSpaceOnUse" x="0" y="0" width="512" height="512">
<path d="M256 512C397.385 512 512 397.385 512 256C512 114.615 397.385 0 256 0C114.615 0 0 114.615 0 256C0 397.385 114.615 512 256 512Z" fill="white"/>
</mask>
<g mask="url(#mask0_1628_1636)">
<path d="M0 0H222.6L253.6 23.4L289.4 0H512V222.6L490.5 253.6L512 289.4V512H289.4L255.2 491.5L222.6 512H0V289.4L22.7 256.8L0 222.6V0Z" fill="#EEEEEE"/>
<path d="M222.6 0V222.6H0V289.4H222.6V512H289.4V289.4H512V222.6H289.4V0H222.6Z" fill="#D80027"/>
<path d="M328.3 267L345 278.3V233.6L328.3 245H267.1V183.8L278.3 167H233.7L244.9 183.8V244.9H183.7L167 233.6V278.3L183.7 267H244.9V328.3L233.7 344.9H278.3L267 328.3V267H328.3Z" fill="#FFDA44"/>
</g>
</g>
<defs>
<clipPath id="clip0_1628_1636">
<rect width="512" height="512" fill="white"/>
</clipPath>
</defs>
</svg>
