<svg width="512" height="512" viewBox="0 0 512 512" fill="none" xmlns="http://www.w3.org/2000/svg">
<g clip-path="url(#clip0_1628_1662)">
<mask id="mask0_1628_1662" style="mask-type:luminance" maskUnits="userSpaceOnUse" x="0" y="0" width="512" height="512">
<path d="M256 512C397.385 512 512 397.385 512 256C512 114.615 397.385 0 256 0C114.615 0 0 114.615 0 256C0 397.385 114.615 512 256 512Z" fill="white"/>
</mask>
<g mask="url(#mask0_1628_1662)">
<path d="M0 344.999L256.3 313.699L512 344.999V511.999H0V344.999Z" fill="#D80027"/>
<path d="M0 0H512V345H0V0Z" fill="#EEEEEE"/>
<path d="M356.202 211.501V178.001H367.302V155.701H345.002V167.001H322.802V155.801H300.502V178.101H311.702V211.501H289.402V133.501H300.502V111.301H278.302V122.401H267.002V111.401H245.002V122.401H233.802V111.401H211.602V133.601H222.702V211.501H200.402V178.001H211.602V155.701H189.302V167.001H167.002V155.801H144.702V178.101H155.802V211.501H133.602V300.501H378.402V211.501H356.202Z" fill="#D80027"/>
<path d="M256 289.398C248.119 289.399 240.492 292.187 234.468 297.269C228.444 302.351 224.411 309.399 223.083 317.168C221.754 324.936 223.215 332.924 227.208 339.719C231.2 346.514 237.467 351.678 244.9 354.298V400.698H211.5V445.198H267V354.198C274.363 351.53 280.555 346.358 284.492 339.587C288.429 332.817 289.862 324.878 288.54 317.158C287.217 309.438 283.224 302.429 277.258 297.355C271.292 292.28 263.732 289.464 255.9 289.398H256ZM256 333.898C254.542 333.898 253.099 333.611 251.752 333.053C250.405 332.496 249.182 331.678 248.151 330.647C247.12 329.617 246.303 328.393 245.745 327.046C245.187 325.7 244.9 324.256 244.9 322.798C244.9 321.341 245.187 319.897 245.745 318.551C246.303 317.204 247.12 315.98 248.151 314.95C249.182 313.919 250.405 313.101 251.752 312.543C253.099 311.986 254.542 311.698 256 311.698C258.944 311.698 261.767 312.868 263.849 314.95C265.931 317.031 267.1 319.855 267.1 322.798C267.1 325.742 265.931 328.566 263.849 330.647C261.767 332.729 258.944 333.898 256 333.898Z" fill="#FFDA44"/>
</g>
</g>
<defs>
<clipPath id="clip0_1628_1662">
<rect width="512" height="512" fill="white"/>
</clipPath>
</defs>
</svg>
