<svg width="512" height="512" viewBox="0 0 512 512" fill="none" xmlns="http://www.w3.org/2000/svg">
<g clip-path="url(#clip0_1628_1653)">
<mask id="mask0_1628_1653" style="mask-type:luminance" maskUnits="userSpaceOnUse" x="0" y="0" width="512" height="512">
<path d="M256 512C397.385 512 512 397.385 512 256C512 114.615 397.385 0 256 0C114.615 0 0 114.615 0 256C0 397.385 114.615 512 256 512Z" fill="white"/>
</mask>
<g mask="url(#mask0_1628_1653)">
<path d="M0 255.999L259 210.699L512 255.999V511.999H0V255.999Z" fill="#D80027"/>
<path d="M0 0H512V256H0V0Z" fill="#EEEEEE"/>
<path d="M55.7031 256C55.7031 288.462 68.5988 319.595 91.5533 342.55C114.508 365.504 145.641 378.4 178.103 378.4C210.566 378.4 241.699 365.504 264.653 342.55C287.607 319.595 300.503 288.462 300.503 256L177.503 232L55.7031 256Z" fill="#EEEEEE"/>
<path d="M55.7031 256.002C55.7031 223.539 68.5988 192.406 91.5533 169.452C114.508 146.497 145.641 133.602 178.103 133.602C210.566 133.602 241.699 146.497 264.653 169.452C287.607 192.406 300.503 223.539 300.503 256.002H55.7031Z" fill="#D80027"/>
</g>
</g>
<defs>
<clipPath id="clip0_1628_1653">
<rect width="512" height="512" fill="white"/>
</clipPath>
</defs>
</svg>
