<svg width="512" height="512" viewBox="0 0 512 512" fill="none" xmlns="http://www.w3.org/2000/svg">
<g clip-path="url(#clip0_1628_1679)">
<mask id="mask0_1628_1679" style="mask-type:luminance" maskUnits="userSpaceOnUse" x="0" y="0" width="512" height="512">
<path d="M256 512C397.385 512 512 397.385 512 256C512 114.615 397.385 0 256 0C114.615 0 0 114.615 0 256C0 397.385 114.615 512 256 512Z" fill="white"/>
</mask>
<g mask="url(#mask0_1628_1679)">
<path d="M0 155.799L255 125.199L512 155.799V189.199L484.3 256.399L512 322.799V356.199L256 388.599L0 356.199V322.799L28.8 254.299L0 189.199V155.799Z" fill="#EEEEEE"/>
<path d="M0 0H512V155.8H0V0Z" fill="#A2001D"/>
<path d="M0 189.199H512V322.799H0V189.199Z" fill="#0052B4"/>
<path d="M0 356.199H512V511.999H0V356.199Z" fill="#496E2D"/>
</g>
</g>
<defs>
<clipPath id="clip0_1628_1679">
<rect width="512" height="512" fill="white"/>
</clipPath>
</defs>
</svg>
