<svg width="512" height="512" viewBox="0 0 512 512" fill="none" xmlns="http://www.w3.org/2000/svg">
<g clip-path="url(#clip0_1628_1688)">
<mask id="mask0_1628_1688" style="mask-type:luminance" maskUnits="userSpaceOnUse" x="0" y="0" width="512" height="512">
<path d="M256 512C397.385 512 512 397.385 512 256C512 114.615 397.385 0 256 0C114.615 0 0 114.615 0 256C0 397.385 114.615 512 256 512Z" fill="white"/>
</mask>
<g mask="url(#mask0_1628_1688)">
<path d="M0 176H512V512H0V176Z" fill="#333333"/>
<path d="M0 0H512V176H0V0Z" fill="#0052B4"/>
<path d="M93.9993 228C93.3353 227.917 92.6634 227.917 91.9993 228C90.9354 228.287 89.9421 228.79 89.0817 229.478C88.2213 230.166 87.5124 231.025 86.9993 232C85.889 233.791 85.5297 235.947 85.9993 238L92.9993 263L53.9993 240C53.0822 239.467 52.0681 239.121 51.016 238.983C49.9639 238.845 48.8948 238.918 47.8711 239.197C46.8474 239.476 45.8895 239.956 45.0531 240.609C44.2167 241.262 43.5186 242.075 42.9993 243C42.4657 243.917 42.1199 244.932 41.9819 245.984C41.844 247.036 41.9168 248.105 42.196 249.128C42.4751 250.152 42.9552 251.11 43.6082 251.946C44.2611 252.783 45.074 253.481 45.9993 254L84.9993 277L59.9993 283C58.9354 283.287 57.9421 283.79 57.0817 284.478C56.2213 285.166 55.5124 286.025 54.9993 287C53.889 288.791 53.5297 290.947 53.9993 293C54.2311 294.068 54.6791 295.077 55.3158 295.965C55.9525 296.853 56.7644 297.601 57.7014 298.164C58.6384 298.726 59.6806 299.09 60.7637 299.234C61.8469 299.378 62.9481 299.298 63.9993 299L104.999 288L112.999 293L86.9993 299C85.2234 299.802 83.801 301.224 82.9993 303C81.889 304.791 81.5297 306.947 81.9993 309C82.2311 310.068 82.6791 311.077 83.3158 311.965C83.9525 312.853 84.7644 313.601 85.7014 314.164C86.6384 314.726 87.6806 315.09 88.7637 315.234C89.8469 315.378 90.9481 315.298 91.9993 315L131.999 304L139.999 309L114.999 315C113.223 315.802 111.801 317.224 110.999 319C109.889 320.791 109.53 322.947 109.999 325C110.231 326.068 110.679 327.077 111.316 327.965C111.953 328.853 112.764 329.601 113.701 330.164C114.638 330.726 115.681 331.09 116.764 331.234C117.847 331.378 118.948 331.298 119.999 331L159.999 320L184.999 334C185.916 334.534 186.931 334.88 187.983 335.018C189.035 335.156 190.104 335.083 191.128 334.804C192.151 334.524 193.109 334.044 193.946 333.391C194.782 332.738 195.48 331.926 195.999 331C196.78 329.25 196.906 327.279 196.355 325.443C195.805 323.608 194.614 322.032 192.999 321L167.999 306L156.999 266C156.768 264.932 156.32 263.923 155.683 263.035C155.046 262.147 154.234 261.399 153.297 260.837C152.36 260.275 151.318 259.911 150.235 259.767C149.152 259.623 148.051 259.702 146.999 260C145.935 260.287 144.942 260.79 144.082 261.478C143.221 262.166 142.512 263.025 141.999 264C141.221 265.925 141.221 268.076 141.999 270L147.999 295L139.999 290L128.999 250C128.522 248.055 127.333 246.36 125.667 245.249C124.001 244.138 121.978 243.692 119.999 244C118.935 244.287 117.942 244.79 117.082 245.478C116.221 246.166 115.512 247.025 114.999 248C113.889 249.791 113.53 251.947 113.999 254L120.999 279L112.999 274L101.999 234C101.546 232.24 100.506 230.687 99.0523 229.596C97.5982 228.506 95.8161 227.943 93.9993 228ZM273.999 324L395.999 431C412.999 418 427.999 401 439.999 383L273.999 324Z" fill="#6DA544"/>
<path d="M256.003 480L235.003 451L204.003 470L196.003 435L160.003 440L166.003 405L130.003 396L149.003 365L120.003 344L149.003 323L130.003 292L166.003 284L160.003 248L196.003 254L204.003 218L235.003 237L256.003 208L277.003 237L308.003 218L316.003 254L352.003 248L346.003 284L382.003 292L363.003 323L392.003 344L363.003 365L382.003 396L346.003 404L352.003 440L316.003 435L308.003 470L277.003 451L256.003 480ZM256.003 40L246.003 51C239.003 62 237.003 73 241.003 82L248.003 99C244.003 93 239.003 89 233.003 87C229.003 86 222.003 87 217.003 92C210.003 98 207.003 116 228.003 119C226.003 116 226.003 110 231.003 108C234.003 106 238.003 107 239.003 108C241.003 109 243.003 112 244.003 115H239.003V125H245.003C243.003 131 239.003 134 230.003 141C238.003 142 247.003 136 249.003 134L251.003 129L250.003 149C251.003 154 252.003 156 256.003 160C260.003 156 261.003 154 262.003 149L261.003 129L263.003 133C265.003 136 274.003 142 282.003 142C273.003 134 269.003 131 268.003 125H273.003V115H268.003C269.003 112 271.003 109 273.003 108C274.003 107 278.003 106 282.003 108C286.003 110 286.003 116 284.003 119C305.003 116 302.003 98 295.003 92C290.003 87 284.003 86 279.003 87C273.003 89 268.003 93 264.003 99L271.003 82C275.003 73 273.003 62 266.003 51L256.003 40ZM352.003 40L342.003 51C335.003 62 333.003 73 337.003 82L344.003 99C340.003 93 335.003 89 329.003 87C324.003 86 318.003 87 312.003 92C306.003 98 303.003 116 324.003 119C322.003 116 322.003 110 327.003 108C330.003 106 334.003 107 335.003 108C337.003 109 339.003 112 340.003 115H335.003V125H340.003C339.003 131 335.003 134 326.003 141C334.003 142 343.003 136 345.003 134L347.003 129L346.003 149C347.003 154 348.003 156 352.003 160C356.003 156 357.003 154 358.003 149L357.003 129L359.003 133C361.003 136 370.003 142 378.003 142C369.003 134 365.003 131 363.003 125H369.003V115H364.003C365.003 112 367.003 109 369.003 108C370.003 107 374.003 106 377.003 108C382.003 110 382.003 116 380.003 119C401.003 116 398.003 98 391.003 92C386.003 87 380.003 86 375.003 87C369.003 89 364.003 93 360.003 99L367.003 82C371.003 73 369.003 62 362.003 51L352.003 40ZM160.003 40L150.003 51C143.003 62 141.003 73 145.003 82L152.003 99C148.003 93 143.003 89 137.003 87C133.003 86 126.003 87 121.003 92C114.003 98 111.003 116 132.003 119C130.003 116 130.003 110 135.003 108C138.003 106 142.003 107 143.003 108C145.003 109 147.003 112 148.003 115H143.003V125H149.003C147.003 131 143.003 134 134.003 141C142.003 142 151.003 136 153.003 134L155.003 129L154.003 149C155.003 154 156.003 156 160.003 160C164.003 156 165.003 154 166.003 149L165.003 129L167.003 133C169.003 136 178.003 142 186.003 142C177.003 134 173.003 131 172.003 125H177.003V115H172.003C173.003 112 175.003 109 177.003 108C178.003 107 182.003 106 186.003 108C190.003 110 190.003 116 188.003 119C209.003 116 207.003 98 200.003 92C194.003 87 188.003 86 183.003 87C177.003 89 172.003 93 168.003 99L175.003 82C179.003 73 177.003 62 170.003 51L160.003 40Z" fill="#FFDA44"/>
</g>
</g>
<defs>
<clipPath id="clip0_1628_1688">
<rect width="512" height="512" fill="white"/>
</clipPath>
</defs>
</svg>
