<svg width="512" height="512" viewBox="0 0 512 512" fill="none" xmlns="http://www.w3.org/2000/svg">
<g clip-path="url(#clip0_1628_1704)">
<mask id="mask0_1628_1704" style="mask-type:luminance" maskUnits="userSpaceOnUse" x="0" y="0" width="512" height="512">
<path d="M256 512C397.385 512 512 397.385 512 256C512 114.615 397.385 0 256 0C114.615 0 0 114.615 0 256C0 397.385 114.615 512 256 512Z" fill="white"/>
</mask>
<g mask="url(#mask0_1628_1704)">
<path d="M41.2969 121.898L511.997 166.998V344.998L43.7969 391.298L41.2969 121.898Z" fill="#EEEEEE"/>
<path d="M0 0H512V167H111L0 0Z" fill="#6DA544"/>
<path d="M111 345H512V512H0L111 345Z" fill="#D80027"/>
<path d="M0 0V512L256 256L0 0Z" fill="#0052B4"/>
<path d="M333.998 257.102H356.198V289.402H333.898L333.998 257.102Z" fill="#FF9811"/>
<path d="M367.301 245C367.505 241.952 367.081 238.895 366.056 236.018C365.03 233.142 363.425 230.506 361.338 228.275C359.252 226.045 356.73 224.266 353.928 223.05C351.127 221.834 348.105 221.207 345.051 221.207C341.997 221.207 338.975 221.834 336.173 223.05C333.371 224.266 330.849 226.045 328.763 228.275C326.677 230.506 325.071 233.142 324.046 236.018C323.02 238.895 322.596 241.952 322.801 245C321.261 244.853 319.708 245.03 318.241 245.518C316.774 246.007 315.425 246.797 314.281 247.837C313.137 248.877 312.223 250.145 311.597 251.56C310.972 252.974 310.648 254.503 310.648 256.049C310.648 257.596 310.972 259.125 311.597 260.54C312.223 261.954 313.137 263.222 314.281 264.262C315.425 265.302 316.774 266.092 318.241 266.581C319.708 267.069 321.261 267.246 322.801 267.1H367.301C370.245 267.1 373.068 265.93 375.15 263.848C377.231 261.767 378.401 258.943 378.401 256C378.401 253.056 377.231 250.232 375.15 248.151C373.068 246.069 370.245 244.9 367.301 244.9V245Z" fill="#6DA544"/>
</g>
</g>
<defs>
<clipPath id="clip0_1628_1704">
<rect width="512" height="512" fill="white"/>
</clipPath>
</defs>
</svg>
