<svg width="512" height="512" viewBox="0 0 512 512" fill="none" xmlns="http://www.w3.org/2000/svg">
<g clip-path="url(#clip0_1628_1715)">
<mask id="mask0_1628_1715" style="mask-type:luminance" maskUnits="userSpaceOnUse" x="0" y="0" width="512" height="512">
<path d="M256 512C397.385 512 512 397.385 512 256C512 114.615 397.385 0 256 0C114.615 0 0 114.615 0 256C0 397.385 114.615 512 256 512Z" fill="white"/>
</mask>
<g mask="url(#mask0_1628_1715)">
<path d="M256 0H512V512H0V256L256 0Z" fill="#0052B4"/>
<path d="M0 0V32L32 64L0 96V256H32L64 224L96 256H128V173L211 256H256L248 240L256 225V211L173 128H256V96L224 64L256 32V0H96L64 32L32 0H0Z" fill="#EEEEEE"/>
<path d="M32 0V32H0V96H32V256H96V96H256V32H96V0H32ZM128 128L256 256V225L159 128H128Z" fill="#D80027"/>
<path d="M384 256H352C343.163 256 336 263.163 336 272C336 280.837 343.163 288 352 288H384C392.837 288 400 280.837 400 272C400 263.163 392.837 256 384 256Z" fill="#6DA544"/>
<path d="M368 128C385.673 128 400 113.673 400 96C400 78.3269 385.673 64 368 64C350.327 64 336 78.3269 336 96C336 113.673 350.327 128 368 128Z" fill="#FF9811"/>
<path d="M368 192C394.51 192 416 170.51 416 144C416 117.49 394.51 96 368 96C341.49 96 320 117.49 320 144C320 170.51 341.49 192 368 192Z" fill="#ACABB1"/>
<path d="M320 144V221C320 257 368 269 368 269C368 269 416 257 416 221V144H320Z" fill="#338AF3"/>
<path d="M320 144C320 135.163 312.837 128 304 128C295.163 128 288 135.163 288 144V240C288 248.837 295.163 256 304 256C312.837 256 320 248.837 320 240V144Z" fill="#333333"/>
<path d="M448 144C448 135.163 440.837 128 432 128C423.163 128 416 135.163 416 144V240C416 248.837 423.163 256 432 256C440.837 256 448 248.837 448 240V144Z" fill="#333333"/>
<path d="M320 144L368 256L416 144H320Z" fill="#6DA544"/>
<path d="M288 288V320H320V328H416V320H448V288H416V296H320V288H288Z" fill="#FFDA44"/>
</g>
</g>
<defs>
<clipPath id="clip0_1628_1715">
<rect width="512" height="512" fill="white"/>
</clipPath>
</defs>
</svg>
