<svg width="512" height="512" viewBox="0 0 512 512" fill="none" xmlns="http://www.w3.org/2000/svg">
<g clip-path="url(#clip0_1628_1731)">
<mask id="mask0_1628_1731" style="mask-type:luminance" maskUnits="userSpaceOnUse" x="0" y="0" width="512" height="512">
<path d="M256 512C397.385 512 512 397.385 512 256C512 114.615 397.385 0 256 0C114.615 0 0 114.615 0 256C0 397.385 114.615 512 256 512Z" fill="white"/>
</mask>
<g mask="url(#mask0_1628_1731)">
<path d="M0 0H144.7L253.1 41.2L367.3 0H512V512H367.3L257.1 470.6L144.7 512H0V0Z" fill="#338AF3"/>
<path d="M144.703 0H367.303V512H144.703V0Z" fill="#EEEEEE"/>
<path d="M322.903 299.299L279.603 255.999L320.803 214.799L319.003 192.999L307.303 181.199L256.103 232.399L204.903 181.199L193.203 192.999L191.203 214.799L232.503 255.999L189.203 299.299L212.803 322.899L256.103 279.599L299.403 322.899L322.903 299.299Z" fill="#ACABB1"/>
<path d="M319 193L295.4 216.6C303.26 224.357 308.627 234.283 310.815 245.107C313.002 255.932 311.911 267.163 307.68 277.363C303.45 287.564 296.272 296.271 287.066 302.37C277.859 308.469 267.043 311.682 256 311.6C245 311.586 234.25 308.315 225.107 302.2C215.963 296.085 208.835 287.399 204.621 277.238C200.407 267.078 199.296 255.897 201.428 245.105C203.559 234.314 208.839 224.395 216.6 216.6L193 193C180.572 205.454 172.115 221.313 168.696 238.572C165.278 255.831 167.051 273.716 173.793 289.968C180.535 306.219 191.942 320.108 206.574 329.879C221.206 339.65 238.406 344.865 256 344.865C273.594 344.865 290.794 339.65 305.426 329.879C320.058 320.108 331.465 306.219 338.207 289.968C344.949 273.716 346.722 255.831 343.304 238.572C339.885 221.313 331.428 205.454 319 193Z" fill="#6DA544"/>
</g>
</g>
<defs>
<clipPath id="clip0_1628_1731">
<rect width="512" height="512" fill="white"/>
</clipPath>
</defs>
</svg>
