<svg width="512" height="512" viewBox="0 0 512 512" fill="none" xmlns="http://www.w3.org/2000/svg">
<g clip-path="url(#clip0_1628_1740)">
<mask id="mask0_1628_1740" style="mask-type:luminance" maskUnits="userSpaceOnUse" x="0" y="0" width="512" height="512">
<path d="M256 512C397.385 512 512 397.385 512 256C512 114.615 397.385 0 256 0C114.615 0 0 114.615 0 256C0 397.385 114.615 512 256 512Z" fill="white"/>
</mask>
<g mask="url(#mask0_1628_1740)">
<path d="M0 0H512V44.6L470.8 251.8L512 467.6V512H0V467.6L38 248.6L0 44.6V0Z" fill="#D80027"/>
<path d="M0 44.6016H512V467.602H0V44.6016Z" fill="#0052B4"/>
<path d="M241.497 417.702C237.997 414.702 155.797 343.202 155.797 256.102C155.797 169.102 237.997 97.5016 241.497 94.5016L255.997 82.1016L270.497 94.5016C273.997 97.5016 356.197 168.902 356.197 256.102C356.197 343.302 273.997 414.702 270.497 417.702L255.997 430.102L241.497 417.702Z" fill="#D80027"/>
<path d="M334 256.098C334 178.098 256 111.398 256 111.398C256 111.398 178 178.198 178 256.098C178.559 279.423 184.551 302.296 195.5 322.898H316.5C327.414 302.287 333.372 279.415 333.9 256.098H334Z" fill="#338AF3"/>
<path d="M334.002 256.102C333.443 279.426 327.451 302.299 316.502 322.902L256.002 334.002L195.502 323.002C184.572 302.36 178.614 279.452 178.102 256.102H333.902H334.002Z" fill="#0052B4"/>
<path d="M256 400.801C256 400.801 293.5 368.601 316.5 322.801H195.5C218.5 368.601 256 400.801 256 400.801Z" fill="#FFDA44"/>
<path d="M206 211.602H306L256 261.602L206 211.602Z" fill="#6DA544"/>
<path d="M239.297 245H272.697V345.1H239.297V245Z" fill="#A2001D"/>
</g>
</g>
<defs>
<clipPath id="clip0_1628_1740">
<rect width="512" height="512" fill="white"/>
</clipPath>
</defs>
</svg>
