<svg width="512" height="512" viewBox="0 0 512 512" fill="none" xmlns="http://www.w3.org/2000/svg">
<g clip-path="url(#clip0_1628_1772)">
<mask id="mask0_1628_1772" style="mask-type:luminance" maskUnits="userSpaceOnUse" x="0" y="0" width="512" height="512">
<path d="M256 512C397.385 512 512 397.385 512 256C512 114.615 397.385 0 256 0C114.615 0 0 114.615 0 256C0 397.385 114.615 512 256 512Z" fill="white"/>
</mask>
<g mask="url(#mask0_1628_1772)">
<path d="M0 0H189.2L243.2 257.6L189.2 512H0V0Z" fill="#D80027"/>
<path d="M189.202 0H512.002V256L353.002 309.5L189.102 256L189.202 0Z" fill="#FFDA44"/>
<path d="M189.203 256H512.003V512H189.203V256Z" fill="#6DA544"/>
<path d="M96.7 189.199L113.3 240.199H167L123.6 271.799L140.1 322.799L96.7 291.299L53.3 322.799L69.9 271.799L26.5 240.199H80.2L96.7 189.199Z" fill="#333333"/>
</g>
</g>
<defs>
<clipPath id="clip0_1628_1772">
<rect width="512" height="512" fill="white"/>
</clipPath>
</defs>
</svg>
