<svg width="512" height="512" viewBox="0 0 512 512" fill="none" xmlns="http://www.w3.org/2000/svg">
<g clip-path="url(#clip0_1628_1762)">
<mask id="mask0_1628_1762" style="mask-type:luminance" maskUnits="userSpaceOnUse" x="0" y="0" width="512" height="512">
<path d="M256 512C397.385 512 512 397.385 512 256C512 114.615 397.385 0 256 0C114.615 0 0 114.615 0 256C0 397.385 114.615 512 256 512Z" fill="white"/>
</mask>
<g mask="url(#mask0_1628_1762)">
<path d="M77.7031 0H512.003V512H77.8031L77.7031 0Z" fill="#6DA544"/>
<path d="M425.398 254.7L31.3984 512H77.7984L511.998 256L77.6984 0H31.3984L425.398 254.7Z" fill="#EEEEEE"/>
<path d="M255.998 256L31.3984 512L468.198 256L31.3984 0L255.998 256Z" fill="#FFDA44"/>
<path d="M0 0V1.8L219.6 255.6L0 510V512H31.4L287.4 256L31.4 0H0Z" fill="#333333"/>
<path d="M0 0V512L256 256L0 0Z" fill="#D80027"/>
</g>
</g>
<defs>
<clipPath id="clip0_1628_1762">
<rect width="512" height="512" fill="white"/>
</clipPath>
</defs>
</svg>
