<svg width="512" height="512" viewBox="0 0 512 512" fill="none" xmlns="http://www.w3.org/2000/svg">
<g clip-path="url(#clip0_1628_1788)">
<mask id="mask0_1628_1788" style="mask-type:luminance" maskUnits="userSpaceOnUse" x="0" y="0" width="512" height="512">
<path d="M256 512C397.385 512 512 397.385 512 256C512 114.615 397.385 0 256 0C114.615 0 0 114.615 0 256C0 397.385 114.615 512 256 512Z" fill="white"/>
</mask>
<g mask="url(#mask0_1628_1788)">
<path d="M0 0H512V512H0V0Z" fill="#EEEEEE"/>
<path d="M218 154L256 70L294 154L154 294L70 256L154 218L294 358L256 442L218 358L358 218L442 256L358 294L218 154Z" fill="#6DA544"/>
<path d="M244.5 29.5C244.5 70 233.3 108 213.8 140.3L164.8 91.3C156.345 82.8669 144.891 78.131 132.95 78.131C121.009 78.131 109.555 82.8669 101.1 91.3L91.2 101.1C82.7669 109.555 78.031 121.009 78.031 132.95C78.031 144.891 82.7669 156.345 91.2 164.8L140.3 213.8C106.855 233.94 68.5409 244.555 29.5 244.5V267.5C70 267.5 108 278.7 140.3 298.2L91.3 347.2C82.8669 355.655 78.131 367.109 78.131 379.05C78.131 390.991 82.8669 402.445 91.3 410.9L101.1 420.8C109.555 429.233 121.009 433.969 132.95 433.969C144.891 433.969 156.345 429.233 164.8 420.8L213.8 371.7C233.94 405.145 244.555 443.459 244.5 482.5H267.5C267.5 442 278.7 404 298.2 371.7L347.2 420.7C355.655 429.133 367.109 433.869 379.05 433.869C390.991 433.869 402.445 429.133 410.9 420.7L420.8 410.9C429.233 402.445 433.969 390.991 433.969 379.05C433.969 367.109 429.233 355.655 420.8 347.2L371.7 298.2C405.145 278.06 443.459 267.445 482.5 267.5V244.5C442 244.5 404 233.3 371.7 213.8L420.7 164.8C429.133 156.345 433.869 144.891 433.869 132.95C433.869 121.009 429.133 109.555 420.7 101.1L410.9 91.2C402.445 82.7669 390.991 78.031 379.05 78.031C367.109 78.031 355.655 82.7669 347.2 91.2L298.2 140.3C278.06 106.855 267.445 68.5409 267.5 29.5H244.5ZM256 92.2C262.112 114.313 271.445 135.405 283.7 154.8L256 182.5L228.3 154.8C240.555 135.405 249.888 114.313 256 92.2ZM133 98C139.615 98.0411 145.943 100.702 150.6 105.4L202.6 157.2C189.806 174.476 174.504 189.744 157.2 202.5L105.4 150.6C103.051 148.3 101.184 145.554 99.9098 142.523C98.6355 139.492 97.9791 136.238 97.9791 132.95C97.9791 129.662 98.6355 126.408 99.9098 123.377C101.184 120.346 103.051 117.6 105.4 115.3L115.3 105.3C117.626 102.98 120.386 101.141 123.423 99.8884C126.461 98.6358 129.715 97.9941 133 98ZM379 98C385.4 98 391.8 100.4 396.7 105.4L406.7 115.3C409.049 117.6 410.916 120.346 412.19 123.377C413.465 126.408 414.121 129.662 414.121 132.95C414.121 136.238 413.465 139.492 412.19 142.523C410.916 145.554 409.049 148.3 406.7 150.6L354.7 202.6C337.467 189.829 322.233 174.561 309.5 157.3L361.4 105.3C366.073 100.639 372.4 98.0146 379 98ZM216.7 171.5L241.9 196.6L196.6 241.9L171.4 216.7C188.483 203.723 203.723 188.483 216.7 171.4V171.5ZM295.3 171.5C308.254 188.541 323.459 203.746 340.5 216.7L315.4 241.9L270.1 196.6L295.3 171.5ZM256 210.6L301.3 255.9L256 301.2L210.7 255.9L256 210.6ZM154.8 228.2L182.5 255.9L154.8 283.6C135.4 271.38 114.307 262.081 92.2 256C114.313 249.888 135.405 240.555 154.8 228.3V228.2ZM357.2 228.2C376.595 240.455 397.687 249.788 419.8 255.9C397.687 262.012 376.595 271.345 357.2 283.6L329.5 256L357.2 228.3V228.2ZM196.6 270L241.9 315.3L216.7 340.4C203.716 323.352 188.476 308.147 171.4 295.2L196.6 270ZM315.4 270L340.5 295.2C323.452 308.184 308.247 323.424 295.3 340.5L270.1 315.3L315.4 270ZM157.3 309.4C174.533 322.171 189.767 337.439 202.5 354.7L150.6 406.5C148.3 408.849 145.554 410.716 142.523 411.99C139.492 413.264 136.238 413.921 132.95 413.921C129.662 413.921 126.408 413.264 123.377 411.99C120.346 410.716 117.6 408.849 115.3 406.5L105.3 396.6C102.951 394.3 101.084 391.554 99.8098 388.523C98.5355 385.492 97.8791 382.238 97.8791 378.95C97.8791 375.662 98.5355 372.408 99.8098 369.377C101.084 366.346 102.951 363.6 105.3 361.3L157.3 309.4ZM354.7 309.4L406.7 361.3C409.049 363.6 410.916 366.346 412.19 369.377C413.465 372.408 414.121 375.662 414.121 378.95C414.121 382.238 413.465 385.492 412.19 388.523C410.916 391.554 409.049 394.3 406.7 396.6L396.7 406.6C394.4 408.949 391.654 410.816 388.623 412.09C385.592 413.365 382.338 414.021 379.05 414.021C375.762 414.021 372.508 413.365 369.477 412.09C366.446 410.816 363.7 408.949 361.4 406.6L309.4 354.6C322.201 337.359 337.503 322.125 354.8 309.4H354.7ZM256 329.4L283.7 357.1C271.445 376.495 262.112 397.587 256 419.7C249.888 397.587 240.555 376.495 228.3 357.1L256 329.4Z" fill="#333333"/>
</g>
</g>
<defs>
<clipPath id="clip0_1628_1788">
<rect width="512" height="512" fill="white"/>
</clipPath>
</defs>
</svg>
