<svg width="512" height="512" viewBox="0 0 512 512" fill="none" xmlns="http://www.w3.org/2000/svg">
<g clip-path="url(#clip0_1628_1796)">
<mask id="mask0_1628_1796" style="mask-type:luminance" maskUnits="userSpaceOnUse" x="0" y="0" width="512" height="512">
<path d="M256 512C397.385 512 512 397.385 512 256C512 114.615 397.385 0 256 0C114.615 0 0 114.615 0 256C0 397.385 114.615 512 256 512Z" fill="white"/>
</mask>
<g mask="url(#mask0_1628_1796)">
<path d="M0 0H512V512H0V0Z" fill="#D80027"/>
<path d="M41 32L16 51L6 72L18 105L4 122L9 149L21 123L34 141L0 175L54 190L35 172L59 155L83 172L64 190L118 175L84 141L97 123L109 149L114 122L100 105L112 72L102 51L77 32L94 69L71 93L74 69L59 44L44 69L47 93L24 69L41 32ZM435 32L410 51L400 72L412 105L398 122L403 149L415 123L428 141L394 175L448 190L429 172L453 155L477 172L458 190L512 175L478 141L491 123L503 149L508 122L494 105L506 72L496 51L471 32L488 69L465 93L468 69L453 44L438 69L441 93L418 69L435 32ZM228.3 42V74L200.6 90L228.3 106V138L256 122L283.7 138V106L311.4 90L283.7 74V42L256 58L228.3 42ZM256 244C226.561 244 198.328 255.695 177.511 276.511C156.695 297.328 145 325.561 145 355C145 384.439 156.695 412.672 177.511 433.489C198.328 454.305 226.561 466 256 466C285.439 466 313.672 454.305 334.489 433.489C355.305 412.672 367 384.439 367 355C367 325.561 355.305 297.328 334.489 276.511C313.672 255.695 285.439 244 256 244ZM41 322L16 341L6 362L34 431L0 465L54 480L35 462L59 445L83 462L64 480L118 465L84 431L112 362L102 341L77 322L94 359L71 383L74 359L59 334L44 359L47 383L24 359L41 322ZM435 322L410 341L400 362L428 431L394 465L448 480L429 462L453 445L477 462L458 480L512 465L478 431L506 362L496 341L471 322L488 359L465 383L468 359L453 334L438 359L441 383L418 359L435 322Z" fill="#FFDA44"/>
</g>
</g>
<defs>
<clipPath id="clip0_1628_1796">
<rect width="512" height="512" fill="white"/>
</clipPath>
</defs>
</svg>
