<svg width="512" height="512" viewBox="0 0 512 512" fill="none" xmlns="http://www.w3.org/2000/svg">
<g clip-path="url(#clip0_1628_1811)">
<mask id="mask0_1628_1811" style="mask-type:luminance" maskUnits="userSpaceOnUse" x="0" y="0" width="512" height="512">
<path d="M256 512C397.385 512 512 397.385 512 256C512 114.615 397.385 0 256 0C114.615 0 0 114.615 0 256C0 397.385 114.615 512 256 512Z" fill="white"/>
</mask>
<g mask="url(#mask0_1628_1811)">
<path d="M0 0H512V144.7L471.5 257.3L512 367.3V512H0V367.3L42.2 253.3L0 144.7V0Z" fill="#338AF3"/>
<path d="M0 144.699H512V367.299H0V144.699Z" fill="#EEEEEE"/>
<path d="M157.498 167L165.798 192.5H192.698L170.998 208.2L179.198 233.7L157.498 218L135.798 233.7L144.098 208.2L122.398 192.5H149.298L157.498 167ZM157.498 278.3L165.798 303.8H192.698L170.998 319.5L179.198 345L157.498 329.3L135.798 345L144.098 319.5L122.398 303.8H149.298L157.498 278.3ZM354.498 167L362.698 192.5H389.598L367.898 208.2L376.198 233.7L354.498 218L332.798 233.7L340.998 208.2L319.298 192.5H346.198L354.498 167ZM354.498 278.3L362.698 303.8H389.598L367.898 319.5L376.198 345L354.498 329.3L332.798 345L340.998 319.5L319.298 303.8H346.198L354.498 278.3ZM255.998 222.6L264.298 248.1H290.998L269.398 264L277.698 289.5L255.998 273.7L234.298 289.5L242.598 264L220.898 248.2H247.698L255.998 222.6Z" fill="#338AF3"/>
</g>
</g>
<defs>
<clipPath id="clip0_1628_1811">
<rect width="512" height="512" fill="white"/>
</clipPath>
</defs>
</svg>
