<svg width="512" height="512" viewBox="0 0 512 512" fill="none" xmlns="http://www.w3.org/2000/svg">
<g clip-path="url(#clip0_1628_1819)">
<mask id="mask0_1628_1819" style="mask-type:luminance" maskUnits="userSpaceOnUse" x="0" y="0" width="512" height="512">
<path d="M256 512C397.385 512 512 397.385 512 256C512 114.615 397.385 0 256 0C114.615 0 0 114.615 0 256C0 397.385 114.615 512 256 512Z" fill="white"/>
</mask>
<g mask="url(#mask0_1628_1819)">
<path d="M0 166.999L253.8 147.699L512 166.999V344.999L257.1 377.299L0 344.999V166.999Z" fill="#EEEEEE"/>
<path d="M0 0H512V167H0V0Z" fill="#D80027"/>
<path d="M0 345H512V512H0V345Z" fill="#0052B4"/>
<path d="M322.8 178.002H278.3L285.7 122.302L315.4 100.102L345 122.302V167.002L322.8 178.002ZM189.2 178.002H233.7L226.3 122.302L196.6 100.102L167 122.302V167.002L189.2 178.002Z" fill="#338AF3"/>
<path d="M285.697 178.002H226.297V122.302L255.997 100.102L285.697 122.302V178.002Z" fill="#0052B4"/>
<path d="M167 167V289.3C167.008 303.151 170.248 316.808 176.463 329.186C182.678 341.564 191.696 352.321 202.8 360.6L218.3 356.7L238 376.5C243.923 377.709 249.954 378.312 256 378.3C262.012 378.306 268.009 377.703 273.9 376.5L296.3 357.8L309.3 360.6C320.385 352.31 329.384 341.549 335.582 329.172C341.779 316.794 345.004 303.142 345 289.3V167H167Z" fill="#EEEEEE"/>
<path d="M167 167H202.6V202.5H167V167ZM238.2 167H273.8V202.5H238.2V167ZM309.4 167H345V202.5H309.4V167ZM202.6 202.5H238.2V238.1H202.6V202.5ZM273.8 202.5H309.4V238.1H273.8V202.5ZM167 238.1H202.6V273.7H167V238.1ZM202.6 273.7H238.2V309.3H202.6V273.7ZM238.2 238.1H273.8V273.7H238.2V238.1ZM309.4 238.1H345V273.7H309.4V238.1ZM273.8 273.7H309.4V309.3H273.8V273.7ZM238.2 309.3H273.8V345H238.2V309.3ZM202.6 309.3H169.3C172.3 322.6 178.3 334.7 186.6 344.9H202.6V309.3ZM309.4 345H325.4C333.772 334.586 339.685 322.417 342.7 309.4H309.4V345ZM202.6 345V360.6C213.132 368.51 225.293 373.976 238.2 376.6V345H202.6ZM273.8 345V376.6C286.707 373.976 298.868 368.51 309.4 360.6V345H273.8Z" fill="#D80027"/>
</g>
</g>
<defs>
<clipPath id="clip0_1628_1819">
<rect width="512" height="512" fill="white"/>
</clipPath>
</defs>
</svg>
