<svg width="512" height="512" viewBox="0 0 512 512" fill="none" xmlns="http://www.w3.org/2000/svg">
<g clip-path="url(#clip0_1628_1831)">
<mask id="mask0_1628_1831" style="mask-type:luminance" maskUnits="userSpaceOnUse" x="0" y="0" width="512" height="512">
<path d="M256 512C397.385 512 512 397.385 512 256C512 114.615 397.385 0 256 0C114.615 0 0 114.615 0 256C0 397.385 114.615 512 256 512Z" fill="white"/>
</mask>
<g mask="url(#mask0_1628_1831)">
<path d="M0 255.999L254.8 214.199L512 255.999V511.999H0V255.999Z" fill="#A2001D"/>
<path d="M0 0H512V256H0V0Z" fill="#0052B4"/>
<path d="M345 322.801L256 311.701L167 322.701V189.301H345V322.801Z" fill="#EEEEEE"/>
<path d="M256 311.602C280.577 311.602 300.5 291.678 300.5 267.102C300.5 242.525 280.577 222.602 256 222.602C231.423 222.602 211.5 242.525 211.5 267.102C211.5 291.678 231.423 311.602 256 311.602Z" fill="#0052B4"/>
<path d="M256.003 289.401C268.319 289.401 278.303 279.417 278.303 267.101C278.303 254.785 268.319 244.801 256.003 244.801C243.687 244.801 233.703 254.785 233.703 267.101C233.703 279.417 243.687 289.401 256.003 289.401Z" fill="#A2001D"/>
<path d="M222.602 211.5H289.402L256.002 244.9L222.602 211.5Z" fill="#6DA544"/>
<path d="M244.898 233.699H266.998V300.499H244.998L244.898 233.699Z" fill="#FFDA44"/>
<path d="M291.6 293.801H220.4L167 322.801H345L291.6 293.801Z" fill="#6DA544"/>
</g>
</g>
<defs>
<clipPath id="clip0_1628_1831">
<rect width="512" height="512" fill="white"/>
</clipPath>
</defs>
</svg>
