<svg width="512" height="512" viewBox="0 0 512 512" fill="none" xmlns="http://www.w3.org/2000/svg">
<g clip-path="url(#clip0_1628_1860)">
<mask id="mask0_1628_1860" style="mask-type:luminance" maskUnits="userSpaceOnUse" x="0" y="0" width="512" height="512">
<path d="M256 512C397.385 512 512 397.385 512 256C512 114.615 397.385 0 256 0C114.615 0 0 114.615 0 256C0 397.385 114.615 512 256 512Z" fill="white"/>
</mask>
<g mask="url(#mask0_1628_1860)">
<path d="M0 0H512V512H0V0Z" fill="#496E2D"/>
<path d="M228.998 171.999C228.036 171.61 226.96 171.61 225.998 171.999C220.998 176.999 207.998 188.999 204.998 207.999C199.998 232.999 213.998 259.999 238.998 274.999C239.818 275.44 240.765 275.581 241.678 275.399C242.591 275.216 243.411 274.721 243.998 273.999C244.37 273.556 244.641 273.038 244.794 272.481C244.946 271.923 244.976 271.339 244.881 270.768C244.786 270.198 244.568 269.655 244.243 269.177C243.918 268.699 243.493 268.297 242.998 267.999C220.998 253.999 208.998 230.999 212.998 208.999C215.998 192.999 226.998 181.999 231.998 178.999C232.424 178.624 232.765 178.162 232.998 177.645C233.232 177.127 233.352 176.566 233.352 175.999C233.352 175.431 233.232 174.87 232.998 174.353C232.765 173.836 232.424 173.374 231.998 172.999C231.592 172.637 231.117 172.362 230.601 172.19C230.085 172.018 229.54 171.953 228.998 171.999Z" fill="#FFDA44"/>
<path d="M283 171.999C282.458 171.953 281.913 172.018 281.397 172.19C280.881 172.362 280.406 172.637 280 172.999C279.628 173.441 279.357 173.959 279.204 174.517C279.052 175.075 279.022 175.659 279.117 176.229C279.212 176.799 279.43 177.342 279.755 177.82C280.08 178.299 280.505 178.701 281 178.999C285 182.999 296 192.999 299 208.999C303 230.999 292 253.999 269 267.999C268.505 268.297 268.08 268.699 267.755 269.177C267.43 269.655 267.212 270.198 267.117 270.768C267.022 271.338 267.052 271.923 267.204 272.48C267.357 273.038 267.628 273.556 268 273.999C268.587 274.721 269.407 275.216 270.32 275.399C271.233 275.581 272.18 275.44 273 274.999C298 259.999 312 232.999 307 207.999C304 188.999 291 176.999 286 172.999C285.594 172.637 285.119 172.362 284.603 172.19C284.087 172.018 283.542 171.953 283 171.999ZM255 175.999C255 175.999 243 181.999 243 193.999C243 205.999 262 217.999 262 226.999C262 236.999 253 239.999 253 239.999V261.999H259V242.999C259 242.999 278 233.999 271 207.999C266 189.999 255 193.999 255 175.999Z" fill="#EEEEEE"/>
<path d="M179 300L191 344L256 376L321 344L333 300H179Z" fill="#0052B4"/>
<path d="M243 267L227 287L222 278H190L180 300H333L322 278H290L285 287L269 267H256H243Z" fill="#333333"/>
<path d="M256 141C232 141 210 154 194 175C178 196 169 224 169 256C169 269 170 282 173 294L160 308C168.045 331.825 181.439 352.117 198.511 366.343C215.583 380.57 235.577 388.102 256 388C276.423 388.102 296.417 380.57 313.489 366.343C330.561 352.117 343.955 331.825 352 308L339 294C342 282 344 269 344 256C344 224 334 196 318 175C311.017 164.906 301.778 156.578 291.016 150.676C280.254 144.774 268.265 141.461 256 141ZM256 148C278 148 298 159 313 179C328.699 201.608 337.113 228.475 337.113 256C337.113 283.525 328.699 310.392 313 333C306.758 342.51 298.321 350.381 288.402 355.95C278.482 361.519 267.37 364.623 256 365C234 365 214 353 199 333C185 314 176 286 176 256C176 226 185 199 199 179C214 159 234 148 256 148Z" fill="#FFDA44"/>
<path d="M260 264C260 261.791 258.209 260 256 260C253.791 260 252 261.791 252 264V283C252 285.209 253.791 287 256 287C258.209 287 260 285.209 260 283V264Z" fill="#D80027"/>
</g>
</g>
<defs>
<clipPath id="clip0_1628_1860">
<rect width="512" height="512" fill="white"/>
</clipPath>
</defs>
</svg>
