<svg width="512" height="512" viewBox="0 0 512 512" fill="none" xmlns="http://www.w3.org/2000/svg">
<g clip-path="url(#clip0_1628_1872)">
<mask id="mask0_1628_1872" style="mask-type:luminance" maskUnits="userSpaceOnUse" x="0" y="0" width="512" height="512">
<path d="M256 512C397.385 512 512 397.385 512 256C512 114.615 397.385 0 256 0C114.615 0 0 114.615 0 256C0 397.385 114.615 512 256 512Z" fill="white"/>
</mask>
<g mask="url(#mask0_1628_1872)">
<path d="M0 0H512V512H0V0Z" fill="#FFDA44"/>
<path d="M255.998 114L249.998 116L154.998 194C150.998 197 150.998 203 153.998 207L255.998 174L357.998 207C360.998 203 360.998 197 356.998 194L261.998 116L255.998 114Z" fill="#D80027"/>
<path d="M256 134L157 206L163 228L214 196L256 221L298 196L349 228L355 206L256 134Z" fill="#6DA544"/>
<path d="M256 191L228 251L219 230L209 251L202 235L192 256L185 240L172 267L186 290H326L340 267L328 240L320 256L310 235L303 251L293 230L284 251L256 191Z" fill="#333333"/>
<path d="M183 290L194 322H318L329 290H256H183Z" fill="#338AF3"/>
<path d="M256.002 129C255.254 129.136 254.56 129.483 254.002 130L154.002 203C153.308 203.392 152.747 203.982 152.391 204.694C152.035 205.407 151.899 206.21 152.002 207L190.002 324C190.229 324.88 190.749 325.657 191.476 326.202C192.203 326.747 193.094 327.029 194.002 327H318.002C318.911 327.029 319.802 326.747 320.529 326.202C321.256 325.657 321.776 324.88 322.002 324L360.002 207C360.105 206.21 359.97 205.407 359.614 204.694C359.257 203.982 358.696 203.392 358.002 203L258.002 130C257.444 129.483 256.75 129.136 256.002 129ZM256.002 138L351.002 208L315.002 319H197.002L161.002 208L256.002 138Z" fill="#EEEEEE"/>
<path d="M261 174.5C261 172.015 258.985 170 256.5 170C254.015 170 252 172.015 252 174.5V307.5C252 309.985 254.015 312 256.5 312C258.985 312 261 309.985 261 307.5V174.5Z" fill="#FF9811"/>
<path d="M308 338H204C197.373 338 192 343.373 192 350C192 356.627 197.373 362 204 362H308C314.627 362 320 356.627 320 350C320 343.373 314.627 338 308 338Z" fill="#D80027"/>
<path d="M324 350H188C181.373 350 176 355.373 176 362C176 368.627 181.373 374 188 374H324C330.627 374 336 368.627 336 362C336 355.373 330.627 350 324 350Z" fill="#EEEEEE"/>
<path d="M242 191L256 149L270 191L234 165H278L242 191Z" fill="#FFDA44"/>
</g>
</g>
<defs>
<clipPath id="clip0_1628_1872">
<rect width="512" height="512" fill="white"/>
</clipPath>
</defs>
</svg>
