<svg width="512" height="512" viewBox="0 0 512 512" fill="none" xmlns="http://www.w3.org/2000/svg">
<g clip-path="url(#clip0_1628_1903)">
<mask id="mask0_1628_1903" style="mask-type:luminance" maskUnits="userSpaceOnUse" x="0" y="0" width="512" height="512">
<path d="M256 512C397.385 512 512 397.385 512 256C512 114.615 397.385 0 256 0C114.615 0 0 114.615 0 256C0 397.385 114.615 512 256 512Z" fill="white"/>
</mask>
<g mask="url(#mask0_1628_1903)">
<path d="M0 0H512V55.7L487 88.4L512 122.4V389.6L486 425.6L512 456.3V512H0V456.3L24.8 422.2L0 389.6V122.4L27.2 89.2L0 55.7V0Z" fill="#EEEEEE"/>
<path d="M0 55.6992V122.399H512V55.6992H0ZM0 389.599V456.299H512V389.599H0ZM352.4 200.299H288L256 144.699L223.9 200.299H159.6L191.7 255.999L159.7 311.699H223.9L256 367.299L288.1 311.699H352.4L320.3 255.999L352.3 200.299H352.4ZM295.4 255.999L275.7 290.199H236.3L216.5 255.999L236.3 221.799H275.7L295.5 255.999H295.4ZM256 187.599L263.3 200.299H248.7L256 187.599ZM196.8 221.799H211.5L204.1 234.499L196.8 221.799ZM196.8 290.199L204.1 277.499L211.5 290.199H196.8ZM256 324.399L248.7 311.699H263.3L256 324.399ZM315.2 290.199H300.5L307.9 277.499L315.2 290.199ZM300.5 221.799H315.2L307.9 234.499L300.5 221.799Z" fill="#0052B4"/>
</g>
</g>
<defs>
<clipPath id="clip0_1628_1903">
<rect width="512" height="512" fill="white"/>
</clipPath>
</defs>
</svg>
