<svg width="512" height="512" viewBox="0 0 512 512" fill="none" xmlns="http://www.w3.org/2000/svg">
<g clip-path="url(#clip0_1628_1910)">
<mask id="mask0_1628_1910" style="mask-type:luminance" maskUnits="userSpaceOnUse" x="0" y="0" width="512" height="512">
<path d="M256 512C397.385 512 512 397.385 512 256C512 114.615 397.385 0 256 0C114.615 0 0 114.615 0 256C0 397.385 114.615 512 256 512Z" fill="white"/>
</mask>
<g mask="url(#mask0_1628_1910)">
<path d="M0 0H512V512H0V0Z" fill="#D80027"/>
<path d="M350.798 171.599L332.698 236.199L278.398 226.199L243.398 154.199L148.998 187.599L141.598 166.599L116.898 163.599L135.498 216.099L200.498 199.399L218.898 251.399L173.998 317.699L250.298 382.699L235.798 399.699L245.498 422.599L281.598 380.299L234.798 332.299L270.598 290.299L350.398 296.099L368.598 197.499L390.598 201.499L405.598 181.699L350.798 171.699V171.599Z" fill="#EEEEEE"/>
</g>
</g>
<defs>
<clipPath id="clip0_1628_1910">
<rect width="512" height="512" fill="white"/>
</clipPath>
</defs>
</svg>
