<svg width="512" height="512" viewBox="0 0 512 512" fill="none" xmlns="http://www.w3.org/2000/svg">
<g clip-path="url(#clip0_1628_1917)">
<mask id="mask0_1628_1917" style="mask-type:luminance" maskUnits="userSpaceOnUse" x="0" y="0" width="512" height="512">
<path d="M256 512C397.385 512 512 397.385 512 256C512 114.615 397.385 0 256 0C114.615 0 0 114.615 0 256C0 397.385 114.615 512 256 512Z" fill="white"/>
</mask>
<g mask="url(#mask0_1628_1917)">
<path d="M0 0H512V512H0V0Z" fill="#EEEEEE"/>
<path d="M256 112C234 112 216 130 216 152C209 140 196 132 182 132C171.391 132 161.217 136.214 153.716 143.716C146.214 151.217 142 161.391 142 172C142 182.609 146.214 192.783 153.716 200.284C161.217 207.786 171.391 212 182 212H188V338H186C176 338 166 346 166 358V374C166 384 176 394 186 394H188V396C188 408 198 416 208 416H304C316 416 324 408 324 396V394H326C338 394 346 384 346 374V358C346 346 338 338 326 338H324V212H330C340.609 212 350.783 207.786 358.284 200.284C365.786 192.783 370 182.609 370 172C370 161.391 365.786 151.217 358.284 143.716C350.783 136.214 340.609 132 330 132C316 133 303 141 296 154V152C296 130 278 112 256 112Z" fill="#333333"/>
<path d="M352 448H160C151.163 448 144 455.163 144 464C144 472.837 151.163 480 160 480H352C360.837 480 368 472.837 368 464C368 455.163 360.837 448 352 448Z" fill="#ACABB1"/>
<path d="M328 32H184C170.745 32 160 42.7452 160 56C160 69.2548 170.745 80 184 80H328C341.255 80 352 69.2548 352 56C352 42.7452 341.255 32 328 32Z" fill="#ACABB1"/>
</g>
</g>
<defs>
<clipPath id="clip0_1628_1917">
<rect width="512" height="512" fill="white"/>
</clipPath>
</defs>
</svg>
