<svg width="512" height="512" viewBox="0 0 512 512" fill="none" xmlns="http://www.w3.org/2000/svg">
<g clip-path="url(#clip0_1628_1926)">
<mask id="mask0_1628_1926" style="mask-type:luminance" maskUnits="userSpaceOnUse" x="0" y="0" width="512" height="512">
<path d="M256 512C397.385 512 512 397.385 512 256C512 114.615 397.385 0 256 0C114.615 0 0 114.615 0 256C0 397.385 114.615 512 256 512Z" fill="white"/>
</mask>
<g mask="url(#mask0_1628_1926)">
<path d="M256 96L0 128V256L256 288L512 256V128L256 96ZM256 352L0 384V512H512V384L256 352Z" fill="#EEEEEE"/>
<path d="M0 0H512V128H0V0ZM0 256H512V384H0V256Z" fill="#D80027"/>
</g>
</g>
<defs>
<clipPath id="clip0_1628_1926">
<rect width="512" height="512" fill="white"/>
</clipPath>
</defs>
</svg>
