<svg width="512" height="512" viewBox="0 0 512 512" fill="none" xmlns="http://www.w3.org/2000/svg">
<g clip-path="url(#clip0_1628_1952)">
<mask id="mask0_1628_1952" style="mask-type:luminance" maskUnits="userSpaceOnUse" x="0" y="0" width="512" height="512">
<path d="M256 512C397.385 512 512 397.385 512 256C512 114.615 397.385 0 256 0C114.615 0 0 114.615 0 256C0 397.385 114.615 512 256 512Z" fill="white"/>
</mask>
<g mask="url(#mask0_1628_1952)">
<path d="M0 0H512V256L256 288L0 256V0Z" fill="#EEEEEE"/>
<path d="M0 256H512V512H0V256Z" fill="#338AF3"/>
<path d="M256 384C326.692 384 384 326.692 384 256C384 185.308 326.692 128 256 128C185.308 128 128 185.308 128 256C128 326.692 185.308 384 256 384Z" fill="#D80027"/>
</g>
</g>
<defs>
<clipPath id="clip0_1628_1952">
<rect width="512" height="512" fill="white"/>
</clipPath>
</defs>
</svg>
