<svg width="512" height="512" viewBox="0 0 512 512" fill="none" xmlns="http://www.w3.org/2000/svg">
<g clip-path="url(#clip0_1628_1968)">
<mask id="mask0_1628_1968" style="mask-type:luminance" maskUnits="userSpaceOnUse" x="0" y="0" width="512" height="512">
<path d="M256 512C397.385 512 512 397.385 512 256C512 114.615 397.385 0 256 0C114.615 0 0 114.615 0 256C0 397.385 114.615 512 256 512Z" fill="white"/>
</mask>
<g mask="url(#mask0_1628_1968)">
<path d="M0 0H512V128L256 192L0 128V0Z" fill="#EEEEEE"/>
<path d="M0 128H512V256L256 320L0 256V128Z" fill="#338AF3"/>
<path d="M0 256H512V384L256 448L0 384V256Z" fill="#FF9811"/>
<path d="M0 384H512V512H0V384Z" fill="#496E2D"/>
</g>
</g>
<defs>
<clipPath id="clip0_1628_1968">
<rect width="512" height="512" fill="white"/>
</clipPath>
</defs>
</svg>
