<svg width="512" height="512" viewBox="0 0 512 512" fill="none" xmlns="http://www.w3.org/2000/svg">
<g clip-path="url(#clip0_1628_2002)">
<mask id="mask0_1628_2002" style="mask-type:luminance" maskUnits="userSpaceOnUse" x="0" y="0" width="512" height="512">
<path d="M256 512C397.385 512 512 397.385 512 256C512 114.615 397.385 0 256 0C114.615 0 0 114.615 0 256C0 397.385 114.615 512 256 512Z" fill="white"/>
</mask>
<g mask="url(#mask0_1628_2002)">
<path d="M0 0H32L64 32L96 0H256L268 8L281 0H317L341 8L366 0H402L427 8L451 0H487L512 22V56L504 73L512 90V125L504 142L512 159V193L504 210L512 227V262L504 279L512 296V330L504 347L512 365V399L504 416L512 433V468L504 485L512 502V512H490L469 504L449 512H405L384 504L363 512H319L299 504L278 512H234L213 504L193 512H149L128 504L107 512H64L43 504L22 512H0V502L8 485L0 468V433L8 416L0 399V365L8 347L0 330V296L8 279L0 262V96L32 64L0 32V0Z" fill="#EEEEEE"/>
<path d="M32 0V32H0V96H32V256H96V96H256V32H96V0H32ZM128 128L256 256V225L159 128H128Z" fill="#D80027"/>
<path d="M256 0V22C277 22 277 41 299 41C320 41 320 22 341 22C363 22 363 41 384 41C405 41 405 22 427 22C448 22 448 41 469 41C491 41 491 22 512 22V0H487C483 4 478 7 469 7C461 7 456 4 451 0H402C398 4 393 7 384 7C376 7 370 4 366 0H317C312 4 307 7 299 7C290 7 285 4 281 0H256ZM256 56V90C277 90 277 110 299 110C320 110 320 90 341 90C363 90 363 110 384 110C405 110 405 90 427 90C448 90 448 110 469 110C491 110 491 90 512 90V56C491 56 491 75 469 75C448 75 448 56 427 56C405 56 405 75 384 75C363 75 363 56 341 56C320 56 320 75 299 75C277 75 277 56 256 56ZM256 125V128H173L256 211V227C277 227 277 247 299 247C320 247 320 227 341 227C363 227 363 247 384 247C405 247 405 227 427 227C448 227 448 247 469 247C491 247 491 227 512 227V193C491 193 491 213 469 213C448 213 448 193 427 193C405 193 405 213 384 213C363 213 363 193 341 193C320 193 320 213 299 213C277 213 277 193 256 193V159C277 159 277 178 299 178C320 178 320 159 341 159C363 159 363 178 384 178C405 178 405 159 427 159C448 159 448 178 469 178C491 178 491 159 512 159V125C491 125 491 144 469 144C448 144 448 125 427 125C405 125 405 144 384 144C363 144 363 125 341 125C320 125 320 144 299 144C277 144 277 125 256 125ZM128 173V256H211L128 173ZM0 262V296C21 296 21 316 43 316C64 316 64 296 85 296C107 296 107 316 128 316C149 316 149 296 171 296C192 296 192 316 213 316C235 316 235 296 256 296C277 296 277 316 299 316C320 316 320 296 341 296C363 296 363 316 384 316C405 316 405 296 427 296C448 296 448 316 469 316C491 316 491 296 512 296V262C491 262 491 281 469 281C448 281 448 262 427 262C405 262 405 281 384 281C363 281 363 262 341 262C320 262 320 281 299 281C277 281 277 262 256 262C235 262 235 281 213 281C192 281 192 262 171 262C149 262 149 281 128 281C107 281 107 262 85 262C64 262 64 281 43 281C21 281 21 262 0 262ZM0 330V365C21 365 21 384 43 384C64 384 64 365 85 365C107 365 107 384 128 384C149 384 149 365 171 365C192 365 192 384 213 384C235 384 235 365 256 365C277 365 277 384 299 384C320 384 320 365 341 365C363 365 363 384 384 384C405 384 405 365 427 365C448 365 448 384 469 384C491 384 491 365 512 365V330C491 330 491 350 469 350C448 350 448 330 427 330C405 330 405 350 384 350C363 350 363 330 341 330C320 330 320 350 299 350C277 350 277 330 256 330C235 330 235 350 213 350C192 350 192 330 171 330C149 330 149 350 128 350C107 350 107 330 85 330C64 330 64 350 43 350C21 350 21 330 0 330ZM0 399V433C21 433 21 453 43 453C64 453 64 433 85 433C107 433 107 453 128 453C149 453 149 433 171 433C192 433 192 453 213 453C235 453 235 433 256 433C277 433 277 453 299 453C320 453 320 433 341 433C363 433 363 453 384 453C405 453 405 433 427 433C448 433 448 453 469 453C491 453 491 433 512 433V399C491 399 491 418 469 418C448 418 448 399 427 399C405 399 405 418 384 418C363 418 363 399 341 399C320 399 320 418 299 418C277 418 277 399 256 399C235 399 235 418 213 418C192 418 192 399 171 399C149 399 149 418 128 418C107 418 107 399 85 399C64 399 64 418 43 418C21 418 21 399 0 399ZM0 468V502C11 502 16 507 22 512H64C69 507 74 502 85 502C96 502 102 507 107 512H149C154 507 160 502 171 502C182 502 187 507 193 512H234C240 507 245 502 256 502C267 502 272 507 278 512H320C325 507 330 502 341 502C352 502 358 507 363 512H405C410 507 416 502 427 502C438 502 443 507 449 512H490C496 507 501 502 512 502V468C491 468 491 487 469 487C448 487 448 468 427 468C405 468 405 487 384 487C363 487 363 468 341 468C320 468 320 487 299 487C277 487 277 468 256 468C235 468 235 487 213 487C192 487 192 468 171 468C149 468 149 487 128 487C107 487 107 468 85 468C64 468 64 487 43 487C21 487 21 468 0 468Z" fill="#0052B4"/>
<path d="M334 134H434L384 184L334 134Z" fill="#6DA544"/>
<path d="M373 173H395V223L384 231L373 223V173ZM373 334H395V395H373V334Z" fill="#A2001D"/>
<path d="M450.996 301C450.824 294.59 448.843 288.36 445.282 283.028C441.72 277.696 436.724 273.48 430.869 270.866C425.014 268.252 418.539 267.347 412.192 268.256C405.844 269.164 399.883 271.849 394.996 276V256H405.996V234H394.996V223H372.996V234H361.996V256H372.996V276C366.29 270.336 357.653 267.486 348.893 268.045C340.133 268.604 331.928 272.529 325.996 279C320.27 285.416 317.275 293.815 317.648 302.406C318.022 310.998 321.735 319.105 327.996 325V345H439.996V325C446.996 319 450.996 311 450.996 301Z" fill="#FFDA44"/>
<path d="M351 289C348 289 345 291 343 293C339 297 339 305 343 309L351 315V323H416V315L424 309C428 305 428 297 424 293C420 289 414 288 409 292L394 306H373L358 292C356.098 290.198 353.616 289.135 351 289Z" fill="#D80027"/>
</g>
</g>
<defs>
<clipPath id="clip0_1628_2002">
<rect width="512" height="512" fill="white"/>
</clipPath>
</defs>
</svg>
