<svg width="512" height="512" viewBox="0 0 512 512" fill="none" xmlns="http://www.w3.org/2000/svg">
<g clip-path="url(#clip0_1628_2014)">
<mask id="mask0_1628_2014" style="mask-type:luminance" maskUnits="userSpaceOnUse" x="0" y="0" width="512" height="512">
<path d="M256 512C397.385 512 512 397.385 512 256C512 114.615 397.385 0 256 0C114.615 0 0 114.615 0 256C0 397.385 114.615 512 256 512Z" fill="white"/>
</mask>
<g mask="url(#mask0_1628_2014)">
<path d="M0 144.701L257 122.301L512 144.701V367.301L257.1 398.301L0 367.301V144.701Z" fill="#EEEEEE"/>
<path d="M0 0H512V144.7H0V0Z" fill="#D80027"/>
<path d="M0 367.301H512V512.001H0V367.301Z" fill="#6DA544"/>
<path d="M256.003 95.8984L275.403 179.498L331.503 114.498L309.903 197.498L389.703 166.098L332.003 229.598L417.303 238.798L336.603 268.098L408.003 315.998L323.003 304.498L363.803 379.998L293.803 330.298L295.003 415.998L256.003 339.598L217.103 415.998L218.303 330.198L148.303 379.898L189.103 304.398L104.103 315.898L175.403 267.998L94.7031 238.698L180.003 229.398L122.303 165.998L202.103 197.498L180.503 114.398L236.503 179.398L256.003 95.8984Z" fill="#FFDA44"/>
</g>
</g>
<defs>
<clipPath id="clip0_1628_2014">
<rect width="512" height="512" fill="white"/>
</clipPath>
</defs>
</svg>
