<svg width="512" height="512" viewBox="0 0 512 512" fill="none" xmlns="http://www.w3.org/2000/svg">
<g clip-path="url(#clip0_1628_2023)">
<mask id="mask0_1628_2023" style="mask-type:luminance" maskUnits="userSpaceOnUse" x="0" y="0" width="512" height="512">
<path d="M256 512C397.385 512 512 397.385 512 256C512 114.615 397.385 0 256 0C114.615 0 0 114.615 0 256C0 397.385 114.615 512 256 512Z" fill="white"/>
</mask>
<g mask="url(#mask0_1628_2023)">
<path d="M0 166.999L253.8 147.699L512 166.999V344.999L257.1 377.299L0 344.999V166.999Z" fill="#EEEEEE"/>
<path d="M0 0H512V167H0V0Z" fill="#A2001D"/>
<path d="M0 345H512V512H0V345Z" fill="#333333"/>
<path d="M194.8 239.299H145.4C146.641 234.516 149.436 230.28 153.345 227.257C157.255 224.234 162.058 222.596 167 222.599V189.199C136.3 189.199 111.3 214.199 111.3 244.899V272.699H194.8C196.268 272.725 197.667 273.327 198.695 274.374C199.724 275.422 200.3 276.831 200.3 278.299V289.299H89V322.799H233.7V278.299C233.7 267.956 229.591 258.036 222.277 250.722C214.963 243.408 205.043 239.299 194.7 239.299H194.8ZM278.3 289.299V189.299H244.9V322.799H300.5V289.399L278.3 289.299ZM389.6 289.299V189.299H356.2V289.299H345V255.999H311.7V322.799H411.8V289.399L389.6 289.299Z" fill="#496E2D"/>
</g>
</g>
<defs>
<clipPath id="clip0_1628_2023">
<rect width="512" height="512" fill="white"/>
</clipPath>
</defs>
</svg>
