<svg width="512" height="512" viewBox="0 0 512 512" fill="none" xmlns="http://www.w3.org/2000/svg">
<g clip-path="url(#clip0_1628_2032)">
<mask id="mask0_1628_2032" style="mask-type:luminance" maskUnits="userSpaceOnUse" x="0" y="0" width="512" height="512">
<path d="M256 512C397.385 512 512 397.385 512 256C512 114.615 397.385 0 256 0C114.615 0 0 114.615 0 256C0 397.385 114.615 512 256 512Z" fill="white"/>
</mask>
<g mask="url(#mask0_1628_2032)">
<path d="M0 144.702L258.8 39.6016L512 144.702V367.302L257 493.002L0 367.302V144.702Z" fill="#EEEEEE"/>
<path d="M0 0V144.7H105.6V122.5H139.2V144.7H172.5V122.5H206.1V144.7H239.4V122.5H273V144.7H306V122.5H339.6V144.7H372.8V122.5H406.4V144.7H512V0H0Z" fill="#6DA544"/>
<path d="M0 367.301V512.001H512V367.301H406.4V389.701H372.8V367.301H339.6V389.701H306V367.301H273V389.701H239.4V367.301H206.1V389.701H172.5V367.301H139.2V389.701H105.6V367.301H0ZM339.1 189.301H305.7C305.9 193.001 306.1 196.701 306.1 200.401C306.1 225.201 299.9 249.201 289.1 266.401C285.8 271.601 280.1 279.001 272.7 284.001V189.301H239.3V284.101C231.8 279.101 226.3 271.701 222.9 266.401C212.1 249.401 205.9 225.401 205.9 200.501C205.9 196.801 206.1 193.101 206.3 189.501H173C172.76 193.163 172.627 196.831 172.6 200.501C172.6 269.201 209.3 323.001 256.1 323.001C302.9 323.001 339.6 269.201 339.6 200.501C339.6 196.801 339.5 193.101 339.2 189.501L339.1 189.301Z" fill="#D80027"/>
</g>
</g>
<defs>
<clipPath id="clip0_1628_2032">
<rect width="512" height="512" fill="white"/>
</clipPath>
</defs>
</svg>
