<svg width="512" height="512" viewBox="0 0 512 512" fill="none" xmlns="http://www.w3.org/2000/svg">
<g clip-path="url(#clip0_1628_2064)">
<mask id="mask0_1628_2064" style="mask-type:luminance" maskUnits="userSpaceOnUse" x="0" y="0" width="512" height="512">
<path d="M256 512C397.385 512 512 397.385 512 256C512 114.615 397.385 0 256 0C114.615 0 0 114.615 0 256C0 397.385 114.615 512 256 512Z" fill="white"/>
</mask>
<g mask="url(#mask0_1628_2064)">
<path d="M0 0H512V512H0V0Z" fill="#6DA544"/>
<path d="M253.901 161.301C247.629 149.88 245.072 136.789 246.584 123.847C248.095 110.906 253.601 98.7565 262.336 89.0885C271.071 79.4204 282.601 72.7138 295.323 69.9007C308.045 67.0876 321.328 68.3078 333.325 73.3918C345.322 78.4757 355.436 87.1708 362.264 98.2685C369.091 109.366 372.291 122.315 371.42 135.315C370.548 148.316 365.648 160.722 357.401 170.809C349.154 180.896 337.969 188.164 325.401 191.601C321.011 193.041 316.964 195.369 313.512 198.44C310.059 201.511 307.275 205.259 305.333 209.451C303.39 213.643 302.33 218.189 302.219 222.808C302.107 227.427 302.947 232.02 304.685 236.301C306.424 240.581 309.024 244.459 312.324 247.692C315.624 250.926 319.554 253.446 323.87 255.097C328.185 256.747 332.794 257.493 337.41 257.287C342.025 257.081 346.549 255.929 350.701 253.901C362.122 247.629 375.213 245.072 388.154 246.584C401.096 248.095 413.245 253.601 422.913 262.336C432.581 271.071 439.288 282.601 442.101 295.323C444.914 308.045 443.694 321.328 438.61 333.325C433.526 345.322 424.831 355.436 413.733 362.264C402.635 369.091 389.686 372.291 376.686 371.42C363.686 370.548 351.28 365.648 341.193 357.401C331.105 349.154 323.838 337.969 320.401 325.401C318.96 321.011 316.632 316.964 313.561 313.512C310.491 310.059 306.743 307.275 302.551 305.333C298.359 303.39 293.812 302.33 289.193 302.219C284.574 302.107 279.982 302.947 275.701 304.685C271.42 306.424 267.543 309.024 264.309 312.324C261.076 315.624 258.555 319.554 256.905 323.87C255.254 328.185 254.509 332.794 254.714 337.41C254.92 342.025 256.073 346.549 258.101 350.701C264.372 362.122 266.93 375.213 265.418 388.154C263.906 401.096 258.4 413.245 249.665 422.913C240.931 432.581 229.401 439.288 216.678 442.101C203.956 444.914 190.674 443.694 178.677 438.61C166.68 433.526 156.565 424.831 149.738 413.733C142.911 402.635 139.71 389.686 140.582 376.686C141.453 363.686 146.353 351.28 154.601 341.193C162.848 331.105 174.033 323.838 186.601 320.401C190.991 318.96 195.038 316.632 198.49 313.561C201.942 310.491 204.726 306.743 206.669 302.551C208.612 298.359 209.672 293.812 209.783 289.193C209.894 284.574 209.055 279.982 207.316 275.701C205.578 271.42 202.978 267.543 199.678 264.309C196.377 261.076 192.447 258.555 188.132 256.905C183.817 255.254 179.208 254.509 174.592 254.714C169.976 254.92 165.452 256.073 161.301 258.101C149.88 264.372 136.789 266.93 123.847 265.418C110.906 263.906 98.7565 258.4 89.0885 249.665C79.4204 240.931 72.7138 229.401 69.9007 216.678C67.0876 203.956 68.3078 190.674 73.3918 178.677C78.4757 166.68 87.1708 156.565 98.2685 149.738C109.366 142.911 122.315 139.71 135.315 140.582C148.316 141.453 160.722 146.353 170.809 154.601C180.896 162.848 188.164 174.033 191.601 186.601C193.041 190.991 195.369 195.038 198.44 198.49C201.511 201.942 205.259 204.726 209.451 206.669C213.643 208.612 218.189 209.672 222.808 209.783C227.427 209.894 232.02 209.055 236.301 207.316C240.581 205.578 244.459 202.978 247.692 199.678C250.926 196.377 253.446 192.447 255.097 188.132C256.747 183.817 257.493 179.208 257.287 174.592C257.081 169.976 255.929 165.452 253.901 161.301Z" fill="#EEEEEE"/>
</g>
</g>
<defs>
<clipPath id="clip0_1628_2064">
<rect width="512" height="512" fill="white"/>
</clipPath>
</defs>
</svg>
