<svg width="512" height="512" viewBox="0 0 512 512" fill="none" xmlns="http://www.w3.org/2000/svg">
<g clip-path="url(#clip0_1628_2048)">
<mask id="mask0_1628_2048" style="mask-type:luminance" maskUnits="userSpaceOnUse" x="0" y="0" width="512" height="512">
<path d="M256 512C397.385 512 512 397.385 512 256C512 114.615 397.385 0 256 0C114.615 0 0 114.615 0 256C0 397.385 114.615 512 256 512Z" fill="white"/>
</mask>
<g mask="url(#mask0_1628_2048)">
<path d="M0 0H512V512H0V0Z" fill="#D80027"/>
<path fill-rule="evenodd" clip-rule="evenodd" d="M512 204.8H310.9V0H201.1V204.8H0V307.2H201.1V512H310.9V307.2H512V204.8Z" fill="#EEEEEE"/>
<path d="M256 544C179 544 106.7 514 52.4 459.6C-2 405.3 -32 333 -32 256C-32 179 -2 106.7 52.4 52.4C106.7 -2 179 -32 256 -32C333 -32 405.3 -2 459.6 52.4C514 106.7 544 179 544 256C544 333 514 405.3 459.6 459.6C432.929 486.431 401.201 507.705 366.253 522.192C331.306 536.68 293.832 544.092 256 544ZM256 32C196.2 32 140 55.3 97.6 97.6C55.3 140 32 196.2 32 256C32 315.8 55.3 372 97.6 414.4C140 456.7 196.2 480 256 480C315.8 480 372 456.7 414.4 414.4C456.7 372 480 315.8 480 256C480 196.2 456.7 140 414.4 97.6C393.648 76.7334 368.962 60.191 341.772 48.9306C314.582 37.6703 285.429 31.9156 256 32Z" fill="#0052B4"/>
<path d="M432 176L400 112H112L80 176H144L124 136H244L224 176H288L268 136H388L368 176H432Z" fill="#0052B4"/>
</g>
</g>
<defs>
<clipPath id="clip0_1628_2048">
<rect width="512" height="512" fill="white"/>
</clipPath>
</defs>
</svg>
