<svg width="512" height="512" viewBox="0 0 512 512" fill="none" xmlns="http://www.w3.org/2000/svg">
<g clip-path="url(#clip0_1628_2084)">
<mask id="mask0_1628_2084" style="mask-type:luminance" maskUnits="userSpaceOnUse" x="0" y="0" width="512" height="512">
<path d="M256 512C397.385 512 512 397.385 512 256C512 114.615 397.385 0 256 0C114.615 0 0 114.615 0 256C0 397.385 114.615 512 256 512Z" fill="white"/>
</mask>
<g mask="url(#mask0_1628_2084)">
<path d="M0 512V256L256 192L512 256V512H0Z" fill="#0052B4"/>
<path d="M0 256V0H512V256H0Z" fill="#EEEEEE"/>
<path d="M129.998 108.299V300.299C129.998 366.899 186.698 424.799 255.798 424.799C324.898 424.799 381.798 366.799 381.798 300.199V108.199L255.798 108.899L129.898 108.299H129.998Z" fill="#EEEEEE"/>
<path d="M255.8 428.799C185.4 428.799 126 369.999 126 300.199V104.199L256 104.899L385.9 104.299V300.299C385.9 369.899 326.4 428.799 255.9 428.799H255.8ZM134 112.299V300.299C134 365.599 189.8 420.799 256 420.799C322 420.799 377.9 365.599 377.9 300.199V112.299L255.9 112.899L134 112.299Z" fill="#333333"/>
<path d="M259.802 423.899H251.802V260.499H130.102V252.499H251.802V110.199H259.802V252.499H380.902V260.499H259.802V423.899Z" fill="#333333"/>
<path d="M189.2 141.602C184.2 141.602 178.5 144.102 175.4 150.402C178.5 148.502 185.4 149.802 185.4 158.602C185.4 161.102 184.2 163.602 182.3 164.902C177.3 164.902 173.5 156.002 164 156.002C157.8 156.002 152 160.502 152 166.702V210.102L181 205.702L172.2 222.702H213.7L204.9 205.702L233.9 210.102V166.702C233.9 160.502 228.2 156.002 221.9 156.002C212.5 156.002 208.7 164.902 203.7 164.902C208.7 150.402 199.3 141.602 189.2 141.602Z" fill="#333333"/>
<path d="M315.3 141.602C310.3 141.602 304.6 144.102 301.5 150.402C304.6 148.502 311.5 149.802 311.5 158.602C311.5 161.102 310.3 163.602 308.4 164.902C303.4 164.902 299.6 156.002 290.2 156.002C283.9 156.002 278.2 160.502 278.2 166.702V210.102L307.2 205.702L298.3 222.702H339.8L331 205.702L360 210.102V166.702C360 160.502 354.3 156.002 348 156.002C338.6 156.002 334.8 164.902 329.8 164.902C334.8 150.402 325.4 141.602 315.3 141.602ZM189.2 279.002C184.2 279.002 178.5 281.602 175.4 287.902C178.5 286.002 185.4 287.302 185.4 296.102C185.4 298.602 184.2 301.102 182.3 302.402C177.3 302.402 173.5 293.602 164 293.602C157.8 293.602 152 298.002 152 304.202V347.602L181 343.202L172.2 360.202H213.7L204.9 343.202L233.9 347.602V304.202C233.9 298.002 228.2 293.602 221.9 293.602C212.5 293.602 208.7 302.402 203.7 302.402C208.7 287.902 199.3 279.102 189.2 279.102V279.002Z" fill="#D80027"/>
<path d="M315.303 279C310.303 279 304.603 281.6 301.503 287.9C304.603 286 311.503 287.3 311.503 296.1C311.503 298.6 310.303 301.1 308.403 302.4C303.403 302.4 299.603 293.6 290.203 293.6C283.903 293.6 278.203 298 278.203 304.2V347.6L307.203 343.2L298.303 360.2H339.803L331.003 343.2L360.003 347.6V304.2C360.003 298 354.303 293.6 348.003 293.6C338.603 293.6 334.803 302.4 329.803 302.4C334.803 287.9 325.403 279.1 315.303 279.1V279Z" fill="#333333"/>
</g>
</g>
<defs>
<clipPath id="clip0_1628_2084">
<rect width="512" height="512" fill="white"/>
</clipPath>
</defs>
</svg>
