<svg width="512" height="512" viewBox="0 0 512 512" fill="none" xmlns="http://www.w3.org/2000/svg">
<g clip-path="url(#clip0_1628_2097)">
<mask id="mask0_1628_2097" style="mask-type:luminance" maskUnits="userSpaceOnUse" x="0" y="0" width="512" height="512">
<path d="M256 512C397.385 512 512 397.385 512 256C512 114.615 397.385 0 256 0C114.615 0 0 114.615 0 256C0 397.385 114.615 512 256 512Z" fill="white"/>
</mask>
<g mask="url(#mask0_1628_2097)">
<path d="M0 0H512V512H0V0Z" fill="#338AF3"/>
<path d="M304 344V360H272V344H240V360H208V344H176V408H336V344H304Z" fill="#EEEEEE"/>
<path d="M248 352.001H245.7L269.7 328.001L264 322.301L234.3 352.001H224C221.878 352.001 219.843 352.844 218.343 354.344C216.843 355.844 216 357.879 216 360.001H226.3C224.804 361.501 223.964 363.532 223.964 365.651C223.964 367.769 224.804 369.801 226.3 371.301L237.7 360.001H256C256 357.879 255.157 355.844 253.657 354.344C252.157 352.844 250.122 352.001 248 352.001ZM304 360.001C304 357.879 303.157 355.844 301.657 354.344C300.157 352.844 298.122 352.001 296 352.001H288V328.001H280V352.001H272C269.878 352.001 267.843 352.844 266.343 354.344C264.843 355.844 264 357.879 264 360.001H282.3L293.7 371.301C295.196 369.801 296.036 367.769 296.036 365.651C296.036 363.532 295.196 361.501 293.7 360.001H304Z" fill="#333333"/>
<path d="M304 256C310.365 256 316.47 253.471 320.971 248.971C325.471 244.47 328 238.365 328 232C334.365 232 340.47 229.471 344.971 224.971C349.471 220.47 352 214.365 352 208C358.365 208 364.47 205.471 368.971 200.971C373.471 196.47 376 190.365 376 184H296C287 184 278.7 187 272 192V184C272 177.635 269.471 171.53 264.971 167.029C260.47 162.529 254.365 160 248 160C248 153.635 245.471 147.53 240.971 143.029C236.47 138.529 230.365 136 224 136C224 129.635 221.471 123.53 216.971 119.029C212.47 114.529 206.365 112 200 112V192C199.989 198.439 201.533 204.785 204.5 210.5C197.795 208.829 190.91 207.989 184 208C175.513 208 167.374 211.371 161.373 217.373C155.371 223.374 152 231.513 152 240C161.4 234.5 172.3 232 184 232L256 312C256 318.365 258.529 324.47 263.029 328.971C267.53 333.471 273.635 336 280 336C286.365 336 292.47 333.471 296.971 328.971C301.471 324.47 304 318.365 304 312L320 296L360 336C364.243 336 368.313 334.314 371.314 331.314C374.314 328.313 376 324.243 376 320C380.243 320 384.313 318.314 387.314 315.314C390.314 312.313 392 308.243 392 304L304 256Z" fill="#FFDA44"/>
</g>
</g>
<defs>
<clipPath id="clip0_1628_2097">
<rect width="512" height="512" fill="white"/>
</clipPath>
</defs>
</svg>
