<svg width="512" height="512" viewBox="0 0 512 512" fill="none" xmlns="http://www.w3.org/2000/svg">
<g clip-path="url(#clip0_1628_2071)">
<mask id="mask0_1628_2071" style="mask-type:luminance" maskUnits="userSpaceOnUse" x="0" y="0" width="512" height="512">
<path d="M256 512C397.385 512 512 397.385 512 256C512 114.615 397.385 0 256 0C114.615 0 0 114.615 0 256C0 397.385 114.615 512 256 512Z" fill="white"/>
</mask>
<g mask="url(#mask0_1628_2071)">
<path d="M512 0V256L256 320L0 256V0H512Z" fill="#0052B4"/>
<path d="M512 256V512H0V256H512Z" fill="#FF9811"/>
<path d="M256 528C183.3 528 115 499.7 63.7 448.3C12.4 396.9 -16 328.7 -16 256C-16 183.3 12.3 115 63.7 63.7C115.1 12.4 183.3 -16 256 -16C328.7 -16 397 12.3 448.3 63.7C499.6 115.1 528 183.3 528 256C528 328.7 499.7 397 448.3 448.3C396.9 499.6 328.7 528 256 528ZM256 16C191.9 16 131.6 41 86.3 86.3C41 131.6 16 191.9 16 256C16 320.1 41 380.4 86.3 425.7C131.6 471 191.9 496 256 496C320.1 496 380.4 471 425.7 425.7C471 380.4 496 320.1 496 256C496 191.9 471 131.6 425.7 86.3C403.468 63.9424 377.022 46.217 347.892 34.1499C318.763 22.0828 287.53 15.9138 256 16Z" fill="#FFDA44"/>
<path d="M256 32C285.428 31.9212 314.58 37.6783 341.769 48.9384C368.958 60.1984 393.644 76.7379 414.4 97.6C446.014 129.062 467.481 169.271 476.036 213.044C484.592 256.818 479.842 302.15 462.4 343.2C439.767 396.981 396.981 439.767 343.2 462.4C315.615 474.079 285.955 480.066 256 480C226.573 480.068 197.425 474.306 170.237 463.046C143.05 451.787 118.362 435.253 97.6 414.4C65.9862 382.938 44.5186 342.729 35.9635 298.956C27.4085 255.182 32.158 209.85 49.6 168.8C72.2334 115.019 115.019 72.2334 168.8 49.6C196.4 37.9 225.8 32 256 32ZM256 16C224.483 16 193.274 22.2078 164.156 34.2689C135.038 46.33 108.58 64.0083 86.2944 86.2944C64.0083 108.58 46.33 135.038 34.2689 164.156C22.2078 193.274 16 224.483 16 256C16 287.517 22.2078 318.726 34.2689 347.844C46.33 376.962 64.0083 403.42 86.2944 425.706C108.58 447.992 135.038 465.67 164.156 477.731C193.274 489.792 224.483 496 256 496C319.652 496 380.697 470.714 425.706 425.706C470.714 380.697 496 319.652 496 256C496 192.348 470.714 131.303 425.706 86.2944C380.697 41.2856 319.652 16 256 16Z" fill="#A2001D"/>
<path d="M216 200C242.51 200 264 178.51 264 152C264 125.49 242.51 104 216 104C189.49 104 168 125.49 168 152C168 178.51 189.49 200 216 200Z" fill="#FF9811"/>
<path d="M384 288V272C384 241 362.5 216 336 216H248V144C248 132 232 120 232 120C232 120 216 132 216 144H144V216H176V251.7C176 259.4 176 264 182.5 274L166 287.8L112 288V312H224V360H200V384H248V336L272 312H320V360H296V384H344V336L368 312L408 352V360H384V384H432V336L384 288Z" fill="#FFDA45"/>
<path d="M264 144H400C400 150.365 397.471 156.47 392.971 160.971C388.47 165.471 382.365 168 376 168C376 174.365 373.471 180.47 368.971 184.971C364.47 189.471 358.365 192 352 192C352 198.365 349.471 204.47 344.971 208.971C340.47 213.471 334.365 216 328 216H248C270.1 216 288 194.5 288 168C288 161.635 285.471 155.53 280.971 151.029C276.47 146.529 270.365 144 264 144ZM184 312V376H144C139.757 376 135.687 377.686 132.686 380.686C129.686 383.687 128 387.757 128 392C128 387.757 126.314 383.687 123.314 380.686C120.313 377.686 116.243 376 112 376H72V312H112C116.243 312 120.313 313.686 123.314 316.686C126.314 319.687 128 323.757 128 328C128 323.757 129.686 319.687 132.686 316.686C135.687 313.686 139.757 312 144 312H184Z" fill="#EEEEEE"/>
<path d="M428 200C428 194.9 422 185.5 419.3 181.7L416 177L412.7 181.7C410.1 185.5 404 194.9 404 200C404.003 202.479 404.773 204.897 406.206 206.92C407.639 208.944 409.663 210.474 412 211.3V280C412 281.061 411.579 282.078 410.828 282.828C410.078 283.579 409.061 284 408 284C406.939 284 405.922 283.579 405.172 282.828C404.421 282.078 404 281.061 404 280V264C404 260.817 402.736 257.765 400.485 255.515C398.235 253.264 395.183 252 392 252H376V260H392C393.061 260 394.078 260.421 394.828 261.172C395.579 261.922 396 262.939 396 264V280C396 283.183 397.264 286.235 399.515 288.485C401.765 290.736 404.817 292 408 292C411.183 292 414.235 290.736 416.485 288.485C418.736 286.235 420 283.183 420 280V211.3C424.7 209.6 428 205.3 428 200Z" fill="#FFDA44"/>
</g>
</g>
<defs>
<clipPath id="clip0_1628_2071">
<rect width="512" height="512" fill="white"/>
</clipPath>
</defs>
</svg>
