<svg width="512" height="512" viewBox="0 0 512 512" fill="none" xmlns="http://www.w3.org/2000/svg">
<g clip-path="url(#clip0_1628_2118)">
<mask id="mask0_1628_2118" style="mask-type:luminance" maskUnits="userSpaceOnUse" x="0" y="0" width="512" height="512">
<path d="M256 512C397.385 512 512 397.385 512 256C512 114.615 397.385 0 256 0C114.615 0 0 114.615 0 256C0 397.385 114.615 512 256 512Z" fill="white"/>
</mask>
<g mask="url(#mask0_1628_2118)">
<path d="M0 0H512V512H0V0Z" fill="#EEEEEE"/>
<path d="M136 128V368H376V128H136ZM152 352V247L355 352H152ZM360 191C326.228 202.14 289.772 202.14 256 191C222.228 179.86 185.772 179.86 152 191V144H360V191Z" fill="#496E2D"/>
<path d="M136 384H376V400H136V384Z" fill="#D80027"/>
</g>
</g>
<defs>
<clipPath id="clip0_1628_2118">
<rect width="512" height="512" fill="white"/>
</clipPath>
</defs>
</svg>
