<svg width="512" height="512" viewBox="0 0 512 512" fill="none" xmlns="http://www.w3.org/2000/svg">
<g clip-path="url(#clip0_1628_2142)">
<mask id="mask0_1628_2142" style="mask-type:luminance" maskUnits="userSpaceOnUse" x="0" y="0" width="512" height="512">
<path d="M256 512C397.385 512 512 397.385 512 256C512 114.615 397.385 0 256 0C114.615 0 0 114.615 0 256C0 397.385 114.615 512 256 512Z" fill="white"/>
</mask>
<g mask="url(#mask0_1628_2142)">
<path d="M0 0H512V512H0V0Z" fill="#EEEEEE"/>
<path d="M256 544C179 544 106.7 514 52.4 459.6C-2 405.3 -32 333 -32 256C-32 179 -2 106.7 52.4 52.4C106.7 -2 179 -32 256 -32C333 -32 405.3 -2 459.6 52.4C514 106.7 544 179 544 256C544 333 514 405.3 459.6 459.6C432.929 486.431 401.201 507.705 366.253 522.192C331.306 536.68 293.832 544.092 256 544ZM256 32C196.2 32 140 55.3 97.6 97.6C55.3 140 32 196.2 32 256C32 315.8 55.3 372 97.6 414.4C140 456.7 196.2 480 256 480C315.8 480 372 456.7 414.4 414.4C456.7 372 480 315.8 480 256C480 196.2 456.7 140 414.4 97.6C393.648 76.7334 368.962 60.191 341.772 48.9306C314.582 37.6703 285.429 31.9156 256 32Z" fill="#496E2D"/>
<path d="M363.903 146.4C357.942 143.928 351.378 143.292 345.053 144.575C338.728 145.858 332.93 149 328.403 153.6L252.203 230.5L298.203 276.5L319.003 255.5V305L230.003 216V185C231.001 180.436 231.091 175.721 230.266 171.123C229.442 166.525 227.72 162.134 225.199 158.202C222.678 154.269 219.407 150.872 215.573 148.203C211.739 145.535 207.417 143.648 202.853 142.65C193.637 140.634 183.997 142.362 176.055 147.454C172.123 149.975 168.725 153.246 166.057 157.08C163.388 160.914 161.501 165.236 160.503 169.8L116.703 208H161.303V333.5C161.051 338.166 161.753 342.836 163.365 347.222C164.978 351.609 167.467 355.621 170.682 359.014C173.896 362.406 177.768 365.108 182.062 366.955C186.355 368.801 190.98 369.754 195.653 369.754C200.327 369.754 204.951 368.801 209.245 366.955C213.538 365.108 217.41 362.406 220.625 359.014C223.839 355.621 226.328 351.609 227.941 347.222C229.553 342.836 230.255 338.166 230.003 333.5V321.4C243.241 330.482 259.061 335.039 275.101 334.39C291.142 333.741 306.542 327.921 319.003 317.8V333.8C319.003 342.419 322.427 350.686 328.522 356.781C334.617 362.876 342.884 366.3 351.503 366.3C360.123 366.3 368.389 362.876 374.484 356.781C380.579 350.686 384.003 342.419 384.003 333.8V176.4C384.003 163.2 376.003 151.4 363.903 146.4ZM195.403 151C198.893 150.781 202.39 151.28 205.68 152.465C208.969 153.65 211.981 155.497 214.53 157.891C217.078 160.285 219.109 163.175 220.498 166.385C221.886 169.594 222.602 173.053 222.602 176.55C222.602 180.046 221.886 183.506 220.498 186.715C219.109 189.924 217.078 192.814 214.53 195.208C211.981 197.602 208.969 199.449 205.68 200.634C202.39 201.819 198.893 202.318 195.403 202.1C188.903 201.693 182.803 198.824 178.344 194.077C173.885 189.33 171.402 183.062 171.402 176.55C171.402 170.037 173.885 163.769 178.344 159.022C182.803 154.275 188.903 151.406 195.403 151ZM143.403 198.2L160.403 183.2L161.303 186.4V198.2H143.303H143.403ZM217.003 333.6C217.003 345.6 207.603 355 195.603 355C183.603 355 174.303 345.5 174.303 333.6V208.1H179.303C185.261 211.171 191.971 212.482 198.647 211.88C205.324 211.278 211.69 208.787 217.003 204.7V209.4C204.353 223.136 197.332 241.126 197.332 259.8C197.332 278.473 204.353 296.464 217.003 310.2V333.6ZM299.003 315.4L255.703 272.1L246.503 281.3L285.303 320.2C283.003 320.7 280.603 321 278.303 321.2L242.403 285.4L233.203 294.6L258.603 320.1C248.792 317.921 239.662 313.379 232.006 306.868C224.35 300.357 218.4 292.074 214.675 282.74C210.949 273.406 209.56 263.303 210.628 253.31C211.696 243.316 215.189 233.735 220.803 225.4L306.503 311.1C304.106 312.706 301.6 314.143 299.003 315.4Z" fill="#333333"/>
</g>
</g>
<defs>
<clipPath id="clip0_1628_2142">
<rect width="512" height="512" fill="white"/>
</clipPath>
</defs>
</svg>
