<svg width="512" height="512" viewBox="0 0 512 512" fill="none" xmlns="http://www.w3.org/2000/svg">
<g clip-path="url(#clip0_1628_2186)">
<mask id="mask0_1628_2186" style="mask-type:luminance" maskUnits="userSpaceOnUse" x="0" y="0" width="512" height="512">
<path d="M256 512C397.385 512 512 397.385 512 256C512 114.615 397.385 0 256 0C114.615 0 0 114.615 0 256C0 397.385 114.615 512 256 512Z" fill="white"/>
</mask>
<g mask="url(#mask0_1628_2186)">
<path d="M0 0H512V512H0V0Z" fill="#D80027"/>
<path d="M256 404.4C256 404.4 368 378.7 368 293V216L280 296L202 382C229.3 398.3 256 404.4 256 404.4Z" fill="#0052B4"/>
<path d="M144 152V293C144.009 298.836 144.544 304.66 145.6 310.4L224 240L304 152H144Z" fill="#EEEEEE"/>
<path d="M304 152L145.5 310.5C152 344.5 177.2 367.5 201.9 382.1L367.9 216.1V152.1H303.9L304 152Z" fill="#6DA544"/>
</g>
</g>
<defs>
<clipPath id="clip0_1628_2186">
<rect width="512" height="512" fill="white"/>
</clipPath>
</defs>
</svg>
