<svg width="512" height="512" viewBox="0 0 512 512" fill="none" xmlns="http://www.w3.org/2000/svg">
<g clip-path="url(#clip0_1628_2195)">
<mask id="mask0_1628_2195" style="mask-type:luminance" maskUnits="userSpaceOnUse" x="0" y="0" width="512" height="512">
<path d="M256 512C397.385 512 512 397.385 512 256C512 114.615 397.385 0 256 0C114.615 0 0 114.615 0 256C0 397.385 114.615 512 256 512Z" fill="white"/>
</mask>
<g mask="url(#mask0_1628_2195)">
<path d="M0 0H512V512H0V0Z" fill="#338AF3"/>
<path d="M344 152H144V293C144 311 149 326.3 156.7 339.3L187.6 372.4C219 395.9 256 404.4 256 404.4C256 404.4 368 378.7 368 293V192L344 152Z" fill="#D80027"/>
<path fill-rule="evenodd" clip-rule="evenodd" d="M202.4 210.3L188.2 205.6L181.5 219L174.8 205.6L160.6 210.3L165.4 196.1L152 189.5L165.4 182.8L160.6 168.6L174.8 173.4L181.5 160L188.2 173.4L202.4 168.6L197.6 182.8L211 189.5L197.6 196.1L202.4 210.3Z" fill="#EEEEEE"/>
<path d="M344.002 152L156.602 339.4C164.648 352.34 175.144 363.584 187.502 372.5L368.002 192V152H344.002Z" fill="#EEEEEE"/>
</g>
</g>
<defs>
<clipPath id="clip0_1628_2195">
<rect width="512" height="512" fill="white"/>
</clipPath>
</defs>
</svg>
