<svg width="512" height="512" viewBox="0 0 512 512" fill="none" xmlns="http://www.w3.org/2000/svg">
<g clip-path="url(#clip0_1628_2150)">
<mask id="mask0_1628_2150" style="mask-type:luminance" maskUnits="userSpaceOnUse" x="0" y="0" width="512" height="512">
<path d="M256 512C397.385 512 512 397.385 512 256C512 114.615 397.385 0 256 0C114.615 0 0 114.615 0 256C0 397.385 114.615 512 256 512Z" fill="white"/>
</mask>
<g mask="url(#mask0_1628_2150)">
<path d="M0 0H512V512H0V0Z" fill="#338AF3"/>
<path d="M310.902 146.898H209.102L226.102 163.798L265.702 169.498L293.902 163.798L310.902 146.898Z" fill="#6DA544"/>
<path d="M203.403 141.199L378.803 316.599L316.603 378.799L141.203 203.399L203.403 141.199Z" fill="#FFDA44"/>
<path d="M316.603 141.199L378.803 203.399L203.403 378.799L141.203 316.599L316.603 141.199Z" fill="#FFDA44"/>
<path d="M260 209L311 260L260 311L209 260L260 209Z" fill="#D80027"/>
<path d="M316.602 367.502L282.602 333.502L304.002 304.202L333.502 282.602L367.502 316.602L316.602 367.502Z" fill="#338AF3"/>
<path d="M203.4 265.699L254.3 316.599L203.3 367.499L152.5 316.499L203.4 265.699Z" fill="#D80027"/>
<path d="M203.4 152.5L254.4 203.4L203.4 254.3L152.5 203.3L203.4 152.5ZM310.9 260L260 209.1V310.9L310.9 260Z" fill="#338AF3"/>
<path d="M316.602 265.699L333.602 282.699L282.602 333.499L265.602 316.499L316.602 265.699Z" fill="#D80027"/>
<path d="M299.603 169.5L265.703 203.4L299.603 237.4L310.903 203.4L299.603 169.5Z" fill="#0052B4"/>
<path d="M333.503 237.4L367.503 203.4L333.503 169.5L322.203 203.4L333.503 237.4Z" fill="#338AF3"/>
<path d="M316.602 152.5L299.602 169.5V237.4L316.602 254.3L333.502 237.4V169.5L316.602 152.5Z" fill="#6DA544"/>
<path d="M203.398 141.199H316.498V149.199H203.398V141.199Z" fill="#FFDA44"/>
<path d="M293.902 163.801H226.102L243.002 180.801L260.002 186.501L277.002 180.801L293.902 163.801Z" fill="#EEEEEE"/>
<path d="M260 197.801L277 180.801H243L260 197.801Z" fill="#D80027"/>
<path d="M373.1 310.902V209.102L356.2 226.102L350.5 265.702L356.2 293.902L373.1 310.902Z" fill="#6DA544"/>
<path d="M356.2 293.902V226.102L339.2 243.002L333.5 260.002L339.2 277.002L356.2 293.902Z" fill="#EEEEEE"/>
<path d="M322.203 260L339.203 277V243L322.203 260Z" fill="#D80027"/>
<path d="M209.102 373.1H310.902L293.902 356.2L254.302 350.5L226.102 356.2L209.102 373.1Z" fill="#6DA544"/>
<path d="M226.102 356.2H293.902L277.002 339.2L260.002 333.5L243.002 339.2L226.102 356.2Z" fill="#EEEEEE"/>
<path d="M260 322.199L243 339.199H277L260 322.199Z" fill="#D80027"/>
<path d="M146.898 209.102V310.902L163.798 293.902L169.498 254.302L163.798 226.102L146.898 209.102Z" fill="#6DA544"/>
<path d="M163.797 226.102V293.902L180.797 277.002L186.497 260.002L180.797 243.002L163.797 226.102Z" fill="#EEEEEE"/>
<path d="M197.797 260L180.797 243V277L197.797 260Z" fill="#D80027"/>
<path d="M203.403 370.8H316.503V378.8H203.403V370.8ZM370.803 316.6V203.5H378.803V316.5L370.803 316.6ZM141.203 316.6V203.6H149.203V316.6H141.203Z" fill="#FFDA44"/>
<path d="M202.897 189.398L229.997 216.498L216.397 230.098L189.297 202.898L202.897 189.398Z" fill="#FFDA44"/>
<path d="M196.1 205.7C201.402 205.7 205.7 201.402 205.7 196.1C205.7 190.798 201.402 186.5 196.1 186.5C190.798 186.5 186.5 190.798 186.5 196.1C186.5 201.402 190.798 205.7 196.1 205.7Z" fill="#FFDA44"/>
<path d="M340.603 332.098L342.703 332.798L351.903 323.598L351.203 321.598L339.903 310.198C342.003 308.098 342.003 305.198 339.903 303.198C338.503 301.698 334.903 300.998 332.903 303.198L321.503 314.398L319.403 315.198V312.298L330.703 300.998L328.603 298.898L317.303 310.198C316.387 311.133 315.874 312.39 315.874 313.698C315.874 315.007 316.387 316.264 317.303 317.198C318.703 318.698 322.303 319.398 324.303 317.198L335.703 305.998L337.703 305.298V308.098L325.103 320.798C324.491 321.431 323.746 321.921 322.923 322.233C322.099 322.545 321.217 322.673 320.339 322.606C319.461 322.539 318.609 322.28 317.842 321.846C317.075 321.413 316.414 320.816 315.903 320.098C314.546 319.08 312.864 318.589 311.172 318.718C309.479 318.847 307.891 319.586 306.703 320.798C305.771 322.019 305.266 323.512 305.266 325.048C305.266 326.584 305.771 328.078 306.703 329.298L310.203 332.798L315.203 337.798C315.714 338.5 316.371 339.082 317.129 339.504C317.887 339.927 318.727 340.18 319.592 340.247C320.457 340.313 321.326 340.191 322.14 339.89C322.953 339.588 323.691 339.113 324.303 338.498L325.803 339.898L323.603 341.998C323.058 342.517 322.637 343.153 322.371 343.858C322.106 344.562 322.003 345.318 322.07 346.067C322.138 346.817 322.373 347.542 322.76 348.188C323.147 348.834 323.674 349.385 324.303 349.798H325.803L334.203 341.298L335.003 339.198L329.303 333.498L340.603 320.798L342.703 322.898L340.703 325.098C339.787 326.033 339.274 327.29 339.274 328.598C339.274 329.907 339.787 331.164 340.703 332.098H340.603Z" fill="#FFDA44"/>
<path d="M284 248C284 250.122 283.157 252.157 281.657 253.657C280.157 255.157 278.122 256 276 256C276 258.122 275.157 260.157 273.657 261.657C272.157 263.157 270.122 264 268 264V272H264L268 280L260 288L252 280L256 272H252V264C249.878 264 247.843 263.157 246.343 261.657C244.843 260.157 244 258.122 244 256C241.878 256 239.843 255.157 238.343 253.657C236.843 252.157 236 250.122 236 248H252C252 245.878 252.843 243.843 254.343 242.343C255.843 240.843 257.878 240 260 240C262.122 240 264.157 240.843 265.657 242.343C267.157 243.843 268 245.878 268 248H284Z" fill="#EEEEEE"/>
<path d="M360 64V112H168V64C172.243 64 176.313 65.6857 179.314 68.6863C182.314 71.6869 184 75.7565 184 80H200C200 75.7565 201.686 71.6869 204.686 68.6863C207.687 65.6857 211.757 64 216 64C220.243 64 224.313 65.6857 227.314 68.6863C230.314 71.6869 232 75.7565 232 80H248C248 75.7565 249.686 71.6869 252.686 68.6863C255.687 65.6857 259.757 64 264 64C268.243 64 272.313 65.6857 275.314 68.6863C278.314 71.6869 280 75.7565 280 80H296C296 75.7565 297.686 71.6869 300.686 68.6863C303.687 65.6857 307.757 64 312 64C316.243 64 320.313 65.6857 323.314 68.6863C326.314 71.6869 328 75.7565 328 80H344C344 75.7565 345.686 71.6869 348.686 68.6863C351.687 65.6857 355.757 64 360 64Z" fill="#FFDA44"/>
</g>
</g>
<defs>
<clipPath id="clip0_1628_2150">
<rect width="512" height="512" fill="white"/>
</clipPath>
</defs>
</svg>
