<svg width="512" height="512" viewBox="0 0 512 512" fill="none" xmlns="http://www.w3.org/2000/svg">
<g clip-path="url(#clip0_1628_2227)">
<mask id="mask0_1628_2227" style="mask-type:luminance" maskUnits="userSpaceOnUse" x="0" y="0" width="512" height="512">
<path d="M256 512C397.385 512 512 397.385 512 256C512 114.615 397.385 0 256 0C114.615 0 0 114.615 0 256C0 397.385 114.615 512 256 512Z" fill="white"/>
</mask>
<g mask="url(#mask0_1628_2227)">
<path d="M0 0H512V512H0V0Z" fill="#0052B4"/>
<path d="M144 152V293C144 378.6 256 404.4 256 404.4C256 404.4 368 378.7 368 293V152H144Z" fill="#EEEEEE"/>
<path d="M330.7 224.001C320.2 224.001 314.7 220.701 309.9 217.801C305.4 215.101 301.6 212.801 293.3 212.801C285 212.801 281.3 215.101 276.7 217.801C271.9 220.801 266.4 224.001 256 224.001C245.6 224.001 240.1 220.701 235.3 217.801C230.8 215.101 226.9 212.801 218.7 212.801C210.5 212.801 206.6 215.101 202.1 217.801C197.2 220.801 191.8 224.001 181.3 224.001C173.923 224.135 166.688 221.968 160.6 217.801C156.1 215.101 152.2 212.801 144 212.801L136 208.801L144 204.801C154.4 204.801 159.9 208.101 164.7 211.001C169.2 213.701 173.1 216.001 181.3 216.001C189.5 216.001 193.4 213.701 197.9 211.001C202.8 208.001 208.2 204.801 218.7 204.801C229.1 204.801 234.6 208.101 239.4 211.001C243.9 213.701 247.8 216.001 256 216.001C264.2 216.001 268.1 213.701 272.6 211.001C277.4 208.001 282.9 204.801 293.3 204.801C303.8 204.801 309.3 208.101 314.1 211.001C318.6 213.701 322.4 216.001 330.7 216.001C339 216.001 342.7 213.701 347.3 211.001C352.1 208.001 357.6 204.801 368 204.801L376 208.801L368 212.801C359.8 212.801 355.9 215.101 351.4 217.801C346.6 220.801 341.1 224.001 330.7 224.001ZM330.7 248.001C320.2 248.001 314.7 244.701 309.9 241.801C305.4 239.101 301.6 236.801 293.3 236.801C285 236.801 281.3 239.101 276.7 241.801C271.9 244.801 266.4 248.001 256 248.001C245.6 248.001 240.1 244.701 235.3 241.801C230.8 239.101 226.9 236.801 218.7 236.801C210.5 236.801 206.6 239.101 202.1 241.801C197.2 244.801 191.8 248.001 181.3 248.001C173.923 248.135 166.688 245.968 160.6 241.801C156.1 239.101 152.2 236.801 144 236.801L136 232.801L144 228.801C154.4 228.801 159.9 232.101 164.7 235.001C169.2 237.701 173.1 240.001 181.3 240.001C189.5 240.001 193.4 237.701 197.9 235.001C202.8 232.001 208.2 228.801 218.7 228.801C229.1 228.801 234.6 232.101 239.4 235.001C243.9 237.701 247.8 240.001 256 240.001C264.2 240.001 268.1 237.701 272.6 235.001C277.4 232.001 282.9 228.801 293.3 228.801C303.8 228.801 309.3 232.101 314.1 235.001C318.6 237.701 322.4 240.001 330.7 240.001C339 240.001 342.7 237.701 347.3 235.001C352.1 232.001 357.6 228.801 368 228.801L376 232.801L368 236.801C359.8 236.801 355.9 239.101 351.4 241.801C346.6 244.801 341.1 248.001 330.7 248.001ZM330.7 272.001C320.2 272.001 314.7 268.701 309.9 265.801C305.4 263.101 301.6 260.801 293.3 260.801C285 260.801 281.3 263.101 276.7 265.801C271.9 268.801 266.4 272.001 256 272.001C245.6 272.001 240.1 268.701 235.3 265.801C230.8 263.101 226.9 260.801 218.7 260.801C210.5 260.801 206.6 263.101 202.1 265.801C197.2 268.801 191.8 272.001 181.3 272.001C173.923 272.135 166.688 269.968 160.6 265.801C156.1 263.101 152.2 260.801 144 260.801L136 256.801L144 252.801C154.4 252.801 159.9 256.101 164.7 259.001C169.2 261.701 173.1 264.001 181.3 264.001C189.5 264.001 193.4 261.701 197.9 259.001C202.8 256.001 208.2 252.801 218.7 252.801C229.1 252.801 234.6 256.101 239.4 259.001C243.9 261.701 247.8 264.001 256 264.001C264.2 264.001 268.1 261.701 272.6 259.001C277.4 256.001 282.9 252.801 293.3 252.801C303.8 252.801 309.3 256.101 314.1 259.001C318.6 261.701 322.4 264.001 330.7 264.001C339 264.001 342.7 261.701 347.3 259.001C352.1 256.001 357.6 252.801 368 252.801L376 256.801L368 260.801C359.8 260.801 355.9 263.101 351.4 265.801C346.6 268.801 341.1 272.001 330.7 272.001ZM330.7 296.001C320.2 296.001 314.7 292.701 309.9 289.801C305.4 287.101 301.6 284.801 293.3 284.801C285 284.801 281.3 287.101 276.7 289.801C271.9 292.801 266.4 296.001 256 296.001C245.6 296.001 240.1 292.701 235.3 289.801C230.8 287.101 226.9 284.801 218.7 284.801C210.5 284.801 206.6 287.101 202.1 289.801C197.2 292.801 191.8 296.001 181.3 296.001C173.923 296.135 166.688 293.968 160.6 289.801C156.1 287.101 152.2 284.801 144 284.801L136 280.801L144 276.801C154.4 276.801 159.9 280.101 164.7 283.001C169.2 285.701 173.1 288.001 181.3 288.001C189.5 288.001 193.4 285.701 197.9 283.001C202.8 280.001 208.2 276.801 218.7 276.801C229.1 276.801 234.6 280.101 239.4 283.001C243.9 285.701 247.8 288.001 256 288.001C264.2 288.001 268.1 285.701 272.6 283.001C277.4 280.001 282.9 276.801 293.3 276.801C303.8 276.801 309.3 280.101 314.1 283.001C318.6 285.701 322.4 288.001 330.7 288.001C339 288.001 342.7 285.701 347.3 283.001C352.1 280.001 357.6 276.801 368 276.801L376 280.801L368 284.801C359.8 284.801 355.9 287.101 351.4 289.801C346.6 292.801 341.1 296.001 330.7 296.001Z" fill="#0052B4"/>
</g>
</g>
<defs>
<clipPath id="clip0_1628_2227">
<rect width="512" height="512" fill="white"/>
</clipPath>
</defs>
</svg>
