<svg width="512" height="512" viewBox="0 0 512 512" fill="none" xmlns="http://www.w3.org/2000/svg">
<g clip-path="url(#clip0_1628_2212)">
<mask id="mask0_1628_2212" style="mask-type:luminance" maskUnits="userSpaceOnUse" x="0" y="0" width="512" height="512">
<path d="M256 512C397.385 512 512 397.385 512 256C512 114.615 397.385 0 256 0C114.615 0 0 114.615 0 256C0 397.385 114.615 512 256 512Z" fill="white"/>
</mask>
<g mask="url(#mask0_1628_2212)">
<path d="M0 0H512V512H0V0Z" fill="#EEEEEE"/>
<path d="M208 408C191.026 408 174.747 401.257 162.745 389.255C150.743 377.252 144 360.974 144 344V342.4L148.8 288L144 249.6V184H209.6L256 187L302.4 184H368V249.6L364.5 300.2L368 342.4V344C368 360.974 361.257 377.252 349.255 389.255C337.252 401.257 320.974 408 304 408" fill="#338AF3"/>
<path d="M352 335.8L295.8 392H216.2L160 335.8V256.2L216.2 200H295.8L352 256.2V335.8Z" fill="#EEEEEE"/>
<path d="M144 152H368V184H144V152Z" fill="#FFDA44"/>
<path d="M302.4 184H209.6L144 249.6V342.4L209.6 408H302.4L368 342.4V249.6L302.4 184ZM347.6 334L294 387.6H218L164.4 334V258L218 204.4H294L347.6 258V334Z" fill="#D80027"/>
<path d="M243.703 308.301C243.703 321.701 229.703 330.801 229.703 330.801H282.203C282.203 330.801 268.303 321.801 268.303 308.301H243.703Z" fill="#6DA544"/>
<path d="M255.997 245.199C251.197 245.199 246.897 247.299 243.697 250.499C241.233 249.044 238.443 248.23 235.584 248.132C232.724 248.034 229.885 248.656 227.328 249.939C224.771 251.223 222.576 253.128 220.946 255.479C219.316 257.831 218.302 260.554 217.997 263.399C214.909 264.789 212.303 267.064 210.509 269.937C208.716 272.809 207.816 276.149 207.923 279.534C208.03 282.918 209.139 286.195 211.111 288.948C213.082 291.702 215.827 293.808 218.997 294.999C219.313 297.736 220.285 300.355 221.831 302.635C223.377 304.915 225.451 306.788 227.877 308.094C230.302 309.399 233.007 310.1 235.761 310.136C238.516 310.172 241.238 309.542 243.697 308.299C246.897 311.599 251.197 313.699 255.997 313.699C260.797 313.699 265.097 311.599 268.297 308.299C270.497 309.999 273.097 310.499 275.797 310.499C280.091 310.566 284.252 309.005 287.443 306.13C290.634 303.255 292.618 299.278 292.997 294.999C296.171 293.818 298.923 291.721 300.904 288.974C302.885 286.226 304.006 282.952 304.123 279.567C304.241 276.182 303.351 272.839 301.566 269.96C299.781 267.082 297.181 264.798 294.097 263.399C293.792 260.554 292.777 257.831 291.147 255.479C289.517 253.128 287.323 251.223 284.765 249.939C282.208 248.656 279.369 248.034 276.51 248.132C273.65 248.23 270.86 249.044 268.397 250.499C266.798 248.847 264.888 247.528 262.777 246.618C260.666 245.709 258.395 245.226 256.097 245.199H255.997Z" fill="#496E2D"/>
<path d="M352 120L336 104L320 120L304 104L288 120L272 104L256 120L240 104L224 120L208 104L192 120L176 104L160 120L144 104V136H368V104L352 120Z" fill="#FF9811"/>
<path d="M0 0H48V512H0V0Z" fill="#6DA544"/>
<path d="M464 0H512V512H464V0Z" fill="#D80027"/>
</g>
</g>
<defs>
<clipPath id="clip0_1628_2212">
<rect width="512" height="512" fill="white"/>
</clipPath>
</defs>
</svg>
