<svg width="512" height="512" viewBox="0 0 512 512" fill="none" xmlns="http://www.w3.org/2000/svg">
<g clip-path="url(#clip0_1628_2204)">
<mask id="mask0_1628_2204" style="mask-type:luminance" maskUnits="userSpaceOnUse" x="0" y="0" width="512" height="512">
<path d="M256 512C397.385 512 512 397.385 512 256C512 114.615 397.385 0 256 0C114.615 0 0 114.615 0 256C0 397.385 114.615 512 256 512Z" fill="white"/>
</mask>
<g mask="url(#mask0_1628_2204)">
<path d="M0 0H512V512H0V0Z" fill="#0052B4"/>
<path d="M176 152L144 184V293C144 378.6 256 404.4 256 404.4C256 404.4 296.6 395.1 329 368.9L358.2 334.2C364.749 321.461 368.112 307.324 368 293V152H176Z" fill="#EEEEEE"/>
<path d="M358.2 334.2L176 152H144V184L329 369C341.049 359.558 350.994 347.705 358.2 334.2Z" fill="#D80027"/>
</g>
</g>
<defs>
<clipPath id="clip0_1628_2204">
<rect width="512" height="512" fill="white"/>
</clipPath>
</defs>
</svg>
