<svg width="512" height="512" viewBox="0 0 512 512" fill="none" xmlns="http://www.w3.org/2000/svg">
<g clip-path="url(#clip0_1628_2235)">
<mask id="mask0_1628_2235" style="mask-type:luminance" maskUnits="userSpaceOnUse" x="0" y="0" width="512" height="512">
<path d="M256 512C397.385 512 512 397.385 512 256C512 114.615 397.385 0 256 0C114.615 0 0 114.615 0 256C0 397.385 114.615 512 256 512Z" fill="white"/>
</mask>
<g mask="url(#mask0_1628_2235)">
<path d="M0 0L216.9 301.6L512 512V0H0Z" fill="#D80027"/>
<path d="M0 0L512 512H0V0Z" fill="#FFDA44"/>
<path d="M281.202 307.198C273.344 295.478 269.615 281.474 270.602 267.398C314.602 247.098 337.202 196.398 321.302 149.398L291.002 159.698C295.985 174.429 295.435 190.47 289.454 204.825C283.473 219.179 272.47 230.865 258.502 237.698C239.147 224.068 215.442 218.062 191.932 220.83C168.422 223.598 146.761 234.946 131.102 252.698L155.102 273.898C165.294 262.146 179.44 254.536 194.863 252.509C210.287 250.482 225.919 254.178 238.802 262.898C236.766 284.768 242.347 306.67 254.602 324.898C261.553 335.426 270.524 344.471 280.995 351.509C291.465 358.546 303.228 363.437 315.602 365.898L321.902 334.398C313.657 332.778 305.816 329.54 298.83 324.871C291.844 320.202 285.853 314.196 281.202 307.198Z" fill="#FF9811"/>
<path d="M403.4 159.998L365.6 193.698L387.2 288.098C388.421 293.359 388.189 298.853 386.53 303.992C384.871 309.132 381.846 313.724 377.779 317.277C373.712 320.831 368.756 323.212 363.44 324.167C358.124 325.122 352.649 324.614 347.6 322.698L347 322.398L256 287.398L196.2 312.598L189.9 315.198L196.4 318.498L277.6 358.298L271.6 424.298L271.5 426.298C271.303 427.02 270.965 427.697 270.507 428.289C270.049 428.881 269.478 429.376 268.828 429.748C268.178 430.119 267.461 430.359 266.719 430.453C265.976 430.548 265.222 430.495 264.5 430.298C263.777 430.101 263.101 429.764 262.509 429.305C261.917 428.847 261.421 428.276 261.05 427.626C260.678 426.976 260.439 426.26 260.344 425.517C260.25 424.774 260.303 424.02 260.5 423.298L250.5 373.798L157.9 345.298C152.706 343.759 148.032 340.829 144.384 336.825C140.736 332.821 138.252 327.895 137.201 322.581C136.151 317.267 136.574 311.767 138.424 306.676C140.275 301.585 143.482 297.097 147.7 293.698L148.2 293.298L224 231.998L232.1 167.598L233 160.798L226.9 164.798L151.9 215.298L97.4997 176.998L95.9997 175.998C95.3628 175.501 94.8387 174.875 94.4621 174.161C94.0856 173.446 93.8652 172.66 93.8155 171.854C93.7658 171.048 93.888 170.24 94.1739 169.485C94.4599 168.73 94.9031 168.044 95.4742 167.473C96.0453 166.901 96.7312 166.458 97.4865 166.172C98.2418 165.886 99.0493 165.764 99.8554 165.814C100.661 165.864 101.448 166.084 102.162 166.461C102.877 166.837 103.503 167.361 104 167.998L152 183.998L223 118.098C226.934 114.393 231.804 111.832 237.086 110.69C242.367 109.548 247.861 109.869 252.974 111.618C258.087 113.367 262.626 116.478 266.102 120.615C269.578 124.753 271.859 129.76 272.7 135.098V135.698L288 231.998L339.7 271.198L345.2 275.398L344.7 268.098L338.6 177.798L398.8 149.898L400.5 149.198C401.247 148.884 402.052 148.733 402.863 148.756C403.673 148.778 404.469 148.973 405.198 149.327C405.927 149.681 406.572 150.187 407.09 150.81C407.608 151.433 407.987 152.16 408.202 152.941C408.417 153.722 408.463 154.541 408.337 155.341C408.211 156.142 407.915 156.906 407.47 157.583C407.025 158.261 406.441 158.835 405.756 159.269C405.072 159.703 404.302 159.985 403.5 160.098L403.4 159.998Z" fill="#EEEEEE"/>
</g>
</g>
<defs>
<clipPath id="clip0_1628_2235">
<rect width="512" height="512" fill="white"/>
</clipPath>
</defs>
</svg>
