<svg width="512" height="512" viewBox="0 0 512 512" fill="none" xmlns="http://www.w3.org/2000/svg">
<g clip-path="url(#clip0_1628_2257)">
<mask id="mask0_1628_2257" style="mask-type:luminance" maskUnits="userSpaceOnUse" x="0" y="0" width="512" height="512">
<path d="M256 512C397.385 512 512 397.385 512 256C512 114.615 397.385 0 256 0C114.615 0 0 114.615 0 256C0 397.385 114.615 512 256 512Z" fill="white"/>
</mask>
<g mask="url(#mask0_1628_2257)">
<path d="M0 0H222.6L253.6 23.4L289.4 0H512V222.6L490.5 253.6L512 289.4V512H289.4L255.2 491.5L222.6 512H0V289.4L22.7 256.8L0 222.6V0Z" fill="#EEEEEE"/>
<path d="M222.6 0V222.6H0V289.4H222.6V512H289.4V289.4H512V222.6H289.4V0H222.6Z" fill="#D80027"/>
<path d="M378.398 89.0001C358.098 89.0001 340.398 102.8 335.398 122.4L378.398 133.6L421.598 122.4C419.132 112.825 413.546 104.343 405.724 98.295C397.901 92.2468 388.287 88.9764 378.398 89.0001ZM333.998 189.2L389.698 200.3V176.7C405.298 172.7 417.698 160.3 421.698 144.7L378.498 133.6H322.898L333.998 167V189.2Z" fill="#333333"/>
<path d="M421.597 122.398H322.797V166.998H333.897V144.698H421.597C423.485 137.385 423.485 129.712 421.597 122.398Z" fill="#ACABB1"/>
<path d="M144.7 89C124.4 89 106.7 102.7 101.6 122.4L144.7 133.6L187.8 122.4C185.338 112.841 179.767 104.372 171.965 98.3255C164.162 92.2791 154.571 88.9985 144.7 89ZM100.2 189.2L155.8 200.3V176.7C171.5 172.7 183.8 160.3 187.8 144.7L144.7 133.6H89L100.2 167V189.2Z" fill="#333333"/>
<path d="M187.8 122.398H89V166.998H100.2V144.698H187.8C189.688 137.385 189.688 129.712 187.8 122.398Z" fill="#ACABB1"/>
<path d="M378.398 311.699C358.198 311.699 340.398 325.399 335.398 344.999L378.398 356.199L421.598 344.999C419.113 335.442 413.52 326.983 405.698 320.955C397.877 314.926 388.273 311.67 378.398 311.699ZM333.998 411.799L389.698 422.999V399.299C405.298 395.299 417.698 382.899 421.698 367.299L378.498 356.199H322.898L333.998 389.599V411.799Z" fill="#333333"/>
<path d="M421.597 345H322.797V389.6H333.897V367.3H421.597C423.485 359.987 423.485 352.313 421.597 345Z" fill="#ACABB1"/>
<path d="M144.7 311.699C124.4 311.699 106.7 325.399 101.6 344.999L144.7 356.199L187.8 344.999C185.319 335.459 179.74 327.012 171.94 320.985C164.139 314.958 154.558 311.692 144.7 311.699ZM100.2 411.799L155.8 422.999V399.299C171.5 395.299 183.8 382.899 187.8 367.299L144.7 356.199H89L100.2 389.599V411.799Z" fill="#333333"/>
<path d="M187.8 345H89V389.6H100.2V367.3H187.8C189.688 359.987 189.688 352.313 187.8 345Z" fill="#ACABB1"/>
</g>
</g>
<defs>
<clipPath id="clip0_1628_2257">
<rect width="512" height="512" fill="white"/>
</clipPath>
</defs>
</svg>
