<svg width="512" height="512" viewBox="0 0 512 512" fill="none" xmlns="http://www.w3.org/2000/svg">
<g clip-path="url(#clip0_1628_2307)">
<mask id="mask0_1628_2307" style="mask-type:luminance" maskUnits="userSpaceOnUse" x="0" y="0" width="512" height="512">
<path d="M256 512C397.385 512 512 397.385 512 256C512 114.615 397.385 0 256 0C114.615 0 0 114.615 0 256C0 397.385 114.615 512 256 512Z" fill="white"/>
</mask>
<g mask="url(#mask0_1628_2307)">
<path d="M0 0H512V512H0V0Z" fill="#EEEEEE"/>
<path d="M256.003 367.299C317.472 367.299 367.303 317.469 367.303 255.999C367.303 194.53 317.472 144.699 256.003 144.699C194.534 144.699 144.703 194.53 144.703 255.999C144.703 317.469 194.534 367.299 256.003 367.299Z" fill="#D80027"/>
</g>
</g>
<defs>
<clipPath id="clip0_1628_2307">
<rect width="512" height="512" fill="white"/>
</clipPath>
</defs>
</svg>
