<svg width="512" height="512" viewBox="0 0 512 512" fill="none" xmlns="http://www.w3.org/2000/svg">
<g clip-path="url(#clip0_1628_2314)">
<mask id="mask0_1628_2314" style="mask-type:luminance" maskUnits="userSpaceOnUse" x="0" y="0" width="512" height="512">
<path d="M256 512C397.385 512 512 397.385 512 256C512 114.615 397.385 0 256 0C114.615 0 0 114.615 0 256C0 397.385 114.615 512 256 512Z" fill="white"/>
</mask>
<g mask="url(#mask0_1628_2314)">
<path d="M0 167L256 135L512 167V345L256 377L0 345V167Z" fill="#FFDA44"/>
<path d="M0 345H512V512H0V345Z" fill="#496E2D"/>
<path d="M0 0H512V167H0V0Z" fill="#0052B4"/>
<path d="M373 373L409 485L315 416H432L337 485L373 373Z" fill="#FFDA44"/>
</g>
</g>
<defs>
<clipPath id="clip0_1628_2314">
<rect width="512" height="512" fill="white"/>
</clipPath>
</defs>
</svg>
