<svg width="512" height="512" viewBox="0 0 512 512" fill="none" xmlns="http://www.w3.org/2000/svg">
<g clip-path="url(#clip0_1628_2323)">
<mask id="mask0_1628_2323" style="mask-type:luminance" maskUnits="userSpaceOnUse" x="0" y="0" width="512" height="512">
<path d="M256 512C397.385 512 512 397.385 512 256C512 114.615 397.385 0 256 0C114.615 0 0 114.615 0 256C0 397.385 114.615 512 256 512Z" fill="white"/>
</mask>
<g mask="url(#mask0_1628_2323)">
<path d="M0 144.7L253.4 116.5L512 144.7V178L476 254.4L512 334V367.3L254.7 400L0 367.3V334L39 256L0 178V144.7Z" fill="#EEEEEE"/>
<path d="M0 0H512V144.7H0V0Z" fill="#333333"/>
<path d="M0 178H512V334H0V178Z" fill="#A2001D"/>
<path d="M0 367.301H512V512.001H0V367.301Z" fill="#496E2D"/>
<path d="M335.9 118.301L305.6 104.301L256.2 216.201L206.8 104.301L176.5 118.301L237.8 256.001L176.5 393.701L206.8 407.701L256.2 295.801L305.6 407.701L335.9 393.701L274.6 256.001L335.9 118.301Z" fill="#EEEEEE"/>
<path d="M256.2 111.301C256.2 111.301 249.2 117.101 239.5 127.301L223.5 254.901L239.5 384.701C249.2 394.901 256.2 400.701 256.2 400.701C256.2 400.701 263.2 394.901 272.9 384.701L287.9 254.001L272.9 127.301C263.2 117.101 256.2 111.301 256.2 111.301Z" fill="#EEEEEE"/>
<path d="M311.897 179.199L301.897 254.699L311.897 332.799C325.698 309.505 333.306 283.066 333.997 255.999C333.997 227.799 324.297 201.499 311.797 179.199H311.897ZM200.497 179.199L209.397 253.499L200.397 332.799C186.595 309.505 178.987 283.066 178.297 255.999C178.297 227.799 187.997 201.499 200.497 179.199Z" fill="#333333"/>
<path d="M200.5 179.201V332.801C211.357 351.612 224.452 369.039 239.5 384.701V127.301C228.1 139.301 212.9 157.301 200.5 179.301V179.201ZM311.9 179.201C301.043 160.39 287.948 142.963 272.9 127.301V384.701C284.3 372.701 299.4 354.701 311.9 332.701V179.301V179.201Z" fill="#A2001D"/>
</g>
</g>
<defs>
<clipPath id="clip0_1628_2323">
<rect width="512" height="512" fill="white"/>
</clipPath>
</defs>
</svg>
