<svg width="512" height="512" viewBox="0 0 512 512" fill="none" xmlns="http://www.w3.org/2000/svg">
<g clip-path="url(#clip0_1628_2336)">
<mask id="mask0_1628_2336" style="mask-type:luminance" maskUnits="userSpaceOnUse" x="0" y="0" width="512" height="512">
<path d="M256 512C397.385 512 512 397.385 512 256C512 114.615 397.385 0 256 0C114.615 0 0 114.615 0 256C0 397.385 114.615 512 256 512Z" fill="white"/>
</mask>
<g mask="url(#mask0_1628_2336)">
<path d="M0 0H512V512H0V0Z" fill="#D80027"/>
<path d="M381.197 255.998L329.997 279.998L357.297 329.598L301.697 318.998L294.697 375.098L255.997 333.798L217.297 375.098L210.297 318.998L154.697 329.598L181.997 280.098L130.797 255.998L181.997 231.998L154.697 182.398L210.297 192.998L217.297 136.898L255.997 178.198L294.697 136.898L301.697 192.998L357.297 182.398L329.997 231.898L381.197 255.998Z" fill="#FFDA44"/>
<path d="M256.002 333.902C299.025 333.902 333.902 299.025 333.902 256.002C333.902 212.979 299.025 178.102 256.002 178.102C212.979 178.102 178.102 212.979 178.102 256.002C178.102 299.025 212.979 333.902 256.002 333.902Z" fill="#D80027"/>
<path d="M217 256.001C215.2 256.001 213.3 256.101 211.5 256.301C211.551 266.66 215.231 276.674 221.9 284.601C225.296 275.435 230.384 266.988 236.9 259.701C230.55 257.256 223.804 256.002 217 256.001ZM241 298.001C250.697 301.482 261.303 301.482 271 298.001C268.4 288.001 263.2 279.001 256 272.001C248.8 279.001 243.6 288.001 241 298.001ZM294.6 233.701C290.703 226.907 285.081 221.262 278.304 217.337C271.526 213.411 263.832 211.344 256 211.344C248.168 211.344 240.474 213.411 233.696 217.337C226.919 221.262 221.297 226.907 217.4 233.701C230.964 233.758 244.276 237.379 256 244.201C267.724 237.379 281.036 233.758 294.6 233.701ZM275 259.701C281.563 267.01 286.686 275.492 290.1 284.701C296.791 276.748 300.472 266.695 300.5 256.301C298.673 256.111 296.837 256.011 295 256.001C288.162 255.987 281.381 257.242 275 259.701Z" fill="#FFDA44"/>
</g>
</g>
<defs>
<clipPath id="clip0_1628_2336">
<rect width="512" height="512" fill="white"/>
</clipPath>
</defs>
</svg>
