<svg width="512" height="512" viewBox="0 0 512 512" fill="none" xmlns="http://www.w3.org/2000/svg">
<g clip-path="url(#clip0_1628_2345)">
<mask id="mask0_1628_2345" style="mask-type:luminance" maskUnits="userSpaceOnUse" x="0" y="0" width="512" height="512">
<path d="M256 512C397.385 512 512 397.385 512 256C512 114.615 397.385 0 256 0C114.615 0 0 114.615 0 256C0 397.385 114.615 512 256 512Z" fill="white"/>
</mask>
<g mask="url(#mask0_1628_2345)">
<path d="M0 0H512L511.9 234.8L257.2 495.7L0.3 234.8L0 0Z" fill="#D80027"/>
<path d="M345 237.998L308.7 255.198L328 290.398L288.5 282.898L283.5 322.798L256 293.398L228.5 322.798L223.5 282.798L184 290.398L203.3 255.198L167 237.998L203.3 220.898L184 185.598L223.5 193.198L228.5 153.198L256 182.598L283.5 153.298L288.5 193.198L328 185.598L308.7 220.898L345 237.998ZM322.8 83.5984H272.7C272.7 79.1693 270.941 74.9216 267.809 71.7897C264.677 68.6579 260.429 66.8984 256 66.8984C251.571 66.8984 247.323 68.6579 244.191 71.7897C241.059 74.9216 239.3 79.1693 239.3 83.5984H189.3C189.3 92.7984 197.3 100.298 206.5 100.298H205.9C205.9 109.498 213.4 116.998 222.6 116.998C222.6 126.198 230.1 133.698 239.3 133.698H272.7C281.9 133.698 289.4 126.198 289.4 116.998C298.6 116.998 306.1 109.498 306.1 100.298H305.5C314.8 100.298 322.8 92.7984 322.8 83.5984Z" fill="#FFDA44"/>
<path d="M85.2969 234.801C63.9969 234.801 63.9969 254.301 42.5969 254.301C21.3969 254.301 21.2969 235.001 0.296875 234.801V269.101L12.5969 287.301L0.296875 303.401V336.001L13.0969 354.201L0.296875 370.301V402.701L39.3969 452.101L480.597 455.101L511.897 402.701V370.301L503.697 353.901L511.897 336.001V303.401L501.597 289.401L511.897 269.101V234.801C490.697 234.801 490.697 254.301 469.397 254.301C448.097 254.301 447.997 234.801 426.697 234.801C405.397 234.801 405.397 254.301 383.997 254.301C362.697 254.301 362.697 234.801 341.397 234.801C319.997 234.801 319.997 254.301 298.697 254.301C277.397 254.301 277.397 234.801 255.997 234.801C234.597 234.801 234.597 254.301 213.297 254.301C191.997 254.301 191.997 234.801 170.597 234.801C149.297 234.801 149.297 254.301 127.997 254.301C106.697 254.301 106.597 234.801 85.2969 234.801Z" fill="#EEEEEE"/>
<path d="M85.3 269.102C64 269.102 64 288.602 42.6 288.602C21.4 288.602 21.3 269.302 0.3 269.102V303.402C21.3 303.602 21.4 322.902 42.6 322.902C64 322.902 64 303.402 85.3 303.402C106.6 303.402 106.6 322.902 128 322.902C149.4 322.902 149.3 303.402 170.6 303.402C192 303.402 192 322.902 213.3 322.902C234.6 322.902 234.6 303.402 256 303.402C277.4 303.402 277.4 322.902 298.7 322.902C320 322.902 320 303.402 341.4 303.402C362.7 303.402 362.7 322.902 384 322.902C405.4 322.902 405.4 303.402 426.7 303.402C448 303.402 448 322.902 469.4 322.902C490.8 322.902 490.7 303.502 511.9 303.402V269.102C490.7 269.102 490.7 288.602 469.4 288.602C448.1 288.602 448 269.102 426.7 269.102C405.4 269.102 405.4 288.602 384 288.602C362.7 288.602 362.7 269.102 341.4 269.102C320 269.102 320 288.602 298.7 288.602C277.4 288.602 277.4 269.102 256 269.102C234.6 269.102 234.6 288.602 213.3 288.602C192 288.602 192 269.102 170.6 269.102C149.3 269.102 149.3 288.602 128 288.602C106.7 288.602 106.6 269.102 85.3 269.102ZM85.3 336.002C64 336.002 64 355.502 42.6 355.502C21.4 355.502 21.3 336.202 0.3 336.002V370.302C21.3 370.502 21.4 389.802 42.6 389.802C64 389.802 64 370.302 85.3 370.302C106.6 370.302 106.6 389.802 128 389.802C149.4 389.802 149.3 370.302 170.6 370.302C192 370.302 192 389.802 213.3 389.802C234.6 389.802 234.6 370.302 256 370.302C277.4 370.302 277.4 389.802 298.7 389.802C320 389.802 320 370.302 341.4 370.302C362.7 370.302 362.7 389.802 384 389.802C405.4 389.802 405.4 370.302 426.7 370.302C448 370.302 448 389.802 469.4 389.802C490.8 389.802 490.7 370.402 511.9 370.302V336.002C490.7 336.002 490.7 355.502 469.4 355.502C448.1 355.502 448 336.002 426.7 336.002C405.4 336.002 405.4 355.502 384 355.502C362.7 355.502 362.7 336.002 341.4 336.002C320 336.002 320 355.502 298.7 355.502C277.4 355.502 277.4 336.002 256 336.002C234.6 336.002 234.6 355.502 213.3 355.502C192 355.502 192 336.002 170.6 336.002C149.3 336.002 149.3 355.502 128 355.502C106.7 355.502 106.6 336.002 85.3 336.002ZM85.3 402.702C64 402.702 64 422.202 42.6 422.202C21.4 422.202 21.3 402.902 0.3 402.702L0 512.002H512L511.9 402.702C490.7 402.702 490.7 422.202 469.4 422.202C448.1 422.202 448 402.702 426.7 402.702C405.4 402.702 405.4 422.202 384 422.202C362.7 422.202 362.7 402.702 341.4 402.702C320 402.702 320 422.202 298.7 422.202C277.4 422.202 277.4 402.702 256 402.702C234.6 402.702 234.6 422.202 213.3 422.202C192 422.202 192 402.702 170.6 402.702C149.3 402.702 149.3 422.202 128 422.202C106.7 422.202 106.6 402.702 85.3 402.702Z" fill="#0052B4"/>
</g>
</g>
<defs>
<clipPath id="clip0_1628_2345">
<rect width="512" height="512" fill="white"/>
</clipPath>
</defs>
</svg>
