<svg width="512" height="512" viewBox="0 0 512 512" fill="none" xmlns="http://www.w3.org/2000/svg">
<g clip-path="url(#clip0_1628_2414)">
<mask id="mask0_1628_2414" style="mask-type:luminance" maskUnits="userSpaceOnUse" x="0" y="0" width="512" height="512">
<path d="M256 512C397.385 512 512 397.385 512 256C512 114.615 397.385 0 256 0C114.615 0 0 114.615 0 256C0 397.385 114.615 512 256 512Z" fill="white"/>
</mask>
<g mask="url(#mask0_1628_2414)">
<path d="M124.4 149.7L512 132.8V0H0L124.4 149.7Z" fill="#FFDA44"/>
<path d="M112.5 132.801H512V255.201L217.8 271.801L112.5 132.801Z" fill="#EEEEEE"/>
<path d="M512 255.301H234.5L98.5 395.101L512 377.701V256.001V255.301Z" fill="#D80027"/>
<path d="M108.2 377.699L0 511.199L512 511.999V377.699H108.2Z" fill="#0052B4"/>
<path d="M0.8 0L0 511.2L256 255.2L0.8 0Z" fill="#6DA544"/>
<path d="M67.5026 255.301C67.5411 237.562 73.6251 220.366 84.751 206.55C95.8768 192.733 111.38 183.122 128.703 179.301C123.224 178.036 117.625 177.366 112.003 177.301C100.981 177.184 90.0591 179.404 79.9577 183.815C69.8562 188.226 60.8044 194.728 53.3988 202.892C45.9932 211.056 40.4021 220.697 36.994 231.18C33.5859 241.662 32.4382 252.748 33.6265 263.706C34.8148 274.664 38.3122 285.246 43.8882 294.754C49.4641 304.263 56.9919 312.481 65.9754 318.868C74.9589 325.255 85.1941 329.665 96.0063 331.808C106.818 333.951 117.962 333.779 128.703 331.301C111.38 327.481 95.8768 317.869 84.751 304.053C73.6251 290.237 67.5411 273.04 67.5026 255.301Z" fill="#EEEEEE"/>
<path d="M127.905 188.5L132.005 201.2H145.405L134.605 209.2L138.705 221.9L127.905 213.9L117.005 221.9L121.205 209.1L110.305 201.2H123.705L127.905 188.5ZM127.905 221.9L132.005 234.6H145.405L134.605 242.6L138.705 255.3L127.905 247.3L117.005 255.3L121.205 242.5L110.305 234.6H123.705L127.905 221.9ZM127.905 255.3L132.005 268H145.405L134.605 276L138.705 288.6L127.905 280.8L117.005 288.6L121.205 275.9L110.305 268H123.705L127.905 255.3ZM127.905 288.6L132.005 301.4H145.405L134.605 309.4L138.705 322L127.905 314.2L117.005 322L121.205 309.3L110.305 301.4H123.705L127.905 288.6Z" fill="#EEEEEE"/>
</g>
</g>
<defs>
<clipPath id="clip0_1628_2414">
<rect width="512" height="512" fill="white"/>
</clipPath>
</defs>
</svg>
