<svg width="512" height="512" viewBox="0 0 512 512" fill="none" xmlns="http://www.w3.org/2000/svg">
<g clip-path="url(#clip0_1628_2427)">
<mask id="mask0_1628_2427" style="mask-type:luminance" maskUnits="userSpaceOnUse" x="0" y="0" width="512" height="512">
<path d="M256 512C397.385 512 512 397.385 512 256C512 114.615 397.385 0 256 0C114.615 0 0 114.615 0 256C0 397.385 114.615 512 256 512Z" fill="white"/>
</mask>
<g mask="url(#mask0_1628_2427)">
<path d="M0 0H512V512H0V0Z" fill="#EEEEEE"/>
<path d="M350 335L374 311L390 327L366 350L350 335ZM311 374L335 350L350 366L327 390L311 374ZM398 382L421 358L437 374L413 398L398 382ZM358 421L382 398L398 413L374 437L358 421ZM374 358L398 335L413 350L390 374L374 358ZM335 398L358 374L374 390L350 413L335 398ZM398 177L335 114L350 99L414 162L398 177ZM335 162L311 138L327 122L350 146L335 162ZM374 201L350 177L366 162L390 185L374 201ZM382 114L358 91L374 75L398 99L382 114ZM421 154L398 130L413 114L437 138L421 154ZM91 358L154 421L138 437L75 374L91 358ZM154 374L177 398L162 413L138 390L154 374ZM114 335L138 358L122 374L99 350L114 335ZM138 311L201 374L185 390L122 327L138 311ZM154 91L91 154L75 138L138 75L154 91ZM177 114L114 177L99 161L162 98L177 114ZM201 138L138 201L122 185L185 122L201 138Z" fill="#333333"/>
<path d="M319 319.002L193 193.002C201.273 184.728 211.095 178.166 221.905 173.688C232.714 169.211 244.3 166.906 256 166.906C267.7 166.906 279.286 169.211 290.095 173.688C300.905 178.166 310.727 184.728 319 193.002C327.273 201.275 333.836 211.097 338.313 221.906C342.791 232.716 345.095 244.302 345.095 256.002C345.095 267.702 342.791 279.288 338.313 290.097C333.836 300.907 327.273 310.728 319 319.002Z" fill="#D80027"/>
<path d="M319.002 319C310.728 327.273 300.907 333.836 290.097 338.313C279.288 342.791 267.702 345.095 256.002 345.095C244.302 345.095 232.716 342.791 221.906 338.313C211.097 333.836 201.275 327.273 193.002 319C184.728 310.727 178.166 300.905 173.688 290.095C169.211 279.286 166.906 267.7 166.906 256C166.906 244.3 169.211 232.714 173.688 221.905C178.166 211.095 184.728 201.273 193.002 193L319.002 319Z" fill="#0052B4"/>
<path d="M224.5 269C249.077 269 269 249.077 269 224.5C269 199.923 249.077 180 224.5 180C199.923 180 180 199.923 180 224.5C180 249.077 199.923 269 224.5 269Z" fill="#D80027"/>
<path d="M287.5 332C312.077 332 332 312.077 332 287.5C332 262.923 312.077 243 287.5 243C262.923 243 243 262.923 243 287.5C243 312.077 262.923 332 287.5 332Z" fill="#0052B4"/>
</g>
</g>
<defs>
<clipPath id="clip0_1628_2427">
<rect width="512" height="512" fill="white"/>
</clipPath>
</defs>
</svg>
