<svg width="512" height="512" viewBox="0 0 512 512" fill="none" xmlns="http://www.w3.org/2000/svg">
<g clip-path="url(#clip0_1628_2451)">
<mask id="mask0_1628_2451" style="mask-type:luminance" maskUnits="userSpaceOnUse" x="0" y="0" width="512" height="512">
<path d="M256 512C397.385 512 512 397.385 512 256C512 114.615 397.385 0 256 0C114.615 0 0 114.615 0 256C0 397.385 114.615 512 256 512Z" fill="white"/>
</mask>
<g mask="url(#mask0_1628_2451)">
<path d="M0 0H512V512H0V0Z" fill="#338AF3"/>
<path d="M400.697 258.801H111.297C111.297 278.801 128.697 295.001 148.697 295.001H147.497C147.497 315.001 163.697 331.101 183.697 331.101C183.697 351.101 199.797 367.301 219.797 367.301H292.197C312.197 367.301 328.297 351.101 328.297 331.101C348.297 331.101 364.497 314.901 364.497 295.001H363.297C383.297 295.001 400.697 278.801 400.697 258.801Z" fill="#FFDA44"/>
<path d="M356.197 211.5C356.197 238.075 345.64 263.561 326.849 282.352C308.058 301.143 282.572 311.7 255.997 311.7C229.422 311.7 203.936 301.143 185.145 282.352C166.354 263.561 155.797 238.075 155.797 211.5" fill="#338AF3"/>
<path d="M332.498 211.499L301.198 226.199L317.898 256.499L283.898 249.999L279.598 284.299L255.998 258.999L232.398 284.299L227.998 249.999L193.998 256.499L210.598 226.199L179.398 211.499L210.598 196.799L193.998 166.499L227.998 172.999L232.298 138.699L255.898 163.899L279.498 138.699L283.998 172.999L317.998 166.499L301.398 196.799L332.498 211.499Z" fill="#FFDA44"/>
</g>
</g>
<defs>
<clipPath id="clip0_1628_2451">
<rect width="512" height="512" fill="white"/>
</clipPath>
</defs>
</svg>
