<svg width="512" height="512" viewBox="0 0 512 512" fill="none" xmlns="http://www.w3.org/2000/svg">
<g clip-path="url(#clip0_1628_2460)">
<mask id="mask0_1628_2460" style="mask-type:luminance" maskUnits="userSpaceOnUse" x="0" y="0" width="512" height="512">
<path d="M256 512C397.385 512 512 397.385 512 256C512 114.615 397.385 0 256 0C114.615 0 0 114.615 0 256C0 397.385 114.615 512 256 512Z" fill="white"/>
</mask>
<g mask="url(#mask0_1628_2460)">
<path d="M0 0H512V144.8L466.2 257.8L512 367.4V512H0V367.4L46.3 256.3L0 144.8V0Z" fill="#D80027"/>
<path d="M0 144.801H512V367.401H0V144.801Z" fill="#0052B4"/>
<path d="M256 345.102C305.153 345.102 345 305.255 345 256.102C345 206.948 305.153 167.102 256 167.102C206.847 167.102 167 206.948 167 256.102C167 305.255 206.847 345.102 256 345.102Z" fill="#EEEEEE"/>
</g>
</g>
<defs>
<clipPath id="clip0_1628_2460">
<rect width="512" height="512" fill="white"/>
</clipPath>
</defs>
</svg>
