<svg width="512" height="512" viewBox="0 0 512 512" fill="none" xmlns="http://www.w3.org/2000/svg">
<g clip-path="url(#clip0_1628_2468)">
<mask id="mask0_1628_2468" style="mask-type:luminance" maskUnits="userSpaceOnUse" x="0" y="0" width="512" height="512">
<path d="M256 512C397.385 512 512 397.385 512 256C512 114.615 397.385 0 256 0C114.615 0 0 114.615 0 256C0 397.385 114.615 512 256 512Z" fill="white"/>
</mask>
<g mask="url(#mask0_1628_2468)">
<path d="M0 0H512V144.8L466.2 257.8L512 367.4V512H0V367.4L46.3 256.3L0 144.8V0Z" fill="#D80027"/>
<path d="M0 144.801H512V367.401H0V144.801Z" fill="#EEEEEE"/>
<path d="M322.803 300.502L256.003 178.102L189.203 300.502H239.303V334.002H272.703V300.602L322.803 300.502Z" fill="#6DA544"/>
</g>
</g>
<defs>
<clipPath id="clip0_1628_2468">
<rect width="512" height="512" fill="white"/>
</clipPath>
</defs>
</svg>
