<svg width="512" height="512" viewBox="0 0 512 512" fill="none" xmlns="http://www.w3.org/2000/svg">
<g clip-path="url(#clip0_1628_2485)">
<mask id="mask0_1628_2485" style="mask-type:luminance" maskUnits="userSpaceOnUse" x="0" y="0" width="512" height="512">
<path d="M256 512C397.385 512 512 397.385 512 256C512 114.615 397.385 0 256 0C114.615 0 0 114.615 0 256C0 397.385 114.615 512 256 512Z" fill="white"/>
</mask>
<g mask="url(#mask0_1628_2485)">
<path d="M0 255.998L255.2 216.398L512 255.998V511.998H0V255.998Z" fill="#D80027"/>
<path d="M0 0H512V256H0V0Z" fill="#0052B4"/>
<path d="M189.201 177.999C189.172 171.572 187.288 165.29 183.777 159.907C180.266 154.524 175.277 150.268 169.407 147.65C163.538 145.032 157.038 144.163 150.686 145.147C144.335 146.132 138.403 148.927 133.601 153.199V133.599H144.701V111.299H133.601V100.199H111.301V111.299H100.201V133.599H111.301V153.199C104.666 147.515 96.0671 144.657 87.3492 145.238C78.6313 145.82 70.4882 149.794 64.6665 156.31C58.8447 162.825 55.8077 171.362 56.2068 180.09C56.6058 188.818 60.4092 197.043 66.8013 202.999V222.599H178.001V202.999C184.801 196.899 189.101 187.999 189.101 177.999H189.201Z" fill="#FFDA44"/>
</g>
</g>
<defs>
<clipPath id="clip0_1628_2485">
<rect width="512" height="512" fill="white"/>
</clipPath>
</defs>
</svg>
