<svg width="512" height="512" viewBox="0 0 512 512" fill="none" xmlns="http://www.w3.org/2000/svg">
<g clip-path="url(#clip0_1628_2493)">
<mask id="mask0_1628_2493" style="mask-type:luminance" maskUnits="userSpaceOnUse" x="0" y="0" width="512" height="512">
<path d="M256 512C397.385 512 512 397.385 512 256C512 114.615 397.385 0 256 0C114.615 0 0 114.615 0 256C0 397.385 114.615 512 256 512Z" fill="white"/>
</mask>
<g mask="url(#mask0_1628_2493)">
<path d="M81.3984 27.1992H216.598V483.699H81.3984V27.1992Z" fill="#FF9811"/>
<path d="M0 44.5L100.2 22.5V485.5L0 467.5V44.5Z" fill="#6DA544"/>
<path d="M218.602 26.5L512.002 44.5V137.7L493.402 243.9L512.002 341.3V467.5L218.602 485.5V26.5Z" fill="#A2001D"/>
<path d="M0 0V44.5H200.3V467.5H0V512H512V467.5H233.7V44.5H512V0H0Z" fill="#FFDA44"/>
<path d="M300.502 94.6016C282.102 94.6016 267.102 109.602 267.102 128.002V272.602C267.07 277.328 268.053 282.006 269.986 286.319C271.918 290.632 274.754 294.48 278.302 297.602V350.602H300.502V322.802H400.702V367.302H378.402V389.602H423.002V345.002L443.402 322.802H491.602C497.165 330.208 504.089 336.487 512.002 341.302V137.702C503.707 140.531 496.058 144.984 489.502 150.802C478.312 161.13 470.924 174.924 468.53 189.963C466.135 205.002 468.873 220.409 476.302 233.702C455.002 233.602 435.302 233.902 423.002 233.702V167.002C423.002 155.802 406.302 144.702 406.302 144.702C406.302 144.702 389.602 155.802 389.602 167.002H322.802V233.702H356.202V267.102C356.202 274.202 357.602 281.202 360.302 287.802L345.002 300.602H300.502V94.6016Z" fill="#FFDA44"/>
</g>
</g>
<defs>
<clipPath id="clip0_1628_2493">
<rect width="512" height="512" fill="white"/>
</clipPath>
</defs>
</svg>
