<svg width="512" height="512" viewBox="0 0 512 512" fill="none" xmlns="http://www.w3.org/2000/svg">
<g clip-path="url(#clip0_1628_2503)">
<mask id="mask0_1628_2503" style="mask-type:luminance" maskUnits="userSpaceOnUse" x="0" y="0" width="512" height="512">
<path d="M256 512C397.385 512 512 397.385 512 256C512 114.615 397.385 0 256 0C114.615 0 0 114.615 0 256C0 397.385 114.615 512 256 512Z" fill="white"/>
</mask>
<g mask="url(#mask0_1628_2503)">
<path d="M0 232.7L256 0H512L492.8 24L512 46.4V93.1L492.4 115.7L512 139.6V186.1L493.8 209L512 232.7V279.3L493 304L512 325.8V372.4L494 395.9L512 418.9V465.5L258.7 486.5L0 465.5V418.9L18.8 397.3L0 372.4V325.8L19.6 303.9L0 279.3V232.7Z" fill="#EEEEEE"/>
<path d="M256 0L234 46.5H512V0H256ZM238.9 93.2V139.7H512V93.2H238.9ZM234 186.2L256 232.7H512V186.2H234ZM0 279.3V325.8H512V279.3H0ZM0 372.4V418.9H512V372.4H0ZM0 465.5V512H512V465.5H0Z" fill="#D80027"/>
<path d="M0 0H256V232.7H0V0Z" fill="#0052B4"/>
<path d="M152.403 66.8008L169.003 117.801H222.603L179.203 149.301L195.803 200.301L152.403 168.801L109.003 200.301L125.603 149.301L82.2031 117.801H135.803L152.403 66.8008Z" fill="#EEEEEE"/>
</g>
</g>
<defs>
<clipPath id="clip0_1628_2503">
<rect width="512" height="512" fill="white"/>
</clipPath>
</defs>
</svg>
