<svg width="512" height="512" viewBox="0 0 512 512" fill="none" xmlns="http://www.w3.org/2000/svg">
<g clip-path="url(#clip0_1628_2512)">
<mask id="mask0_1628_2512" style="mask-type:luminance" maskUnits="userSpaceOnUse" x="0" y="0" width="512" height="512">
<path d="M256 512C397.385 512 512 397.385 512 256C512 114.615 397.385 0 256 0C114.615 0 0 114.615 0 256C0 397.385 114.615 512 256 512Z" fill="white"/>
</mask>
<g mask="url(#mask0_1628_2512)">
<path d="M0 144.699L255.3 108.199L512 144.699V367.299L250.5 406.999L0 367.299V144.699Z" fill="#EEEEEE"/>
<path d="M0 0H512V144.7H0V0Z" fill="#0052B4"/>
<path d="M0 367.301H512V512.001H0V367.301Z" fill="#6DA544"/>
<path d="M272.7 250.399V189.199H239.3V250.399L199 290.799C204.949 300.588 213.318 308.679 223.301 314.295C233.284 319.91 244.546 322.86 256 322.86C267.454 322.86 278.716 319.91 288.699 314.295C298.682 308.679 307.051 300.588 313 290.799L272.7 250.399Z" fill="#333333"/>
</g>
</g>
<defs>
<clipPath id="clip0_1628_2512">
<rect width="512" height="512" fill="white"/>
</clipPath>
</defs>
</svg>
