<svg width="512" height="512" viewBox="0 0 512 512" fill="none" xmlns="http://www.w3.org/2000/svg">
<g clip-path="url(#clip0_1628_2551)">
<mask id="mask0_1628_2551" style="mask-type:luminance" maskUnits="userSpaceOnUse" x="0" y="0" width="512" height="512">
<path d="M256 512C397.385 512 512 397.385 512 256C512 114.615 397.385 0 256 0C114.615 0 0 114.615 0 256C0 397.385 114.615 512 256 512Z" fill="white"/>
</mask>
<g mask="url(#mask0_1628_2551)">
<path d="M0 144.701L257 122.301L512 144.701V367.301L257.1 398.301L0 367.301V144.701Z" fill="#333333"/>
<path d="M0 0H512V144.7H0V0Z" fill="#D80027"/>
<path d="M0 367.301H512V512.001H0V367.301Z" fill="#496E2D"/>
<path d="M315.602 209.301L336.602 238.301L370.602 227.301L349.602 256.301L370.602 285.101L336.602 274.101L315.602 303.101V267.101L281.602 256.101L315.602 245.101V209.301Z" fill="#EEEEEE"/>
<path d="M258.299 328.401C247.312 328.37 236.476 325.836 226.615 320.991C216.754 316.145 208.127 309.116 201.39 300.437C194.652 291.758 189.981 281.658 187.732 270.904C185.482 260.149 185.713 249.024 188.408 238.372C191.102 227.72 196.188 217.823 203.28 209.431C210.373 201.04 219.284 194.375 229.338 189.943C239.392 185.512 250.323 183.43 261.302 183.855C272.281 184.281 283.019 187.204 292.699 192.401C280.172 180.158 264.312 171.884 247.104 168.615C229.896 165.346 212.106 167.227 195.962 174.022C179.819 180.818 166.039 192.226 156.35 206.817C146.661 221.409 141.492 238.535 141.492 256.051C141.492 273.566 146.661 290.693 156.35 305.284C166.039 319.876 179.819 331.284 195.962 338.079C212.106 344.875 229.896 346.756 247.104 343.487C264.312 340.218 280.172 331.943 292.699 319.701C282.138 325.425 270.312 328.416 258.299 328.401Z" fill="#EEEEEE"/>
</g>
</g>
<defs>
<clipPath id="clip0_1628_2551">
<rect width="512" height="512" fill="white"/>
</clipPath>
</defs>
</svg>
