<svg width="512" height="512" viewBox="0 0 512 512" fill="none" xmlns="http://www.w3.org/2000/svg">
<g clip-path="url(#clip0_1628_2544)">
<mask id="mask0_1628_2544" style="mask-type:luminance" maskUnits="userSpaceOnUse" x="0" y="0" width="512" height="512">
<path d="M256 512C397.385 512 512 397.385 512 256C512 114.615 397.385 0 256 0C114.615 0 0 114.615 0 256C0 397.385 114.615 512 256 512Z" fill="white"/>
</mask>
<g mask="url(#mask0_1628_2544)">
<path d="M0 0H512V512H0V0Z" fill="#D80027"/>
<path d="M407.303 210.001H291.703L256.003 100.301L220.303 210.001H104.703L198.203 278.001L162.503 387.801L256.003 320.001L349.503 388.001L313.803 278.001L407.303 210.001ZM224.303 269.501L236.503 232.401H275.503L287.603 269.501L256.003 292.501L224.403 269.501H224.303ZM268.303 210.101H243.703L256.003 172.201L268.303 210.101ZM306.603 255.801L298.903 232.401H338.803L306.603 255.801ZM213.003 232.401L205.303 255.801L173.103 232.401H213.003ZM204.703 329.701L217.003 291.701L237.003 306.201L204.703 329.701ZM274.803 306.301L294.803 291.801L307.103 329.701L274.803 306.301Z" fill="#496E2D"/>
</g>
</g>
<defs>
<clipPath id="clip0_1628_2544">
<rect width="512" height="512" fill="white"/>
</clipPath>
</defs>
</svg>
