<svg width="512" height="512" viewBox="0 0 512 512" fill="none" xmlns="http://www.w3.org/2000/svg">
<g clip-path="url(#clip0_1628_2562)">
<mask id="mask0_1628_2562" style="mask-type:luminance" maskUnits="userSpaceOnUse" x="0" y="0" width="512" height="512">
<path d="M256 512C397.385 512 512 397.385 512 256C512 114.615 397.385 0 256 0C114.615 0 0 114.615 0 256C0 397.385 114.615 512 256 512Z" fill="white"/>
</mask>
<g mask="url(#mask0_1628_2562)">
<path d="M0 68.5984L247.8 43.8984L512 298.998V392.898L112.8 429.098L0 162.498V68.5984Z" fill="#EEEEEE"/>
<path d="M0 0V68.6H178C208.553 68.6 237.855 80.7371 259.459 102.341C281.063 123.945 293.2 153.247 293.2 183.8C293.2 214.353 281.063 243.655 259.459 265.259C237.855 286.863 208.553 299 178 299H512V0H0Z" fill="#333333"/>
<path d="M0 162.5V512H512V392.9H178C153.096 392.9 129.212 383.007 111.603 365.397C93.993 347.788 84.1 323.904 84.1 299C84.1 274.096 93.993 250.212 111.603 232.603C129.212 214.993 153.096 205.1 178 205.1C190.077 205.658 201.475 210.848 209.824 219.591C218.174 228.335 222.833 239.96 222.833 252.05C222.833 264.14 218.174 275.765 209.824 284.509C201.475 293.252 190.077 298.442 178 299C195.649 298.324 212.35 290.838 224.598 278.113C236.845 265.387 243.687 248.412 243.687 230.75C243.687 213.088 236.845 196.113 224.598 183.387C212.35 170.662 195.649 163.176 178 162.5H0Z" fill="#D80027"/>
</g>
</g>
<defs>
<clipPath id="clip0_1628_2562">
<rect width="512" height="512" fill="white"/>
</clipPath>
</defs>
</svg>
