<svg width="512" height="512" viewBox="0 0 512 512" fill="none" xmlns="http://www.w3.org/2000/svg">
<g clip-path="url(#clip0_1628_2603)">
<mask id="mask0_1628_2603" style="mask-type:luminance" maskUnits="userSpaceOnUse" x="0" y="0" width="512" height="512">
<path d="M256 512C397.385 512 512 397.385 512 256C512 114.615 397.385 0 256 0C114.615 0 0 114.615 0 256C0 397.385 114.615 512 256 512Z" fill="white"/>
</mask>
<g mask="url(#mask0_1628_2603)">
<path d="M0 0H144.7L180.7 254.6L144.7 512H0V0Z" fill="#0052B4"/>
<path d="M367.302 0H512.002V512H367.302L337.602 254.7L367.302 0Z" fill="#D80027"/>
<path d="M144.703 0H367.303V512H144.703V0Z" fill="#FFDA44"/>
<path d="M345.103 201.402H284.003C284.003 194.029 281.074 186.957 275.861 181.744C270.647 176.53 263.576 173.602 256.203 173.602C248.83 173.602 241.759 176.53 236.546 181.744C231.332 186.957 228.403 194.029 228.403 201.402H167.203C167.412 208.758 170.489 215.742 175.776 220.862C181.064 225.981 188.143 228.831 195.503 228.802H194.503C194.503 232.408 195.215 235.979 196.598 239.31C197.982 242.641 200.009 245.666 202.564 248.212C205.119 250.757 208.151 252.774 211.487 254.145C214.823 255.516 218.397 256.215 222.003 256.202C222.003 269.602 231.603 280.702 244.303 283.202L222.703 331.902C233.345 336.214 244.721 338.421 256.203 338.402C267.685 338.421 279.062 336.214 289.703 331.902L268.103 283.002C274.37 281.814 280.027 278.478 284.097 273.567C288.168 268.657 290.398 262.48 290.403 256.102C297.67 256.102 304.639 253.215 309.778 248.076C314.916 242.938 317.803 235.968 317.803 228.702H316.903C324.263 228.731 331.342 225.881 336.63 220.762C341.918 215.642 344.994 208.658 345.203 201.302L345.103 201.402Z" fill="#FF9811"/>
<path d="M256.1 239.301L220 256.001V289.401L256.2 311.701L292.4 289.401V256.001L256.1 239.301Z" fill="#0052B4"/>
<path d="M220 222.602H292.3V256.002H220V222.602Z" fill="#D80027"/>
</g>
</g>
<defs>
<clipPath id="clip0_1628_2603">
<rect width="512" height="512" fill="white"/>
</clipPath>
</defs>
</svg>
