<svg width="512" height="512" viewBox="0 0 512 512" fill="none" xmlns="http://www.w3.org/2000/svg">
<g clip-path="url(#clip0_1628_2593)">
<mask id="mask0_1628_2593" style="mask-type:luminance" maskUnits="userSpaceOnUse" x="0" y="0" width="512" height="512">
<path d="M256 512C397.385 512 512 397.385 512 256C512 114.615 397.385 0 256 0C114.615 0 0 114.615 0 256C0 397.385 114.615 512 256 512Z" fill="white"/>
</mask>
<g mask="url(#mask0_1628_2593)">
<path d="M0 0H512V44.5L468.4 254.2L512 467.5V512H0V467.5L46.6 255.5L0 44.5V0Z" fill="#FFDA44"/>
<path d="M0 44.5H512V467.5H0V44.5Z" fill="#A2001D"/>
<path d="M200.297 189.198H311.697V144.698L289.397 155.798L255.997 122.398L222.597 155.798L200.297 144.698V189.198ZM356.197 255.998H300.497C302.773 252.115 303.98 247.699 303.997 243.198C303.967 237.492 302.038 231.959 298.516 227.47C294.994 222.98 290.078 219.791 284.543 218.405C279.007 217.018 273.168 217.513 267.946 219.811C262.723 222.109 258.414 226.081 255.697 231.098C254.062 228.144 251.861 225.54 249.22 223.436C246.579 221.332 243.549 219.768 240.303 218.835C237.058 217.902 233.66 217.617 230.305 217.997C226.949 218.377 223.702 219.413 220.747 221.048C217.792 222.683 215.188 224.884 213.084 227.526C210.98 230.167 209.417 233.197 208.483 236.442C207.55 239.687 207.265 243.085 207.645 246.44C208.025 249.796 209.062 253.044 210.697 255.998H155.797C155.797 272.998 170.697 286.798 187.697 286.798H186.697C186.697 300.798 195.897 312.598 208.697 316.398L183.697 341.398L207.297 364.998L240.797 331.498C242.097 331.998 243.397 332.398 244.797 332.598L224.597 378.298C234.564 382.378 245.228 384.483 255.997 384.498C266.766 384.483 277.43 382.378 287.397 378.298L267.197 332.598C268.558 332.341 269.896 331.974 271.197 331.498L304.697 364.998L328.297 341.398L303.297 316.398C309.667 314.499 315.252 310.59 319.217 305.255C323.182 299.92 325.315 293.446 325.297 286.798H324.297C341.297 286.798 356.197 272.998 356.197 255.998Z" fill="#FFDA44"/>
<path d="M255.997 272.699L219.797 289.399V322.799L255.997 344.999L292.197 322.799V289.399L255.997 272.699Z" fill="#6DA544"/>
<path d="M219.797 256H292.197V300.5H219.797V256Z" fill="#0052B4"/>
</g>
</g>
<defs>
<clipPath id="clip0_1628_2593">
<rect width="512" height="512" fill="white"/>
</clipPath>
</defs>
</svg>
