<svg width="512" height="512" viewBox="0 0 512 512" fill="none" xmlns="http://www.w3.org/2000/svg">
<g clip-path="url(#clip0_1628_2614)">
<mask id="mask0_1628_2614" style="mask-type:luminance" maskUnits="userSpaceOnUse" x="0" y="0" width="512" height="512">
<path d="M256 512C397.385 512 512 397.385 512 256C512 114.615 397.385 0 256 0C114.615 0 0 114.615 0 256C0 397.385 114.615 512 256 512Z" fill="white"/>
</mask>
<g mask="url(#mask0_1628_2614)">
<path d="M0 128V0H512V128L299 512H213L0 128Z" fill="#EEEEEE"/>
<path d="M256 270C287.48 270 313 244.48 313 213C313 181.52 287.48 156 256 156C224.52 156 199 181.52 199 213C199 244.48 224.52 270 256 270Z" fill="#FFDA44"/>
<path d="M185 213H327L256 341L185 213Z" fill="#EEEEEE"/>
<path d="M256 341L142 235H370L256 341Z" fill="#D80027"/>
<path d="M0 128L213 341V512H0V128ZM512 128L299 341V512H512V128Z" fill="#0052B4"/>
</g>
</g>
<defs>
<clipPath id="clip0_1628_2614">
<rect width="512" height="512" fill="white"/>
</clipPath>
</defs>
</svg>
