<svg width="512" height="512" viewBox="0 0 512 512" fill="none" xmlns="http://www.w3.org/2000/svg">
<g clip-path="url(#clip0_1628_2641)">
<mask id="mask0_1628_2641" style="mask-type:luminance" maskUnits="userSpaceOnUse" x="0" y="0" width="512" height="512">
<path d="M256 512C397.385 512 512 397.385 512 256C512 114.615 397.385 0 256 0C114.615 0 0 114.615 0 256C0 397.385 114.615 512 256 512Z" fill="white"/>
</mask>
<g mask="url(#mask0_1628_2641)">
<path d="M0 0H68.2L154.2 33.6L216.5 0H295.3L356.5 34.8L443.8 0H512V68.3L480.6 156.3L512 216.5V295.3L477.4 356L512 443.8V512H443.8L366.8 474.7L295.5 512H216.7L155.7 472.3L68.2 512H0V444L40.3 355.8L0 295.5V216.7L40.3 157L0 68.2V0Z" fill="#FFDA44"/>
<path d="M295.5 512H443.8L256 256L295.5 512ZM216.5 0H68.2L256 256L216.5 0ZM216.7 512L256 256L68.2 512H216.7ZM0 216.7L256 256L0 68.2V216.7ZM0 443.9L256 256L0 295.5V443.9ZM512 68.3L256 256L512 216.5V68.3ZM443.8 0H295.3L256 256L443.8 0ZM512 443.8V295.3L256 256L512 443.8Z" fill="#D80027"/>
<path d="M256 345C305.153 345 345 305.153 345 256C345 206.847 305.153 167 256 167C206.847 167 167 206.847 167 256C167 305.153 206.847 345 256 345Z" fill="#D80027"/>
<path d="M256.003 322.799C292.896 322.799 322.803 292.892 322.803 255.999C322.803 219.107 292.896 189.199 256.003 189.199C219.111 189.199 189.203 219.107 189.203 255.999C189.203 292.892 219.111 322.799 256.003 322.799Z" fill="#FFDA44"/>
</g>
</g>
<defs>
<clipPath id="clip0_1628_2641">
<rect width="512" height="512" fill="white"/>
</clipPath>
</defs>
</svg>
