<svg width="512" height="512" viewBox="0 0 512 512" fill="none" xmlns="http://www.w3.org/2000/svg">
<g clip-path="url(#clip0_1628_2667)">
<mask id="mask0_1628_2667" style="mask-type:luminance" maskUnits="userSpaceOnUse" x="0" y="0" width="512" height="512">
<path d="M256 512C397.385 512 512 397.385 512 256C512 114.615 397.385 0 256 0C114.615 0 0 114.615 0 256C0 397.385 114.615 512 256 512Z" fill="white"/>
</mask>
<g mask="url(#mask0_1628_2667)">
<path d="M0 0H167L251.9 45L345 0H512V512H345L257.3 463.9L167 512H0V0Z" fill="#A2001D"/>
<path d="M167 0H345V512H167V0Z" fill="#0052B4"/>
<path d="M122.398 256H144.698V345H122.398V256ZM33.3984 256H55.6984V345H33.3984V256Z" fill="#FFDA44"/>
<path d="M88.9953 311.702C101.311 311.702 111.295 301.717 111.295 289.402C111.295 277.086 101.311 267.102 88.9953 267.102C76.6794 267.102 66.6953 277.086 66.6953 289.402C66.6953 301.717 76.6794 311.702 88.9953 311.702Z" fill="#FFDA44"/>
<path d="M88.9984 222.598C95.1288 222.598 100.098 217.629 100.098 211.498C100.098 205.368 95.1288 200.398 88.9984 200.398C82.8681 200.398 77.8984 205.368 77.8984 211.498C77.8984 217.629 82.8681 222.598 88.9984 222.598Z" fill="#FFDA44"/>
<path d="M66.7953 322.8H111.295V345H66.7953V322.8ZM66.7953 233.8H111.295V256H66.7953V233.8ZM88.9953 133.5L96.9953 157.7H122.395L101.795 172.7L109.695 197L88.9953 182L68.3953 197L76.2953 172.7L55.6953 157.7H81.1953L88.9953 133.5Z" fill="#FFDA44"/>
</g>
</g>
<defs>
<clipPath id="clip0_1628_2667">
<rect width="512" height="512" fill="white"/>
</clipPath>
</defs>
</svg>
