<svg width="512" height="512" viewBox="0 0 512 512" fill="none" xmlns="http://www.w3.org/2000/svg">
<g clip-path="url(#clip0_1628_2687)">
<mask id="mask0_1628_2687" style="mask-type:luminance" maskUnits="userSpaceOnUse" x="0" y="0" width="512" height="512">
<path d="M256 512C397.385 512 512 397.385 512 256C512 114.615 397.385 0 256 0C114.615 0 0 114.615 0 256C0 397.385 114.615 512 256 512Z" fill="white"/>
</mask>
<g mask="url(#mask0_1628_2687)">
<path d="M0 0H512V512H0V0Z" fill="#496E2D"/>
<path d="M300.497 245.302C294.197 245.302 288.297 246.602 282.697 248.602C285.697 241.802 287.797 234.302 287.797 226.202C287.797 194.402 255.997 170.602 255.997 170.602C255.997 170.602 224.197 194.402 224.197 226.202C224.197 234.202 226.197 241.802 229.197 248.602C223.697 246.602 217.797 245.302 211.497 245.302C179.697 245.302 155.797 277.102 155.797 277.102C155.797 277.102 179.697 308.902 211.497 308.902C229.997 309.002 245.997 298.002 255.997 289.002C265.997 298.102 281.897 309.002 300.497 309.002C332.297 309.002 356.197 277.202 356.197 277.202C356.197 277.202 332.297 245.402 300.497 245.402V245.302Z" fill="#EEEEEE"/>
<path d="M256 100.199L262.6 120.399H283.8L266.6 132.899L273.2 153.099L256 140.599L238.8 153.099L245.4 132.899L228.2 120.399H249.4L256 100.199ZM175.2 135.499L187.8 146.899L202.5 138.399L195.6 153.899L208.3 165.299L191.3 163.499L184.4 179.099L180.9 162.399L163.9 160.699L178.7 152.199L175.2 135.499ZM116 194.699L132.6 198.199L141.1 183.499L142.9 200.499L159.5 203.999L144 210.899L145.8 227.799L134.4 215.199L118.9 222.099L127.4 207.299L116 194.699ZM336.8 135.499L324.2 146.999L309.5 138.499L316.4 153.999L303.7 165.399L320.7 163.599L327.6 179.199L331.1 162.499L348.1 160.799L333.3 152.299L336.8 135.499ZM396 194.699L379.4 198.199L370.9 183.499L369.1 200.499L352.5 203.999L368 210.899L366.2 227.799L377.6 215.199L393.1 222.099L384.6 207.299L396 194.699Z" fill="#FFDA44"/>
<path d="M256 397.999C281.3 397.999 304.5 389.499 323.2 375.399H188.8C207.5 389.499 230.8 397.999 256 397.999ZM154 331.199C157.496 339.225 161.926 346.811 167.2 353.799H344.8C350.073 346.811 354.504 339.225 358 331.199H154Z" fill="#EEEEEE"/>
</g>
</g>
<defs>
<clipPath id="clip0_1628_2687">
<rect width="512" height="512" fill="white"/>
</clipPath>
</defs>
</svg>
