<svg width="512" height="512" viewBox="0 0 512 512" fill="none" xmlns="http://www.w3.org/2000/svg">
<g clip-path="url(#clip0_1628_2704)">
<mask id="mask0_1628_2704" style="mask-type:luminance" maskUnits="userSpaceOnUse" x="0" y="0" width="512" height="512">
<path d="M256 512C397.385 512 512 397.385 512 256C512 114.615 397.385 0 256 0C114.615 0 0 114.615 0 256C0 397.385 114.615 512 256 512Z" fill="white"/>
</mask>
<g mask="url(#mask0_1628_2704)">
<path d="M0 0H512V512H0V0Z" fill="#338AF3"/>
<path d="M247.997 417.2C244.688 417.061 241.495 415.941 238.824 413.982C236.153 412.023 234.125 409.315 232.997 406.2C231.002 408.778 228.297 410.715 225.215 411.774C222.132 412.832 218.808 412.966 215.65 412.158C212.493 411.35 209.641 409.636 207.446 407.227C205.251 404.818 203.809 401.819 203.297 398.6C200.821 400.741 197.77 402.107 194.523 402.529C191.276 402.95 187.978 402.407 185.037 400.969C182.096 399.53 179.643 397.259 177.982 394.438C176.322 391.617 175.527 388.37 175.697 385.1C172.831 386.709 169.554 387.436 166.276 387.19C162.998 386.944 159.866 385.737 157.271 383.719C154.677 381.701 152.736 378.962 151.691 375.846C150.646 372.73 150.544 369.374 151.397 366.2C148.268 367.212 144.909 367.278 141.742 366.388C138.575 365.499 135.742 363.694 133.597 361.2C131.459 358.713 130.101 355.651 129.692 352.397C129.283 349.142 129.841 345.839 131.297 342.9C128.045 343.247 124.762 342.632 121.856 341.13C118.95 339.628 116.55 337.305 114.952 334.451C113.354 331.597 112.63 328.336 112.869 325.074C113.108 321.811 114.3 318.691 116.297 316.1C113.02 315.793 109.907 314.524 107.348 312.453C104.79 310.382 102.901 307.602 101.918 304.46C100.935 301.319 100.902 297.957 101.823 294.798C102.745 291.638 104.58 288.821 107.097 286.7C103.99 285.716 101.239 283.844 99.1831 281.315C97.1271 278.786 95.8559 275.711 95.5264 272.469C95.1968 269.226 95.8232 265.958 97.3284 263.067C98.8336 260.177 101.152 257.79 103.997 256.2C101.118 254.631 98.7652 252.25 97.2308 249.352C95.6965 246.455 95.0489 243.17 95.3688 239.907C95.6886 236.644 96.9619 233.548 99.0297 231.004C101.098 228.459 103.869 226.58 106.997 225.6C104.48 223.48 102.645 220.663 101.723 217.503C100.802 214.343 100.835 210.981 101.818 207.84C102.801 204.699 104.69 201.918 107.248 199.847C109.807 197.776 112.92 196.507 116.197 196.2C114.167 193.611 112.947 190.48 112.691 187.2C112.434 183.92 113.152 180.637 114.754 177.763C116.356 174.89 118.772 172.554 121.697 171.048C124.623 169.542 127.927 168.934 131.197 169.3C129.728 166.371 129.153 163.073 129.544 159.819C129.935 156.565 131.275 153.498 133.397 151C137.897 145.8 144.897 144 151.097 146C150.261 142.817 150.385 139.457 151.453 136.343C152.52 133.23 154.484 130.501 157.097 128.5C159.678 126.505 162.786 125.31 166.038 125.061C169.29 124.812 172.543 125.521 175.397 127.1C175.206 123.822 175.985 120.561 177.638 117.724C179.29 114.886 181.742 112.599 184.687 111.148C187.633 109.697 190.94 109.146 194.197 109.564C197.453 109.983 200.514 111.352 202.997 113.5C203.493 110.274 204.924 107.263 207.113 104.841C209.302 102.419 212.152 100.692 215.312 99.8723C218.472 99.0531 221.803 99.1779 224.893 100.231C227.983 101.285 230.696 103.221 232.697 105.8C233.82 102.721 235.824 100.04 238.459 98.0918C241.094 96.1434 244.245 95.0135 247.518 94.843C250.791 94.6724 254.042 95.4686 256.865 97.1325C259.689 98.7964 261.961 101.254 263.397 104.2C265.115 101.408 267.617 99.1829 270.59 97.8027C273.564 96.4225 276.878 95.948 280.12 96.4385C283.361 96.929 286.387 98.3627 288.819 100.561C291.251 102.759 292.982 105.625 293.797 108.8C296.037 106.396 298.937 104.706 302.134 103.942C305.33 103.178 308.681 103.374 311.766 104.506C314.852 105.637 317.535 107.654 319.479 110.304C321.423 112.953 322.543 116.117 322.697 119.4C325.376 117.52 328.548 116.469 331.819 116.377C335.09 116.285 338.316 117.155 341.097 118.881C343.877 120.607 346.089 123.112 347.458 126.084C348.827 129.056 349.293 132.365 348.797 135.6C354.797 133 361.997 134.1 366.997 138.8C369.374 141.065 371.031 143.981 371.76 147.182C372.49 150.384 372.259 153.729 371.097 156.8C374.296 156.117 377.626 156.389 380.672 157.581C383.718 158.774 386.347 160.835 388.232 163.508C390.117 166.181 391.176 169.349 391.276 172.619C391.377 175.889 390.515 179.116 388.797 181.9C392.072 181.889 395.277 182.84 398.015 184.635C400.753 186.431 402.903 188.992 404.197 192C405.514 195.012 405.913 198.346 405.344 201.583C404.775 204.821 403.263 207.818 400.997 210.2C404.183 210.866 407.104 212.448 409.402 214.752C411.701 217.055 413.276 219.98 413.935 223.167C414.594 226.354 414.307 229.664 413.11 232.69C411.913 235.716 409.858 238.326 407.197 240.2C413.197 242.8 417.397 248.7 417.397 255.6V256C417.397 262.9 413.197 268.8 407.197 271.4C409.857 273.267 411.915 275.87 413.118 278.889C414.321 281.908 414.616 285.213 413.969 288.397C413.321 291.582 411.758 294.509 409.472 296.818C407.186 299.128 404.275 300.72 401.097 301.4C403.385 303.77 404.922 306.763 405.513 310.004C406.104 313.244 405.724 316.587 404.42 319.612C403.116 322.637 400.947 325.209 398.184 327.004C395.422 328.799 392.191 329.737 388.897 329.7C390.662 332.48 391.565 335.719 391.494 339.011C391.423 342.302 390.38 345.499 388.497 348.2C386.626 350.884 384.008 352.959 380.968 354.168C377.928 355.377 374.6 355.666 371.397 355C372.547 358.081 372.762 361.432 372.014 364.634C371.267 367.836 369.592 370.747 367.197 373C362.197 377.7 354.997 378.7 349.097 376.2C349.599 379.427 349.143 382.73 347.786 385.701C346.43 388.671 344.233 391.179 341.466 392.914C338.699 394.648 335.484 395.533 332.219 395.46C328.955 395.386 325.783 394.357 323.097 392.5C322.942 395.77 321.83 398.922 319.898 401.565C317.966 404.208 315.3 406.224 312.232 407.364C309.163 408.504 305.828 408.718 302.639 407.977C299.45 407.237 296.549 405.576 294.297 403.2C293.5 406.403 291.772 409.297 289.331 411.518C286.89 413.739 283.846 415.187 280.582 415.679C277.319 416.171 273.983 415.685 270.996 414.283C268.008 412.881 265.503 410.625 263.797 407.8C262.365 410.757 260.093 413.226 257.265 414.898C254.437 416.57 251.178 417.371 247.897 417.2H247.997Z" fill="#EEEEEE"/>
<path d="M256.003 367.299C317.472 367.299 367.303 317.469 367.303 255.999C367.303 194.53 317.472 144.699 256.003 144.699C194.534 144.699 144.703 194.53 144.703 255.999C144.703 317.469 194.534 367.299 256.003 367.299Z" fill="#338AF3"/>
<path d="M280.4 218.2C285.8 214.2 289.4 207.7 289.4 200.3V189.3C289.4 176.9 279.4 167 267.1 167H245C232.7 167 222.7 177 222.7 189.2V200.3C222.7 207.7 226.3 214.2 231.7 218.3L211.5 423C211.5 423 222.6 434 256 434C289.4 434 300.5 423 300.5 423L280.4 218.2Z" fill="#ACABB1"/>
<path d="M256.002 167L275.302 226.5H338.002L287.402 263.3L306.702 322.8L256.002 286L205.402 322.8L224.702 263.3L174.102 226.5H236.702L256.002 167Z" fill="#EEEEEE"/>
</g>
</g>
<defs>
<clipPath id="clip0_1628_2704">
<rect width="512" height="512" fill="white"/>
</clipPath>
</defs>
</svg>
