<svg width="512" height="512" viewBox="0 0 512 512" fill="none" xmlns="http://www.w3.org/2000/svg">
<g clip-path="url(#clip0_1628_2679)">
<mask id="mask0_1628_2679" style="mask-type:luminance" maskUnits="userSpaceOnUse" x="0" y="0" width="512" height="512">
<path d="M256 512C397.385 512 512 397.385 512 256C512 114.615 397.385 0 256 0C114.615 0 0 114.615 0 256C0 397.385 114.615 512 256 512Z" fill="white"/>
</mask>
<g mask="url(#mask0_1628_2679)">
<path d="M0 0H222.6L253.6 23.4L289.4 0H512V222.6L490.5 253.6L512 289.4V512H289.4L255.2 491.5L222.6 512H0V289.4L22.7 256.8L0 222.6V0Z" fill="#0052B4"/>
<path d="M222.6 0V222.6H0V289.4H222.6V512H289.4V289.4H512V222.6H289.4V0H222.6Z" fill="#EEEEEE"/>
<path d="M343.398 162.398C343.425 160.771 344.089 159.22 345.249 158.079C346.409 156.938 347.971 156.298 349.598 156.298H362.798C372.526 155.799 381.691 151.583 388.4 144.52C395.109 137.458 398.85 128.089 398.85 118.348C398.85 108.608 395.109 99.2387 388.4 92.1764C381.691 85.1142 372.526 80.898 362.798 80.3984H350.198C346.198 77.3984 340.598 75.3984 334.598 75.3984C321.898 75.3984 311.598 83.6984 311.598 93.7984C311.598 103.798 321.698 111.998 334.198 112.098H362.798C364.443 112.098 366.02 112.752 367.182 113.914C368.345 115.077 368.998 116.654 368.998 118.298C368.998 119.943 368.345 121.52 367.182 122.682C366.02 123.845 364.443 124.498 362.798 124.498H349.598C340.022 125.195 331.065 129.49 324.526 136.521C317.988 143.552 314.353 152.797 314.353 162.398C314.353 172 317.988 181.245 324.526 188.276C331.065 195.307 340.022 199.602 349.598 200.298H400.698V168.598H349.598C347.954 168.598 346.377 167.945 345.214 166.782C344.052 165.62 343.398 164.043 343.398 162.398ZM142.998 162.398C143.025 160.771 143.689 159.22 144.849 158.079C146.009 156.938 147.571 156.298 149.198 156.298H162.398C172.126 155.799 181.291 151.583 188 144.52C194.709 137.458 198.45 128.089 198.45 118.348C198.45 108.608 194.709 99.2387 188 92.1764C181.291 85.1142 172.126 80.898 162.398 80.3984H149.998C145.898 77.3984 140.398 75.3984 134.298 75.3984C121.698 75.3984 111.398 83.6984 111.398 93.7984C111.398 103.798 121.398 111.998 133.998 112.098H162.498C164.143 112.098 165.72 112.752 166.882 113.914C168.045 115.077 168.698 116.654 168.698 118.298C168.698 119.943 168.045 121.52 166.882 122.682C165.72 123.845 164.143 124.498 162.498 124.498H149.298C139.722 125.195 130.765 129.49 124.226 136.521C117.688 143.552 114.053 152.797 114.053 162.398C114.053 172 117.688 181.245 124.226 188.276C130.765 195.307 139.722 199.602 149.298 200.298H200.398V168.598H149.398C148.576 168.612 147.759 168.461 146.995 168.156C146.231 167.85 145.536 167.395 144.95 166.818C144.363 166.241 143.898 165.553 143.58 164.794C143.262 164.036 143.098 163.221 143.098 162.398H142.998ZM343.398 398.598C343.398 396.954 344.052 395.377 345.214 394.214C346.377 393.052 347.954 392.398 349.598 392.398H362.798C372.374 391.702 381.332 387.407 387.871 380.376C394.409 373.345 398.043 364.1 398.043 354.498C398.043 344.897 394.409 335.652 387.871 328.621C381.332 321.59 372.374 317.295 362.798 316.598H350.198C346.198 313.598 340.598 311.598 334.598 311.598C321.898 311.598 311.598 319.898 311.598 329.998C311.598 339.998 321.698 348.098 334.198 348.298H362.798C364.443 348.298 366.02 348.952 367.182 350.114C368.345 351.277 368.998 352.854 368.998 354.498C368.998 356.143 368.345 357.72 367.182 358.883C366.02 360.045 364.443 360.698 362.798 360.698H349.598C340.022 361.395 331.065 365.69 324.526 372.721C317.988 379.752 314.353 388.997 314.353 398.598C314.353 408.2 317.988 417.445 324.526 424.476C331.065 431.507 340.022 435.802 349.598 436.498H400.598V404.798H349.598C347.954 404.798 346.377 404.145 345.214 402.983C344.052 401.82 343.398 400.243 343.398 398.598ZM142.998 398.598C142.998 396.954 143.652 395.377 144.814 394.214C145.977 393.052 147.554 392.398 149.198 392.398H162.398C171.974 391.702 180.932 387.407 187.47 380.376C194.009 373.345 197.643 364.1 197.643 354.498C197.643 344.897 194.009 335.652 187.47 328.621C180.932 321.59 171.974 317.295 162.398 316.598H149.998C145.898 313.598 140.398 311.598 134.298 311.598C121.698 311.598 111.398 319.898 111.398 329.998C111.398 339.998 121.398 348.098 133.998 348.298H162.498C164.143 348.298 165.72 348.952 166.882 350.114C168.045 351.277 168.698 352.854 168.698 354.498C168.698 356.143 168.045 357.72 166.882 358.883C165.72 360.045 164.143 360.698 162.498 360.698H149.298C139.722 361.395 130.765 365.69 124.226 372.721C117.688 379.752 114.053 388.997 114.053 398.598C114.053 408.2 117.688 417.445 124.226 424.476C130.765 431.507 139.722 435.802 149.298 436.498H200.398V404.798H149.398C148.576 404.812 147.759 404.661 146.995 404.355C146.231 404.05 145.536 403.595 144.95 403.018C144.363 402.441 143.898 401.753 143.58 400.994C143.262 400.236 143.098 399.421 143.098 398.598H142.998Z" fill="#EEEEEE"/>
</g>
</g>
<defs>
<clipPath id="clip0_1628_2679">
<rect width="512" height="512" fill="white"/>
</clipPath>
</defs>
</svg>
