<svg width="512" height="512" viewBox="0 0 512 512" fill="none" xmlns="http://www.w3.org/2000/svg">
<g clip-path="url(#clip0_1628_2714)">
<mask id="mask0_1628_2714" style="mask-type:luminance" maskUnits="userSpaceOnUse" x="0" y="0" width="512" height="512">
<path d="M256 512C397.385 512 512 397.385 512 256C512 114.615 397.385 0 256 0C114.615 0 0 114.615 0 256C0 397.385 114.615 512 256 512Z" fill="white"/>
</mask>
<g mask="url(#mask0_1628_2714)">
<path d="M0 0H512V512H0V0Z" fill="#496E2D"/>
<path d="M256 295.801C235.688 295.813 215.982 288.876 200.156 276.142C184.331 263.409 173.337 245.645 169 225.801C167.657 232.044 166.986 238.414 167 244.801C167 268.405 176.377 291.043 193.068 307.733C209.758 324.424 232.396 333.801 256 333.801C279.604 333.801 302.242 324.424 318.933 307.733C335.623 291.043 345 268.405 345 244.801C345.014 238.414 344.344 232.044 343 225.801C338.664 245.645 327.67 263.409 311.844 276.142C296.018 288.876 276.313 295.813 256 295.801Z" fill="#FFDA44"/>
<path d="M255.998 178L264.298 203.6H290.998L269.298 219.4L277.598 244.9L255.998 229L234.298 244.8L242.598 219.3L220.898 203.5H247.698L255.998 178Z" fill="#FFDA44"/>
</g>
</g>
<defs>
<clipPath id="clip0_1628_2714">
<rect width="512" height="512" fill="white"/>
</clipPath>
</defs>
</svg>
