<svg width="512" height="512" viewBox="0 0 512 512" fill="none" xmlns="http://www.w3.org/2000/svg">
<g clip-path="url(#clip0_1628_2734)">
<mask id="mask0_1628_2734" style="mask-type:luminance" maskUnits="userSpaceOnUse" x="0" y="0" width="512" height="512">
<path d="M256 512C397.385 512 512 397.385 512 256C512 114.615 397.385 0 256 0C114.615 0 0 114.615 0 256C0 397.385 114.615 512 256 512Z" fill="white"/>
</mask>
<g mask="url(#mask0_1628_2734)">
<path d="M0 0H256L308 259.2L256 512H0V0Z" fill="#EEEEEE"/>
<path d="M256 0H512V512H256V0Z" fill="#D80027"/>
<path d="M177.997 100.201V66.8008H144.697V100.201H111.297V133.601H144.697V167.001H178.097V133.601H211.497V100.201H177.997Z" fill="#ACABB1"/>
</g>
</g>
<defs>
<clipPath id="clip0_1628_2734">
<rect width="512" height="512" fill="white"/>
</clipPath>
</defs>
</svg>
