<svg width="512" height="512" viewBox="0 0 512 512" fill="none" xmlns="http://www.w3.org/2000/svg">
<g clip-path="url(#clip0_1628_2751)">
<mask id="mask0_1628_2751" style="mask-type:luminance" maskUnits="userSpaceOnUse" x="0" y="0" width="512" height="512">
<path d="M256 512C397.385 512 512 397.385 512 256C512 114.615 397.385 0 256 0C114.615 0 0 114.615 0 256C0 397.385 114.615 512 256 512Z" fill="white"/>
</mask>
<g mask="url(#mask0_1628_2751)">
<path d="M0 0H512V512H0V0Z" fill="#D80027"/>
<path d="M89 133.602H423V378.402H89V133.602Z" fill="#6DA544"/>
<path d="M297.197 328.299C286.21 328.269 275.375 325.734 265.514 320.889C255.653 316.044 247.026 309.014 240.288 300.336C233.55 291.657 228.879 281.556 226.63 270.802C224.381 260.048 224.612 248.922 227.306 238.27C230 227.619 235.087 217.721 242.179 209.33C249.271 200.938 258.183 194.273 268.236 189.842C278.29 185.41 289.222 183.328 300.201 183.754C311.18 184.18 321.917 187.102 331.597 192.299C319.071 180.057 303.21 171.783 286.002 168.513C268.794 165.244 251.005 167.125 234.861 173.921C218.717 180.716 204.938 192.124 195.248 206.716C185.559 221.307 180.391 238.434 180.391 255.949C180.391 273.465 185.559 290.591 195.248 305.183C204.938 319.774 218.717 331.182 234.861 337.978C251.005 344.774 268.794 346.655 286.002 343.385C303.21 340.116 319.071 331.842 331.597 319.599C321.036 325.324 309.21 328.314 297.197 328.299Z" fill="#EEEEEE"/>
</g>
</g>
<defs>
<clipPath id="clip0_1628_2751">
<rect width="512" height="512" fill="white"/>
</clipPath>
</defs>
</svg>
