<svg width="512" height="512" viewBox="0 0 512 512" fill="none" xmlns="http://www.w3.org/2000/svg">
<g clip-path="url(#clip0_1628_2770)">
<mask id="mask0_1628_2770" style="mask-type:luminance" maskUnits="userSpaceOnUse" x="0" y="0" width="512" height="512">
<path d="M256 512C397.385 512 512 397.385 512 256C512 114.615 397.385 0 256 0C114.615 0 0 114.615 0 256C0 397.385 114.615 512 256 512Z" fill="white"/>
</mask>
<g mask="url(#mask0_1628_2770)">
<path d="M0 166.999L253.8 147.699L512 166.999V344.999L257.1 377.299L0 344.999V166.999Z" fill="#D80027"/>
<path d="M0 0H512V167H0V0Z" fill="#333333"/>
<path d="M0 345H512V512H0V345Z" fill="#496E2D"/>
<path d="M332.498 122.402L301.298 107.702L317.898 77.4016L283.898 83.9016L279.598 49.6016L255.998 75.0016L232.398 49.7016L227.998 84.0016L193.998 77.5016L210.698 107.802L179.398 122.502L332.498 122.402Z" fill="#D80027"/>
</g>
</g>
<defs>
<clipPath id="clip0_1628_2770">
<rect width="512" height="512" fill="white"/>
</clipPath>
</defs>
</svg>
