<svg width="512" height="512" viewBox="0 0 512 512" fill="none" xmlns="http://www.w3.org/2000/svg">
<g clip-path="url(#clip0_1628_2759)">
<mask id="mask0_1628_2759" style="mask-type:luminance" maskUnits="userSpaceOnUse" x="0" y="0" width="512" height="512">
<path d="M256 512C397.385 512 512 397.385 512 256C512 114.615 397.385 0 256 0C114.615 0 0 114.615 0 256C0 397.385 114.615 512 256 512Z" fill="white"/>
</mask>
<g mask="url(#mask0_1628_2759)">
<path d="M0 256L256 0H512V55.7L492.5 88.7L512 122.4V189.2L489.9 226.9L512 256V322.8L491.8 361.3L512 389.6V456.3L257.5 484.5L0 456.3V389.6L26 354.5L0 322.8V256Z" fill="#EEEEEE"/>
<path d="M256 255.999H512V189.199H222.9L256 255.999ZM222.9 122.399H512V55.6992H222.9V122.399ZM512 511.999V456.299H0V511.999H512ZM0 389.599H512V322.799H0V389.599Z" fill="#D80027"/>
<path d="M0 0H256V256H0V0Z" fill="#0052B4"/>
<path d="M170.199 219.101C160.566 219.097 151.062 216.895 142.41 212.662C133.758 208.43 126.185 202.278 120.27 194.677C114.354 187.075 110.251 178.224 108.274 168.797C106.296 159.37 106.496 149.616 108.858 140.278C111.22 130.941 115.682 122.265 121.904 114.912C128.126 107.559 135.943 101.723 144.762 97.8483C153.58 93.9736 163.166 92.1625 172.791 92.5528C182.415 92.9432 191.823 95.5247 200.299 100.101C189.329 89.3476 175.429 82.0725 160.341 79.1882C145.254 76.3039 129.65 77.9387 115.488 83.8875C101.326 89.8363 89.2354 99.8344 80.7332 112.628C72.2309 125.421 67.6953 140.44 67.6953 155.801C67.6953 171.162 72.2309 186.181 80.7332 198.974C89.2354 211.767 101.326 221.765 115.488 227.714C129.65 233.663 145.254 235.298 160.341 232.413C175.429 229.529 189.329 222.254 200.299 211.501C191.086 216.489 180.775 219.101 170.299 219.101H170.199Z" fill="#FFDA44"/>
<path d="M187.998 111.301L199.298 134.801L224.698 128.901L213.298 152.401L233.698 168.601L208.298 174.301L208.398 200.301L188.098 184.101L167.698 200.301L167.798 174.301L142.398 168.601L162.798 152.401L151.398 128.901L176.798 134.901L187.998 111.301Z" fill="#FFDA44"/>
</g>
</g>
<defs>
<clipPath id="clip0_1628_2759">
<rect width="512" height="512" fill="white"/>
</clipPath>
</defs>
</svg>
