<svg width="512" height="512" viewBox="0 0 512 512" fill="none" xmlns="http://www.w3.org/2000/svg">
<g clip-path="url(#clip0_1628_2800)">
<mask id="mask0_1628_2800" style="mask-type:luminance" maskUnits="userSpaceOnUse" x="0" y="0" width="512" height="512">
<path d="M256 512C397.385 512 512 397.385 512 256C512 114.615 397.385 0 256 0C114.615 0 0 114.615 0 256C0 397.385 114.615 512 256 512Z" fill="white"/>
</mask>
<g mask="url(#mask0_1628_2800)">
<path d="M99 136.801L512 156.801V188.301L476.1 254.401L512.3 322.801L512 355.201L99 377.201V136.801Z" fill="#EEEEEE"/>
<path d="M512 156.8V0H0L122 156.8H512Z" fill="#496E2D"/>
<path d="M167 188.301V322.801H512.3L512 188.301H167Z" fill="#333333"/>
<path d="M512 355.199V511.999H0L122 355.199H512Z" fill="#FFDA44"/>
<path d="M0 0V512L256 256L0 0Z" fill="#A2001D"/>
<path d="M103.598 189.199L120.198 240.199H173.798L130.398 271.799L146.998 322.799L103.598 291.299L60.1984 322.799L76.7984 271.799L33.3984 240.199H86.9984L103.598 189.199Z" fill="#FFDA44"/>
<path d="M55.1016 256H152.102V300.5H55.1016V256Z" fill="#EEEEEE"/>
<path d="M170.503 204.999L154.803 189.199L103.603 240.399L52.5031 189.199L36.7031 204.999L88.0031 255.999L36.8031 307.299L52.6031 322.799L103.703 271.799L154.903 322.799L170.603 307.299L119.403 256.099L170.503 204.999Z" fill="#333333"/>
</g>
</g>
<defs>
<clipPath id="clip0_1628_2800">
<rect width="512" height="512" fill="white"/>
</clipPath>
</defs>
</svg>
