<svg width="512" height="512" viewBox="0 0 512 512" fill="none" xmlns="http://www.w3.org/2000/svg">
<g clip-path="url(#clip0_1628_2823)">
<mask id="mask0_1628_2823" style="mask-type:luminance" maskUnits="userSpaceOnUse" x="0" y="0" width="512" height="512">
<path d="M256 512C397.385 512 512 397.385 512 256C512 114.615 397.385 0 256 0C114.615 0 0 114.615 0 256C0 397.385 114.615 512 256 512Z" fill="white"/>
</mask>
<g mask="url(#mask0_1628_2823)">
<path d="M0 0H512V512H0V0Z" fill="#0052B4"/>
<path d="M365.902 273.902L411.902 256.002L365.902 238.102L340.602 228.302L299.602 212.302L283.602 171.302C296.902 175.675 308.99 183.112 318.891 193.013C328.791 202.913 336.228 215.001 340.602 228.302L365.902 238.102C362.056 215.096 351.123 193.866 334.63 177.373C318.138 160.88 296.907 149.947 273.902 146.102L256.002 100.102L238.102 146.102C215.096 149.947 193.866 160.88 177.373 177.373C160.88 193.866 149.947 215.096 146.102 238.102L100.102 256.002L146.102 273.902C149.947 296.907 160.88 318.138 177.373 334.63C193.866 351.123 215.096 362.056 238.102 365.902L256.002 411.902L273.902 365.902C296.907 362.056 318.138 351.123 334.63 334.63C351.123 318.138 362.056 296.907 365.902 273.902ZM282.402 229.602L256.002 256.002H350.402L282.402 282.402L256.002 256.002V350.402L229.602 282.402L256.002 256.002H161.602L229.602 229.602L256.002 256.002V161.602L282.402 229.602ZM228.402 171.402L212.402 212.402L171.402 228.402C175.775 215.101 183.212 203.013 193.113 193.113C203.013 183.212 215.101 175.775 228.402 171.402ZM171.402 283.702L212.402 299.702L228.402 340.702C215.101 336.328 203.013 328.891 193.113 318.991C183.212 309.09 175.775 297.002 171.402 283.702ZM283.702 340.702L299.702 299.702L340.702 283.702C336.328 297.002 328.891 309.09 318.991 318.991C309.09 328.891 297.002 336.328 283.702 340.702Z" fill="#EEEEEE"/>
<path d="M350.402 256.002H256.002L282.402 282.402L350.402 256.002ZM161.602 256.002H256.002L229.602 229.602L161.602 256.002ZM256.002 350.402V256.002L229.602 282.402L256.002 350.402ZM256.002 256.002L282.402 229.602L256.002 161.602V256.002Z" fill="#0052B4"/>
<path d="M244.898 33.3984H266.998V77.8984H244.998L244.898 33.3984ZM33.3984 244.898H77.8984V266.998H33.3984V244.898ZM244.898 433.998H266.998V478.498H244.998L244.898 433.998ZM433.998 244.898H478.498V266.998H433.998V244.898Z" fill="#EEEEEE"/>
</g>
</g>
<defs>
<clipPath id="clip0_1628_2823">
<rect width="512" height="512" fill="white"/>
</clipPath>
</defs>
</svg>
