<svg width="512" height="512" viewBox="0 0 512 512" fill="none" xmlns="http://www.w3.org/2000/svg">
<g clip-path="url(#clip0_1628_2842)">
<mask id="mask0_1628_2842" style="mask-type:luminance" maskUnits="userSpaceOnUse" x="0" y="0" width="512" height="512">
<path d="M256 512C397.385 512 512 397.385 512 256C512 114.615 397.385 0 256 0C114.615 0 0 114.615 0 256C0 397.385 114.615 512 256 512Z" fill="white"/>
</mask>
<g mask="url(#mask0_1628_2842)">
<path d="M0 144.699L255.3 108.199L512 144.699V367.299L250.5 406.999L0 367.299V144.699Z" fill="#EEEEEE"/>
<path d="M0 0H512V144.7H0V0Z" fill="#FF9811"/>
<path d="M0 367.301H512V512.001H0V367.301Z" fill="#6DA544"/>
<path d="M256 345.102C305.153 345.102 345 305.255 345 256.102C345 206.948 305.153 167.102 256 167.102C206.847 167.102 167 206.948 167 256.102C167 305.255 206.847 345.102 256 345.102Z" fill="#FF9811"/>
</g>
</g>
<defs>
<clipPath id="clip0_1628_2842">
<rect width="512" height="512" fill="white"/>
</clipPath>
</defs>
</svg>
