<svg width="512" height="512" viewBox="0 0 512 512" fill="none" xmlns="http://www.w3.org/2000/svg">
<g clip-path="url(#clip0_1628_2851)">
<mask id="mask0_1628_2851" style="mask-type:luminance" maskUnits="userSpaceOnUse" x="0" y="0" width="512" height="512">
<path d="M256 512C397.385 512 512 397.385 512 256C512 114.615 397.385 0 256 0C114.615 0 0 114.615 0 256C0 397.385 114.615 512 256 512Z" fill="white"/>
</mask>
<g mask="url(#mask0_1628_2851)">
<path d="M0 0H144.7L253.1 41.2L367.3 0H512V512H367.3L257.1 470.6L144.7 512H0V0Z" fill="#6DA544"/>
<path d="M144.703 0H367.303V512H144.703V0Z" fill="#EEEEEE"/>
<path d="M322.997 333.998L255.997 122.398L189.297 333.998H239.397V389.698H272.797V333.998H322.997Z" fill="#6DA544"/>
</g>
</g>
<defs>
<clipPath id="clip0_1628_2851">
<rect width="512" height="512" fill="white"/>
</clipPath>
</defs>
</svg>
