<svg width="512" height="512" viewBox="0 0 512 512" fill="none" xmlns="http://www.w3.org/2000/svg">
<g clip-path="url(#clip0_1628_2866)">
<mask id="mask0_1628_2866" style="mask-type:luminance" maskUnits="userSpaceOnUse" x="0" y="0" width="512" height="512">
<path d="M256 512C397.385 512 512 397.385 512 256C512 114.615 397.385 0 256 0C114.615 0 0 114.615 0 256C0 397.385 114.615 512 256 512Z" fill="white"/>
</mask>
<g mask="url(#mask0_1628_2866)">
<path d="M0 0H512V144.7L470.6 256.4L512 367.3V512H0V367.3L41.5 259.4L0 144.7V0Z" fill="#338AF3"/>
<path d="M0 144.699H512V367.299H0V144.699Z" fill="#EEEEEE"/>
<path d="M256 178C235.313 178 215.474 186.218 200.846 200.846C186.218 215.474 178 235.313 178 256C178 276.687 186.218 296.526 200.846 311.154C215.474 325.782 235.313 334 256 334C276.687 334 296.526 325.782 311.154 311.154C325.782 296.526 334 276.687 334 256C334 235.313 325.782 215.474 311.154 200.846C296.526 186.218 276.687 178 256 178ZM256 300.5C244.198 300.5 232.879 295.812 224.534 287.466C216.188 279.121 211.5 267.802 211.5 256C211.5 244.198 216.188 232.879 224.534 224.534C232.879 216.188 244.198 211.5 256 211.5C267.802 211.5 279.121 216.188 287.466 224.534C295.812 232.879 300.5 244.198 300.5 256C300.5 267.802 295.812 279.121 287.466 287.466C279.121 295.812 267.802 300.5 256 300.5Z" fill="#FFDA44"/>
<path d="M294.602 267.1L256.002 256L217.402 267.1L204.602 289.4H307.402L294.602 267.1Z" fill="#0052B4"/>
<path d="M255.997 200.301L230.297 245.001L255.997 256.001L281.697 244.901L255.997 200.301Z" fill="#338AF3"/>
<path d="M217.398 267.1H294.598L281.698 245H230.298L217.398 267.1Z" fill="#6DA544"/>
</g>
</g>
<defs>
<clipPath id="clip0_1628_2866">
<rect width="512" height="512" fill="white"/>
</clipPath>
</defs>
</svg>
