<svg width="512" height="512" viewBox="0 0 512 512" fill="none" xmlns="http://www.w3.org/2000/svg">
<g clip-path="url(#clip0_1628_2877)">
<mask id="mask0_1628_2877" style="mask-type:luminance" maskUnits="userSpaceOnUse" x="0" y="0" width="512" height="512">
<path d="M256 512C397.385 512 512 397.385 512 256C512 114.615 397.385 0 256 0C114.615 0 0 114.615 0 256C0 397.385 114.615 512 256 512Z" fill="white"/>
</mask>
<g mask="url(#mask0_1628_2877)">
<path d="M0 0V51.7L32 155.1H0V258.6L32 362H0V512H150V480L253.4 512H356.9V480L460.3 512H512V460.3L480 356.9H512V253.4L480 150H512V0H362V32L258.6 0H155.1V32L51.7 0H0Z" fill="#EEEEEE"/>
<path d="M51.7 0L512 460.3V356.9L155.1 0H51.7ZM258.6 0L512 253.4V150L362 0H258.6ZM0 51.8V155.2L356.8 512H460.2L0 51.8ZM0 258.7V362.1L149.9 512H253.4L0 258.7Z" fill="#0052B4"/>
<path d="M261.601 222.198C259.929 220.52 257.941 219.189 255.753 218.28C253.566 217.372 251.22 216.904 248.851 216.904C246.482 216.904 244.136 217.372 241.948 218.28C239.76 219.189 237.773 220.52 236.101 222.198C235.896 222.393 235.696 222.593 235.501 222.798C228.828 230.008 225.206 239.522 225.396 249.344C225.586 259.166 229.572 268.533 236.519 275.48C243.465 282.427 252.832 286.413 262.655 286.603C272.477 286.793 281.991 283.171 289.201 276.498C289.405 276.303 289.605 276.103 289.801 275.898C291.479 274.226 292.81 272.239 293.719 270.051C294.627 267.863 295.095 265.517 295.095 263.148C295.095 260.779 294.627 258.433 293.719 256.245C292.81 254.057 291.479 252.07 289.801 250.398C286.427 247.039 281.861 245.154 277.101 245.154C272.341 245.154 267.774 247.039 264.401 250.398C264.027 250.765 263.524 250.97 263.001 250.97C262.477 250.97 261.975 250.765 261.601 250.398C261.234 250.024 261.029 249.522 261.029 248.998C261.029 248.475 261.234 247.972 261.601 247.598C264.959 244.225 266.845 239.658 266.845 234.898C266.845 230.138 264.959 225.571 261.601 222.198ZM161.601 122.198C159.928 120.52 157.941 119.189 155.753 118.28C153.566 117.372 151.22 116.904 148.851 116.904C146.482 116.904 144.136 117.372 141.948 118.28C139.76 119.189 137.773 120.52 136.101 122.198C135.896 122.393 135.696 122.593 135.501 122.798C128.828 130.008 125.206 139.522 125.396 149.344C125.586 159.166 129.572 168.533 136.519 175.48C143.465 182.427 152.832 186.413 162.655 186.603C172.477 186.793 181.991 183.171 189.201 176.498C189.405 176.303 189.606 176.103 189.801 175.898C191.479 174.226 192.81 172.239 193.719 170.051C194.627 167.863 195.095 165.517 195.095 163.148C195.095 160.779 194.627 158.433 193.719 156.245C192.81 154.057 191.479 152.07 189.801 150.398C186.427 147.039 181.861 145.154 177.101 145.154C172.341 145.154 167.774 147.039 164.401 150.398C164.027 150.765 163.524 150.97 163.001 150.97C162.477 150.97 161.975 150.765 161.601 150.398C161.234 150.024 161.029 149.522 161.029 148.998C161.029 148.475 161.234 147.972 161.601 147.598C164.959 144.225 166.845 139.658 166.845 134.898C166.845 130.138 164.959 125.571 161.601 122.198ZM361.601 322.198C359.929 320.52 357.941 319.189 355.754 318.28C353.566 317.372 351.22 316.904 348.851 316.904C346.482 316.904 344.136 317.372 341.948 318.28C339.76 319.189 337.773 320.52 336.101 322.198C335.896 322.393 335.696 322.593 335.501 322.798C328.828 330.008 325.206 339.522 325.396 349.344C325.586 359.166 329.572 368.533 336.519 375.48C343.465 382.427 352.832 386.413 362.655 386.603C372.477 386.793 381.991 383.171 389.201 376.498C389.405 376.303 389.605 376.103 389.801 375.898C391.479 374.226 392.81 372.239 393.719 370.051C394.627 367.863 395.095 365.517 395.095 363.148C395.095 360.779 394.627 358.433 393.719 356.245C392.81 354.057 391.479 352.07 389.801 350.398C386.427 347.039 381.861 345.154 377.101 345.154C372.341 345.154 367.774 347.039 364.401 350.398C364.027 350.765 363.524 350.97 363.001 350.97C362.477 350.97 361.975 350.765 361.601 350.398C361.234 350.024 361.029 349.522 361.029 348.998C361.029 348.475 361.234 347.972 361.601 347.598C364.959 344.225 366.845 339.658 366.845 334.898C366.845 330.138 364.959 325.571 361.601 322.198ZM107.601 276.298C105.928 274.62 103.941 273.289 101.753 272.38C99.5656 271.472 97.2198 271.004 94.8508 271.004C92.4817 271.004 90.136 271.472 87.948 272.38C85.7601 273.289 83.773 274.62 82.1008 276.298C81.8972 276.46 81.6971 276.627 81.5008 276.798C74.3664 283.919 70.3531 293.583 70.3438 303.663C70.3344 313.743 74.3297 323.414 81.4508 330.548C88.5718 337.682 98.2353 341.696 108.315 341.705C118.395 341.714 128.066 337.719 135.201 330.598C135.405 330.403 135.606 330.203 135.801 329.998C137.479 328.326 138.81 326.339 139.719 324.151C140.627 321.963 141.095 319.617 141.095 317.248C141.095 314.879 140.627 312.533 139.719 310.345C138.81 308.157 137.479 306.17 135.801 304.498C132.427 301.14 127.861 299.254 123.101 299.254C118.341 299.254 113.774 301.14 110.401 304.498C110.027 304.865 109.524 305.07 109.001 305.07C108.477 305.07 107.975 304.865 107.601 304.498C107.404 304.311 107.247 304.086 107.14 303.837C107.033 303.588 106.978 303.319 106.978 303.048C106.978 302.777 107.033 302.508 107.14 302.259C107.247 302.01 107.404 301.785 107.601 301.598C110.929 298.229 112.795 293.684 112.795 288.948C112.795 284.212 110.929 279.667 107.601 276.298ZM207.601 376.298C205.929 374.62 203.941 373.289 201.753 372.38C199.566 371.472 197.22 371.004 194.851 371.004C192.482 371.004 190.136 371.472 187.948 372.38C185.76 373.289 183.773 374.62 182.101 376.298C181.896 376.493 181.696 376.693 181.501 376.898C174.828 384.108 171.206 393.622 171.396 403.444C171.586 413.266 175.572 422.633 182.519 429.58C189.465 436.527 198.832 440.513 208.655 440.703C218.477 440.893 227.991 437.271 235.201 430.598C235.405 430.403 235.606 430.203 235.801 429.998C237.479 428.326 238.81 426.339 239.719 424.151C240.627 421.963 241.095 419.617 241.095 417.248C241.095 414.879 240.627 412.533 239.719 410.345C238.81 408.157 237.479 406.17 235.801 404.498C232.427 401.14 227.861 399.254 223.101 399.254C218.341 399.254 213.774 401.14 210.401 404.498C210.027 404.865 209.524 405.07 209.001 405.07C208.477 405.07 207.975 404.865 207.601 404.498C207.234 404.124 207.029 403.622 207.029 403.098C207.029 402.575 207.234 402.072 207.601 401.698C210.959 398.325 212.845 393.758 212.845 388.998C212.845 384.238 210.959 379.671 207.601 376.298ZM414.601 169.298C412.929 167.62 410.941 166.289 408.754 165.38C406.566 164.472 404.22 164.004 401.851 164.004C399.482 164.004 397.136 164.472 394.948 165.38C392.76 166.289 390.773 167.62 389.101 169.298C388.897 169.46 388.697 169.627 388.501 169.798C384.968 173.324 382.165 177.511 380.25 182.121C378.336 186.73 377.348 191.672 377.344 196.663C377.334 206.743 381.33 216.414 388.451 223.548C395.572 230.682 405.235 234.696 415.315 234.705C425.395 234.714 435.066 230.719 442.201 223.598C442.405 223.403 442.605 223.203 442.801 222.998C444.479 221.326 445.81 219.339 446.719 217.151C447.627 214.963 448.095 212.617 448.095 210.248C448.095 207.879 447.627 205.533 446.719 203.345C445.81 201.157 444.479 199.17 442.801 197.498C439.427 194.14 434.861 192.254 430.101 192.254C425.341 192.254 420.774 194.14 417.401 197.498C417.027 197.865 416.524 198.07 416.001 198.07C415.477 198.07 414.975 197.865 414.601 197.498C414.404 197.311 414.247 197.086 414.14 196.837C414.033 196.588 413.978 196.319 413.978 196.048C413.978 195.777 414.033 195.508 414.14 195.259C414.247 195.01 414.404 194.785 414.601 194.598C417.929 191.229 419.795 186.684 419.795 181.948C419.795 177.212 417.929 172.667 414.601 169.298ZM314.601 69.2981C312.929 67.62 310.941 66.2886 308.754 65.3801C306.566 64.4716 304.22 64.0039 301.851 64.0039C299.482 64.0039 297.136 64.4716 294.948 65.3801C292.76 66.2886 290.773 67.62 289.101 69.2981C288.896 69.4934 288.696 69.6934 288.501 69.8981C281.828 77.1079 278.206 86.622 278.396 96.4442C278.586 106.266 282.572 115.633 289.519 122.58C296.465 129.527 305.832 133.513 315.655 133.703C325.477 133.893 334.991 130.271 342.201 123.598C342.405 123.403 342.605 123.203 342.801 122.998C344.494 121.324 345.838 119.331 346.756 117.134C347.673 114.936 348.145 112.579 348.145 110.198C348.145 107.817 347.673 105.46 346.756 103.263C345.838 101.065 344.494 99.0721 342.801 97.3981C339.427 94.0395 334.861 92.1539 330.101 92.1539C325.341 92.1539 320.774 94.0395 317.401 97.3981C317.027 97.7646 316.524 97.9698 316.001 97.9698C315.477 97.9698 314.975 97.7646 314.601 97.3981C314.234 97.0242 314.029 96.5216 314.029 95.9981C314.029 95.4746 314.234 94.972 314.601 94.5981C317.929 91.229 319.795 86.6839 319.795 81.9481C319.795 77.2123 317.929 72.6672 314.601 69.2981Z" fill="#D80027"/>
</g>
</g>
<defs>
<clipPath id="clip0_1628_2877">
<rect width="512" height="512" fill="white"/>
</clipPath>
</defs>
</svg>
