<svg width="512" height="512" viewBox="0 0 512 512" fill="none" xmlns="http://www.w3.org/2000/svg">
<g clip-path="url(#clip0_1628_2901)">
<mask id="mask0_1628_2901" style="mask-type:luminance" maskUnits="userSpaceOnUse" x="0" y="0" width="512" height="512">
<path d="M256 512C397.385 512 512 397.385 512 256C512 114.615 397.385 0 256 0C114.615 0 0 114.615 0 256C0 397.385 114.615 512 256 512Z" fill="white"/>
</mask>
<g mask="url(#mask0_1628_2901)">
<path d="M0 0V48L32 72L0 96V416L32 440L0 464V512H512V464L480 440L512 416V96L480 72L512 48V0H0Z" fill="#EEEEEE"/>
<path d="M0 464H512V416H0V464ZM0 48V96H512V48H0ZM270 303V209L325 285L236 256L325 227L270 303Z" fill="#D80027"/>
<path d="M185.003 167C170.438 167.025 156.101 170.625 143.251 177.483C130.402 184.341 119.431 194.247 111.303 206.334C103.175 218.42 98.1377 232.316 96.6327 246.804C95.1277 261.291 97.2012 275.926 102.671 289.425C108.142 302.924 116.841 314.874 128.007 324.227C139.173 333.58 152.463 340.049 166.712 343.068C180.961 346.086 195.733 345.562 209.732 341.54C223.731 337.518 236.529 330.122 247.003 320C236.498 325.417 224.821 328.165 213.003 328C202.149 327.845 191.471 325.238 181.767 320.373C172.063 315.509 163.585 308.514 156.966 299.91C150.347 291.307 145.759 281.318 143.545 270.692C141.332 260.065 141.549 249.076 144.182 238.545C146.815 228.014 151.794 218.215 158.748 209.881C165.702 201.546 174.451 194.891 184.34 190.415C194.229 185.939 205.002 183.756 215.853 184.031C226.704 184.305 237.353 187.029 247.003 192C230.37 175.927 208.133 166.96 185.003 167Z" fill="#D80027"/>
</g>
</g>
<defs>
<clipPath id="clip0_1628_2901">
<rect width="512" height="512" fill="white"/>
</clipPath>
</defs>
</svg>
