<svg width="512" height="512" viewBox="0 0 512 512" fill="none" xmlns="http://www.w3.org/2000/svg">
<g clip-path="url(#clip0_1628_2909)">
<mask id="mask0_1628_2909" style="mask-type:luminance" maskUnits="userSpaceOnUse" x="0" y="0" width="512" height="512">
<path d="M256 512C397.385 512 512 397.385 512 256C512 114.615 397.385 0 256 0C114.615 0 0 114.615 0 256C0 397.385 114.615 512 256 512Z" fill="white"/>
</mask>
<g mask="url(#mask0_1628_2909)">
<path d="M228.398 0H511.998V512H484.598L159.398 258.5L228.398 0Z" fill="#EEEEEE"/>
<path d="M510.497 283.8L228.497 0H189.197L118.297 253.8L445.197 512H484.597L256.397 283.8H510.397H510.497Z" fill="#0052B4"/>
<path d="M445.2 256L189.2 0H0V512H445.2L189.2 256H445.2Z" fill="#D80027"/>
<path d="M243.498 378L212.198 363.3L228.998 333L194.998 339.5L190.698 305.2L167.098 330.4L143.398 305.2L139.098 339.5L105.098 333L121.798 363.3L90.3984 378L121.698 392.7L105.098 423L139.098 416.5L143.298 450.8L166.998 425.6L190.598 450.8L194.898 416.5L228.898 423L212.198 392.7L243.498 378ZM149.798 89L146.598 114L121.898 109.3L133.998 131.3L111.298 142H100.198C100.866 159.256 108.191 175.583 120.636 187.556C133.081 199.528 149.679 206.216 166.948 206.216C184.217 206.216 200.816 199.528 213.261 187.556C225.706 175.583 233.03 159.256 233.698 142H222.598L199.998 131.3L211.998 109.3L187.398 114L184.298 89L167.098 107.4L149.798 89Z" fill="#EEEEEE"/>
</g>
</g>
<defs>
<clipPath id="clip0_1628_2909">
<rect width="512" height="512" fill="white"/>
</clipPath>
</defs>
</svg>
