<svg width="512" height="512" viewBox="0 0 512 512" fill="none" xmlns="http://www.w3.org/2000/svg">
<g clip-path="url(#clip0_1628_2918)">
<mask id="mask0_1628_2918" style="mask-type:luminance" maskUnits="userSpaceOnUse" x="0" y="0" width="512" height="512">
<path d="M256 512C397.385 512 512 397.385 512 256C512 114.615 397.385 0 256 0C114.615 0 0 114.615 0 256C0 397.385 114.615 512 256 512Z" fill="white"/>
</mask>
<g mask="url(#mask0_1628_2918)">
<path d="M0 0H512V233.7L494.3 257L512 278.3V512H0V278.3L18.7 255.4L0 233.7V0Z" fill="#0052B4"/>
<path d="M211.5 345.001L182.8 358.501L198.1 386.301L166.9 380.301L162.9 411.801L141.3 388.701L119.6 411.801L115.6 380.401L84.5 386.401L99.8 358.501L71 345.001L99.7 331.601L84.4 303.801L115.5 309.801L119.5 278.301L141.2 301.401L162.9 278.301L166.9 309.701L197.9 303.701L182.7 331.601L211.5 345.001Z" fill="#EEEEEE"/>
<path d="M0 233.699H512V278.299H0V233.699Z" fill="#FFDA44"/>
</g>
</g>
<defs>
<clipPath id="clip0_1628_2918">
<rect width="512" height="512" fill="white"/>
</clipPath>
</defs>
</svg>
