<svg width="512" height="512" viewBox="0 0 512 512" fill="none" xmlns="http://www.w3.org/2000/svg">
<g clip-path="url(#clip0_1628_2926)">
<mask id="mask0_1628_2926" style="mask-type:luminance" maskUnits="userSpaceOnUse" x="0" y="0" width="512" height="512">
<path d="M256 512C397.385 512 512 397.385 512 256C512 114.615 397.385 0 256 0C114.615 0 0 114.615 0 256C0 397.385 114.615 512 256 512Z" fill="white"/>
</mask>
<g mask="url(#mask0_1628_2926)">
<path d="M0 256L256 0H512V512H0V256Z" fill="#FFDA44"/>
<path d="M0 0V32L32 64L0 96V256H32L64 224L96 256H128L170 240L211 256H256L248 240L256 225V211L240 169L256 128V96L224 64L256 32V0H96L64 32L32 0H0Z" fill="#EEEEEE"/>
<path d="M128 256V173L211 256H128ZM256 211L173 128H256V211Z" fill="#0052B4"/>
<path d="M128 128L256 256V225L159 128H128Z" fill="#D80027"/>
<path d="M32 0V32H0V96H32V256H96V96H256V32H96V0H32Z" fill="#D80027"/>
<path d="M64 112C90.5097 112 112 90.5097 112 64C112 37.4903 90.5097 16 64 16C37.4903 16 16 37.4903 16 64C16 90.5097 37.4903 112 64 112Z" fill="#0052B4"/>
<path d="M50 198L64 154L79 198L41 171H88L50 198ZM162 86L176 42L191 86L153 59H200L162 86ZM64 17L92 103L19 50H109L36 103L64 17Z" fill="#FFDA44"/>
</g>
</g>
<defs>
<clipPath id="clip0_1628_2926">
<rect width="512" height="512" fill="white"/>
</clipPath>
</defs>
</svg>
