<svg width="512" height="512" viewBox="0 0 512 512" fill="none" xmlns="http://www.w3.org/2000/svg">
<g clip-path="url(#clip0_1628_2938)">
<mask id="mask0_1628_2938" style="mask-type:luminance" maskUnits="userSpaceOnUse" x="0" y="0" width="512" height="512">
<path d="M256 512C397.385 512 512 397.385 512 256C512 114.615 397.385 0 256 0C114.615 0 0 114.615 0 256C0 397.385 114.615 512 256 512Z" fill="white"/>
</mask>
<g mask="url(#mask0_1628_2938)">
<path d="M256 0H512V512H0V256L256 0Z" fill="#0052B4"/>
<path d="M0 0V32L32 64L0 96V256H32L64 224L96 256H128V173L211 256H256L248 240L256 225V211L173 128H256V96L224 64L256 32V0H96L64 32L32 0H0ZM382 92L371 127H334L364 148L352 183L382 161L412 183L400 148L430 127H393L382 92ZM443 164L432 199H395L425 220L414 255L443 234L473 255L461 220L491 199H454L443 164ZM320 174L309 209H272L302 231L291 266L320 244L350 266L339 231L368 209H332L320 174ZM379 304L368 339H331L361 360L350 395L379 374L409 395L398 360L427 339H391L379 304Z" fill="#EEEEEE"/>
<path d="M32 0V32H0V96H32V256H96V96H256V32H96V0H32ZM128 128L256 256V225L159 128H128ZM379 329L374 347H355L370 357L364 375L379 364L394 375L389 357L403 347H385L379 329ZM320 200L315 217H296L311 228L305 245L320 234L335 245L329 228L344 217H326L320 200ZM443 189L437 207H419L434 218L428 235L443 224L458 235L452 218L467 207H449L443 189ZM382 117L376 134H358L373 145L367 162L382 152L397 162L391 145L406 134H388L382 117Z" fill="#D80027"/>
</g>
</g>
<defs>
<clipPath id="clip0_1628_2938">
<rect width="512" height="512" fill="white"/>
</clipPath>
</defs>
</svg>
