<svg width="512" height="512" viewBox="0 0 512 512" fill="none" xmlns="http://www.w3.org/2000/svg">
<g clip-path="url(#clip0_1628_2946)">
<mask id="mask0_1628_2946" style="mask-type:luminance" maskUnits="userSpaceOnUse" x="0" y="0" width="512" height="512">
<path d="M256 512C397.385 512 512 397.385 512 256C512 114.615 397.385 0 256 0C114.615 0 0 114.615 0 256C0 397.385 114.615 512 256 512Z" fill="white"/>
</mask>
<g mask="url(#mask0_1628_2946)">
<path d="M0 0H512V512H0V0Z" fill="#D80027"/>
<path d="M256 96C273.673 96 288 81.6731 288 64C288 46.3269 273.673 32 256 32C238.327 32 224 46.3269 224 64C224 81.6731 238.327 96 256 96Z" fill="#FFDA44"/>
<path d="M64 288C81.6731 288 96 273.673 96 256C96 238.327 81.6731 224 64 224C46.3269 224 32 238.327 32 256C32 273.673 46.3269 288 64 288Z" fill="#FFDA44"/>
<path d="M448 288C465.673 288 480 273.673 480 256C480 238.327 465.673 224 448 224C430.327 224 416 238.327 416 256C416 273.673 430.327 288 448 288Z" fill="#FFDA44"/>
<path d="M256 480C273.673 480 288 465.673 288 448C288 430.327 273.673 416 256 416C238.327 416 224 430.327 224 448C224 465.673 238.327 480 256 480Z" fill="#FFDA44"/>
<path d="M352 432C369.673 432 384 417.673 384 400C384 382.327 369.673 368 352 368C334.327 368 320 382.327 320 400C320 417.673 334.327 432 352 432Z" fill="#FFDA44"/>
<path d="M400 384C417.673 384 432 369.673 432 352C432 334.327 417.673 320 400 320C382.327 320 368 334.327 368 352C368 369.673 382.327 384 400 384Z" fill="#FFDA44"/>
<path d="M352 144C369.673 144 384 129.673 384 112C384 94.3269 369.673 80 352 80C334.327 80 320 94.3269 320 112C320 129.673 334.327 144 352 144Z" fill="#FFDA44"/>
<path d="M400 192C417.673 192 432 177.673 432 160C432 142.327 417.673 128 400 128C382.327 128 368 142.327 368 160C368 177.673 382.327 192 400 192Z" fill="#FFDA44"/>
<path d="M160 144C177.673 144 192 129.673 192 112C192 94.3269 177.673 80 160 80C142.327 80 128 94.3269 128 112C128 129.673 142.327 144 160 144Z" fill="#FFDA44"/>
<path d="M112 192C129.673 192 144 177.673 144 160C144 142.327 129.673 128 112 128C94.3269 128 80 142.327 80 160C80 177.673 94.3269 192 112 192Z" fill="#FFDA44"/>
<path d="M112 384C129.673 384 144 369.673 144 352C144 334.327 129.673 320 112 320C94.3269 320 80 334.327 80 352C80 369.673 94.3269 384 112 384Z" fill="#FFDA44"/>
<path d="M160 432C177.673 432 192 417.673 192 400C192 382.327 177.673 368 160 368C142.327 368 128 382.327 128 400C128 417.673 142.327 432 160 432Z" fill="#FFDA44"/>
<path d="M256 60L153 112L173 173L112 153L60 256L112 359L173 339L153 400L256 452L359 400L339 339L400 359L452 256L400 153L339 173L359 112L256 60ZM256 96L320 128L288 224L384 192L416 256L384 320L288 288L320 384L256 416L192 384L224 288L128 320L96 256L128 192L224 224L192 128L256 96Z" fill="#FFDA44"/>
</g>
</g>
<defs>
<clipPath id="clip0_1628_2946">
<rect width="512" height="512" fill="white"/>
</clipPath>
</defs>
</svg>
