<svg width="512" height="512" viewBox="0 0 512 512" fill="none" xmlns="http://www.w3.org/2000/svg">
<g clip-path="url(#clip0_1628_2965)">
<mask id="mask0_1628_2965" style="mask-type:luminance" maskUnits="userSpaceOnUse" x="0" y="0" width="512" height="512">
<path d="M256 512C397.385 512 512 397.385 512 256C512 114.615 397.385 0 256 0C114.615 0 0 114.615 0 256C0 397.385 114.615 512 256 512Z" fill="white"/>
</mask>
<g mask="url(#mask0_1628_2965)">
<path d="M0 0H512V512H0V0Z" fill="#EEEEEE"/>
<path d="M109.6 153.102C90.6267 153.154 72.4456 160.715 59.0295 174.131C45.6133 187.547 38.0528 205.728 38 224.702C38.0528 243.675 45.6133 261.856 59.0295 275.272C72.4456 288.688 90.6267 296.249 109.6 296.302C128.573 296.249 146.754 288.688 160.171 275.272C173.587 261.856 181.147 243.675 181.2 224.702C181.147 205.728 173.587 187.547 160.171 174.131C146.754 160.715 128.573 153.154 109.6 153.102ZM109.6 173.102C138.2 173.102 161.2 196.102 161.2 224.702C161.2 253.302 138.2 276.302 109.6 276.302C81 276.302 58 253.302 58 224.702C58 196.102 81 173.102 109.6 173.102Z" fill="#338AF3"/>
<path d="M255.998 153.102C237.025 153.154 218.844 160.715 205.428 174.131C192.012 187.547 184.451 205.728 184.398 224.702C184.451 243.675 192.012 261.856 205.428 275.272C218.844 288.688 237.025 296.249 255.998 296.302C274.972 296.249 293.153 288.688 306.569 275.272C319.985 261.856 327.546 243.675 327.598 224.702C327.546 205.728 319.985 187.547 306.569 174.131C293.153 160.715 274.972 153.154 255.998 153.102ZM255.998 173.102C284.598 173.102 307.598 196.102 307.598 224.702C307.598 253.302 284.598 276.302 255.998 276.302C227.398 276.302 204.398 253.302 204.398 224.702C204.398 196.102 227.398 173.102 255.998 173.102Z" fill="#333333"/>
<path d="M402.397 153.102C383.424 153.154 365.243 160.715 351.826 174.131C338.41 187.547 330.85 205.728 330.797 224.702C330.85 243.675 338.41 261.856 351.826 275.272C365.243 288.688 383.424 296.249 402.397 296.302C421.37 296.249 439.551 288.688 452.967 275.272C466.384 261.856 473.944 243.675 473.997 224.702C473.944 205.728 466.384 187.547 452.967 174.131C439.551 160.715 421.37 153.154 402.397 153.102ZM402.397 173.102C430.997 173.102 453.997 196.102 453.997 224.702C453.997 253.302 430.997 276.302 402.397 276.302C373.797 276.302 350.797 253.302 350.797 224.702C350.797 196.102 373.797 173.102 402.397 173.102Z" fill="#D80027"/>
<path d="M182.803 215.699C163.83 215.752 145.649 223.313 132.233 236.729C118.816 250.145 111.256 268.326 111.203 287.299C111.256 306.272 118.816 324.454 132.233 337.87C145.649 351.286 163.83 358.846 182.803 358.899C201.776 358.846 219.957 351.286 233.374 337.87C246.79 324.454 254.35 306.272 254.403 287.299C254.35 268.326 246.79 250.145 233.374 236.729C219.957 223.313 201.776 215.752 182.803 215.699ZM182.803 235.699C211.403 235.699 234.403 258.699 234.403 287.299C234.403 315.899 211.403 338.899 182.803 338.899C154.203 338.899 131.203 315.899 131.203 287.299C131.203 258.699 154.203 235.699 182.803 235.699Z" fill="#FFDA44"/>
<path d="M329.202 215.699C310.228 215.752 292.047 223.313 278.631 236.729C265.215 250.145 257.654 268.326 257.602 287.299C257.654 306.272 265.215 324.454 278.631 337.87C292.047 351.286 310.228 358.846 329.202 358.899C348.175 358.846 366.356 351.286 379.772 337.87C393.188 324.454 400.749 306.272 400.802 287.299C400.749 268.326 393.188 250.145 379.772 236.729C366.356 223.313 348.175 215.752 329.202 215.699ZM329.202 235.699C357.802 235.699 380.802 258.699 380.802 287.299C380.802 315.899 357.802 338.899 329.202 338.899C300.602 338.899 277.602 315.899 277.602 287.299C277.602 258.699 300.602 235.699 329.202 235.699Z" fill="#6DA544"/>
<path d="M166.898 181.699L150.898 193.699C157.608 202.623 161.236 213.485 161.236 224.649C161.236 235.814 157.608 246.676 150.898 255.599L166.898 267.599C176.189 255.207 181.211 240.137 181.211 224.649C181.211 209.161 176.189 194.091 166.898 181.699Z" fill="#338AF3"/>
<path d="M313.3 181.699L297.3 193.699C304.01 202.623 307.638 213.485 307.638 224.649C307.638 235.814 304.01 246.676 297.3 255.599L313.3 267.599C322.591 255.207 327.612 240.137 327.612 224.649C327.612 209.161 322.591 194.091 313.3 181.699ZM225 265.999L213 281.999C225.411 291.289 240.498 296.306 256 296.299V276.299C244.823 276.321 233.942 272.706 225 265.999Z" fill="#333333"/>
<path d="M371.398 266L359.398 282C371.809 291.29 386.896 296.307 402.398 296.3V276.3C391.221 276.322 380.34 272.706 371.398 266Z" fill="#D80027"/>
</g>
</g>
<defs>
<clipPath id="clip0_1628_2965">
<rect width="512" height="512" fill="white"/>
</clipPath>
</defs>
</svg>
