<svg width="512" height="512" viewBox="0 0 512 512" fill="none" xmlns="http://www.w3.org/2000/svg">
<g clip-path="url(#clip0_1628_2988)">
<mask id="mask0_1628_2988" style="mask-type:luminance" maskUnits="userSpaceOnUse" x="0" y="0" width="512" height="512">
<path d="M256 512C397.385 512 512 397.385 512 256C512 114.615 397.385 0 256 0C114.615 0 0 114.615 0 256C0 397.385 114.615 512 256 512Z" fill="white"/>
</mask>
<g mask="url(#mask0_1628_2988)">
<path d="M0 160L256 128L512 160V352L256 384L0 352V160Z" fill="#FF9811"/>
<path d="M0 160L256 128L512 160V192H0V160Z" fill="#EEEEEE"/>
<path d="M0 0H512V160H0V0Z" fill="#338AF3"/>
<path d="M0 352L256 384L512 352V320H0V352Z" fill="#EEEEEE"/>
<path d="M0 352H512V512H0V352Z" fill="#6DA544"/>
<path d="M256 416C344.366 416 416 344.366 416 256C416 167.634 344.366 96 256 96C167.634 96 96 167.634 96 256C96 344.366 167.634 416 256 416Z" fill="#EEEEEE"/>
<path d="M256 384C326.692 384 384 326.692 384 256C384 185.308 326.692 128 256 128C185.308 128 128 185.308 128 256C128 326.692 185.308 384 256 384Z" fill="#338AF3"/>
<path d="M207 139V207H139L188 256L139 305H207V373L256 324L305 373V305H373L324 256L373 207H305V139L256 188L207 139Z" fill="#FF9811"/>
</g>
</g>
<defs>
<clipPath id="clip0_1628_2988">
<rect width="512" height="512" fill="white"/>
</clipPath>
</defs>
</svg>
