<svg width="512" height="512" viewBox="0 0 512 512" fill="none" xmlns="http://www.w3.org/2000/svg">
<g clip-path="url(#clip0_1628_3001)">
<mask id="mask0_1628_3001" style="mask-type:luminance" maskUnits="userSpaceOnUse" x="0" y="0" width="512" height="512">
<path d="M256 512C397.385 512 512 397.385 512 256C512 114.615 397.385 0 256 0C114.615 0 0 114.615 0 256C0 397.385 114.615 512 256 512Z" fill="white"/>
</mask>
<g mask="url(#mask0_1628_3001)">
<path d="M0 0H256L512 256V512H256L0 256V0Z" fill="#EEEEEE"/>
<path d="M0 256V512H256V256H0Z" fill="#0052B4"/>
<path d="M256 0H512V256H256V0Z" fill="#D80027"/>
<path d="M152.403 89L169.003 140H222.603L179.203 171.6L195.803 222.6L152.403 191.1L109.003 222.6L125.603 171.6L82.2031 140H135.803L152.403 89Z" fill="#0052B4"/>
<path d="M359.598 289.398L376.198 340.398H429.798L386.398 371.998L402.998 422.998L359.598 391.498L316.198 423.098L332.798 372.098L289.398 340.498H342.998L359.598 289.398Z" fill="#D80027"/>
</g>
</g>
<defs>
<clipPath id="clip0_1628_3001">
<rect width="512" height="512" fill="white"/>
</clipPath>
</defs>
</svg>
