<svg width="512" height="512" viewBox="0 0 512 512" fill="none" xmlns="http://www.w3.org/2000/svg">
<g clip-path="url(#clip0_1628_3018)">
<mask id="mask0_1628_3018" style="mask-type:luminance" maskUnits="userSpaceOnUse" x="0" y="0" width="512" height="512">
<path d="M256 512C397.385 512 512 397.385 512 256C512 114.615 397.385 0 256 0C114.615 0 0 114.615 0 256C0 397.385 114.615 512 256 512Z" fill="white"/>
</mask>
<g mask="url(#mask0_1628_3018)">
<path d="M0 0H512V133.7L460 259.7L512 378.5V512H0V378.5L53 257.5L0 133.6V0Z" fill="#D80027"/>
<path d="M0 133.699H512V378.499H0V133.699Z" fill="#EEEEEE"/>
<path d="M345 256.102C345 305.302 305.2 334.102 256 334.102C206.8 334.102 167 305.302 167 256.102C167 232.497 176.377 209.86 193.067 193.169C209.758 176.478 232.396 167.102 256 167.102C279.604 167.102 302.242 176.478 318.932 193.169C335.623 209.86 345 232.497 345 256.102Z" fill="#FFDA44"/>
<path d="M345 256.102C345 279.706 335.623 302.343 318.932 319.034C302.242 335.725 279.604 345.102 256 345.102C232.396 345.102 209.758 335.725 193.067 319.034C176.377 302.343 167 279.706 167 256.102" fill="#0052B4"/>
<path d="M200.297 233.798H222.597V278.398H200.297V233.798ZM289.297 233.798H311.697V278.398H289.397L289.297 233.798ZM244.997 200.398H266.997V278.398H244.997V200.398Z" fill="#D80027"/>
</g>
</g>
<defs>
<clipPath id="clip0_1628_3018">
<rect width="512" height="512" fill="white"/>
</clipPath>
</defs>
</svg>
