<svg width="512" height="512" viewBox="0 0 512 512" fill="none" xmlns="http://www.w3.org/2000/svg">
<g clip-path="url(#clip0_1628_3028)">
<mask id="mask0_1628_3028" style="mask-type:luminance" maskUnits="userSpaceOnUse" x="0" y="0" width="512" height="512">
<path d="M256 512C397.385 512 512 397.385 512 256C512 114.615 397.385 0 256 0C114.615 0 0 114.615 0 256C0 397.385 114.615 512 256 512Z" fill="white"/>
</mask>
<g mask="url(#mask0_1628_3028)">
<path d="M512 512L301.3 226.6L0 0V512H512Z" fill="#333333"/>
<path d="M0 0L512 512V0H0Z" fill="#A2001D"/>
<path d="M194.997 346.001L199.197 358.901H212.797L201.797 366.901L205.997 379.701L194.997 371.801L183.997 379.701L188.197 366.801L177.197 358.801H190.797L194.997 346.001ZM160.397 222.301L167.397 243.801H189.897L171.697 257.001L178.697 278.501L160.397 265.201L142.197 278.501L149.097 257.001L130.897 243.801H153.397L160.397 222.301ZM160.397 379.701L167.397 401.201H189.897L171.697 414.401L178.697 436.001L160.397 422.601L142.197 436.001L149.097 414.401L130.897 401.201H153.397L160.397 379.701ZM226.397 278.501L233.397 300.001H255.997L237.797 313.301L244.697 334.701L226.497 321.501L208.197 334.701L215.197 313.301L196.897 300.001H219.397L226.397 278.501ZM94.3969 278.501L101.397 300.001H123.897L105.697 313.301L112.697 334.701L94.3969 321.501L76.0969 334.701L83.0969 313.301L64.7969 300.001H87.2969L94.3969 278.501Z" fill="#EEEEEE"/>
<path d="M430.3 189C418.94 177.512 403.811 170.516 387.7 169.3L435.9 131.7C426.75 122.553 415.73 115.493 403.596 111.005C391.461 106.517 378.5 104.708 365.6 105.7C362.563 94.4885 356.671 84.2557 348.5 76L329.3 114.2C328.007 111.883 326.39 109.762 324.5 107.9C321.893 105.293 318.799 103.225 315.393 101.815C311.987 100.404 308.336 99.6779 304.65 99.6779C300.964 99.6779 297.313 100.404 293.907 101.815C290.501 103.225 287.407 105.293 284.8 107.9C282.193 110.507 280.125 113.601 278.715 117.007C277.304 120.413 276.578 124.064 276.578 127.75C276.578 131.436 277.304 135.087 278.715 138.493C280.125 141.899 282.193 144.993 284.8 147.6C286.662 149.49 288.783 151.107 291.1 152.4L253 171.5C261.216 179.693 271.414 185.618 282.6 188.7C281.622 201.583 283.439 214.526 287.927 226.642C292.414 238.758 299.466 249.762 308.6 258.9L350.8 204.7C352.364 203.141 354.22 201.906 356.262 201.065C358.304 200.225 360.492 199.795 362.7 199.8C367.1 199.8 371.4 201.5 374.7 204.8C377.811 207.975 379.538 212.254 379.5 216.7C379.5 221.2 377.8 225.5 374.6 228.7L390.5 244.6C397.243 237.937 401.335 229.051 402.016 219.596C402.696 210.141 399.919 200.76 394.2 193.2C401.84 195.213 408.81 199.216 414.4 204.8C422.827 213.238 427.56 224.675 427.56 236.6C427.56 248.525 422.827 259.962 414.4 268.4L430.3 284.3C436.619 278.067 441.637 270.641 445.062 262.452C448.486 254.263 450.25 245.476 450.25 236.6C450.25 227.724 448.486 218.937 445.062 210.748C441.637 202.559 436.619 195.133 430.3 188.9V189Z" fill="#FFDA44"/>
</g>
</g>
<defs>
<clipPath id="clip0_1628_3028">
<rect width="512" height="512" fill="white"/>
</clipPath>
</defs>
</svg>
