<svg width="512" height="512" viewBox="0 0 512 512" fill="none" xmlns="http://www.w3.org/2000/svg">
<g clip-path="url(#clip0_1628_3037)">
<mask id="mask0_1628_3037" style="mask-type:luminance" maskUnits="userSpaceOnUse" x="0" y="0" width="512" height="512">
<path d="M256 512C397.385 512 512 397.385 512 256C512 114.615 397.385 0 256 0C114.615 0 0 114.615 0 256C0 397.385 114.615 512 256 512Z" fill="white"/>
</mask>
<g mask="url(#mask0_1628_3037)">
<path d="M0 0H512V256L247 301.2L0 0Z" fill="#0052B4"/>
<path d="M210 256H512V512H0L210 256Z" fill="#D80027"/>
<path d="M0 0V512L256 256L0 0Z" fill="#EEEEEE"/>
<path d="M175.297 255.999L143.997 241.299L160.697 210.999L126.697 217.499L122.397 183.199L98.7969 208.399L74.9969 183.199L70.6969 217.499L36.6969 210.999L53.3969 241.299L22.2969 255.999L53.4969 270.699L36.9969 300.999L70.9969 294.499L75.1969 328.799L98.8969 303.599L122.497 328.799L126.797 294.499L160.797 300.999L144.097 270.699L175.297 255.999ZM68.2969 100.199L78.6969 114.699L95.6969 109.299L85.0969 123.699L95.4969 138.199L78.4969 132.599L67.9969 146.999L68.1969 129.099L51.1969 123.499L68.1969 118.099L68.2969 100.199ZM68.2969 364.999L78.6969 379.599L95.6969 374.199L85.0969 388.499L95.4969 403.099L78.4969 397.399L67.9969 411.799L68.1969 393.899L51.1969 388.299L68.1969 382.899L68.2969 364.999ZM216.697 232.599L206.297 246.999L189.297 241.599L199.797 255.999L189.397 270.599L206.397 264.899L216.997 279.299L216.897 261.399L233.897 255.799L216.797 250.399L216.697 232.599Z" fill="#FFDA44"/>
</g>
</g>
<defs>
<clipPath id="clip0_1628_3037">
<rect width="512" height="512" fill="white"/>
</clipPath>
</defs>
</svg>
