<svg width="512" height="512" viewBox="0 0 512 512" fill="none" xmlns="http://www.w3.org/2000/svg">
<g clip-path="url(#clip0_1628_3046)">
<mask id="mask0_1628_3046" style="mask-type:luminance" maskUnits="userSpaceOnUse" x="0" y="0" width="512" height="512">
<path d="M256 512C397.385 512 512 397.385 512 256C512 114.615 397.385 0 256 0C114.615 0 0 114.615 0 256C0 397.385 114.615 512 256 512Z" fill="white"/>
</mask>
<g mask="url(#mask0_1628_3046)">
<path d="M0 0H224L256 88L224 176L128 208L0 176V0Z" fill="#FF9811"/>
<path d="M0 224L256 192L512 224V272L480 296L512 320V368L480 392L512 416V464L256 496L0 464V416L32 392L0 368V320L32 296L0 272V224Z" fill="#EEEEEE"/>
<path d="M224 0V176H0V224H512V0H224ZM0 272V320H512V272H0ZM0 368V416H512V368H0ZM0 464V512H512V464H0Z" fill="#496E2D"/>
<path d="M355.602 190.699C400.06 190.699 436.102 154.658 436.102 110.199C436.102 65.7403 400.06 29.6992 355.602 29.6992C311.143 29.6992 275.102 65.7403 275.102 110.199C275.102 154.658 311.143 190.699 355.602 190.699Z" fill="#EEEEEE"/>
<path d="M376.198 165.702C416.957 165.702 449.998 132.66 449.998 91.9016C449.998 51.143 416.957 18.1016 376.198 18.1016C335.44 18.1016 302.398 51.143 302.398 91.9016C302.398 132.66 335.44 165.702 376.198 165.702Z" fill="#496E2D"/>
<path d="M370 76L417 56L390 100L386 50L420 88L370 76Z" fill="#EEEEEE"/>
</g>
</g>
<defs>
<clipPath id="clip0_1628_3046">
<rect width="512" height="512" fill="white"/>
</clipPath>
</defs>
</svg>
