<svg width="512" height="512" viewBox="0 0 512 512" fill="none" xmlns="http://www.w3.org/2000/svg">
<g clip-path="url(#clip0_1628_3057)">
<mask id="mask0_1628_3057" style="mask-type:luminance" maskUnits="userSpaceOnUse" x="0" y="0" width="512" height="512">
<path d="M256 512C397.385 512 512 397.385 512 256C512 114.615 397.385 0 256 0C114.615 0 0 114.615 0 256C0 397.385 114.615 512 256 512Z" fill="white"/>
</mask>
<g mask="url(#mask0_1628_3057)">
<path d="M0 0H512V512H0V0Z" fill="#496E2D"/>
<path d="M256 416C333.32 416 396 356.902 396 284C396 211.098 333.32 152 256 152C178.68 152 116 211.098 116 284C116 356.902 178.68 416 256 416Z" fill="#EEEEEE"/>
<path d="M256 360C323.379 360 378 310.304 378 249C378 187.696 323.379 138 256 138C188.621 138 134 187.696 134 249C134 310.304 188.621 360 256 360Z" fill="#496E2D"/>
<path d="M256.801 149.6H255.201C254.901 158.1 250.501 164.6 243.901 170.5C237.301 176.4 228.501 181.6 219.801 187.5C210.636 193.29 202.521 200.594 195.801 209.1C188.437 219.065 184.634 231.215 185.001 243.6C185.001 258 189.501 268.9 196.101 277.6C202.949 285.975 211.125 293.17 220.301 298.9C229.101 304.9 237.801 310.1 244.301 316.1C249.019 320.065 252.491 325.309 254.301 331.2C254.701 333.3 255.101 335.4 255.301 337.7H256.801C256.901 335.4 257.301 333.3 257.701 331.3C259.493 325.372 262.967 320.092 267.701 316.1C274.201 310.1 282.901 304.9 291.701 298.9C300.869 293.2 309.044 286.039 315.901 277.7C322.501 268.9 326.901 258 326.901 243.7C327.311 231.294 323.543 219.109 316.201 209.1C309.469 200.632 301.355 193.363 292.201 187.6C283.401 181.6 274.701 176.4 268.101 170.5C261.501 164.5 257.101 158.1 256.801 149.5V149.6Z" fill="#EEEEEE"/>
<path d="M262.598 117.802H291.598L268.598 133.102L277.598 156.502L255.298 141.802H255.198L233.198 156.402L241.498 132.402L220.298 117.802H246.498L254.098 95.6016L262.598 117.802ZM319.198 146.702C317.198 151.102 316.098 156.302 316.198 160.502C313.598 159.002 305.798 155.502 303.398 155.002C303.498 160.802 305.298 167.002 308.098 171.002C302.098 170.302 296.898 171.302 292.398 173.002C301.998 186.002 312.798 187.802 326.398 183.802C326.244 188.128 327.172 192.425 329.098 196.302C323.949 194.82 318.501 194.716 313.298 196.002C320.098 208.602 331.198 214.502 344.298 211.702C342.255 215.709 341.454 220.236 341.998 224.702C337.748 221.427 332.715 219.324 327.398 218.602C331.298 234.602 339.698 240.602 350.798 245.202C347.198 246.702 342.998 255.502 342.698 256.602C340.222 251.829 336.531 247.794 331.998 244.902C327.798 257.902 330.498 270.202 340.998 277.502C339.898 276.402 332.998 282.202 331.698 283.902C331.221 278.581 329.359 273.479 326.298 269.102C317.598 279.302 315.298 291.502 321.798 302.102C318.543 302.976 315.487 304.47 312.798 306.502C313.314 301.164 312.417 295.784 310.198 290.902C300.698 298.302 296.498 313.302 299.498 322.302C295.698 322.302 291.998 323.002 288.598 324.502C290.374 319.431 290.788 313.983 289.798 308.702C276.298 315.202 270.298 326.102 272.598 339.602L262.898 343.602L267.598 345.802L273.998 342.202C287.598 348.702 300.598 348.702 310.398 340.202C306.398 337.402 301.598 335.202 297.398 334.602C299.884 332.507 301.954 329.962 303.498 327.102C316.098 333.402 329.798 328.402 337.498 316.902C333.115 315.024 328.362 314.169 323.598 314.402C325.452 311.904 326.841 309.092 327.698 306.102C341.198 307.602 353.698 301.802 357.998 289.502C353.198 288.502 347.898 288.502 343.898 289.602C344.798 288.402 346.398 279.902 346.498 278.802C360.698 274.402 368.698 266.202 369.098 251.602C364.298 252.502 359.398 254.602 356.098 257.102C355.764 253.119 355.095 249.172 354.098 245.302C359.542 241.277 363.471 235.535 365.249 229.003C367.027 222.471 366.551 215.53 363.898 209.302C359.976 211.993 356.725 215.552 354.398 219.702C354.798 218.702 350.098 211.102 347.598 209.802C355.298 197.802 352.898 183.002 343.598 173.802C340.998 177.802 339.098 182.802 338.698 187.002C337.298 184.002 330.998 181.202 328.698 180.302C332.098 165.902 331.398 155.702 319.198 146.702ZM192.798 146.702C194.798 151.102 195.898 156.302 195.798 160.502C198.398 159.002 206.298 155.502 208.598 155.002C208.498 160.802 206.698 167.002 203.898 171.002C209.898 170.302 215.098 171.302 219.598 173.002C209.998 186.002 199.198 187.802 185.598 183.802C185.753 188.128 184.825 192.425 182.898 196.302C188.048 194.82 193.496 194.716 198.698 196.002C191.898 208.602 180.798 214.502 167.698 211.702C169.742 215.709 170.543 220.236 169.998 224.702C174.249 221.427 179.282 219.324 184.598 218.602C180.698 234.602 172.298 240.602 161.198 245.202C164.798 246.702 168.998 255.502 169.298 256.602C171.775 251.829 175.466 247.794 179.998 244.902C184.198 257.902 181.498 270.202 170.998 277.502C172.098 276.402 178.998 282.202 180.298 283.902C180.776 278.581 182.638 273.479 185.698 269.102C194.398 279.302 196.698 291.502 190.198 302.102C193.454 302.976 196.509 304.47 199.198 306.502C198.683 301.164 199.58 295.784 201.798 290.902C211.298 298.302 215.498 313.302 212.498 322.302C216.298 322.302 219.998 323.002 223.398 324.502C221.618 319.432 221.204 313.982 222.198 308.702C235.698 315.202 241.698 326.102 239.398 339.602L249.098 343.602L244.398 345.802L237.998 342.202C224.398 348.702 211.398 348.702 201.598 340.202C205.598 337.402 210.398 335.202 214.598 334.602C212.112 332.507 210.043 329.962 208.498 327.102C195.898 333.402 182.198 328.402 174.498 316.902C178.998 314.902 184.198 314.002 188.398 314.402C186.544 311.904 185.156 309.092 184.298 306.102C170.798 307.602 158.298 301.802 153.998 289.502C158.798 288.502 164.098 288.502 168.098 289.602C167.198 288.402 165.598 279.902 165.498 278.802C151.298 274.402 143.298 266.202 142.898 251.602C147.698 252.502 152.598 254.602 155.898 257.102C156.098 254.402 157.298 246.902 157.898 245.302C152.454 241.277 148.526 235.535 146.748 229.003C144.97 222.471 145.446 215.53 148.098 209.302C152.021 211.993 155.272 215.552 157.598 219.702C157.198 218.702 161.898 211.102 164.398 209.802C160.826 204.255 159.273 197.648 160.002 191.091C160.73 184.534 163.696 178.428 168.398 173.802C170.998 177.802 172.898 182.802 173.298 187.002C174.698 184.002 181.098 181.202 183.298 180.302C179.898 165.902 180.598 155.702 192.798 146.702Z" fill="#EEEEEE"/>
</g>
</g>
<defs>
<clipPath id="clip0_1628_3057">
<rect width="512" height="512" fill="white"/>
</clipPath>
</defs>
</svg>
