<svg width="512" height="512" viewBox="0 0 512 512" fill="none" xmlns="http://www.w3.org/2000/svg">
<g clip-path="url(#clip0_1628_3067)">
<mask id="mask0_1628_3067" style="mask-type:luminance" maskUnits="userSpaceOnUse" x="0" y="0" width="512" height="512">
<path d="M256 512C397.385 512 512 397.385 512 256C512 114.615 397.385 0 256 0C114.615 0 0 114.615 0 256C0 397.385 114.615 512 256 512Z" fill="white"/>
</mask>
<g mask="url(#mask0_1628_3067)">
<path d="M0 0H133.6L183.8 252.5L133.6 512H0V0Z" fill="#EEEEEE"/>
<path d="M133.602 0H512.002V512H133.602V0Z" fill="#496E2D"/>
<path d="M365.499 298.3C356.581 304.737 346.312 309.054 335.474 310.923C324.636 312.792 313.514 312.164 302.955 309.086C292.396 306.009 282.678 300.563 274.542 293.163C266.405 285.763 260.064 276.604 256.001 266.384C251.938 256.164 250.26 245.151 251.095 234.185C251.93 223.218 255.256 212.587 260.82 203.1C266.384 193.612 274.039 185.52 283.203 179.437C292.366 173.355 302.796 169.443 313.699 168C296.377 165.423 278.679 168.013 262.822 175.447C246.965 182.882 233.654 194.829 224.555 209.793C215.457 224.757 210.975 242.074 211.672 259.573C212.369 277.072 218.213 293.977 228.473 308.17C238.733 322.363 252.952 333.214 269.35 339.364C285.748 345.513 303.596 346.688 320.659 342.741C337.722 338.795 353.241 329.901 365.273 317.176C377.304 304.45 385.314 288.457 388.299 271.2C383.088 282.027 375.25 291.378 365.499 298.4V298.3ZM363.999 167L382.199 186.6L406.499 175.3L393.499 198.8L411.699 218.4L385.399 213.3L372.399 236.7L369.099 210L342.999 205L367.399 193.7L363.999 167Z" fill="#EEEEEE"/>
</g>
</g>
<defs>
<clipPath id="clip0_1628_3067">
<rect width="512" height="512" fill="white"/>
</clipPath>
</defs>
</svg>
