<svg width="512" height="512" viewBox="0 0 512 512" fill="none" xmlns="http://www.w3.org/2000/svg">
<g clip-path="url(#clip0_1628_3082)">
<mask id="mask0_1628_3082" style="mask-type:luminance" maskUnits="userSpaceOnUse" x="0" y="0" width="512" height="512">
<path d="M256 512C397.385 512 512 397.385 512 256C512 114.615 397.385 0 256 0C114.615 0 0 114.615 0 256C0 397.385 114.615 512 256 512Z" fill="white"/>
</mask>
<g mask="url(#mask0_1628_3082)">
<path d="M160 0H512V512H160L128 256L160 0Z" fill="#338AF3"/>
<path d="M0 160L80 128L160 160V352L80 384L0 352V160Z" fill="#EEEEEE"/>
<path d="M160 0H0V160H160V0Z" fill="#D80027"/>
<path d="M160 21V0H140L0 139V160H20L160 21Z" fill="#6DA544"/>
<path d="M0 21V0H20L160 139V160H140L0 21Z" fill="#6DA544"/>
<path d="M0 64H160V96H0V64Z" fill="#EEEEEE"/>
<path d="M64 0H96V160H64V0Z" fill="#EEEEEE"/>
<path d="M0 512H160V352H0V512Z" fill="#D80027"/>
<path d="M340 146V304H300C276 304 276 272 276 272H180V304H200L347 336L492 304V280H412C412 280 412 304 388 304H356V146H340Z" fill="#FFDA44"/>
<path d="M356 137.998V169.998C325 158.998 295 177.998 276 137.998C309 160.998 327 127.998 356 137.998ZM284 183.998C284 183.998 260 207.998 268 255.998H196C196 255.998 228 199.998 284 183.998ZM300 287.998H395C364 239.998 395 183.998 395 183.998H300C300 183.998 260 239.998 300 287.998ZM401 263.998C394.958 242.837 396.37 220.242 405 199.998H468C468 199.998 452 231.998 467 263.998H401ZM300 303.998H492C492 303.998 484 303.998 476 327.998C468 351.998 460 375.998 420 375.998H276C237 375.998 224 325.998 200 303.998H300Z" fill="#FFDA44"/>
<path d="M112 384H48C39.1634 384 32 391.163 32 400C32 408.837 39.1634 416 48 416H112C120.837 416 128 408.837 128 400C128 391.163 120.837 384 112 384Z" fill="#FFDA44"/>
<path d="M112 448H48C39.1634 448 32 455.163 32 464C32 472.837 39.1634 480 48 480H112C120.837 480 128 472.837 128 464C128 455.163 120.837 448 112 448Z" fill="#FFDA44"/>
</g>
</g>
<defs>
<clipPath id="clip0_1628_3082">
<rect width="512" height="512" fill="white"/>
</clipPath>
</defs>
</svg>
