<svg width="512" height="512" viewBox="0 0 512 512" fill="none" xmlns="http://www.w3.org/2000/svg">
<g clip-path="url(#clip0_1628_3099)">
<mask id="mask0_1628_3099" style="mask-type:luminance" maskUnits="userSpaceOnUse" x="0" y="0" width="512" height="512">
<path d="M256 512C397.385 512 512 397.385 512 256C512 114.615 397.385 0 256 0C114.615 0 0 114.615 0 256C0 397.385 114.615 512 256 512Z" fill="white"/>
</mask>
<g mask="url(#mask0_1628_3099)">
<path d="M256 0H512V512H0V256L256 0Z" fill="#0052B4"/>
<path d="M401 156L367 167L334 156L323 128L334 100H401L390 128L401 156Z" fill="#ACABB1"/>
<path d="M289 156V278C289 338 367 356 367 356C367 356 445 338 445 278V156H289Z" fill="#338AF3"/>
<path d="M296 307C316 344 367 356 367 356C367 356 419 344 438 307L367 189L296 307Z" fill="#6DA544"/>
<path d="M445.001 277L367.001 156L289.001 277V278C288.939 288.092 291.342 298.047 296.001 307L367.001 197L438.001 307C442.66 298.047 445.063 288.092 445.001 278V277Z" fill="#FFDA44"/>
<path d="M0 0V32L32 64L0 96V256H32L64 224L96 256H128V173L211 256H256L248 240L256 225V211L173 128H256V96L224 64L256 32V0H96L64 32L32 0H0Z" fill="#EEEEEE"/>
<path d="M32 0V32H0V96H32V256H96V96H256V32H96V0H32ZM128 128L256 256V225L159 128H128Z" fill="#D80027"/>
</g>
</g>
<defs>
<clipPath id="clip0_1628_3099">
<rect width="512" height="512" fill="white"/>
</clipPath>
</defs>
</svg>
