<svg width="512" height="512" viewBox="0 0 512 512" fill="none" xmlns="http://www.w3.org/2000/svg">
<g clip-path="url(#clip0_1628_3120)">
<mask id="mask0_1628_3120" style="mask-type:luminance" maskUnits="userSpaceOnUse" x="0" y="0" width="512" height="512">
<path d="M256 512C397.385 512 512 397.385 512 256C512 114.615 397.385 0 256 0C114.615 0 0 114.615 0 256C0 397.385 114.615 512 256 512Z" fill="white"/>
</mask>
<g mask="url(#mask0_1628_3120)">
<path d="M41.2969 121.898L511.997 166.998V344.998L43.7969 391.298L41.2969 121.898Z" fill="#EEEEEE"/>
<path d="M0 0H512V167H111L0 0Z" fill="#333333"/>
<path d="M111 345H512V512H0L111 345Z" fill="#6DA544"/>
<path d="M0 0V512L256 256L0 0Z" fill="#D80027"/>
</g>
</g>
<defs>
<clipPath id="clip0_1628_3120">
<rect width="512" height="512" fill="white"/>
</clipPath>
</defs>
</svg>
