<svg width="512" height="512" viewBox="0 0 512 512" fill="none" xmlns="http://www.w3.org/2000/svg">
<g clip-path="url(#clip0_1628_3129)">
<mask id="mask0_1628_3129" style="mask-type:luminance" maskUnits="userSpaceOnUse" x="0" y="0" width="512" height="512">
<path d="M256 512C397.385 512 512 397.385 512 256C512 114.615 397.385 0 256 0C114.615 0 0 114.615 0 256C0 397.385 114.615 512 256 512Z" fill="white"/>
</mask>
<g mask="url(#mask0_1628_3129)">
<path d="M0 512H189.2L230.6 256L189.2 0H0V512Z" fill="#0052B4"/>
<path d="M189.203 0H512.003V512H189.203V0Z" fill="#EEEEEE"/>
<path d="M91.7969 89V130.8C91.7969 140.772 95.7583 150.336 102.81 157.387C109.861 164.439 119.425 168.4 129.397 168.4C139.369 168.4 148.933 164.439 155.984 157.387C163.035 150.336 166.997 140.772 166.997 130.8V89H91.7969Z" fill="#D80027"/>
<path d="M129.402 146.001C121.002 146.001 114.102 139.201 114.102 130.801V111.301H144.702V130.801C144.702 139.201 137.802 146.101 129.402 146.101V146.001Z" fill="#EEEEEE"/>
<path d="M278.303 267.099H211.503C211.125 261.456 208.616 256.167 204.485 252.304C200.354 248.441 194.909 246.292 189.253 246.292C183.597 246.292 178.152 248.441 174.021 252.304C169.89 256.167 167.382 261.456 167.003 267.099H100.203C100.385 273.077 102.888 278.749 107.182 282.912C111.476 287.075 117.223 289.402 123.203 289.399H122.403C122.403 301.699 132.403 311.699 144.703 311.699C144.703 323.899 154.703 333.899 167.003 333.899H211.503C223.803 333.899 233.703 323.899 233.703 311.699C246.003 311.699 256.003 301.699 256.003 289.399H255.303C261.284 289.402 267.03 287.075 271.324 282.912C275.618 278.749 278.121 273.077 278.303 267.099ZM287.403 231.499L281.603 240.899L288.603 249.299L278.003 246.599L272.103 255.999L271.303 244.999L260.603 242.299L270.903 238.199L270.103 227.199L277.103 235.599L287.403 231.499ZM253.403 202.899L251.003 213.699L260.603 219.199L249.603 220.399L247.303 231.099L242.803 221.099L231.803 222.199L240.003 214.799L235.603 204.799L245.103 210.299L253.403 202.899ZM211.403 187.699L213.003 198.599L223.903 200.599L213.903 205.299L215.503 216.299L207.803 208.299L197.903 213.199L203.103 203.399L195.403 195.399L206.303 197.399L211.403 187.699ZM167.003 187.699L172.103 197.399L183.003 195.399L175.303 203.399L180.503 213.199L170.603 208.299L162.903 216.299L164.503 205.299L154.503 200.499L165.503 198.499L167.003 187.699ZM125.003 202.899L133.203 210.299L142.803 204.799L138.303 214.799L146.503 222.199L135.503 221.099L131.003 231.099L128.703 220.399L117.703 219.199L127.303 213.699L125.003 202.899ZM91.0031 231.499L101.203 235.599L108.203 227.199L107.503 238.199L117.703 242.299L107.003 244.999L106.203 255.999L100.403 246.599L89.7031 249.299L96.7031 240.899L91.0031 231.499Z" fill="#FFDA44"/>
</g>
</g>
<defs>
<clipPath id="clip0_1628_3129">
<rect width="512" height="512" fill="white"/>
</clipPath>
</defs>
</svg>
