<svg width="512" height="512" viewBox="0 0 512 512" fill="none" xmlns="http://www.w3.org/2000/svg">
<g clip-path="url(#clip0_1628_3148)">
<mask id="mask0_1628_3148" style="mask-type:luminance" maskUnits="userSpaceOnUse" x="0" y="0" width="512" height="512">
<path d="M256 512C397.385 512 512 397.385 512 256C512 114.615 397.385 0 256 0C114.615 0 0 114.615 0 256C0 397.385 114.615 512 256 512Z" fill="white"/>
</mask>
<g mask="url(#mask0_1628_3148)">
<path d="M0 512H167L204.9 251.7L167 0H0V512Z" fill="#6DA544"/>
<path d="M512 0H167V512H512V0Z" fill="#D80027"/>
<path d="M167 345C216.153 345 256 305.153 256 256C256 206.847 216.153 167 167 167C117.847 167 78 206.847 78 256C78 305.153 117.847 345 167 345Z" fill="#FFDA44"/>
<path d="M116.898 211.498V266.998C116.898 280.273 122.172 293.003 131.558 302.389C140.944 311.775 153.674 317.048 166.948 317.048C180.223 317.048 192.953 311.775 202.339 302.389C211.725 293.003 216.998 280.273 216.998 266.998V211.398H116.998L116.898 211.498Z" fill="#D80027"/>
<path d="M166.997 283.8C157.797 283.8 150.297 276.3 150.297 267.1V245H183.697V267C183.697 276.2 176.197 283.7 166.997 283.7V283.8Z" fill="#EEEEEE"/>
</g>
</g>
<defs>
<clipPath id="clip0_1628_3148">
<rect width="512" height="512" fill="white"/>
</clipPath>
</defs>
</svg>
