<svg width="512" height="512" viewBox="0 0 512 512" fill="none" xmlns="http://www.w3.org/2000/svg">
<g clip-path="url(#clip0_1628_3182)">
<mask id="mask0_1628_3182" style="mask-type:luminance" maskUnits="userSpaceOnUse" x="0" y="0" width="512" height="512">
<path d="M256 512C397.385 512 512 397.385 512 256C512 114.615 397.385 0 256 0C114.615 0 0 114.615 0 256C0 397.385 114.615 512 256 512Z" fill="white"/>
</mask>
<g mask="url(#mask0_1628_3182)">
<path d="M0 512H512V442L256 410L0 442V512Z" fill="#4A1F63"/>
<path d="M0 442H512V372L256 340L0 372V442Z" fill="#0052B4"/>
<path d="M0 0H512V70L256 102L0 70V0Z" fill="#D80027"/>
<path d="M0 70H512V140L256 172L0 140V70Z" fill="#FFDA44"/>
<path d="M0 140H512V210L480 256L512 302V372H0V302L32 256L0 210V140Z" fill="#EEEEEE"/>
<path d="M0 210H512V302H0V210Z" fill="#496E2D"/>
</g>
</g>
<defs>
<clipPath id="clip0_1628_3182">
<rect width="512" height="512" fill="white"/>
</clipPath>
</defs>
</svg>
