<svg width="512" height="512" viewBox="0 0 512 512" fill="none" xmlns="http://www.w3.org/2000/svg">
<g clip-path="url(#clip0_1628_3210)">
<mask id="mask0_1628_3210" style="mask-type:luminance" maskUnits="userSpaceOnUse" x="0" y="0" width="512" height="512">
<path d="M256 512C397.385 512 512 397.385 512 256C512 114.615 397.385 0 256 0C114.615 0 0 114.615 0 256C0 397.385 114.615 512 256 512Z" fill="white"/>
</mask>
<g mask="url(#mask0_1628_3210)">
<path d="M0 166.999L253.8 147.699L512 166.999V344.999L257.1 377.299L0 344.999V166.999Z" fill="#0052B4"/>
<path d="M0 0H512V167H0V0Z" fill="#D80027"/>
<path d="M0 345H512V512H0V345Z" fill="#EEEEEE"/>
<path d="M66.2031 144.699V272.399C66.2031 344.999 161.103 367.399 161.103 367.399C161.103 367.399 256.003 344.999 256.003 272.399V144.699H66.2031Z" fill="#D80027"/>
<path d="M105.4 166.999H216.8V122.399L194.5 133.599L161.1 100.199L127.7 133.599L105.4 122.399V166.999ZM233.7 290.199L161.4 217.799L89 290.199L112.7 313.799L161.4 265.099L210.1 313.799L233.7 290.199Z" fill="#FFDA44"/>
<path d="M233.7 222.599H200C201.962 219.228 202.997 215.399 203 211.499C203.011 206.517 201.354 201.675 198.292 197.745C195.231 193.814 190.942 191.023 186.109 189.814C181.275 188.606 176.177 189.051 171.626 191.078C167.075 193.105 163.334 196.598 161 200.999C158.64 196.65 154.901 193.209 150.371 191.219C145.842 189.228 140.778 188.8 135.979 190.003C131.179 191.206 126.916 193.971 123.861 197.862C120.805 201.754 119.13 206.551 119.1 211.499C119.103 215.399 120.138 219.228 122.1 222.599H89C89.182 228.577 91.6853 234.248 95.9791 238.411C100.273 242.575 106.019 244.901 112 244.899H111.3C111.3 257.199 121.3 267.099 133.6 267.099C133.6 278.099 141.4 287.099 151.7 288.999L134.2 328.599C142.839 332.107 152.076 333.907 161.4 333.899C170.724 333.907 179.961 332.107 188.6 328.599L171.1 288.999C181.4 286.999 189.2 277.999 189.2 267.099C201.5 267.099 211.5 257.099 211.5 244.899H210.7C216.681 244.901 222.427 242.575 226.721 238.411C231.015 234.248 233.518 228.577 233.7 222.599Z" fill="#EEEEEE"/>
</g>
</g>
<defs>
<clipPath id="clip0_1628_3210">
<rect width="512" height="512" fill="white"/>
</clipPath>
</defs>
</svg>
