<svg width="512" height="512" viewBox="0 0 512 512" fill="none" xmlns="http://www.w3.org/2000/svg">
<g clip-path="url(#clip0_1628_3230)">
<mask id="mask0_1628_3230" style="mask-type:luminance" maskUnits="userSpaceOnUse" x="0" y="0" width="512" height="512">
<path d="M256 512C397.385 512 512 397.385 512 256C512 114.615 397.385 0 256 0C114.615 0 0 114.615 0 256C0 397.385 114.615 512 256 512Z" fill="white"/>
</mask>
<g mask="url(#mask0_1628_3230)">
<path d="M96 357L304 325L512 357V512H96L64 434L96 357Z" fill="#D80027"/>
<path d="M96 0H512V293L304 325L96 293L64 146L96 0Z" fill="#496E2D"/>
<path d="M0 0V512H96V357H512V293H96V0H0Z" fill="#EEEEEE"/>
</g>
</g>
<defs>
<clipPath id="clip0_1628_3230">
<rect width="512" height="512" fill="white"/>
</clipPath>
</defs>
</svg>
