<svg width="512" height="512" viewBox="0 0 512 512" fill="none" xmlns="http://www.w3.org/2000/svg">
<g clip-path="url(#clip0_1628_3238)">
<mask id="mask0_1628_3238" style="mask-type:luminance" maskUnits="userSpaceOnUse" x="0" y="0" width="512" height="512">
<path d="M256 512C397.385 512 512 397.385 512 256C512 114.615 397.385 0 256 0C114.615 0 0 114.615 0 256C0 397.385 114.615 512 256 512Z" fill="white"/>
</mask>
<g mask="url(#mask0_1628_3238)">
<path d="M0 0H512V385L256 449L0 385V0Z" fill="#FFDA44"/>
<path d="M375 97L398 73V97H421L398 120L421 143H398V166L375 143L351 166V143H329L351 120L329 97H351V73L375 97ZM137 97L160 73V97H184L160 120L184 143H160V166L137 143L114 166V143H91L114 120L91 97H114V73L137 97ZM256 47L279 24V47H302L279 70L302 94H279V117L256 94L233 117V94H210L233 70L210 47H233V24L256 47Z" fill="#A2001D"/>
<path d="M218 103L183 138V166H155L120 201L149 230H169V268L186 285L218 253L229 264V385H0V512H512V385H282V264L293 253L325 285L342 268V230H363L392 201L357 166L328 167V138L294 103L265 132V155L291 181L256 216L221 181L247 155V132L218 103Z" fill="#A2001D"/>
</g>
</g>
<defs>
<clipPath id="clip0_1628_3238">
<rect width="512" height="512" fill="white"/>
</clipPath>
</defs>
</svg>
