<svg width="512" height="512" viewBox="0 0 512 512" fill="none" xmlns="http://www.w3.org/2000/svg">
<g clip-path="url(#clip0_1628_3302)">
<mask id="mask0_1628_3302" style="mask-type:luminance" maskUnits="userSpaceOnUse" x="0" y="0" width="512" height="512">
<path d="M256 512C397.385 512 512 397.385 512 256C512 114.615 397.385 0 256 0C114.615 0 0 114.615 0 256C0 397.385 114.615 512 256 512Z" fill="white"/>
</mask>
<g mask="url(#mask0_1628_3302)">
<path d="M0 378.498L254.1 356.398L512 378.498V511.998H0V378.498Z" fill="#496E2D"/>
<path d="M0 256.101L255 225.801L512 256.101V378.501H0V256.101Z" fill="#FFDA44"/>
<path d="M0 0H512V256H0V0Z" fill="#338AF3"/>
<path d="M289.398 149.999L320.698 164.599L303.998 194.999L337.998 188.499L342.298 222.799L365.898 197.599L389.598 222.799L393.898 188.499L427.898 194.999L411.198 164.699L442.398 149.999L411.198 135.299L427.798 104.999L393.798 111.499L389.598 77.1992L365.898 102.499L342.298 77.1992L337.998 111.499L303.998 104.999L320.698 135.299L289.398 149.999Z" fill="#FFDA44"/>
</g>
</g>
<defs>
<clipPath id="clip0_1628_3302">
<rect width="512" height="512" fill="white"/>
</clipPath>
</defs>
</svg>
