<svg width="512" height="512" viewBox="0 0 512 512" fill="none" xmlns="http://www.w3.org/2000/svg">
<g clip-path="url(#clip0_1628_3311)">
<mask id="mask0_1628_3311" style="mask-type:luminance" maskUnits="userSpaceOnUse" x="0" y="0" width="512" height="512">
<path d="M256 512C397.385 512 512 397.385 512 256C512 114.615 397.385 0 256 0C114.615 0 0 114.615 0 256C0 397.385 114.615 512 256 512Z" fill="white"/>
</mask>
<g mask="url(#mask0_1628_3311)">
<path d="M0 0H512V512H0V0Z" fill="#496E2D"/>
<path d="M144.7 305.999C144.7 324.499 159.7 339.499 178.1 339.499H278.3C278.3 346.872 281.229 353.943 286.442 359.157C291.656 364.37 298.727 367.299 306.1 367.299H339.5C346.873 367.299 353.944 364.37 359.158 359.157C364.371 353.943 367.3 346.872 367.3 339.499V305.999H144.7ZM370.1 144.699V222.699C370.1 234.899 360.1 244.899 347.8 244.899V278.299C378.5 278.299 403.5 253.299 403.5 222.599V144.699H370H370.1ZM130.8 222.699C130.8 234.899 120.8 244.899 108.5 244.899V278.299C139.2 278.299 164.2 253.299 164.2 222.599V144.699H130.8V222.699Z" fill="#EEEEEE"/>
<path d="M319.998 144.699H353.398V222.699H319.998V144.699ZM269.998 189.199C269.998 190.684 269.408 192.109 268.358 193.159C267.308 194.209 265.884 194.799 264.398 194.799C262.913 194.799 261.489 194.209 260.439 193.159C259.388 192.109 258.798 190.684 258.798 189.199V144.699H225.398V189.199C225.218 190.543 224.555 191.776 223.535 192.668C222.514 193.561 221.204 194.053 219.848 194.053C218.493 194.053 217.183 193.561 216.162 192.668C215.141 191.776 214.479 190.543 214.298 189.199V144.699H180.898V189.199C180.898 199.543 185.007 209.462 192.321 216.776C199.635 224.09 209.555 228.199 219.898 228.199C227.841 228.199 235.592 225.755 242.098 221.199C248.605 225.755 256.355 228.199 264.298 228.199C265.998 228.199 267.698 228.099 269.298 227.899C268.114 232.738 265.344 237.042 261.429 240.123C257.514 243.204 252.68 244.886 247.698 244.899V278.299C278.298 278.299 303.298 253.299 303.298 222.599V144.699H269.998V189.199Z" fill="#EEEEEE"/>
<path d="M180.898 244.898H230.898V278.298H180.898V244.898Z" fill="#EEEEEE"/>
</g>
</g>
<defs>
<clipPath id="clip0_1628_3311">
<rect width="512" height="512" fill="white"/>
</clipPath>
</defs>
</svg>
