<svg width="512" height="512" viewBox="0 0 512 512" fill="none" xmlns="http://www.w3.org/2000/svg">
<g clip-path="url(#clip0_1628_3321)">
<mask id="mask0_1628_3321" style="mask-type:luminance" maskUnits="userSpaceOnUse" x="0" y="0" width="512" height="512">
<path d="M256 512C397.385 512 512 397.385 512 256C512 114.615 397.385 0 256 0C114.615 0 0 114.615 0 256C0 397.385 114.615 512 256 512Z" fill="white"/>
</mask>
<g mask="url(#mask0_1628_3321)">
<path d="M199 0H231L263 256L231 512H199L167 256L199 0Z" fill="#FFDA44"/>
<path d="M167 0H199V512H167L135 256L167 0Z" fill="#496E2D"/>
<path d="M231 0H512V512H231V0Z" fill="#0052B4"/>
<path d="M0 0H167V512H0V0ZM199 132L167 148L199 164C223.4 164 246.8 173.693 264.054 190.946C281.307 208.2 291 231.6 291 256C291 280.4 281.307 303.8 264.054 321.054C246.8 338.307 223.4 348 199 348L167 364L199 380C231.887 380 263.427 366.936 286.681 343.681C309.936 320.427 323 288.887 323 256C323 223.113 309.936 191.573 286.681 168.319C263.427 145.064 231.887 132 199 132Z" fill="#D80027"/>
<path d="M199 132C166.113 132 134.573 145.064 111.319 168.319C88.0642 191.573 75 223.113 75 256C75 288.887 88.0642 320.427 111.319 343.681C134.573 366.936 166.113 380 199 380V348C174.6 348 151.2 338.307 133.946 321.054C116.693 303.8 107 280.4 107 256C107 231.6 116.693 208.2 133.946 190.946C151.2 173.693 174.6 164 199 164V132Z" fill="#0052B4"/>
</g>
</g>
<defs>
<clipPath id="clip0_1628_3321">
<rect width="512" height="512" fill="white"/>
</clipPath>
</defs>
</svg>
