<svg width="512" height="512" viewBox="0 0 512 512" fill="none" xmlns="http://www.w3.org/2000/svg">
<g clip-path="url(#clip0_1628_3331)">
<mask id="mask0_1628_3331" style="mask-type:luminance" maskUnits="userSpaceOnUse" x="0" y="0" width="512" height="512">
<path d="M256 512C397.385 512 512 397.385 512 256C512 114.615 397.385 0 256 0C114.615 0 0 114.615 0 256C0 397.385 114.615 512 256 512Z" fill="white"/>
</mask>
<g mask="url(#mask0_1628_3331)">
<path d="M512.002 512.002V23.6016L256.002 255.902L23.6016 512.002H512.002Z" fill="#496E2D"/>
<path d="M0 0H488.4L256 256L0 488.4V0Z" fill="#0052B4"/>
<path d="M488.4 0L0 488.4V512H23.6L512 23.6V0H488.4Z" fill="#FFDA44"/>
<path d="M107.798 89L113.298 106H131.298L116.698 116.5L122.198 133.5L107.998 123L93.4984 133.6L98.9984 116.6L84.3984 106H102.198L107.798 89ZM199.098 89L204.598 106H222.598L207.998 116.4L213.598 133.4L198.998 123L184.498 133.6L190.098 116.6L175.598 106H193.598L199.098 89ZM107.798 178L113.298 195H131.298L116.698 205.5L122.198 222.5L107.798 212L93.2984 222.5L98.7984 205.5L84.3984 195H102.198L107.798 178ZM199.098 178L204.598 195H222.598L207.998 205.5L213.598 222.5L199.098 212L184.598 222.5L190.198 205.5L175.698 195H193.698L199.098 178ZM153.398 133.5L158.998 150.5H176.798L162.398 161L167.898 178L153.398 167.5L138.998 178L144.498 161L129.998 150.5H147.998L153.398 133.5Z" fill="#EEEEEE"/>
</g>
</g>
<defs>
<clipPath id="clip0_1628_3331">
<rect width="512" height="512" fill="white"/>
</clipPath>
</defs>
</svg>
