<svg width="512" height="512" viewBox="0 0 512 512" fill="none" xmlns="http://www.w3.org/2000/svg">
<g clip-path="url(#clip0_1628_3359)">
<mask id="mask0_1628_3359" style="mask-type:luminance" maskUnits="userSpaceOnUse" x="0" y="0" width="512" height="512">
<path d="M256 512C397.385 512 512 397.385 512 256C512 114.615 397.385 0 256 0C114.615 0 0 114.615 0 256C0 397.385 114.615 512 256 512Z" fill="white"/>
</mask>
<g mask="url(#mask0_1628_3359)">
<path d="M0 0H133.6L168.9 16.7L200.3 0H512V222.6L489.4 254.3L512 289.4V512H200.3L168.3 492.2L133.6 512H0V289.4L22.1 256.1L0 222.6V0Z" fill="#0052B4"/>
<path d="M133.6 0V222.6H0V289.4H133.6V512H200.3V289.4H512V222.6H200.3V0H133.6Z" fill="#FFDA44"/>
</g>
</g>
<defs>
<clipPath id="clip0_1628_3359">
<rect width="512" height="512" fill="white"/>
</clipPath>
</defs>
</svg>
