<svg width="512" height="512" viewBox="0 0 512 512" fill="none" xmlns="http://www.w3.org/2000/svg">
<g clip-path="url(#clip0_1628_3366)">
<mask id="mask0_1628_3366" style="mask-type:luminance" maskUnits="userSpaceOnUse" x="0" y="0" width="512" height="512">
<path d="M256 512C397.385 512 512 397.385 512 256C512 114.615 397.385 0 256 0C114.615 0 0 114.615 0 256C0 397.385 114.615 512 256 512Z" fill="white"/>
</mask>
<g mask="url(#mask0_1628_3366)">
<path d="M0 256L257.7 205L512 256V512H0V256Z" fill="#EEEEEE"/>
<path d="M0 0H512V256H0V0Z" fill="#D80027"/>
<path d="M155.8 133.6C155.815 115.843 161.889 98.624 173.017 84.7871C184.144 70.9502 199.66 61.3242 217 57.4997C211.514 56.3019 205.915 55.6984 200.3 55.6997C189.278 55.5823 178.356 57.8023 168.255 62.2133C158.153 66.6244 149.101 73.1262 141.696 81.2904C134.29 89.4546 128.699 99.0956 125.291 109.578C121.883 120.06 120.735 131.146 121.923 142.104C123.112 153.063 126.609 163.645 132.185 173.153C137.761 182.661 145.289 190.879 154.272 197.266C163.256 203.653 173.491 208.064 184.303 210.207C195.115 212.35 206.259 212.177 217 209.7C199.66 205.875 184.144 196.249 173.017 182.412C161.889 168.575 155.815 151.356 155.8 133.6ZM256 61.1997L261.5 78.1997H279.5L264.9 88.6997L270.5 105.7L256 95.1997L241.5 105.7L247.1 88.6997L232.6 78.1997H250.5L256 61.1997Z" fill="#EEEEEE"/>
<path d="M212.603 94.6016L218.203 111.602H236.003L221.603 122.102L227.103 139.102L212.603 128.602L198.203 139.102L203.703 122.102L189.203 111.602H207.103L212.603 94.6016ZM299.403 94.6016L304.903 111.602H322.803L308.303 122.102L313.803 139.102L299.403 128.602L284.903 139.102L290.403 122.102L276.003 111.602H293.803L299.403 94.6016ZM282.703 144.702L288.203 161.702H306.103L291.603 172.202L297.103 189.202L282.703 178.702L268.203 189.202L273.703 172.202L259.303 161.702H277.203L282.703 144.702ZM229.303 144.702L234.803 161.702H252.803L238.303 172.202L243.803 189.202L229.303 178.702L214.903 189.202L220.403 172.202L205.903 161.702H223.803L229.303 144.702Z" fill="#EEEEEE"/>
</g>
</g>
<defs>
<clipPath id="clip0_1628_3366">
<rect width="512" height="512" fill="white"/>
</clipPath>
</defs>
</svg>
