<svg width="512" height="512" viewBox="0 0 512 512" fill="none" xmlns="http://www.w3.org/2000/svg">
<g clip-path="url(#clip0_1628_3417)">
<mask id="mask0_1628_3417" style="mask-type:luminance" maskUnits="userSpaceOnUse" x="0" y="0" width="512" height="512">
<path d="M256 512C397.385 512 512 397.385 512 256C512 114.615 397.385 0 256 0C114.615 0 0 114.615 0 256C0 397.385 114.615 512 256 512Z" fill="white"/>
</mask>
<g mask="url(#mask0_1628_3417)">
<path d="M256 0H512V512H0V256L256 0Z" fill="#0052B4"/>
<path d="M0 0V32L32 64L0 96V256H32L64 224L96 256H128V173L211 256H256L248 240L256 225V211L173 128H256V96L224 64L256 32V0H96L64 32L32 0H0Z" fill="#EEEEEE"/>
<path d="M32 0V32H0V96H32V256H96V96H256V32H96V0H32ZM128 128L256 256V225L159 128H128Z" fill="#D80027"/>
<path d="M288 128H448V208L368 240L288 208V128Z" fill="#EEEEEE"/>
<path d="M368 140C364.287 140 360.726 141.475 358.1 144.101C355.475 146.726 354 150.287 354 154H312C312 157.713 313.475 161.274 316.1 163.899C318.726 166.525 322.287 168 326 168C326 171.713 327.475 175.274 330.1 177.899C332.726 180.525 336.287 182 340 182C340 185.713 341.475 189.274 344.1 191.899C346.726 194.525 350.287 196 354 196H382C385.713 196 389.274 194.525 391.9 191.899C394.525 189.274 396 185.713 396 182C399.713 182 403.274 180.525 405.9 177.899C408.525 175.274 410 171.713 410 168C413.713 168 417.274 166.525 419.9 163.899C422.525 161.274 424 157.713 424 154H382C382 150.287 380.525 146.726 377.9 144.101C375.274 141.475 371.713 140 368 140Z" fill="#333333"/>
<path d="M288 208V256C288 317 368 336 368 336C368 336 448 317 448 256V208H288Z" fill="#338AF3"/>
<path d="M372 221C363 221 357 229 347 222C352 234 361 231 369 232V238H355C355 238 341 258 355 276H369V281H355C346 281 346 270 346 270H312V281H319C328 289 332 307 346 307H398C413 307 415 298 418 290C421 283 423 282 424 281V273H395C395 273 395 281 387 281H375V275H389C378 258 389 238 389 238H375V222L371 221H372ZM349 238C329 244 318 264 318 264H343C341 247 349 238 349 238ZM393 244C389.671 251.199 388.964 259.335 391 267H415C410 255 415 244 415 244H393Z" fill="#EEEEEE"/>
</g>
</g>
<defs>
<clipPath id="clip0_1628_3417">
<rect width="512" height="512" fill="white"/>
</clipPath>
</defs>
</svg>
