<svg width="512" height="512" viewBox="0 0 512 512" fill="none" xmlns="http://www.w3.org/2000/svg">
<g clip-path="url(#clip0_1628_3447)">
<mask id="mask0_1628_3447" style="mask-type:luminance" maskUnits="userSpaceOnUse" x="0" y="0" width="512" height="512">
<path d="M256 512C397.385 512 512 397.385 512 256C512 114.615 397.385 0 256 0C114.615 0 0 114.615 0 256C0 397.385 114.615 512 256 512Z" fill="white"/>
</mask>
<g mask="url(#mask0_1628_3447)">
<path d="M0 160L256 128L512 160V352L256 384L0 352V160Z" fill="#0052B4"/>
<path d="M0 0H512V160H0V0Z" fill="#EEEEEE"/>
<path d="M0 352H512V512H0V352Z" fill="#D80027"/>
<path d="M64 63V280C64 384 208 417 208 417C208 417 352 384 352 280V63H64Z" fill="#EEEEEE"/>
<path d="M96 95V280C96.2176 291.828 99.2952 303.455 105 314H311C316.774 303.458 319.854 291.824 320 280V95H96Z" fill="#D80027"/>
<path d="M288 224H224V192H256V160H224V128H192V160H160V192H192V224H128V256H192V288H224V256H288V224Z" fill="#EEEEEE"/>
<path d="M152 359C169.523 369.154 188.336 377.217 208 383C220 380 242 372 264 359C283.835 348.375 300.11 332.792 311 314C301.014 307.529 289.157 304.042 277 304L263 306C258.333 296.009 250.643 287.506 240.873 281.534C231.103 275.562 219.678 272.381 208 272.381C196.322 272.381 184.897 275.562 175.127 281.534C165.357 287.506 157.667 296.009 153 306C148.434 304.82 143.735 304.149 139 304C127 304 115 308 105 314C115.89 332.792 132.165 348.375 152 359Z" fill="#0052B4"/>
</g>
</g>
<defs>
<clipPath id="clip0_1628_3447">
<rect width="512" height="512" fill="white"/>
</clipPath>
</defs>
</svg>
