<svg width="512" height="512" viewBox="0 0 512 512" fill="none" xmlns="http://www.w3.org/2000/svg">
<g clip-path="url(#clip0_1628_3467)">
<mask id="mask0_1628_3467" style="mask-type:luminance" maskUnits="userSpaceOnUse" x="0" y="0" width="512" height="512">
<path d="M256 512C397.385 512 512 397.385 512 256C512 114.615 397.385 0 256 0C114.615 0 0 114.615 0 256C0 397.385 114.615 512 256 512Z" fill="white"/>
</mask>
<g mask="url(#mask0_1628_3467)">
<path d="M0 255.999L256 203.699L512 255.999V511.999H0V255.999Z" fill="#338AF3"/>
<path d="M0 0H512V256H0V0Z" fill="#EEEEEE"/>
<path d="M357.602 176.6L256.002 278.3L154.402 176.6C140.796 196.775 133.551 220.565 133.602 244.9V278.3C133.602 331.9 168.202 377.5 216.302 394.1C213.043 400.443 211.686 407.594 212.396 414.69C213.105 421.787 215.851 428.527 220.302 434.1L256.702 404.9L293.102 434.1C297.638 428.469 300.425 421.632 301.118 414.434C301.812 407.236 300.38 399.993 297.002 393.6C320.796 385.11 341.387 369.476 355.957 348.838C370.528 328.199 378.367 303.563 378.402 278.3V244.9C378.402 219.6 370.802 196.2 357.602 176.6Z" fill="#6DA544"/>
<path d="M256 367.299C206.9 367.299 167 327.299 167 278.299V244.899C168.085 222.025 177.935 200.446 194.507 184.642C211.079 168.837 233.1 160.02 256 160.02C278.9 160.02 300.921 168.837 317.493 184.642C334.065 200.446 343.915 222.025 345 244.899V278.299C345 327.299 305.1 367.299 256 367.299Z" fill="#FFDA44"/>
<path d="M311.697 278.299V244.899C311.697 230.127 305.828 215.959 295.383 205.513C284.937 195.068 270.769 189.199 255.997 189.199C241.224 189.199 227.057 195.068 216.611 205.513C206.165 215.959 200.297 230.127 200.297 244.899V278.299L255.997 289.299L311.697 278.299Z" fill="#338AF3"/>
<path d="M200.297 278.301C200.297 293.073 206.165 307.241 216.611 317.687C227.057 328.132 241.224 334.001 255.997 334.001C270.769 334.001 284.937 328.132 295.383 317.687C305.828 307.241 311.697 293.073 311.697 278.301H200.297Z" fill="#6DA544"/>
<path d="M322.797 155.8C322.801 149.335 320.93 143.008 317.409 137.585C313.888 132.163 308.869 127.879 302.962 125.254C297.054 122.628 290.511 121.773 284.127 122.793C277.743 123.813 271.792 126.664 266.997 131V111.4H278.197V89H266.997V78H244.997V89H233.797V111.3H244.997V130.9C238.361 125.216 229.762 122.358 221.045 122.939C212.327 123.521 204.184 127.495 198.362 134.01C192.54 140.526 189.503 149.063 189.902 157.791C190.301 166.519 194.105 174.743 200.497 180.7V200.3H311.797V180.7C318.597 174.6 322.797 165.7 322.797 155.8Z" fill="#FFDA44"/>
</g>
</g>
<defs>
<clipPath id="clip0_1628_3467">
<rect width="512" height="512" fill="white"/>
</clipPath>
</defs>
</svg>
