<svg width="512" height="512" viewBox="0 0 512 512" fill="none" xmlns="http://www.w3.org/2000/svg">
<g clip-path="url(#clip0_1628_3503)">
<mask id="mask0_1628_3503" style="mask-type:luminance" maskUnits="userSpaceOnUse" x="0" y="0" width="512" height="512">
<path d="M256 512C397.385 512 512 397.385 512 256C512 114.615 397.385 0 256 0C114.615 0 0 114.615 0 256C0 397.385 114.615 512 256 512Z" fill="white"/>
</mask>
<g mask="url(#mask0_1628_3503)">
<path d="M0 166.999L253.8 147.699L512 166.999V344.999L257.1 377.299L0 344.999V166.999Z" fill="#EEEEEE"/>
<path d="M0 0H512V167H0V0Z" fill="#496E2D"/>
<path d="M0 345H512V512H0V345Z" fill="#D80027"/>
<path d="M256 200.301L269.8 242.901H314.5L278.4 269.001L292.2 311.601L256 285.301L219.8 311.601L233.6 269.001L197.5 242.801H242.2L256 200.301Z" fill="#333333"/>
<path d="M332.003 50V102C332.003 110.2 325.403 116.9 317.203 116.9V139C327.025 139 336.447 135.105 343.402 128.169C350.356 121.233 354.277 111.822 354.303 102V50H332.103H332.003ZM172.503 102C172.503 110.2 165.903 116.9 157.703 116.9V139C167.508 138.974 176.904 135.067 183.837 128.134C190.77 121.201 194.677 111.805 194.703 102V50H172.503V102Z" fill="#EEEEEE"/>
<path d="M298.706 50H320.906V102H298.706V50ZM265.306 79.8C265.306 80.7813 264.916 81.7224 264.223 82.4163C263.529 83.1102 262.588 83.5 261.606 83.5C260.625 83.5 259.684 83.1102 258.99 82.4163C258.296 81.7224 257.906 80.7813 257.906 79.8V50H235.606V79.7C235.606 80.1859 235.511 80.667 235.325 81.1159C235.139 81.5648 234.866 81.9727 234.523 82.3163C234.179 82.6599 233.771 82.9324 233.322 83.1184C232.873 83.3043 232.392 83.4 231.906 83.4C231.42 83.4 230.939 83.3043 230.49 83.1184C230.041 82.9324 229.634 82.6599 229.29 82.3163C228.946 81.9727 228.674 81.5648 228.488 81.1159C228.302 80.667 228.206 80.1859 228.206 79.7V50H205.906V79.7C205.906 83.1144 206.579 86.4953 207.885 89.6498C209.192 92.8042 211.107 95.6705 213.521 98.0848C218.397 102.961 225.011 105.7 231.906 105.7C237.205 105.69 242.373 104.049 246.706 101C251.08 104.034 256.284 105.64 261.606 105.6C262.606 105.6 263.806 105.6 264.806 105.4C264.024 108.636 262.182 111.516 259.572 113.583C256.962 115.649 253.735 116.781 250.406 116.8V139C260.228 139 269.65 135.105 276.605 128.169C283.559 121.233 287.48 111.822 287.506 102V50H265.306V79.7V79.8Z" fill="#EEEEEE"/>
<path d="M206.006 116.9H239.306V139H205.906L206.006 116.9Z" fill="#EEEEEE"/>
</g>
</g>
<defs>
<clipPath id="clip0_1628_3503">
<rect width="512" height="512" fill="white"/>
</clipPath>
</defs>
</svg>
