<svg width="512" height="512" viewBox="0 0 512 512" fill="none" xmlns="http://www.w3.org/2000/svg">
<g clip-path="url(#clip0_1628_3536)">
<mask id="mask0_1628_3536" style="mask-type:luminance" maskUnits="userSpaceOnUse" x="0" y="0" width="512" height="512">
<path d="M256 512C397.385 512 512 397.385 512 256C512 114.615 397.385 0 256 0C114.615 0 0 114.615 0 256C0 397.385 114.615 512 256 512Z" fill="white"/>
</mask>
<g mask="url(#mask0_1628_3536)">
<path d="M0 0H512V111.3L426.7 254.4L512 400.7V512H0V400.7L87 251.7L0 111.3V0Z" fill="#6DA544"/>
<path d="M0 111.301H512V167.001L471 251.701L512 345.001V400.701H0V345.001L44.2 258.401L0 167.001V111.301Z" fill="#EEEEEE"/>
<path d="M0 167H512V345H0V167Z" fill="#A2001D"/>
<path d="M255.998 167L278.098 235H349.598L291.798 277L313.798 345L255.998 303L198.098 345L220.198 277L162.398 235H233.898L255.998 167Z" fill="#FFDA44"/>
</g>
</g>
<defs>
<clipPath id="clip0_1628_3536">
<rect width="512" height="512" fill="white"/>
</clipPath>
</defs>
</svg>
