<svg width="512" height="512" viewBox="0 0 512 512" fill="none" xmlns="http://www.w3.org/2000/svg">
<g clip-path="url(#clip0_1628_3545)">
<mask id="mask0_1628_3545" style="mask-type:luminance" maskUnits="userSpaceOnUse" x="0" y="0" width="512" height="512">
<path d="M256 512C397.385 512 512 397.385 512 256C512 114.615 397.385 0 256 0C114.615 0 0 114.615 0 256C0 397.385 114.615 512 256 512Z" fill="white"/>
</mask>
<g mask="url(#mask0_1628_3545)">
<path d="M0 0H512V167L459.4 250.8L512 345V512H0L72 247.7L0 0Z" fill="#6DA544"/>
<path d="M114.898 166.9H511.998V344.9H114.898V166.9Z" fill="#FFDA44"/>
<path d="M0 0V512L256 256L0 0Z" fill="#D80027"/>
<path d="M324.998 211.5L336.098 245.5H371.998L342.998 266.5L354.098 300.5L325.098 279.5L296.198 300.5L307.198 266.5L278.398 245.5H313.998L324.998 211.5ZM436.398 211.5L447.398 245.5H483.198L454.198 266.5L465.298 300.5L436.298 279.5L407.398 300.5L418.498 266.5L389.498 245.5H425.298L436.398 211.5Z" fill="#333333"/>
</g>
</g>
<defs>
<clipPath id="clip0_1628_3545">
<rect width="512" height="512" fill="white"/>
</clipPath>
</defs>
</svg>
