<svg width="512" height="512" viewBox="0 0 512 512" fill="none" xmlns="http://www.w3.org/2000/svg">
<g clip-path="url(#clip0_1628_3563)">
<mask id="mask0_1628_3563" style="mask-type:luminance" maskUnits="userSpaceOnUse" x="0" y="0" width="512" height="512">
<path d="M256 512C397.385 512 512 397.385 512 256C512 114.615 397.385 0 256 0C114.615 0 0 114.615 0 256C0 397.385 114.615 512 256 512Z" fill="white"/>
</mask>
<g mask="url(#mask0_1628_3563)">
<path d="M0 0H512V144.7L471.5 257.3L512 367.3V512H0V367.3L42.2 253.3L0 144.7V0Z" fill="#0052B4"/>
<path d="M0 144.699H512V367.299H0V144.699Z" fill="#EEEEEE"/>
<path d="M204.602 267.1L256.002 178.1L307.402 267.1H204.602Z" fill="#FFDA44"/>
<path d="M322.803 296.5L256.003 330L189.203 296.6V252H322.803V296.5Z" fill="#6DA544"/>
<path d="M319 182L295.4 205.5C303.26 213.257 308.627 223.183 310.815 234.007C313.002 244.832 311.911 256.063 307.68 266.263C303.45 276.464 296.272 285.171 287.066 291.27C277.859 297.369 267.043 300.582 256 300.5C245.009 300.466 234.273 297.181 225.144 291.058C216.016 284.936 208.903 276.249 204.702 266.092C200.5 255.936 199.397 244.763 201.532 233.981C203.667 223.199 208.945 213.289 216.7 205.5L193 182C180.572 194.454 172.115 210.313 168.696 227.572C165.278 244.831 167.051 262.716 173.793 278.968C180.535 295.219 191.942 309.108 206.574 318.879C221.206 328.65 238.406 333.865 256 333.865C273.594 333.865 290.794 328.65 305.426 318.879C320.058 309.108 331.465 295.219 338.207 278.968C344.949 262.716 346.722 244.831 343.304 227.572C339.885 210.313 331.428 194.454 319 182Z" fill="#FFDA44"/>
</g>
</g>
<defs>
<clipPath id="clip0_1628_3563">
<rect width="512" height="512" fill="white"/>
</clipPath>
</defs>
</svg>
