<svg width="512" height="512" viewBox="0 0 512 512" fill="none" xmlns="http://www.w3.org/2000/svg">
<g clip-path="url(#clip0_1628_3573)">
<mask id="mask0_1628_3573" style="mask-type:luminance" maskUnits="userSpaceOnUse" x="0" y="0" width="512" height="512">
<path d="M256 512C397.385 512 512 397.385 512 256C512 114.615 397.385 0 256 0C114.615 0 0 114.615 0 256C0 397.385 114.615 512 256 512Z" fill="white"/>
</mask>
<g mask="url(#mask0_1628_3573)">
<path d="M0 0H512V256L247 301.2L0 0Z" fill="#D80027"/>
<path d="M210 256H512V512H0L210 256Z" fill="#0052B4"/>
<path d="M0 0V512L256 256L0 0Z" fill="#EEEEEE"/>
<path d="M27.9971 256C27.8589 257.863 27.7922 259.731 27.7971 261.6C28.5397 280.762 36.864 298.844 50.9386 311.868C57.9076 318.317 66.0786 323.331 74.9851 326.622C83.8916 329.913 93.3591 331.418 102.847 331.05C112.335 330.682 121.658 328.449 130.283 324.479C138.908 320.508 146.666 314.878 153.115 307.909C159.565 300.94 164.578 292.769 167.869 283.862C171.16 274.956 172.665 265.488 172.297 256H27.9971Z" fill="#FFDA44"/>
<path d="M100.198 222.6C112.514 222.6 122.498 212.616 122.498 200.3C122.498 187.984 112.514 178 100.198 178C87.8825 178 77.8984 187.984 77.8984 200.3C77.8984 212.616 87.8825 222.6 100.198 222.6Z" fill="#FFDA44"/>
<path d="M50 194.799V266.999C50 305.399 100.2 316.999 100.2 316.999C100.2 316.999 150.2 305.399 150.2 266.999V194.699H50.2L50 194.799Z" fill="#D80027"/>
<path d="M100.203 294C90.9031 290.6 72.2031 282 72.2031 267V217H128.003V267C128.003 282 109.403 290.6 100.203 293.9V294Z" fill="#338AF3"/>
<path d="M111.3 244.899V233.699L100.2 228.199L89 233.699V244.999L83.5 250.499V272.799H116.9V250.499L111.3 244.899Z" fill="#EEEEEE"/>
</g>
</g>
<defs>
<clipPath id="clip0_1628_3573">
<rect width="512" height="512" fill="white"/>
</clipPath>
</defs>
</svg>
