<svg width="512" height="512" viewBox="0 0 512 512" fill="none" xmlns="http://www.w3.org/2000/svg">
<g clip-path="url(#clip0_1628_3587)">
<mask id="mask0_1628_3587" style="mask-type:luminance" maskUnits="userSpaceOnUse" x="0" y="0" width="512" height="512">
<path d="M256 512C397.385 512 512 397.385 512 256C512 114.615 397.385 0 256 0C114.615 0 0 114.615 0 256C0 397.385 114.615 512 256 512Z" fill="white"/>
</mask>
<g mask="url(#mask0_1628_3587)">
<path d="M0 166.999L253.8 147.699L512 166.999V344.999L257.1 377.299L0 344.999V166.999Z" fill="#EEEEEE"/>
<path d="M0 0H512V167H0V0Z" fill="#D80027"/>
<path d="M0 345H512V512H0V345Z" fill="#333333"/>
<path d="M152.998 194.801L166.798 237.301H211.498L175.298 263.601L189.098 306.101L152.998 279.801L116.798 306.101L130.598 263.601L94.3984 237.301H139.098L152.998 194.801ZM358.998 194.801L372.898 237.301H417.598L381.398 263.601L395.198 306.101L358.998 279.801L322.898 306.101L336.698 263.601L300.498 237.301H345.198L358.998 194.801Z" fill="#6DA544"/>
</g>
</g>
<defs>
<clipPath id="clip0_1628_3587">
<rect width="512" height="512" fill="white"/>
</clipPath>
</defs>
</svg>
