<svg width="512" height="512" viewBox="0 0 512 512" fill="none" xmlns="http://www.w3.org/2000/svg">
<g clip-path="url(#clip0_1628_3596)">
<mask id="mask0_1628_3596" style="mask-type:luminance" maskUnits="userSpaceOnUse" x="0" y="0" width="512" height="512">
<path d="M256 512C397.385 512 512 397.385 512 256C512 114.615 397.385 0 256 0C114.615 0 0 114.615 0 256C0 397.385 114.615 512 256 512Z" fill="white"/>
</mask>
<g mask="url(#mask0_1628_3596)">
<path d="M0 144.699L256 124.199L512 144.699V177.999L474.6 256.999L512 333.999V367.299L256 391.399L0 367.299V333.999L37.7 256.699L0 177.999V144.699Z" fill="#FFDA44"/>
<path d="M0 0H512V144.7H0V0Z" fill="#333333"/>
<path d="M0 367.301H512V512.001H0V367.301Z" fill="#0052B4"/>
<path d="M0 178H512V334H0V178Z" fill="#A2001D"/>
<path d="M89.2031 244.901H423.203V267.001H89.2031V244.901ZM133.803 200.301H378.603V222.601H133.803V200.301Z" fill="#FFDA44"/>
<path d="M256.203 189.199L238.203 254.399L256.203 322.799C323.003 322.799 380.203 255.999 380.203 255.999C380.203 255.999 323.003 189.199 256.203 189.199Z" fill="#EEEEEE"/>
<path d="M256.203 322.799C189.403 322.799 132.203 255.999 132.203 255.999C132.203 255.999 189.403 189.199 256.203 189.199" fill="#333333"/>
<path d="M211.703 233.699H233.903V278.299H211.703V233.699Z" fill="#EEEEEE"/>
<path d="M278.5 233.699H300.7V278.299H278.5V233.699Z" fill="#333333"/>
<path d="M89.1984 278.299C101.514 278.299 111.498 268.315 111.498 255.999C111.498 243.683 101.514 233.699 89.1984 233.699C76.8825 233.699 66.8984 243.683 66.8984 255.999C66.8984 268.315 76.8825 278.299 89.1984 278.299Z" fill="#0052B4"/>
<path d="M423.198 278.299C435.514 278.299 445.498 268.315 445.498 255.999C445.498 243.683 435.514 233.699 423.198 233.699C410.882 233.699 400.898 243.683 400.898 255.999C400.898 268.315 410.882 278.299 423.198 278.299Z" fill="#0052B4"/>
</g>
</g>
<defs>
<clipPath id="clip0_1628_3596">
<rect width="512" height="512" fill="white"/>
</clipPath>
</defs>
</svg>
