<svg width="512" height="512" viewBox="0 0 512 512" fill="none" xmlns="http://www.w3.org/2000/svg">
<g clip-path="url(#clip0_1628_3628)">
<mask id="mask0_1628_3628" style="mask-type:luminance" maskUnits="userSpaceOnUse" x="0" y="0" width="512" height="512">
<path d="M256 512C397.385 512 512 397.385 512 256C512 114.615 397.385 0 256 0C114.615 0 0 114.615 0 256C0 397.385 114.615 512 256 512Z" fill="white"/>
</mask>
<g mask="url(#mask0_1628_3628)">
<path d="M256 0H512V512H0V256L256 0Z" fill="#0052B4"/>
<path d="M0 0V32L32 64L0 96V256H32L64 224L96 256H128V173L211 256H256L248 240L256 225V211L173 128H256V96L224 64L256 32V0H96L64 32L32 0H0Z" fill="#EEEEEE"/>
<path d="M32 0V32H0V96H32V256H96V96H256V32H96V0H32ZM128 128L256 256V225L159 128H128Z" fill="#D80027"/>
<path d="M289.397 133.6V256C289.397 315.6 367.297 334 367.297 334C367.297 334 445.297 315.6 445.297 256V133.6H289.297H289.397Z" fill="#FFDA44"/>
<path d="M356.203 178.001C356.203 190.401 346.203 222.601 333.903 222.601C321.603 222.601 311.703 190.401 311.703 178.101C311.703 165.801 333.903 155.801 333.903 155.801C333.903 155.801 356.203 165.801 356.203 178.101V178.001Z" fill="#FF9811"/>
<path d="M415.202 202.301C418.784 193.359 420.944 183.911 421.602 174.301C421.602 164.101 408.302 155.801 408.302 155.801C408.302 155.801 394.902 164.101 394.902 174.401C394.902 180.801 397.702 193.601 401.302 202.401L393.602 219.701C398.26 221.645 403.253 222.664 408.302 222.701C413.35 222.664 418.343 221.645 423.002 219.701L415.202 202.301Z" fill="#A2001D"/>
<path d="M350.6 256C350.6 256 339.5 278.3 339.5 300.5H395C395 278.3 383.9 256 383.9 256L367.2 244.9L350.5 256H350.6Z" fill="#6DA544"/>
<path d="M384.002 255.999V250.399C384.002 245.97 382.242 241.722 379.11 238.591C375.978 235.459 371.731 233.699 367.302 233.699C362.872 233.699 358.625 235.459 355.493 238.591C352.361 241.722 350.602 245.97 350.602 250.399V255.999H384.002Z" fill="#D80027"/>
</g>
</g>
<defs>
<clipPath id="clip0_1628_3628">
<rect width="512" height="512" fill="white"/>
</clipPath>
</defs>
</svg>
