<svg width="512" height="512" viewBox="0 0 512 512" fill="none" xmlns="http://www.w3.org/2000/svg">
<g clip-path="url(#clip0_1628_3649)">
<mask id="mask0_1628_3649" style="mask-type:luminance" maskUnits="userSpaceOnUse" x="0" y="0" width="512" height="512">
<path d="M256 512C397.385 512 512 397.385 512 256C512 114.615 397.385 0 256 0C114.615 0 0 114.615 0 256C0 397.385 114.615 512 256 512Z" fill="white"/>
</mask>
<g mask="url(#mask0_1628_3649)">
<path d="M256 0H512V512H0V256L256 0Z" fill="#0052B4"/>
<path d="M0 0H256V256H0V0Z" fill="#EEEEEE"/>
<path d="M0 0H75V224H0V0Z" fill="#0052B4"/>
<path d="M149 0H224V224H149V0Z" fill="#D80027"/>
<path d="M323 158L336 179H372V250L345 207L308 266H326L345 232L384 302L423 232L442 266H460L423 207L396 250V211H412L424 191H396V179H432L445 158H323ZM366 246H326V260H366V246ZM442 246H402V260H442V246Z" fill="#EEEEEE"/>
<path d="M301 181L314 219L280 196H322L288 219L301 181ZM467 181L480 219L446 196H488L454 219L467 181ZM339 282L352 320L318 297H360L326 320L339 282ZM429 282L442 320L408 297H450L416 320L429 282ZM384 316L397 354L363 331H405L371 354L384 316Z" fill="#EEEEEE"/>
</g>
</g>
<defs>
<clipPath id="clip0_1628_3649">
<rect width="512" height="512" fill="white"/>
</clipPath>
</defs>
</svg>
