<svg width="512" height="512" viewBox="0 0 512 512" fill="none" xmlns="http://www.w3.org/2000/svg">
<g clip-path="url(#clip0_1628_3678)">
<mask id="mask0_1628_3678" style="mask-type:luminance" maskUnits="userSpaceOnUse" x="0" y="0" width="512" height="512">
<path d="M256 512C397.385 512 512 397.385 512 256C512 114.615 397.385 0 256 0C114.615 0 0 114.615 0 256C0 397.385 114.615 512 256 512Z" fill="white"/>
</mask>
<g mask="url(#mask0_1628_3678)">
<path d="M12.3984 481.899L503.498 482.499L256.498 235.199L12.3984 481.899Z" fill="#EEEEEE"/>
<path d="M45 467.399L193.1 318.999L256.1 211.499L336.3 316.599L512 362.099V255.999L484.2 205.999L512 149.999V44.6992L252 16.6992L0 44.6992L38.5 103.499L0 149.999V256.099L37 306.799L0 362.199V467.399L23.6 483.199L45 467.399Z" fill="#D80027"/>
<path d="M512 362.001L305.6 276.601L319 319.001L467.3 467.401L490.3 485.501L511.9 467.401L512 362.001ZM512 256.101V150.101L256.2 256.101H512ZM467.7 44.6008L406.8 26.8008L343.8 44.6008L256.2 256.101L467.7 44.6008ZM256.2 44.6008L214.7 27.0008L168.6 44.7008L256.2 256.201V44.6008ZM44.7 44.6008L23.9 28.8008L0 44.6008V150.001L256.2 256.101L44.7 44.6008ZM0 256.101V362.201L256.2 256.201L0 256.101Z" fill="#0052B4"/>
<path d="M256.203 256.099L319.203 319.099C331.631 306.645 340.088 290.786 343.507 273.527C346.926 256.268 345.152 238.383 338.41 222.131C331.668 205.88 320.261 191.991 305.629 182.22C290.997 172.449 273.798 167.234 256.203 167.234C238.609 167.234 221.409 172.449 206.777 182.22C192.145 191.991 180.738 205.88 173.996 222.131C167.254 238.383 165.481 256.268 168.899 273.527C172.318 290.786 180.775 306.645 193.203 319.099L256.203 256.099ZM295.203 384.099L256.403 403.599L217.203 384.099C217.203 373.756 221.312 363.836 228.626 356.522C235.94 349.208 245.86 345.099 256.203 345.099C266.547 345.099 276.466 349.208 283.78 356.522C291.094 363.836 295.203 373.756 295.203 384.099Z" fill="#FFDA44"/>
<path d="M295.203 384.1C295.203 394.443 291.094 404.363 283.78 411.677C276.466 418.991 266.547 423.1 256.203 423.1C245.86 423.1 235.94 418.991 228.626 411.677C221.312 404.363 217.203 394.443 217.203 384.1" fill="#0052B4"/>
<path d="M0 0V44.6H512V0H0ZM0 467.4V512H512V467.4H0Z" fill="#FFDA44"/>
</g>
</g>
<defs>
<clipPath id="clip0_1628_3678">
<rect width="512" height="512" fill="white"/>
</clipPath>
</defs>
</svg>
