<svg width="512" height="512" viewBox="0 0 512 512" fill="none" xmlns="http://www.w3.org/2000/svg">
<g clip-path="url(#clip0_1628_3689)">
<mask id="mask0_1628_3689" style="mask-type:luminance" maskUnits="userSpaceOnUse" x="0" y="0" width="512" height="512">
<path d="M256 512C397.385 512 512 397.385 512 256C512 114.615 397.385 0 256 0C114.615 0 0 114.615 0 256C0 397.385 114.615 512 256 512Z" fill="white"/>
</mask>
<g mask="url(#mask0_1628_3689)">
<path d="M0 144.699L255.3 108.199L512 144.699V367.299L250.5 406.999L0 367.299V144.699Z" fill="#EEEEEE"/>
<path d="M0 0H512V144.7H0V0Z" fill="#D80027"/>
<path d="M0 367.301H512V512.001H0V367.301Z" fill="#6DA544"/>
<path d="M211.5 323.001H300.5V285.001L282.7 294.001L256 267.101L229.3 293.801L211.5 284.901V323.001ZM160.5 278.401L164.7 291.101H178L167.1 299.101L171.3 311.801L160.4 303.801L149.6 311.801L153.7 299.001L143 291.101H156.4L160.5 278.401ZM173.4 233.801L177.5 246.601H191L180.2 254.601L184.3 267.201L173.5 259.301L162.6 267.301L166.8 254.501L155.9 246.501H169.3L173.4 233.801ZM210.1 200.401L214.3 213.201H227.7L216.8 221.201L221 233.801L210 226.101L199.2 233.901L203.3 221.201L192.5 213.301H206L210.1 200.401ZM351.5 278.401L347.3 291.101H334L344.9 299.101L340.7 311.801L351.6 303.801L362.4 311.801L358.3 299.001L369 291.101H355.6L351.5 278.401ZM338.6 233.801L334.5 246.601H321L331.8 254.601L327.7 267.201L338.5 259.301L349.4 267.301L345.2 254.501L356.1 246.501H342.7L338.6 233.801ZM302 200.401L297.8 213.201H284.4L295.3 221.201L291.1 233.801L302 226.101L312.8 233.901L308.7 221.201L319.5 213.301H306L302 200.401ZM256 183.801L260.1 196.501H273.6L262.7 204.501L266.8 217.101L256 209.301L245.2 217.101L249.3 204.401L238.4 196.501H252L256 183.801Z" fill="#FFDA44"/>
</g>
</g>
<defs>
<clipPath id="clip0_1628_3689">
<rect width="512" height="512" fill="white"/>
</clipPath>
</defs>
</svg>
