<svg width="512" height="512" viewBox="0 0 512 512" fill="none" xmlns="http://www.w3.org/2000/svg">
<g clip-path="url(#clip0_1628_3698)">
<mask id="mask0_1628_3698" style="mask-type:luminance" maskUnits="userSpaceOnUse" x="0" y="0" width="512" height="512">
<path d="M256 512C397.385 512 512 397.385 512 256C512 114.615 397.385 0 256 0C114.615 0 0 114.615 0 256C0 397.385 114.615 512 256 512Z" fill="white"/>
</mask>
<g mask="url(#mask0_1628_3698)">
<path d="M0 0H512V512H0V0Z" fill="#0052B4"/>
<path d="M188 133.6L193.6 150.6H211.5L197 161L202.5 178L188.1 167.5L173.6 178L179.1 161L164.7 150.5H182.5L188 133.6ZM115.5 256L122.5 277.3H144.8L126.8 290.3L133.6 311.7L115.6 298.5L97.5 311.7L104.4 290.4L86.3 277.3H108.6L115.5 256ZM115.5 78L122.5 99.2H144.8L126.8 112.3L133.6 133.6L115.6 120.4L97.5 133.6L104.4 112.3L86.3 99.2H108.6L115.5 78ZM59.8 178L66.7 199.3H89L71 212.5L77.9 233.7L59.8 220.6L41.7 233.7L48.7 212.5L30.5 199.3H53L59.8 178Z" fill="#EEEEEE"/>
<path d="M188 133.6L193.6 150.6H211.5L197 161L202.5 178L188.1 167.5L173.6 178L179.1 161L164.7 150.5H182.5L188 133.6ZM115.5 256L122.5 277.3H144.8L126.8 290.3L133.6 311.7L115.6 298.5L97.5 311.7L104.4 290.4L86.3 277.3H108.6L115.5 256ZM115.5 78L122.5 99.2H144.8L126.8 112.3L133.6 133.6L115.6 120.4L97.5 133.6L104.4 112.3L86.3 99.2H108.6L115.5 78ZM59.8 178L66.7 199.3H89L71 212.5L77.9 233.7L59.8 220.6L41.7 233.7L48.7 212.5L30.5 199.3H53L59.8 178Z" fill="#EEEEEE"/>
<path d="M411.803 122.4L144.703 345H506.403V309.2C477.2 295.873 452.445 274.43 435.087 247.428C417.729 220.425 408.501 189.001 408.503 156.9C408.503 145.2 409.503 133.4 411.803 122.4ZM506.403 367.3H144.703V400.7H506.403V367.3Z" fill="#FFDA44"/>
</g>
</g>
<defs>
<clipPath id="clip0_1628_3698">
<rect width="512" height="512" fill="white"/>
</clipPath>
</defs>
</svg>
