<svg width="512" height="512" viewBox="0 0 512 512" fill="none" xmlns="http://www.w3.org/2000/svg">
<g clip-path="url(#clip0_1628_3716)">
<mask id="mask0_1628_3716" style="mask-type:luminance" maskUnits="userSpaceOnUse" x="0" y="0" width="512" height="512">
<path d="M256 512C397.385 512 512 397.385 512 256C512 114.615 397.385 0 256 0C114.615 0 0 114.615 0 256C0 397.385 114.615 512 256 512Z" fill="white"/>
</mask>
<g mask="url(#mask0_1628_3716)">
<path d="M0 0H66.8L134.6 32.3L200.3 0H512V512H200.3L130.1 477.9L66.8 512H0V0Z" fill="#496E2D"/>
<path d="M66.7969 0H200.297V512H66.7969V0Z" fill="#D80027"/>
<path d="M374.398 193.1C380.381 176.381 380.481 158.122 374.681 141.34C368.88 124.557 357.528 110.256 342.498 100.8C348.06 101.544 353.524 102.885 358.798 104.8C368.976 107.814 378.43 112.874 386.584 119.669C394.738 126.465 401.419 134.853 406.218 144.321C411.017 153.788 413.834 164.135 414.495 174.729C415.156 185.322 413.648 195.939 410.064 205.93C406.479 215.921 400.893 225.074 393.648 232.831C386.402 240.588 377.65 246.784 367.927 251.041C358.203 255.298 347.714 257.525 337.1 257.587C326.486 257.648 315.971 255.543 306.198 251.4C300.918 249.515 295.855 247.068 291.098 244.1C308.715 246.352 326.573 242.525 341.719 233.252C356.866 223.979 368.394 209.814 374.398 193.1ZM304.598 91.0996L293.598 105.3L276.798 99.2996L286.798 114.1L275.898 128.1L293.098 123.1L303.098 138L303.698 120L320.898 115L303.998 109L304.598 91.0996Z" fill="#EEEEEE"/>
<path d="M334.102 137.3L323.102 151.3L306.302 145.3L316.402 160.1L305.402 174.3L322.602 169.3L332.702 184L333.202 166.2L350.402 161.2L333.602 155.2L334.102 137.3ZM252.502 108L241.502 122.1L224.702 116.1L234.702 130.8L223.802 145L241.002 140L251.002 154.7L251.602 136.9L268.702 131.9L251.902 125.9L252.502 108ZM251.302 160.7L240.302 174.9L223.502 168.9L233.502 183.6L222.602 197.8L239.802 192.8L249.802 207.5L250.402 189.7L267.502 184.7L250.702 178.7L251.302 160.7ZM301.502 178.7L290.502 192.9L273.702 186.9L283.702 201.6L272.802 215.8L290.002 210.8L300.002 225.5L300.602 207.7L317.802 202.7L300.902 196.7L301.502 178.7Z" fill="#EEEEEE"/>
<path d="M117.798 134.8L95.3984 118V106L133.598 78.0004L149.398 77.9004L171.698 94.6004V106.1L133.598 134.8H117.798Z" fill="#EEEEEE"/>
<path d="M133.598 78H117.798L95.3984 94.5V106H133.598V78ZM133.598 134.8H149.398L171.698 118.1V106.1H133.598V134.8Z" fill="#FF9811"/>
<path d="M117.802 284.4L95.4016 267.8V244.2L117.802 227.6H149.402L171.702 244.2V267.8L149.402 284.4H117.802ZM172.502 321.1H162.802V311.3H145.702L133.602 299.3L121.502 311.3H104.302V321.1H94.6016V340.6H104.302V350.3H121.502L133.502 362.4L145.702 350.3H162.702V340.6H172.502V321.1ZM172.502 171.4H162.802V161.7H145.702L133.602 149.6L121.502 161.6H104.302V171.4H94.6016V191H104.302V200.8H121.502L133.502 212.8L145.702 200.8H162.702V191H172.502V171.4Z" fill="#496E2D"/>
<path d="M122.398 244.9H144.698V267H122.398V244.9Z" fill="#D80027"/>
<path d="M133.6 192.3C139.73 192.3 144.7 187.33 144.7 181.2C144.7 175.069 139.73 170.1 133.6 170.1C127.47 170.1 122.5 175.069 122.5 181.2C122.5 187.33 127.47 192.3 133.6 192.3Z" fill="#D80027"/>
<path d="M133.6 341.899C139.73 341.899 144.7 336.93 144.7 330.799C144.7 324.669 139.73 319.699 133.6 319.699C127.47 319.699 122.5 324.669 122.5 330.799C122.5 336.93 127.47 341.899 133.6 341.899Z" fill="#D80027"/>
<path d="M117.798 434L95.3984 417.2V405.2L133.598 377.2L149.398 377.1L171.698 393.8V405.3L133.598 434H117.798Z" fill="#EEEEEE"/>
<path d="M133.598 377.199H117.798L95.3984 393.699V405.199H133.598V377.199ZM133.598 433.999H149.398L171.698 417.299V405.299H133.598V433.999Z" fill="#FF9811"/>
</g>
</g>
<defs>
<clipPath id="clip0_1628_3716">
<rect width="512" height="512" fill="white"/>
</clipPath>
</defs>
</svg>
