<svg width="512" height="512" viewBox="0 0 512 512" fill="none" xmlns="http://www.w3.org/2000/svg">
<g clip-path="url(#clip0_1628_3735)">
<mask id="mask0_1628_3735" style="mask-type:luminance" maskUnits="userSpaceOnUse" x="0" y="0" width="512" height="512">
<path d="M256 512C397.385 512 512 397.385 512 256C512 114.615 397.385 0 256 0C114.615 0 0 114.615 0 256C0 397.385 114.615 512 256 512Z" fill="white"/>
</mask>
<g mask="url(#mask0_1628_3735)">
<path d="M0 0H512V512H0V0Z" fill="#D80027"/>
<path d="M256.002 378.4C323.601 378.4 378.402 323.599 378.402 256C378.402 188.4 323.601 133.6 256.002 133.6C188.402 133.6 133.602 188.4 133.602 256C133.602 323.599 188.402 378.4 256.002 378.4Z" fill="#EEEEEE"/>
<path d="M271 209.199L292 238.199L326.1 227.099L305.1 256.099L326.1 284.999L292.1 273.899L271.1 302.899V266.999L237 255.999L271 244.999V209.199Z" fill="#D80027"/>
<path d="M283.799 328.299C272.812 328.269 261.976 325.734 252.115 320.889C242.254 316.044 233.627 309.014 226.89 300.336C220.152 291.657 215.481 281.556 213.232 270.802C210.982 260.048 211.213 248.922 213.908 238.27C216.602 227.619 221.688 217.721 228.78 209.33C235.873 200.938 244.784 194.273 254.838 189.842C264.892 185.41 275.823 183.328 286.802 183.754C297.781 184.18 308.519 187.102 318.199 192.299C305.672 180.057 289.812 171.783 272.604 168.513C255.396 165.244 237.606 167.125 221.462 173.921C205.319 180.716 191.539 192.124 181.85 206.716C172.161 221.307 166.992 238.434 166.992 255.949C166.992 273.465 172.161 290.591 181.85 305.183C191.539 319.774 205.319 331.182 221.462 337.978C237.606 344.774 255.396 346.655 272.604 343.385C289.812 340.116 305.672 331.842 318.199 319.599C307.638 325.324 295.812 328.314 283.799 328.299Z" fill="#D80027"/>
</g>
</g>
<defs>
<clipPath id="clip0_1628_3735">
<rect width="512" height="512" fill="white"/>
</clipPath>
</defs>
</svg>
