<svg width="512" height="512" viewBox="0 0 512 512" fill="none" xmlns="http://www.w3.org/2000/svg">
<g clip-path="url(#clip0_1628_3745)">
<mask id="mask0_1628_3745" style="mask-type:luminance" maskUnits="userSpaceOnUse" x="0" y="0" width="512" height="512">
<path d="M256 512C397.385 512 512 397.385 512 256C512 114.615 397.385 0 256 0C114.615 0 0 114.615 0 256C0 397.385 114.615 512 256 512Z" fill="white"/>
</mask>
<g mask="url(#mask0_1628_3745)">
<path d="M0 256L256 0H512V512H0V256Z" fill="#D80027"/>
<path d="M0 0H256V256H0V0Z" fill="#EEEEEE"/>
<path d="M167.003 133.599V100.199H133.603V133.599H100.203V166.999H133.603V200.299H167.003V166.999H200.303V133.599H167.003Z" fill="#D80027"/>
</g>
</g>
<defs>
<clipPath id="clip0_1628_3745">
<rect width="512" height="512" fill="white"/>
</clipPath>
</defs>
</svg>
