<svg width="512" height="512" viewBox="0 0 512 512" fill="none" xmlns="http://www.w3.org/2000/svg">
<g clip-path="url(#clip0_1628_3764)">
<mask id="mask0_1628_3764" style="mask-type:luminance" maskUnits="userSpaceOnUse" x="0" y="0" width="512" height="512">
<path d="M256 512C397.385 512 512 397.385 512 256C512 114.615 397.385 0 256 0C114.615 0 0 114.615 0 256C0 397.385 114.615 512 256 512Z" fill="white"/>
</mask>
<g mask="url(#mask0_1628_3764)">
<path d="M0 0H512V512H0V0Z" fill="#D80027"/>
<path d="M245.5 209.199L266.5 238.199L300.5 227.099L279.5 256.099L300.5 284.999L266.5 273.899L245.5 302.899V266.999L211.5 255.899L245.5 244.899V209.199Z" fill="#EEEEEE"/>
<path d="M188.197 328.299C177.21 328.269 166.375 325.734 156.514 320.889C146.653 316.044 138.026 309.014 131.288 300.336C124.55 291.657 119.879 281.556 117.63 270.802C115.381 260.048 115.612 248.922 118.306 238.27C121 227.619 126.087 217.721 133.179 209.33C140.271 200.938 149.183 194.273 159.236 189.842C169.29 185.41 180.222 183.328 191.201 183.754C202.18 184.18 212.917 187.102 222.597 192.299C210.071 180.057 194.21 171.783 177.002 168.513C159.794 165.244 142.005 167.125 125.861 173.921C109.717 180.716 95.9378 192.124 86.2484 206.716C76.559 221.307 71.3906 238.434 71.3906 255.949C71.3906 273.465 76.559 290.591 86.2484 305.183C95.9378 319.774 109.717 331.182 125.861 337.978C142.005 344.774 159.794 346.655 177.002 343.385C194.21 340.116 210.071 331.842 222.597 319.599C212.036 325.324 200.21 328.314 188.197 328.299Z" fill="#EEEEEE"/>
</g>
</g>
<defs>
<clipPath id="clip0_1628_3764">
<rect width="512" height="512" fill="white"/>
</clipPath>
</defs>
</svg>
