<svg width="512" height="512" viewBox="0 0 512 512" fill="none" xmlns="http://www.w3.org/2000/svg">
<g clip-path="url(#clip0_1628_3780)">
<mask id="mask0_1628_3780" style="mask-type:luminance" maskUnits="userSpaceOnUse" x="0" y="0" width="512" height="512">
<path d="M256 512C397.385 512 512 397.385 512 256C512 114.615 397.385 0 256 0C114.615 0 0 114.615 0 256C0 397.385 114.615 512 256 512Z" fill="white"/>
</mask>
<g mask="url(#mask0_1628_3780)">
<path d="M0 110.2L110.2 0H512V401.8L401.8 512H0V110.2Z" fill="#D80027"/>
<path d="M110.2 0H63L0 63V110.2L401.8 512H449L512 449V401.8L110.2 0Z" fill="#EEEEEE"/>
<path d="M512 512V449L63 0H0V63L449 512H512Z" fill="#333333"/>
</g>
</g>
<defs>
<clipPath id="clip0_1628_3780">
<rect width="512" height="512" fill="white"/>
</clipPath>
</defs>
</svg>
