<svg width="512" height="512" viewBox="0 0 512 512" fill="none" xmlns="http://www.w3.org/2000/svg">
<g clip-path="url(#clip0_1628_3788)">
<mask id="mask0_1628_3788" style="mask-type:luminance" maskUnits="userSpaceOnUse" x="0" y="0" width="512" height="512">
<path d="M256 512C397.385 512 512 397.385 512 256C512 114.615 397.385 0 256 0C114.615 0 0 114.615 0 256C0 397.385 114.615 512 256 512Z" fill="white"/>
</mask>
<g mask="url(#mask0_1628_3788)">
<path d="M0 256L256 0H512V512H0V256Z" fill="#338AF3"/>
<path d="M0 0H33.4L65.4 16.9L100.3 0H256V33.4L241.2 66.9L256 100.2V133.6L246.7 167.3L256 208.8V224.5L249.8 236.1L256 256H208.8L169.5 249L133.6 256.1L100.2 256L67.6 239.4L33.4 256H0V100.2L14.2 64.4L0 33.4V0Z" fill="#EEEEEE"/>
<path d="M256.002 224.5L165.002 133.5H133.602L256.002 256V224.5Z" fill="#D80027"/>
<path d="M33.4 0V33.4H0V100.2H33.4V256H100.2V100.2H256V33.4H100.2V0H33.4Z" fill="#D80027"/>
<path d="M279.4 422.999L284.9 439.999H302.9L288.3 450.499L293.9 467.499L279.4 456.999L264.9 467.499L270.5 450.499L256 439.999H273.9L279.4 422.999ZM421.8 311.699L427.3 328.699H445.3L430.8 339.199L436.3 356.199L421.8 345.699L407.3 356.199L412.9 339.199L398.4 328.699H416.3L421.8 311.699ZM457.5 144.699L463 161.699H481L466.5 172.199L472.1 189.199L457.6 178.699L443.1 189.199L448.7 172.199L434.2 161.699H452L457.5 144.699ZM466.3 267.099L471.9 284.099H489.7L475.3 294.599L480.8 311.599L466.3 301.099L451.9 311.699L457.4 294.699L442.9 284.099H460.9L466.3 267.099ZM305 382.999L321 390.999L333.6 378.399L330.8 396.099L346.8 404.199L329 406.999L326.2 424.699L318.1 408.699L300.4 411.499L313.1 398.899L305 382.999ZM305 316.199L321 324.299L333.6 311.699L330.8 329.299L346.8 337.399L329.1 340.199L326.3 357.899L318.2 341.899L300.5 344.799L313.2 332.099L305 316.199ZM360.7 358.999L376.7 367.099L389.3 354.499L386.5 372.099L402.5 380.199L384.7 382.999L382 400.699L373.8 384.699L356.2 387.599L368.8 374.899L360.7 358.999ZM360.7 215.999L376.7 224.099L389.3 211.499L386.5 229.099L402.5 237.299L384.7 240.099L382 257.699L373.8 241.699L356.2 244.599L368.8 231.899L360.7 215.999ZM414.7 214.299L430.6 222.399L443.2 209.799L440.4 227.399L456.4 235.499L438.7 238.299L435.9 255.999L427.8 239.999L410 242.999L422.7 230.299L414.7 214.299Z" fill="#FFDA44"/>
<path d="M180.802 133.6H256.002V208.8L180.802 133.6ZM133.602 180.8V256.1L208.802 256L133.602 180.8Z" fill="#0052B4"/>
</g>
</g>
<defs>
<clipPath id="clip0_1628_3788">
<rect width="512" height="512" fill="white"/>
</clipPath>
</defs>
</svg>
