<svg width="512" height="512" viewBox="0 0 512 512" fill="none" xmlns="http://www.w3.org/2000/svg">
<g clip-path="url(#clip0_1628_3799)">
<mask id="mask0_1628_3799" style="mask-type:luminance" maskUnits="userSpaceOnUse" x="0" y="0" width="512" height="512">
<path d="M256 512C397.385 512 512 397.385 512 256C512 114.615 397.385 0 256 0C114.615 0 0 114.615 0 256C0 397.385 114.615 512 256 512Z" fill="white"/>
</mask>
<g mask="url(#mask0_1628_3799)">
<path d="M0 256L256 0H512V512H0V256Z" fill="#D80027"/>
<path d="M256 256V0H0V256H256Z" fill="#0052B4"/>
<path d="M222.602 149.8L191.302 164.5L208.002 194.8L174.002 188.3L169.702 222.6L146.102 197.4L122.402 222.6L118.102 188.3L84.1016 194.8L100.802 164.5L69.6016 149.8L100.802 135.1L84.2016 104.8L118.202 111.3L122.402 77L146.102 102.3L169.702 77L174.002 111.3L208.002 104.8L191.302 135.1L222.602 149.8Z" fill="#EEEEEE"/>
<path d="M146.098 197.5C172.442 197.5 193.798 176.144 193.798 149.8C193.798 123.456 172.442 102.1 146.098 102.1C119.754 102.1 98.3984 123.456 98.3984 149.8C98.3984 176.144 119.754 197.5 146.098 197.5Z" fill="#0052B4"/>
<path d="M146.102 191.301C169.021 191.301 187.602 172.721 187.602 149.801C187.602 126.881 169.021 108.301 146.102 108.301C123.182 108.301 104.602 126.881 104.602 149.801C104.602 172.721 123.182 191.301 146.102 191.301Z" fill="#EEEEEE"/>
</g>
</g>
<defs>
<clipPath id="clip0_1628_3799">
<rect width="512" height="512" fill="white"/>
</clipPath>
</defs>
</svg>
