<svg width="512" height="512" viewBox="0 0 512 512" fill="none" xmlns="http://www.w3.org/2000/svg">
<g clip-path="url(#clip0_1628_3826)">
<mask id="mask0_1628_3826" style="mask-type:luminance" maskUnits="userSpaceOnUse" x="0" y="0" width="512" height="512">
<path d="M256 512C397.385 512 512 397.385 512 256C512 114.615 397.385 0 256 0C114.615 0 0 114.615 0 256C0 397.385 114.615 512 256 512Z" fill="white"/>
</mask>
<g mask="url(#mask0_1628_3826)">
<path d="M0 85V427L256 458L512 427V85L256 53L0 85Z" fill="#FFDA44"/>
<path d="M0 0H512V85H0V0Z" fill="#333333"/>
<path d="M0 171H512V256L256 287L0 256V171Z" fill="#D80027"/>
<path d="M0 256H512V341H0V256Z" fill="#333333"/>
<path d="M0 427H512V512H0V427Z" fill="#D80027"/>
<path d="M256.003 341.299C303.113 341.299 341.303 303.109 341.303 255.999C341.303 208.889 303.113 170.699 256.003 170.699C208.893 170.699 170.703 208.889 170.703 255.999C170.703 303.109 208.893 341.299 256.003 341.299Z" fill="#EEEEEE"/>
<path d="M287 260.001L256 247.001L264 221.001C264.62 218.129 264.486 215.146 263.609 212.342C262.733 209.538 261.145 207.009 259 205.001L267 197.001C261.915 192.015 255.12 189.154 248 189.001C244.303 188.948 240.633 189.628 237.2 191.001C233.767 192.374 230.64 194.413 228 197.001L236 205.001C232.809 208.181 231.011 212.496 231 217.001L232 222.001L220 234.001H241C241 234.001 232 247.001 227 258.001C223 269.001 227 283.001 239 288.001L245 290.001L256 300.001V312.001L245 323.001H267V300.001L277 290.001H298C299.331 287.323 300.103 284.402 300.267 281.416C300.431 278.43 299.985 275.442 298.955 272.634C297.926 269.826 296.335 267.258 294.279 265.086C292.224 262.914 289.747 261.184 287 260.001Z" fill="#333333"/>
</g>
</g>
<defs>
<clipPath id="clip0_1628_3826">
<rect width="512" height="512" fill="white"/>
</clipPath>
</defs>
</svg>
