<svg width="512" height="512" viewBox="0 0 512 512" fill="none" xmlns="http://www.w3.org/2000/svg">
<g clip-path="url(#clip0_1628_3874)">
<mask id="mask0_1628_3874" style="mask-type:luminance" maskUnits="userSpaceOnUse" x="0" y="0" width="512" height="512">
<path d="M256 512C397.385 512 512 397.385 512 256C512 114.615 397.385 0 256 0C114.615 0 0 114.615 0 256C0 397.385 114.615 512 256 512Z" fill="white"/>
</mask>
<g mask="url(#mask0_1628_3874)">
<path d="M0 0H512V512H0V0Z" fill="#338AF3"/>
<path d="M256 401C336.081 401 401 336.081 401 256C401 175.919 336.081 111 256 111C175.919 111 111 175.919 111 256C111 336.081 175.919 401 256 401Z" fill="#EEEEEE"/>
<path d="M256 367C317.304 367 367 317.304 367 256C367 194.696 317.304 145 256 145C194.696 145 145 194.696 145 256C145 317.304 194.696 367 256 367Z" fill="#338AF3"/>
<path d="M76 76H436L256 256L76 76Z" fill="#338AF3"/>
<path d="M256 345C305.153 345 345 305.153 345 256C345 206.847 305.153 167 256 167C206.847 167 167 206.847 167 256C167 305.153 206.847 345 256 345Z" fill="#EEEEEE"/>
<path d="M256 325C294.108 325 325 294.108 325 256C325 217.892 294.108 187 256 187C217.892 187 187 217.892 187 256C187 294.108 217.892 325 256 325Z" fill="#338AF3"/>
<path d="M246 178H266V334H246V178Z" fill="#EEEEEE"/>
<path d="M334 246V266H178V246H334Z" fill="#EEEEEE"/>
<path d="M304.003 193.699L318.203 207.899L207.903 318.199L193.703 304.099L304.003 193.699Z" fill="#EEEEEE"/>
<path d="M318.203 303.999L304.103 318.199L193.703 207.899L207.903 193.699L318.203 303.999Z" fill="#EEEEEE"/>
<path d="M256 300C280.301 300 300 280.301 300 256C300 231.699 280.301 212 256 212C231.699 212 212 231.699 212 256C212 280.301 231.699 300 256 300Z" fill="#EEEEEE"/>
<path d="M256 278C268.15 278 278 268.15 278 256C278 243.85 268.15 234 256 234C243.85 234 234 243.85 234 256C234 268.15 243.85 278 256 278Z" fill="#338AF3"/>
<path d="M256 452C280.301 452 300 434.091 300 412C300 389.909 280.301 372 256 372C231.699 372 212 389.909 212 412C212 434.091 231.699 452 256 452Z" fill="#EEEEEE"/>
<path d="M256 407L178 470H334L256 407Z" fill="#338AF3"/>
</g>
</g>
<defs>
<clipPath id="clip0_1628_3874">
<rect width="512" height="512" fill="white"/>
</clipPath>
</defs>
</svg>
