<svg width="512" height="512" viewBox="0 0 512 512" fill="none" xmlns="http://www.w3.org/2000/svg">
<g clip-path="url(#clip0_1628_3893)">
<mask id="mask0_1628_3893" style="mask-type:luminance" maskUnits="userSpaceOnUse" x="0" y="0" width="512" height="512">
<path d="M256 512C397.385 512 512 397.385 512 256C512 114.615 397.385 0 256 0C114.615 0 0 114.615 0 256C0 397.385 114.615 512 256 512Z" fill="white"/>
</mask>
<g mask="url(#mask0_1628_3893)">
<path d="M0 0H512V512H0V0Z" fill="#0052B4"/>
<path d="M336.8 199.7L440.8 124.6H312.8L416.8 199.7L376.8 77.5996L336.8 199.7ZM57 231.7L109 194.3H45L97 231.7L77 170.8L57 231.7ZM142.5 263.4L194.5 226H130.5L182.5 263.4L162.5 202.5L142.5 263.4ZM185 309L237 271.6H173L225 309L205 248.1L185 309ZM228 356.6L280 319.2H216L268 356.6L248 295.7L228 356.6ZM222.4 423.7L274.4 386.3H210.4L262.4 423.7L242.4 362.8L222.4 423.7ZM356 402.2L408 364.8H344L396 402.2L376 341.3L356 402.2ZM318.6 455.4L370.6 418H306.6L358.6 455.4L338.6 394.5L318.6 455.4Z" fill="#FFDA44"/>
</g>
</g>
<defs>
<clipPath id="clip0_1628_3893">
<rect width="512" height="512" fill="white"/>
</clipPath>
</defs>
</svg>
