<svg width="512" height="512" viewBox="0 0 512 512" fill="none" xmlns="http://www.w3.org/2000/svg">
<g clip-path="url(#clip0_1628_3916)">
<mask id="mask0_1628_3916" style="mask-type:luminance" maskUnits="userSpaceOnUse" x="0" y="0" width="512" height="512">
<path d="M256 512C397.385 512 512 397.385 512 256C512 114.615 397.385 0 256 0C114.615 0 0 114.615 0 256C0 397.385 114.615 512 256 512Z" fill="white"/>
</mask>
<g mask="url(#mask0_1628_3916)">
<path d="M71 0L0 34V125L16 160L0 196V256L256 320L512 256V196L496 160L512 125V34L441 0H356L324 16L292 0H220L188 16L156 0H71Z" fill="#D80027"/>
<path d="M0 256H512V512H0V256Z" fill="#0052B4"/>
<path d="M292 0L256 256L356 0H292ZM256 256L512 34V0H441L256 256ZM256 256L512 196V125L256 256ZM256 256L0 125V196L256 256ZM256 256L71 0H0V35L256 256ZM256 256L220 0H156L256 256Z" fill="#FFDA44"/>
<path d="M256 128L339 384L122 225H390L173 384L256 128Z" fill="#FF9811"/>
</g>
</g>
<defs>
<clipPath id="clip0_1628_3916">
<rect width="512" height="512" fill="white"/>
</clipPath>
</defs>
</svg>
