<svg width="512" height="512" viewBox="0 0 512 512" fill="none" xmlns="http://www.w3.org/2000/svg">
<g clip-path="url(#clip0_1628_3907)">
<mask id="mask0_1628_3907" style="mask-type:luminance" maskUnits="userSpaceOnUse" x="0" y="0" width="512" height="512">
<path d="M256 512C397.385 512 512 397.385 512 256C512 114.615 397.385 0 256 0C114.615 0 0 114.615 0 256C0 397.385 114.615 512 256 512Z" fill="white"/>
</mask>
<g mask="url(#mask0_1628_3907)">
<path d="M0 0H512V512H0V0Z" fill="#D80027"/>
<path d="M256 70L5 256L256 442L507 256L256 70Z" fill="#0052B4"/>
<path d="M255.997 129.999L84.9969 255.999L255.997 381.999L426.997 255.999L255.997 129.999ZM242.597 124.299L277.297 99.2992H234.597L269.297 124.299L255.997 83.6992L242.597 124.299ZM46.4969 277.399L73.6969 244.299L32.2969 255.399L72.3969 270.399L48.9969 234.599L46.4969 277.399ZM465.497 277.399L438.297 244.299L479.697 255.399L439.597 270.399L462.997 234.599L465.497 277.399ZM319.797 173.399L346.997 140.299L305.597 151.399L345.697 166.399L322.297 130.599L319.797 173.399ZM390.097 225.399L417.297 192.299L375.897 203.399L415.997 218.399L392.597 182.599L390.097 225.399ZM192.197 173.399L164.997 140.299L206.397 151.399L166.297 166.399L189.697 130.599L192.197 173.399ZM121.897 225.399L94.6969 192.299L136.097 203.399L95.9969 218.399L119.397 182.599L121.897 225.399ZM108.897 329.399L136.097 296.299L94.5969 307.399L134.797 322.399L111.397 286.599L108.897 329.399ZM179.197 381.399L206.397 348.299L164.997 359.399L205.097 374.399L181.697 338.599L179.197 381.399ZM242.697 428.299L277.397 403.399H234.697L269.397 428.299L256.097 387.699L242.697 428.299ZM403.097 329.399L375.897 296.299L417.397 307.399L377.197 322.399L400.597 286.599L403.097 329.399ZM332.797 381.399L305.597 348.299L346.997 359.399L306.897 374.399L330.297 338.599L332.797 381.399Z" fill="#EEEEEE"/>
<path d="M242.7 204.7L277.4 179.7H234.7L269.4 204.7L256.1 164L242.7 204.7ZM203.5 307.7L238.2 282.7H195.5L230.2 307.7L216.9 267L203.5 307.7ZM281.7 307.7L316.4 282.7H273.7L308.4 307.7L295.1 267L281.7 307.7ZM242.6 303.3L277.3 328.3H234.6L269.3 303.3L256 344L242.6 303.3ZM160 223H352V255H160V223Z" fill="#0052B4"/>
</g>
</g>
<defs>
<clipPath id="clip0_1628_3907">
<rect width="512" height="512" fill="white"/>
</clipPath>
</defs>
</svg>
