<svg width="512" height="512" viewBox="0 0 512 512" fill="none" xmlns="http://www.w3.org/2000/svg">
<g clip-path="url(#clip0_1628_3936)">
<mask id="mask0_1628_3936" style="mask-type:luminance" maskUnits="userSpaceOnUse" x="0" y="0" width="512" height="512">
<path d="M256 512C397.385 512 512 397.385 512 256C512 114.615 397.385 0 256 0C114.615 0 0 114.615 0 256C0 397.385 114.615 512 256 512Z" fill="white"/>
</mask>
<g mask="url(#mask0_1628_3936)">
<path d="M0 0H512V167L448 256L512 345V512H0V345L64 256L0 167V0Z" fill="#0052B4"/>
<path d="M0 167H512V345H0V167Z" fill="#EEEEEE"/>
<path d="M344.3 299.799C333.994 328.062 314.062 351.791 288.004 366.823C261.945 381.854 231.425 387.227 201.8 381.999C172.168 376.781 145.322 361.291 125.974 338.249C106.627 315.207 96.0141 286.087 96 255.999C96.0141 225.912 106.627 196.791 125.974 173.749C145.322 150.707 172.168 135.217 201.8 129.999C231.425 124.771 261.945 130.144 288.004 145.175C314.062 160.207 333.994 183.936 344.3 212.199L224 255.999L344.3 299.799Z" fill="#D80027"/>
<path d="M224 320C259.346 320 288 291.346 288 256C288 220.654 259.346 192 224 192C188.654 192 160 220.654 160 256C160 291.346 188.654 320 224 320Z" fill="#FFDA44"/>
</g>
</g>
<defs>
<clipPath id="clip0_1628_3936">
<rect width="512" height="512" fill="white"/>
</clipPath>
</defs>
</svg>
