<svg width="512" height="512" viewBox="0 0 512 512" fill="none" xmlns="http://www.w3.org/2000/svg">
<g clip-path="url(#clip0_1628_3925)">
<mask id="mask0_1628_3925" style="mask-type:luminance" maskUnits="userSpaceOnUse" x="0" y="0" width="512" height="512">
<path d="M256 512C397.385 512 512 397.385 512 256C512 114.615 397.385 0 256 0C114.615 0 0 114.615 0 256C0 397.385 114.615 512 256 512Z" fill="white"/>
</mask>
<g mask="url(#mask0_1628_3925)">
<path d="M0 0H512V416L256 448L0 416V0Z" fill="#EEEEEE"/>
<path d="M396 280L329 272L295 275L271 273L217 271L124 284L116 296H415L396 280Z" fill="#6DA544"/>
<path d="M389 273L379 240L370 196L347 173L315 160L265 163L224 155L174 179L145 188L136 208L129 223L140 242L150 244L166 243L172 236L200 228L188 259L177 273L158 282L171 285L186 286L205 274L231 250L242 253L256 266L240 278L256 279L266 276L275 260L271 241L282 242L292 245L293 268L279 276L280 282H306L340 252L355 264L367 268L361 276L362 281H379L389 274V273ZM84 340H262V372H84V340Z" fill="#584528"/>
<path d="M0 416H512V512H0V416Z" fill="#D80027"/>
<path d="M288 340H428V372H288V340Z" fill="#584528"/>
<path d="M71 182L140 132H55L124 182L98 101L71 182Z" fill="#D80027"/>
</g>
</g>
<defs>
<clipPath id="clip0_1628_3925">
<rect width="512" height="512" fill="white"/>
</clipPath>
</defs>
</svg>
