<svg width="512" height="512" viewBox="0 0 512 512" fill="none" xmlns="http://www.w3.org/2000/svg">
<g clip-path="url(#clip0_1628_3962)">
<mask id="mask0_1628_3962" style="mask-type:luminance" maskUnits="userSpaceOnUse" x="0" y="0" width="512" height="512">
<path d="M256 512C397.385 512 512 397.385 512 256C512 114.615 397.385 0 256 0C114.615 0 0 114.615 0 256C0 397.385 114.615 512 256 512Z" fill="white"/>
</mask>
<g mask="url(#mask0_1628_3962)">
<path d="M0 0H512V186L448 234L512 282V339L448 387L512 435V512H0V435L64 387L0 339V282L64 234L0 186V0Z" fill="#EEEEEE"/>
<path d="M0 186H512V282H0V186ZM0 339H512V435H0V339ZM224 158L307 98H205L288 158L256 60L224 158ZM342 158L425 98H323L406 158L374 60L342 158ZM106 158L189 98H87L170 158L138 60L106 158Z" fill="#D80027"/>
</g>
</g>
<defs>
<clipPath id="clip0_1628_3962">
<rect width="512" height="512" fill="white"/>
</clipPath>
</defs>
</svg>
