<svg width="512" height="512" viewBox="0 0 512 512" fill="none" xmlns="http://www.w3.org/2000/svg">
<g clip-path="url(#clip0_1628_3969)">
<mask id="mask0_1628_3969" style="mask-type:luminance" maskUnits="userSpaceOnUse" x="0" y="0" width="512" height="512">
<path d="M256 512C397.385 512 512 397.385 512 256C512 114.615 397.385 0 256 0C114.615 0 0 114.615 0 256C0 397.385 114.615 512 256 512Z" fill="white"/>
</mask>
<g mask="url(#mask0_1628_3969)">
<path d="M512 0V171L448 256L512 341V512H0V341L341 0H512Z" fill="#D80027"/>
<path d="M341 171H512V341H341L277 256L341 171Z" fill="#EEEEEE"/>
<path d="M0 0H341V341H0V0Z" fill="#0052B4"/>
<path d="M184 133C173.391 133 163.217 137.214 155.716 144.716C148.214 152.217 144 162.391 144 173V233H224V173C224 162.391 219.786 152.217 212.284 144.716C204.783 137.214 194.609 133 184 133Z" fill="#FFDA44"/>
<path d="M167 105L219 68H155L207 105L187 44L167 105ZM268 167L305 219V155L268 207L329 187L268 167ZM206 268L154 305H218L166 268L186 329L206 268ZM105 207L68 155V219L105 167L44 187L105 207ZM230 115L293 125L248 80L258 143L287 86L230 115ZM258 230L248 293L293 248L230 258L287 287L258 230ZM143 258L80 248L125 293L115 230L86 287L143 258ZM115 143L125 80L80 125L143 115L86 86L115 143Z" fill="#EEEEEE"/>
</g>
</g>
<defs>
<clipPath id="clip0_1628_3969">
<rect width="512" height="512" fill="white"/>
</clipPath>
</defs>
</svg>
