<svg width="512" height="512" viewBox="0 0 512 512" fill="none" xmlns="http://www.w3.org/2000/svg">
<g clip-path="url(#clip0_1628_3979)">
<mask id="mask0_1628_3979" style="mask-type:luminance" maskUnits="userSpaceOnUse" x="0" y="0" width="512" height="512">
<path d="M256 512C397.385 512 512 397.385 512 256C512 114.615 397.385 0 256 0C114.615 0 0 114.615 0 256C0 397.385 114.615 512 256 512Z" fill="white"/>
</mask>
<g mask="url(#mask0_1628_3979)">
<path d="M0 170L256 106L512 170V342L256 406L0 342V170Z" fill="#EEEEEE"/>
<path d="M0 0H512V170H0V0Z" fill="#D80027"/>
<path d="M0 342H512V512H0V342Z" fill="#0052B4"/>
<path d="M256 416C344.366 416 416 344.366 416 256C416 167.634 344.366 96 256 96C167.634 96 96 167.634 96 256C96 344.366 167.634 416 256 416Z" fill="#0052B4"/>
<path d="M256 360C313.438 360 360 313.438 360 256C360 198.562 313.438 152 256 152C198.562 152 152 198.562 152 256C152 313.438 198.562 360 256 360Z" fill="#EEEEEE"/>
<path d="M240.002 148.4L281.602 118.4H230.402L272.002 148.4L256.002 99.5996L240.002 148.4ZM363.602 240L393.602 281.6V230.4L363.602 272L412.402 256L363.602 240ZM272.002 363.6L230.402 393.6H281.602L240.002 363.6L256.002 412.4L272.002 363.6ZM148.402 272L118.402 230.4V281.6L148.402 240L99.6016 256L148.402 272ZM295.902 154.8L347.002 149.6L302.602 124L323.702 170.8L334.202 120.5L295.902 154.8ZM357.202 295.9L362.402 347L388.002 302.6L341.202 323.7L391.402 334.2L357.202 295.9ZM216.102 357.2L165.002 362.4L209.402 388L188.302 341.2L177.802 391.4L216.102 357.2ZM154.802 216.1L149.602 165L124.002 209.4L170.802 188.3L120.602 177.8L154.802 216.1ZM341.202 188.3L388.002 209.4L362.402 165L357.202 216.1L391.502 177.8L341.202 188.3ZM323.702 341.2L302.602 388L347.002 362.4L295.902 357.2L334.202 391.4L323.702 341.2ZM170.802 323.7L124.002 302.6L149.602 347L154.802 295.9L120.502 334.2L170.802 323.7ZM188.302 170.8L209.402 124L165.002 149.6L216.102 154.8L177.802 120.6L188.302 170.8Z" fill="#EEEEEE"/>
<path d="M256.002 168C240.969 168.021 226.193 171.892 213.081 179.244C199.969 186.596 188.959 197.185 181.102 210H331.002C323.135 197.17 312.109 186.573 298.979 179.219C285.848 171.866 271.051 168.003 256.002 168Z" fill="#338AF3"/>
<path d="M256 336C286.928 336 312 310.928 312 280C312 249.072 286.928 224 256 224C225.072 224 200 249.072 200 280C200 310.928 225.072 336 256 336Z" fill="#FF9811"/>
<path d="M288 280C288 288.487 284.629 296.626 278.627 302.627C272.626 308.629 264.487 312 256 312L240 280L256 248C264.487 248 272.626 251.371 278.627 257.373C284.629 263.374 288 271.513 288 280Z" fill="#EEEEEE"/>
<path d="M256 248C247.513 248 239.374 251.371 233.373 257.373C227.371 263.374 224 271.513 224 280L240 296L256 280V248Z" fill="#0052B4"/>
<path d="M256 312C247.513 312 239.374 308.629 233.373 302.627C227.371 296.626 224 288.487 224 280H256V312Z" fill="#D80027"/>
</g>
</g>
<defs>
<clipPath id="clip0_1628_3979">
<rect width="512" height="512" fill="white"/>
</clipPath>
</defs>
</svg>
