<svg width="512" height="512" viewBox="0 0 512 512" fill="none" xmlns="http://www.w3.org/2000/svg">
<g clip-path="url(#clip0_1628_4023)">
<mask id="mask0_1628_4023" style="mask-type:luminance" maskUnits="userSpaceOnUse" x="0" y="0" width="512" height="512">
<path d="M256 512C397.385 512 512 397.385 512 256C512 114.615 397.385 0 256 0C114.615 0 0 114.615 0 256C0 397.385 114.615 512 256 512Z" fill="white"/>
</mask>
<g mask="url(#mask0_1628_4023)">
<path d="M0 0H512V512H0V0Z" fill="#FFDA44"/>
<path d="M256 56C249 56 244 61 244 68V196H220V104C220 100.817 218.736 97.7652 216.485 95.5147C214.235 93.2643 211.183 92 208 92C204.817 92 201.765 93.2643 199.515 95.5147C197.264 97.7652 196 100.817 196 104V196H104C100.817 196 97.7652 197.264 95.5147 199.515C93.2643 201.765 92 204.817 92 208C92 211.183 93.2643 214.235 95.5147 216.485C97.7652 218.736 100.817 220 104 220H196V244H68C64.8174 244 61.7652 245.264 59.5147 247.515C57.2643 249.765 56 252.817 56 256C56 259.183 57.2643 262.235 59.5147 264.485C61.7652 266.736 64.8174 268 68 268H196V292H104C100.817 292 97.7652 293.264 95.5147 295.515C93.2643 297.765 92 300.817 92 304C92 307.183 93.2643 310.235 95.5147 312.485C97.7652 314.736 100.817 316 104 316H196V408C196 415 201 420 208 420C215 420 220 415 220 408V316H244V444C244 451 249 456 256 456C263 456 268 451 268 444V316H292V408C292 415 297 420 304 420C311 420 316 415 316 408V316H408C415 316 420 311 420 304C420 297 415 292 408 292H316V268H444C451 268 456 263 456 256C456 249 451 244 444 244H316V220H408C415 220 420 215 420 208C420 201 415 196 408 196H316V104C316 100.817 314.736 97.7652 312.485 95.5147C310.235 93.2643 307.183 92 304 92C300.817 92 297.765 93.2643 295.515 95.5147C293.264 97.7652 292 100.817 292 104V196H268V68C268 61 263 56 256 56Z" fill="#D80027"/>
<path d="M256 344C304.601 344 344 304.601 344 256C344 207.399 304.601 168 256 168C207.399 168 168 207.399 168 256C168 304.601 207.399 344 256 344Z" fill="#D80027"/>
<path d="M256 320C291.346 320 320 291.346 320 256C320 220.654 291.346 192 256 192C220.654 192 192 220.654 192 256C192 291.346 220.654 320 256 320Z" fill="#FFDA44"/>
</g>
</g>
<defs>
<clipPath id="clip0_1628_4023">
<rect width="512" height="512" fill="white"/>
</clipPath>
</defs>
</svg>
