<svg width="512" height="512" viewBox="0 0 512 512" fill="none" xmlns="http://www.w3.org/2000/svg">
<g clip-path="url(#clip0_1628_4012)">
<mask id="mask0_1628_4012" style="mask-type:luminance" maskUnits="userSpaceOnUse" x="0" y="0" width="512" height="512">
<path d="M256 512C397.385 512 512 397.385 512 256C512 114.615 397.385 0 256 0C114.615 0 0 114.615 0 256C0 397.385 114.615 512 256 512Z" fill="white"/>
</mask>
<g mask="url(#mask0_1628_4012)">
<path d="M0 0H232L296 256L232 512H0V0Z" fill="#0052B4"/>
<path d="M232 0H512V256L372 320L232 256V0Z" fill="#D80027"/>
<path d="M232 256H512V512H232V256Z" fill="#EEEEEE"/>
<path d="M0 0H232V512H0V0Z" fill="#0052B4"/>
<path d="M91 294L156 247H76L141 294L116 218L91 294Z" fill="#EEEEEE"/>
<path d="M24 224H64V288H24V224ZM168 224H208V288H168V224ZM64 92V108H24V140H64V124H168V140H208V108H168V92H64ZM64 420V404H24V372H64V388H168V372H208V404H168V420H64Z" fill="#FFDA44"/>
</g>
</g>
<defs>
<clipPath id="clip0_1628_4012">
<rect width="512" height="512" fill="white"/>
</clipPath>
</defs>
</svg>
