<svg width="512" height="512" viewBox="0 0 512 512" fill="none" xmlns="http://www.w3.org/2000/svg">
<g clip-path="url(#clip0_1628_4032)">
<mask id="mask0_1628_4032" style="mask-type:luminance" maskUnits="userSpaceOnUse" x="0" y="0" width="512" height="512">
<path d="M256 512C397.385 512 512 397.385 512 256C512 114.615 397.385 0 256 0C114.615 0 0 114.615 0 256C0 397.385 114.615 512 256 512Z" fill="white"/>
</mask>
<g mask="url(#mask0_1628_4032)">
<path d="M0 0H512V512H0V0Z" fill="#EEEEEE"/>
<path d="M204 296V312H164V344H204V328H308V344H348V312H308V296H204Z" fill="#0052B4"/>
<path d="M236 107L288 69H224L276 107L256 46L236 107ZM406 236L443 288V224L406 276L467 256L406 236ZM276 406L224 443H288L236 406L256 467L276 406ZM107 276L69 224V288L107 236L46 256L107 276ZM313 117L377 110L322 78L348 137L361 74L313 117ZM396 313L402 377L434 322L375 348L438 361L396 313ZM199 396L135 402L190 434L164 375L151 438L199 396ZM117 199L110 135L78 190L137 164L74 151L117 199ZM376 164L434 190L402 135L395 199L438 151L376 164ZM348 376L322 434L377 402L313 395L361 438L348 376ZM137 348L78 322L110 377L116 313L74 361L137 348ZM164 137L190 78L135 110L199 116L151 74L164 137ZM256 134C249.635 134 243.53 136.529 239.029 141.029C234.529 145.53 232 151.635 232 158C231.922 163.026 233.425 167.95 236.295 172.077C239.166 176.204 243.26 179.325 248 181V198H232V214H248V253C228 251 218 238 215 235L226 224H194V256L204 246C210.383 253.575 218.344 259.664 227.326 263.841C236.308 268.018 246.094 270.182 256 270.182C265.906 270.182 275.692 268.018 284.674 263.841C293.656 259.664 301.617 253.575 308 246L318 256V224H286L297 235C294 238 284 251 264 253V214H280V198H264V181C268.74 179.325 272.834 176.204 275.705 172.077C278.575 167.95 280.078 163.026 280 158C280 151.635 277.471 145.53 272.971 141.029C268.47 136.529 262.365 134 256 134ZM256 150C258.122 150 260.157 150.843 261.657 152.343C263.157 153.843 264 155.878 264 158C264 160.122 263.157 162.157 261.657 163.657C260.157 165.157 258.122 166 256 166C253.878 166 251.843 165.157 250.343 163.657C248.843 162.157 248 160.122 248 158C248 155.878 248.843 153.843 250.343 152.343C251.843 150.843 253.878 150 256 150Z" fill="#FFDA44"/>
</g>
</g>
<defs>
<clipPath id="clip0_1628_4032">
<rect width="512" height="512" fill="white"/>
</clipPath>
</defs>
</svg>
