<svg width="512" height="512" viewBox="0 0 512 512" fill="none" xmlns="http://www.w3.org/2000/svg">
<g clip-path="url(#clip0_1628_4040)">
<mask id="mask0_1628_4040" style="mask-type:luminance" maskUnits="userSpaceOnUse" x="0" y="0" width="512" height="512">
<path d="M256 512C397.385 512 512 397.385 512 256C512 114.615 397.385 0 256 0C114.615 0 0 114.615 0 256C0 397.385 114.615 512 256 512Z" fill="white"/>
</mask>
<g mask="url(#mask0_1628_4040)">
<path d="M448 0H512V512H448L432 256L448 0Z" fill="#0052B4"/>
<path d="M416 0H448V512H416L400 256L416 0Z" fill="#EEEEEE"/>
<path d="M0 0H416V512H0V0Z" fill="#D80027"/>
<path d="M208 416C296.366 416 368 344.366 368 256C368 167.634 296.366 96 208 96C119.634 96 48 167.634 48 256C48 344.366 119.634 416 208 416Z" fill="#EEEEEE"/>
<path d="M208 384C278.692 384 336 326.692 336 256C336 185.308 278.692 128 208 128C137.308 128 80 185.308 80 256C80 326.692 137.308 384 208 384Z" fill="#0052B4"/>
<path d="M145 284L205 367V265L145 348L243 316L145 284ZM160 156L138 256L214 188L112 199L201 250L160 156ZM307 205L265 298L244 198L319 267L217 256L307 205Z" fill="#EEEEEE"/>
</g>
</g>
<defs>
<clipPath id="clip0_1628_4040">
<rect width="512" height="512" fill="white"/>
</clipPath>
</defs>
</svg>
