<svg width="512" height="512" viewBox="0 0 512 512" fill="none" xmlns="http://www.w3.org/2000/svg">
<g clip-path="url(#clip0_1628_4051)">
<mask id="mask0_1628_4051" style="mask-type:luminance" maskUnits="userSpaceOnUse" x="0" y="0" width="512" height="512">
<path d="M256 512C397.385 512 512 397.385 512 256C512 114.615 397.385 0 256 0C114.615 0 0 114.615 0 256C0 397.385 114.615 512 256 512Z" fill="white"/>
</mask>
<g mask="url(#mask0_1628_4051)">
<path d="M0 0H167L231 256L167 512H0V0Z" fill="#0052B4"/>
<path d="M43.5 317L147.5 242H19.5L123.5 317L83.5 195L43.5 317ZM167 0H512V256L339 320L167 256V0Z" fill="#EEEEEE"/>
<path d="M167 256H512V512H167V256Z" fill="#D80027"/>
</g>
</g>
<defs>
<clipPath id="clip0_1628_4051">
<rect width="512" height="512" fill="white"/>
</clipPath>
</defs>
</svg>
