<svg width="512" height="512" viewBox="0 0 512 512" fill="none" xmlns="http://www.w3.org/2000/svg">
<g clip-path="url(#clip0_1628_4068)">
<mask id="mask0_1628_4068" style="mask-type:luminance" maskUnits="userSpaceOnUse" x="0" y="0" width="512" height="512">
<path d="M256 512C397.385 512 512 397.385 512 256C512 114.615 397.385 0 256 0C114.615 0 0 114.615 0 256C0 397.385 114.615 512 256 512Z" fill="white"/>
</mask>
<g mask="url(#mask0_1628_4068)">
<path d="M0 256L256 0H512V55.7L491.3 90.2L512 122.4V189.2L490.8 221.9L512 256V322.8L488 354.5L512 389.6V456.3L252.9 484.6L0 456.3V389.6L27.1 356.3L0 322.8V256Z" fill="#338AF3"/>
<path d="M256 255.999H512V189.199H236.9L256 255.999ZM236.9 122.399H512V55.6992H236.9V122.399ZM512 511.999V456.299H0V511.999H512ZM0 389.599H512V322.799H0V389.599Z" fill="#EEEEEE"/>
<path d="M0 0H256V256H0V0Z" fill="#EEEEEE"/>
<path d="M222.602 149.8L191.302 164.5L208.002 194.8L174.002 188.3L169.702 222.6L146.102 197.4L122.402 222.6L118.102 188.3L84.2016 194.8L100.802 164.5L69.6016 149.8L100.802 135.1L84.2016 104.8L118.202 111.3L122.402 77L146.102 102.3L169.702 77L174.002 111.3L208.002 104.8L191.302 135.1L222.602 149.8Z" fill="#FFDA44"/>
</g>
</g>
<defs>
<clipPath id="clip0_1628_4068">
<rect width="512" height="512" fill="white"/>
</clipPath>
</defs>
</svg>
