<svg width="512" height="512" viewBox="0 0 512 512" fill="none" xmlns="http://www.w3.org/2000/svg">
<g clip-path="url(#clip0_1628_4077)">
<mask id="mask0_1628_4077" style="mask-type:luminance" maskUnits="userSpaceOnUse" x="0" y="0" width="512" height="512">
<path d="M256 512C397.385 512 512 397.385 512 256C512 114.615 397.385 0 256 0C114.615 0 0 114.615 0 256C0 397.385 114.615 512 256 512Z" fill="white"/>
</mask>
<g mask="url(#mask0_1628_4077)">
<path d="M0 178L254.2 156L512 178V200.3L471.8 254.4L512 311.7V334L258 357.4L0 334V311.7L36.7 252.3L0 200.3V178Z" fill="#D80027"/>
<path d="M0 0H512V178H0V0Z" fill="#338AF3"/>
<path d="M0 200.301H512V311.701H0V200.301Z" fill="#EEEEEE"/>
<path d="M0 334H512V512H0V334Z" fill="#6DA544"/>
<path d="M117.198 105.7C117.185 94.2878 121.076 83.2146 128.225 74.3194C135.374 65.4241 145.35 59.242 156.498 56.7998C152.981 56.051 149.394 55.6822 145.798 55.6998C138.845 55.8083 131.992 57.3659 125.675 60.2729C119.358 63.18 113.717 67.3727 109.112 72.5832C104.507 77.7937 101.04 83.9073 98.9318 90.5336C96.8235 97.1599 96.1204 104.153 96.8676 111.066C97.6148 117.98 99.7958 124.661 103.271 130.684C106.747 136.707 111.44 141.939 117.052 146.045C122.664 150.151 129.07 153.042 135.862 154.532C142.654 156.022 149.683 156.079 156.498 154.7C133.998 149.7 117.198 129.7 117.198 105.7ZM186.198 128.5L189.498 138.9H200.498L191.498 145.4L194.998 155.8L185.998 149.4L177.298 155.8L180.698 145.4L171.698 138.9H182.698L186.198 128.5ZM221.198 128.5L224.598 138.9H235.598L226.598 145.4L229.998 155.8L221.198 149.4L212.198 155.8L215.698 145.4L206.698 138.9H217.698L221.198 128.5ZM256.198 128.5L259.598 138.9H270.598L261.598 145.4L265.098 155.8L256.098 149.4L247.298 155.8L250.698 145.4L241.698 138.9H252.698L256.198 128.5ZM291.198 128.5L294.598 138.9H305.598L296.598 145.4L300.098 155.8L291.098 149.4L282.298 155.8L285.698 145.4L276.698 138.9H287.698L291.198 128.5ZM326.198 128.5L329.598 138.9H340.598L331.598 145.4L335.098 155.8L326.098 149.4L317.298 155.8L320.698 145.4L311.898 138.9H322.898L326.198 128.5ZM221.198 92.0998L224.598 102.5H235.598L226.598 109L229.998 119.4L221.198 112.9L212.198 119.4L215.698 109L206.698 102.5H217.698L221.198 92.0998ZM256.198 92.0998L259.598 102.5H270.598L261.598 109L265.098 119.4L256.098 112.9L247.298 119.4L250.698 109L241.698 102.5H252.698L256.198 92.0998ZM291.198 92.0998L294.598 102.5H305.598L296.598 109L300.098 119.4L291.098 112.9L282.298 119.4L285.698 109L276.698 102.5H287.698L291.198 92.0998ZM326.198 92.0998L329.598 102.5H340.598L331.598 109L335.098 119.4L326.098 112.9L317.298 119.4L320.698 109L311.898 102.5H322.898L326.198 92.0998ZM256.198 55.6998L259.598 66.0998H270.598L261.598 72.4998L265.198 82.9998L256.198 76.4998L247.398 82.9998L250.798 72.4998L241.798 66.0998H252.798L256.198 55.6998ZM291.198 55.6998L294.598 66.0998H305.598L296.598 72.4998L300.198 82.9998L291.198 76.4998L282.398 82.9998L285.798 72.4998L276.798 66.0998H287.798L291.198 55.6998ZM326.198 55.6998L329.598 66.0998H340.598L331.598 72.4998L335.198 82.9998L326.198 76.4998L317.398 82.9998L320.798 72.4998L311.998 66.0998H322.998L326.198 55.6998Z" fill="#EEEEEE"/>
</g>
</g>
<defs>
<clipPath id="clip0_1628_4077">
<rect width="512" height="512" fill="white"/>
</clipPath>
</defs>
</svg>
