<svg width="512" height="512" viewBox="0 0 512 512" fill="none" xmlns="http://www.w3.org/2000/svg">
<g clip-path="url(#clip0_1628_4087)">
<mask id="mask0_1628_4087" style="mask-type:luminance" maskUnits="userSpaceOnUse" x="0" y="0" width="512" height="512">
<path d="M256 512C397.385 512 512 397.385 512 256C512 114.615 397.385 0 256 0C114.615 0 0 114.615 0 256C0 397.385 114.615 512 256 512Z" fill="white"/>
</mask>
<g mask="url(#mask0_1628_4087)">
<path d="M0 0H256L307.7 254.7L256 512H0V0Z" fill="#FFDA44"/>
<path d="M256 0H512V512H256V0Z" fill="#EEEEEE"/>
<path d="M354.002 222.801L402.102 286.401C397.741 292.958 395.837 300.845 396.727 308.669C397.616 316.493 401.242 323.752 406.963 329.163C412.684 334.573 420.133 337.789 427.995 338.241C435.857 338.693 443.625 336.353 449.929 331.634C456.233 326.915 460.667 320.12 462.448 312.45C464.229 304.779 463.242 296.726 459.662 289.712C456.082 282.698 450.139 277.175 442.882 274.117C435.625 271.059 427.522 270.664 420.002 273.001L345.002 173.801L327.302 187.201L300.602 207.401L327.502 242.901L354.102 222.801H354.002ZM423.302 295.901C424.47 295.021 425.801 294.38 427.217 294.014C428.634 293.649 430.109 293.566 431.557 293.77C433.006 293.974 434.4 294.462 435.66 295.205C436.92 295.948 438.022 296.932 438.902 298.101C439.781 299.27 440.422 300.6 440.788 302.017C441.154 303.433 441.237 304.908 441.032 306.356C440.828 307.805 440.341 309.199 439.597 310.459C438.854 311.719 437.87 312.821 436.702 313.701C434.341 315.478 431.371 316.244 428.446 315.832C425.52 315.419 422.879 313.861 421.102 311.501C419.325 309.14 418.558 306.171 418.971 303.245C419.383 300.32 420.941 297.678 423.302 295.901Z" fill="#ACABB1"/>
<path d="M436.6 242.901L463.4 207.401L436.8 187.201L419 173.801L344 273.001C336.486 270.633 328.377 270.998 321.106 274.03C313.834 277.063 307.869 282.568 304.264 289.574C300.659 296.579 299.647 304.633 301.405 312.312C303.164 319.992 307.58 326.802 313.875 331.541C320.169 336.279 327.935 338.64 335.802 338.206C343.668 337.772 351.128 334.572 356.863 329.17C362.598 323.769 366.239 316.514 367.142 308.687C368.046 300.861 366.154 292.967 361.8 286.401L409.8 222.801L436.6 242.801V242.901ZM342.8 311.501C341.92 312.67 340.819 313.654 339.559 314.397C338.299 315.14 336.904 315.627 335.456 315.832C334.007 316.036 332.533 315.953 331.116 315.587C329.7 315.222 328.369 314.581 327.2 313.701C326.031 312.821 325.047 311.719 324.304 310.459C323.561 309.199 323.074 307.805 322.869 306.356C322.665 304.908 322.748 303.433 323.114 302.017C323.479 300.6 324.12 299.27 325 298.101C326.777 295.74 329.419 294.182 332.345 293.77C335.27 293.357 338.24 294.124 340.6 295.901C342.961 297.678 344.519 300.32 344.931 303.245C345.344 306.171 344.577 309.14 342.8 311.501Z" fill="#FFDA44"/>
</g>
</g>
<defs>
<clipPath id="clip0_1628_4087">
<rect width="512" height="512" fill="white"/>
</clipPath>
</defs>
</svg>
