<svg width="512" height="512" viewBox="0 0 512 512" fill="none" xmlns="http://www.w3.org/2000/svg">
<g clip-path="url(#clip0_1628_4096)">
<mask id="mask0_1628_4096" style="mask-type:luminance" maskUnits="userSpaceOnUse" x="0" y="0" width="512" height="512">
<path d="M256 512C397.385 512 512 397.385 512 256C512 114.615 397.385 0 256 0C114.615 0 0 114.615 0 256C0 397.385 114.615 512 256 512Z" fill="white"/>
</mask>
<g mask="url(#mask0_1628_4096)">
<path d="M378.498 0H133.698L111.398 256L133.698 512H378.498L400.798 256L378.498 0Z" fill="#FFDA44"/>
<path d="M133.7 512V0H0V512H133.7Z" fill="#338AF3"/>
<path d="M512 0H378.5V512H512V0ZM200.4 322.8L156 256L200.5 189.2L245.2 256L200.4 322.8ZM311.8 322.8L267.1 256L311.7 189.2L356.2 256L311.8 322.8ZM256.1 411.8L211.6 345L256.1 278.3L300.6 345L256.1 411.8Z" fill="#6DA544"/>
</g>
</g>
<defs>
<clipPath id="clip0_1628_4096">
<rect width="512" height="512" fill="white"/>
</clipPath>
</defs>
</svg>
