<svg width="512" height="512" viewBox="0 0 512 512" fill="none" xmlns="http://www.w3.org/2000/svg">
<g clip-path="url(#clip0_1628_4104)">
<mask id="mask0_1628_4104" style="mask-type:luminance" maskUnits="userSpaceOnUse" x="0" y="0" width="512" height="512">
<path d="M256 512C397.385 512 512 397.385 512 256C512 114.615 397.385 0 256 0C114.615 0 0 114.615 0 256C0 397.385 114.615 512 256 512Z" fill="white"/>
</mask>
<g mask="url(#mask0_1628_4104)">
<path d="M0 144.699L255.3 108.199L512 144.699V367.299L250.5 406.999L0 367.299V144.699Z" fill="#0052B4"/>
<path d="M0 0H512V144.7H0V0Z" fill="#FFDA44"/>
<path d="M0 367.301H512V512.001H0V367.301Z" fill="#D80027"/>
<path d="M443.402 306.399L429.802 316.999L435.802 333.099L421.502 323.499L408.002 334.199L412.702 317.699L398.502 308.099L415.602 307.499L420.302 290.999L426.302 307.099L443.402 306.399ZM408.702 246.399L399.702 260.899L410.702 274.099L394.002 269.999L385.002 284.599L383.702 267.599L367.102 263.299L383.002 256.899L381.802 239.899L392.802 252.899L408.702 246.399ZM355.702 201.899L352.102 218.699L367.002 227.099L350.002 228.899L346.402 245.699L339.402 229.999L322.402 231.799L335.102 220.299L328.102 204.699L342.902 213.299L355.702 201.899ZM290.702 178.199L293.002 195.199L310.002 198.199L294.502 205.699L296.902 222.699L284.902 210.299L269.502 217.899L277.502 202.699L265.702 190.399L282.602 193.399L290.702 178.199ZM221.402 178.199L229.402 193.299L246.402 190.299L234.402 202.699L242.402 217.899L227.002 210.299L215.102 222.699L217.502 205.699L202.102 198.199L219.002 195.199L221.402 178.199ZM156.402 201.899L169.102 213.399L183.902 204.799L176.902 220.499L189.702 231.899L172.702 230.099L165.702 245.799L162.002 229.099L145.002 227.299L159.802 218.799L156.402 201.899ZM103.302 246.399L119.202 252.799L130.202 239.799L129.002 256.799L145.002 263.199L128.302 267.399L127.102 284.399L118.002 269.999L101.302 274.199L112.302 260.999L103.302 246.399ZM68.6016 306.399L85.8016 306.899L91.7016 290.899L96.4016 307.299L113.502 307.899L99.3016 317.499L104.002 334.099L90.5016 323.499L76.3016 333.099L82.2016 317.099L68.6016 306.399Z" fill="#EEEEEE"/>
</g>
</g>
<defs>
<clipPath id="clip0_1628_4104">
<rect width="512" height="512" fill="white"/>
</clipPath>
</defs>
</svg>
