<svg width="512" height="512" viewBox="0 0 512 512" fill="none" xmlns="http://www.w3.org/2000/svg">
<g clip-path="url(#clip0_1628_4113)">
<mask id="mask0_1628_4113" style="mask-type:luminance" maskUnits="userSpaceOnUse" x="0" y="0" width="512" height="512">
<path d="M256 512C397.385 512 512 397.385 512 256C512 114.615 397.385 0 256 0C114.615 0 0 114.615 0 256C0 397.385 114.615 512 256 512Z" fill="white"/>
</mask>
<g mask="url(#mask0_1628_4113)">
<path d="M256 0H512V512H0V256L256 0Z" fill="#0052B4"/>
<path d="M367.302 256L298.102 325.2C304.663 337.893 314.59 348.536 326.795 355.966C339 363.396 353.013 367.326 367.302 367.326C381.59 367.326 395.604 363.396 407.809 355.966C420.013 348.536 429.94 337.893 436.502 325.2L367.302 256Z" fill="#FFDA44"/>
<path d="M289.397 133.6V256C289.397 315.6 367.297 334 367.297 334C367.297 334 445.297 315.6 445.297 256V133.6H289.297H289.397Z" fill="#6DA544"/>
<path d="M311.703 155.801H333.903V178.101H311.703V155.801ZM311.703 205.901H333.903V228.201H311.703V205.901ZM311.703 256.001H333.903V278.301H311.703V256.001ZM400.703 155.801H423.003V178.101H400.703V155.801ZM400.703 205.901H423.003V228.201H400.703V205.901ZM400.703 256.001H423.003V278.301H400.703V256.001Z" fill="#FFDA44"/>
<path d="M0 0V32L32 64L0 96V256H32L64 224L96 256H128V173L211 256H256L248 240L256 225V211L173 128H256V96L224 64L256 32V0H96L64 32L32 0H0Z" fill="#EEEEEE"/>
<path d="M32 0V32H0V96H32V256H96V96H256V32H96V0H32ZM128 128L256 256V225L159 128H128Z" fill="#D80027"/>
<path d="M350.602 189.199H384.002V278.199H350.602V189.199Z" fill="#EEEEEE"/>
<path d="M367.302 205.9C376.525 205.9 384.002 198.423 384.002 189.2C384.002 179.977 376.525 172.5 367.302 172.5C358.078 172.5 350.602 179.977 350.602 189.2C350.602 198.423 358.078 205.9 367.302 205.9Z" fill="#A2001D"/>
</g>
</g>
<defs>
<clipPath id="clip0_1628_4113">
<rect width="512" height="512" fill="white"/>
</clipPath>
</defs>
</svg>
