<svg width="512" height="512" viewBox="0 0 512 512" fill="none" xmlns="http://www.w3.org/2000/svg">
<g clip-path="url(#clip0_1628_4126)">
<mask id="mask0_1628_4126" style="mask-type:luminance" maskUnits="userSpaceOnUse" x="0" y="0" width="512" height="512">
<path d="M256 512C397.385 512 512 397.385 512 256C512 114.615 397.385 0 256 0C114.615 0 0 114.615 0 256C0 397.385 114.615 512 256 512Z" fill="white"/>
</mask>
<g mask="url(#mask0_1628_4126)">
<path d="M0 0H512V512H0V0Z" fill="#EEEEEE"/>
<path d="M299.5 178.801C299.5 167.264 294.917 156.199 286.759 148.042C278.601 139.884 267.537 135.301 256 135.301C244.463 135.301 233.399 139.884 225.241 148.042C217.083 156.199 212.5 167.264 212.5 178.801H117C117.288 190.313 122.078 201.254 130.341 209.275C138.605 217.296 149.684 221.757 161.2 221.701H159.8C159.8 233.052 164.309 243.938 172.336 251.965C180.362 259.992 191.249 264.501 202.6 264.501L256.1 306.501L309.6 264.501C315.221 264.501 320.786 263.394 325.979 261.243C331.172 259.092 335.89 255.939 339.864 251.965C343.839 247.991 346.991 243.272 349.142 238.08C351.293 232.887 352.4 227.321 352.4 221.701H351C362.516 221.757 373.595 217.296 381.859 209.275C390.122 201.254 394.912 190.313 395.2 178.801H299.6H299.5Z" fill="#FFDA44"/>
<path d="M236.898 302.301L209.898 363.201C224.537 369.159 240.194 372.215 255.998 372.201C271.769 372.202 287.391 369.146 301.998 363.201L275.098 302.301H236.998H236.898Z" fill="#FFDA44"/>
<path d="M255.297 214L200.297 235.5V275.2C200.484 283.178 202.612 290.989 206.498 297.959C210.383 304.929 215.909 310.847 222.597 315.2L233.897 312.9L244.897 327.2C248.522 328.619 252.229 329.821 255.997 330.8C255.997 330.8 260.597 329.7 267.097 327.2L276.497 313.1L289.497 315.2C296.174 310.819 301.684 304.88 305.552 297.893C309.42 290.907 311.529 283.084 311.697 275.1V235.5L255.297 214Z" fill="#EEEEEE"/>
<path d="M61.9969 257.801L92.2969 342.001L122.097 257.801H144.797L101.397 369.101H82.9969L39.2969 257.801H62.0969H61.9969ZM411.797 369.101V257.801H433.497V369.101H411.797Z" fill="#338AF3"/>
<path d="M222.602 224.401V315.201C229.472 320.168 236.971 324.203 244.902 327.201V224.301L222.602 224.401ZM289.402 224.401V315.201C282.518 320.148 275.023 324.182 267.102 327.201V224.301L289.402 224.401Z" fill="#D80027"/>
<path d="M200.297 200.199H311.697V235.499H200.297V200.199Z" fill="#0052B4"/>
</g>
</g>
<defs>
<clipPath id="clip0_1628_4126">
<rect width="512" height="512" fill="white"/>
</clipPath>
</defs>
</svg>
