<svg width="512" height="512" viewBox="0 0 512 512" fill="none" xmlns="http://www.w3.org/2000/svg">
<g clip-path="url(#clip0_1628_4139)">
<mask id="mask0_1628_4139" style="mask-type:luminance" maskUnits="userSpaceOnUse" x="0" y="0" width="512" height="512">
<path d="M256 512C397.385 512 512 397.385 512 256C512 114.615 397.385 0 256 0C114.615 0 0 114.615 0 256C0 397.385 114.615 512 256 512Z" fill="white"/>
</mask>
<g mask="url(#mask0_1628_4139)">
<path d="M0 0H512V512H0V0Z" fill="#D80027"/>
<path d="M256 133.6L283.6 218.6H373L300.7 271L328.3 356L256 303.5L183.7 356.1L211.3 271.1L139 218.5H228.4L256 133.6Z" fill="#FFDA44"/>
</g>
</g>
<defs>
<clipPath id="clip0_1628_4139">
<rect width="512" height="512" fill="white"/>
</clipPath>
</defs>
</svg>
