<svg width="512" height="512" viewBox="0 0 512 512" fill="none" xmlns="http://www.w3.org/2000/svg">
<g clip-path="url(#clip0_1628_4146)">
<mask id="mask0_1628_4146" style="mask-type:luminance" maskUnits="userSpaceOnUse" x="0" y="0" width="512" height="512">
<path d="M256 512C397.385 512 512 397.385 512 256C512 114.615 397.385 0 256 0C114.615 0 0 114.615 0 256C0 397.385 114.615 512 256 512Z" fill="white"/>
</mask>
<g mask="url(#mask0_1628_4146)">
<path d="M512 222.6V0H0L215.6 239.4L512 222.6Z" fill="#D80027"/>
<path d="M512 289.4V512H0L216.5 272L512 289.4Z" fill="#6DA544"/>
<path d="M0 0L222.6 222.6H512V244.8L501.1 256.6L512 267V289.4H222.6L0 512V480.5L8 457.5L0 448.9V63L9.5 52.6L0 31.6V0Z" fill="#333333"/>
<path d="M512 244.799H213.2L0 31.6992V62.9992L192.8 255.999L0 448.999V480.499L213.2 266.999H512V244.799Z" fill="#FFDA44"/>
<path d="M62.1984 310.598V288.998C72.4888 288.998 82.3578 284.911 89.6342 277.634C96.9106 270.358 100.998 260.489 100.998 250.198C100.919 242.957 97.9873 236.039 92.8386 230.947C87.6899 225.854 80.7402 222.998 73.4984 222.998C68.5389 222.998 63.7825 224.969 60.2755 228.476C56.7686 231.982 54.7984 236.739 54.7984 241.698C54.7984 244.881 56.0627 247.933 58.3132 250.184C60.5636 252.434 63.6158 253.698 66.7984 253.698C70.4984 253.698 73.5984 250.698 73.5984 246.898H94.9984C94.972 254.36 91.9892 261.507 86.7036 266.774C81.4179 272.041 74.2603 274.998 66.7984 274.998C48.3984 274.998 33.3984 259.998 33.3984 241.598C33.3984 219.398 51.3984 201.398 73.3984 201.398C86.394 201.398 98.8574 206.561 108.047 215.75C117.236 224.939 122.398 237.403 122.398 250.398C122.398 283.498 95.3984 310.598 62.1984 310.598Z" fill="#FFDA44"/>
</g>
</g>
<defs>
<clipPath id="clip0_1628_4146">
<rect width="512" height="512" fill="white"/>
</clipPath>
</defs>
</svg>
