<svg width="512" height="512" viewBox="0 0 512 512" fill="none" xmlns="http://www.w3.org/2000/svg">
<g clip-path="url(#clip0_1628_4167)">
<mask id="mask0_1628_4167" style="mask-type:luminance" maskUnits="userSpaceOnUse" x="0" y="0" width="512" height="512">
<path d="M256 512C397.385 512 512 397.385 512 256C512 114.615 397.385 0 256 0C114.615 0 0 114.615 0 256C0 397.385 114.615 512 256 512Z" fill="white"/>
</mask>
<g mask="url(#mask0_1628_4167)">
<path d="M0 73V0H73L512 439V512H439L0 73Z" fill="#EEEEEE"/>
<path d="M73 0V73H146V146H219V219H293V293H366V366H439V439H512V366L439 293L366 220V219L293 146L219 73L146 0H73Z" fill="#FFDA44"/>
<path d="M146 0V73H219V146H293V219H366V293H439V366H512V293L439 219L293 73L219 0H146Z" fill="#FF9811"/>
<path d="M219 0V73H293V146H366V219H439V293H512V219L439 146L366 73L293 0H219Z" fill="#D80027"/>
<path d="M293 0V73H366V146H439V219H512V146L439 73L366 0H293Z" fill="#4A1F63"/>
<path d="M366 0V73H439V146H512V73L439 0H366Z" fill="#0052B4"/>
<path d="M439 0V73H512V0H439ZM439 512V439H365V366H292V293H219V219H146V146H73V73H0V146L73 219L146 292V293L219 366L292 439L365 512H439Z" fill="#6DA544"/>
<path d="M366 512V439H292V366H219V293H146V219H73V146H0V219L73 293L219 439L292 512H366Z" fill="#0052B4"/>
<path d="M292 512V439H219V366H146V293H73V219H0V293L73 366L146 439L219 512H292Z" fill="#4A1F63"/>
<path d="M219 512V439H146V366H73V292H0V366L73 439L146 512H219Z" fill="#D80027"/>
<path d="M146 512V439H73V366H0V439L73 512H146Z" fill="#FF9811"/>
<path d="M73 512V439H0V512H73Z" fill="#FFDA44"/>
</g>
</g>
<defs>
<clipPath id="clip0_1628_4167">
<rect width="512" height="512" fill="white"/>
</clipPath>
</defs>
</svg>
