<svg width="512" height="512" viewBox="0 0 512 512" fill="none" xmlns="http://www.w3.org/2000/svg">
<g clip-path="url(#clip0_1628_4192)">
<mask id="mask0_1628_4192" style="mask-type:luminance" maskUnits="userSpaceOnUse" x="0" y="0" width="512" height="512">
<path d="M256 512C397.385 512 512 397.385 512 256C512 114.615 397.385 0 256 0C114.615 0 0 114.615 0 256C0 397.385 114.615 512 256 512Z" fill="white"/>
</mask>
<g mask="url(#mask0_1628_4192)">
<path d="M0 256L256 0H512V512H0V256Z" fill="#D80027"/>
<path d="M0 0H256V256H0V0Z" fill="#0052B4"/>
<path d="M204.998 167.001L209.198 179.701H222.598L211.798 187.601L215.898 200.301L205.098 192.501L194.198 200.301L198.298 187.601L187.498 179.701H200.898L204.998 167.001ZM137.798 66.8008L144.798 88.0008H166.998L148.898 101.201L155.798 122.401L137.698 109.301L119.698 122.401L126.498 101.201L108.498 88.0008H130.798L137.798 66.8008ZM204.498 89.0008L211.398 110.301H233.698L215.698 123.401L222.598 144.701L204.498 131.601L186.398 144.701L193.398 123.401L175.198 110.301H197.598L204.498 89.0008ZM151.698 178.001L158.598 199.301H180.998L162.898 212.501L169.798 233.701L151.698 220.601L133.698 233.701L140.498 212.501L122.498 199.301H144.798L151.698 178.001ZM93.1984 122.401L100.098 143.701H122.398L104.398 156.801L111.298 178.101L93.1984 164.901L74.9984 178.101L81.8984 156.801L63.8984 143.701H86.1984L93.1984 122.401Z" fill="#EEEEEE"/>
</g>
</g>
<defs>
<clipPath id="clip0_1628_4192">
<rect width="512" height="512" fill="white"/>
</clipPath>
</defs>
</svg>
