<svg width="512" height="512" viewBox="0 0 512 512" fill="none" xmlns="http://www.w3.org/2000/svg">
<g clip-path="url(#clip0_1628_4184)">
<mask id="mask0_1628_4184" style="mask-type:luminance" maskUnits="userSpaceOnUse" x="0" y="0" width="512" height="512">
<path d="M256 512C397.385 512 512 397.385 512 256C512 114.615 397.385 0 256 0C114.615 0 0 114.615 0 256C0 397.385 114.615 512 256 512Z" fill="white"/>
</mask>
<g mask="url(#mask0_1628_4184)">
<path d="M0 0H512V512H0V0Z" fill="#0052B4"/>
<path d="M112.4 155.8L118 172.8H135.9L121.4 183.3L126.9 200.3L112.4 189.8L98 200.3L103.5 183.3L89 172.8H107L112.4 155.8ZM168.1 139.1L173.6 156.1H191.6L177 166.6L182.6 183.6L168.1 173.1L153.6 183.7L159.2 166.7L144.7 156.1H162.6L168.1 139.1ZM223.8 122.4L229.3 139.4H247.2L232.7 150L238.2 167L223.8 156.4L209.3 167L214.8 150L200.3 139.4H218.3L223.8 122.4ZM399.6 155.8L394 172.8H376.1L390.6 183.3L385.1 200.3L399.6 189.8L414 200.3L408.5 183.3L423 172.8H405L399.6 155.8ZM343.9 139.1L338.4 156.1H320.4L335 166.6L329.4 183.6L343.9 173.1L358.4 183.7L352.8 166.7L367.3 156.1H349.4L343.9 139.1ZM288.2 122.4L282.7 139.4H264.8L279.3 150L273.8 167L288.2 156.4L302.7 167L297.2 150L311.7 139.4H293.7L288.2 122.4Z" fill="#EEEEEE"/>
<path d="M300.502 267.1L256.002 211.5L233.702 222.6V245L200.302 267H178.102V296C194.531 302.652 208.6 314.058 218.505 328.756C228.411 343.454 233.703 360.775 233.702 378.5H256.002V356.3L278.302 334L300.502 356.3L322.802 334V311.8L345.002 278.4L300.502 267.2V267.1Z" fill="#FFDA44"/>
</g>
</g>
<defs>
<clipPath id="clip0_1628_4184">
<rect width="512" height="512" fill="white"/>
</clipPath>
</defs>
</svg>
