<svg width="512" height="512" viewBox="0 0 512 512" fill="none" xmlns="http://www.w3.org/2000/svg">
<g clip-path="url(#clip0_1628_4200)">
<mask id="mask0_1628_4200" style="mask-type:luminance" maskUnits="userSpaceOnUse" x="0" y="0" width="512" height="512">
<path d="M256 512C397.385 512 512 397.385 512 256C512 114.615 397.385 0 256 0C114.615 0 0 114.615 0 256C0 397.385 114.615 512 256 512Z" fill="white"/>
</mask>
<g mask="url(#mask0_1628_4200)">
<path d="M0 0H512V512H0V0Z" fill="#EEEEEE"/>
<path d="M253 412C270.673 412 285 397.673 285 380C285 362.327 270.673 348 253 348C235.327 348 221 362.327 221 380C221 397.673 235.327 412 253 412Z" fill="#ACABB1"/>
<path d="M322.398 135.499C306.798 121.899 284.998 115.199 256.898 115.199C228.998 115.199 206.998 122.399 190.898 136.599C183.218 143.636 177.091 152.198 172.906 161.737C168.722 171.276 166.574 181.583 166.598 191.999H166.398V204.799H223.998L224.098 195.799C223.851 186.637 227.188 177.74 233.398 170.999C239.198 164.899 247.098 161.999 256.898 161.999C277.598 161.999 287.898 172.999 287.898 195.399C287.898 202.799 285.898 209.899 281.898 216.499C275.211 226.26 267.163 235.015 257.998 242.499C247.383 251.24 238.901 262.286 233.198 274.799C228.698 285.799 226.398 301.499 226.398 319.999H277.398L278.198 306.899C279.66 293.874 285.809 281.825 295.498 272.999L311.698 257.799C322.238 248.235 331.155 237.023 338.098 224.599C343.125 214.754 345.73 203.853 345.698 192.799C345.598 168.099 337.898 149.099 322.398 135.499Z" fill="#ACABB1"/>
</g>
</g>
<defs>
<clipPath id="clip0_1628_4200">
<rect width="512" height="512" fill="white"/>
</clipPath>
</defs>
</svg>
