<svg width="512" height="512" viewBox="0 0 512 512" fill="none" xmlns="http://www.w3.org/2000/svg">
<g clip-path="url(#clip0_1628_4236)">
<mask id="mask0_1628_4236" style="mask-type:luminance" maskUnits="userSpaceOnUse" x="0" y="0" width="512" height="512">
<path d="M256 512C397.385 512 512 397.385 512 256C512 114.615 397.385 0 256 0C114.615 0 0 114.615 0 256C0 397.385 114.615 512 256 512Z" fill="white"/>
</mask>
<g mask="url(#mask0_1628_4236)">
<path d="M0 0H512V512H0V0Z" fill="#EEEEEE"/>
<path d="M112.996 139C108.996 139 101.996 141 89.9965 147C85.279 149.403 80.9064 152.43 76.9965 156C48.9965 183 56.9965 224 65.9965 235C68.9965 239 81.9965 258 97.9965 265C119.996 273 133.996 293 134.996 316C134.996 340 119.996 360 100.996 362H96.9965C77.9965 362 60.9965 343 59.9965 319V321C60.9965 350 79.9965 373 102.996 373C125.996 373 146.996 361 157.996 341L162.996 333C165.116 328.595 166.469 323.86 166.996 319C170.996 300 172.996 249 119.996 224C79.9965 204 74.9965 188 79.9965 181C80.4023 180.638 80.8777 180.363 81.3935 180.191C81.9093 180.019 82.4547 179.954 82.9965 180C82.9897 184.871 84.8537 189.558 88.2034 193.093C91.5531 196.629 96.1327 198.744 100.996 199C104.71 198.951 108.273 197.525 110.996 195C110.996 195 128.996 213 134.996 206C140.996 199 134.996 199 128.996 192C123.996 185 128.996 171 117.996 164C105.996 157 99.9965 157 105.996 149C107.342 147.006 109.12 145.342 111.197 144.13C113.275 142.918 115.599 142.19 117.996 142C117.996 142 117.996 139 112.996 139ZM399.996 139C394.996 139 394.996 142 394.996 142C399.996 143 403.996 145 406.996 149C411.996 157 406.996 157 394.996 164C382.996 171 388.996 185 382.996 192C377.996 199 371.996 199 377.996 206C382.996 213 401.996 195 401.996 195C404.72 197.525 408.283 198.951 411.996 199C416.86 198.744 421.44 196.629 424.79 193.093C428.139 189.558 430.003 184.871 429.996 180C430.745 180.136 431.438 180.483 431.996 181C437.996 188 432.996 204 391.996 224C339.996 249 341.996 300 344.996 319L349.996 333C351.596 335.708 353.264 338.375 354.996 341C364.996 361 386.996 374 408.996 373C432.996 373 451.996 350 452.996 321V319C450.996 343 434.996 362 414.996 362H410.996C391.996 360 377.996 340 377.996 316C378.996 293 392.996 273 413.996 265C429.996 258 442.996 239 446.996 235C454.996 224 463.996 183 435.996 156C431.779 152.354 427.065 149.323 421.996 147C409.996 141 403.996 139 399.996 139ZM25.9965 199C24.9965 199 23.9965 200 23.9965 202C21.9965 218 22.9965 254 56.9965 266C57.2501 266.17 57.5393 266.279 57.8418 266.32C58.1443 266.361 58.4521 266.332 58.7416 266.235C59.0312 266.139 59.2949 265.977 59.5124 265.763C59.7299 265.549 59.8955 265.288 59.9965 265L65.9965 257V253C60.9965 246 43.9965 222 43.9965 209L41.9965 207C39.1301 207.04 36.2918 206.432 33.6941 205.219C31.0964 204.007 28.8067 202.223 26.9965 200L25.9965 199ZM485.996 199L484.996 200C483.186 202.223 480.897 204.007 478.299 205.219C475.701 206.432 472.863 207.04 469.996 207L467.996 209C467.996 222 450.996 246 446.996 253V257L451.996 265C452.098 265.288 452.263 265.549 452.481 265.763C452.698 265.977 452.962 266.139 453.251 266.235C453.541 266.332 453.849 266.361 454.151 266.32C454.454 266.279 454.743 266.17 454.996 266C488.996 254 489.996 218 488.996 202L485.996 199Z" fill="#ACABB1"/>
<path d="M211 147C205.033 147 199.31 149.371 195.09 153.59C190.871 157.81 188.5 163.533 188.5 169.5C188.5 175.467 190.871 181.19 195.09 185.41C199.31 189.629 205.033 192 211 192C205.033 192 199.31 194.371 195.09 198.59C190.871 202.81 188.5 208.533 188.5 214.5C188.5 220.467 190.871 226.19 195.09 230.41C199.31 234.629 205.033 237 211 237L256 269L301 237C306.967 237 312.69 234.629 316.91 230.41C321.129 226.19 323.5 220.467 323.5 214.5C323.5 208.533 321.129 202.81 316.91 198.59C312.69 194.371 306.967 192 301 192C305.45 192 309.8 190.68 313.5 188.208C317.2 185.736 320.084 182.222 321.787 178.11C323.49 173.999 323.936 169.475 323.068 165.11C322.199 160.746 320.057 156.737 316.91 153.59C313.763 150.443 309.754 148.301 305.39 147.432C301.025 146.564 296.501 147.01 292.39 148.713C288.278 150.416 284.764 153.3 282.292 157C279.82 160.7 278.5 165.05 278.5 169.5C278.5 163.533 276.129 157.81 271.91 153.59C267.69 149.371 261.967 147 256 147C250.033 147 244.31 149.371 240.09 153.59C235.871 157.81 233.5 163.533 233.5 169.5C233.5 163.533 231.129 157.81 226.91 153.59C222.69 149.371 216.967 147 211 147Z" fill="#0052B4"/>
<path d="M211 327C205.033 327 199.31 324.629 195.09 320.41C190.871 316.19 188.5 310.467 188.5 304.5C188.5 298.533 190.871 292.81 195.09 288.59C199.31 284.371 205.033 282 211 282C205.033 282 199.31 279.629 195.09 275.41C190.871 271.19 188.5 265.467 188.5 259.5C188.5 253.533 190.871 247.81 195.09 243.59C199.31 239.371 205.033 237 211 237H301C306.967 237 312.69 239.371 316.91 243.59C321.129 247.81 323.5 253.533 323.5 259.5C323.5 265.467 321.129 271.19 316.91 275.41C312.69 279.629 306.967 282 301 282C306.967 282 312.69 284.371 316.91 288.59C321.129 292.81 323.5 298.533 323.5 304.5C323.5 310.467 321.129 316.19 316.91 320.41C312.69 324.629 306.967 327 301 327C295.033 327 289.31 324.629 285.09 320.41C280.871 316.19 278.5 310.467 278.5 304.5C278.5 310.467 276.129 316.19 271.91 320.41C267.69 324.629 261.967 327 256 327C250.033 327 244.31 324.629 240.09 320.41C235.871 316.19 233.5 310.467 233.5 304.5C233.5 310.467 231.129 316.19 226.91 320.41C222.69 324.629 216.967 327 211 327Z" fill="#D80027"/>
<path d="M232 188C231.497 189.628 231.162 191.304 231 193C231 196.283 231.647 199.534 232.903 202.567C234.159 205.6 236.001 208.356 238.322 210.678C240.644 212.999 243.4 214.841 246.433 216.097C249.466 217.353 252.717 218 256 218C259.283 218 262.534 217.353 265.567 216.097C268.6 214.841 271.356 212.999 273.678 210.678C275.999 208.356 277.841 205.6 279.097 202.567C280.353 199.534 281 196.283 281 193C280.838 191.304 280.503 189.628 280 188C278.671 193.379 275.592 198.164 271.248 201.603C266.904 205.042 261.54 206.94 256 207C250.46 206.94 245.096 205.042 240.752 201.603C236.408 198.164 233.329 193.379 232 188Z" fill="#EEEEEE"/>
<path d="M283 254C281.939 254 280.921 254.421 280.171 255.172C279.421 255.922 279 256.939 279 258V266L272 262C271.442 261.483 270.748 261.136 270 261C269.378 261.075 268.783 261.295 268.262 261.643C267.741 261.99 267.308 262.455 267 263C266.628 263.443 266.356 263.961 266.204 264.518C266.052 265.076 266.022 265.66 266.117 266.23C266.212 266.801 266.43 267.344 266.755 267.822C267.08 268.3 267.504 268.702 268 269L275 273L268 276C267.504 276.298 267.08 276.7 266.755 277.178C266.43 277.656 266.212 278.199 266.117 278.77C266.022 279.34 266.052 279.924 266.204 280.482C266.356 281.039 266.628 281.557 267 282C267.587 282.722 268.407 283.217 269.32 283.4C270.232 283.582 271.18 283.441 272 283L279 280V287C279 288.061 279.421 289.078 280.171 289.828C280.921 290.579 281.939 291 283 291C284.061 291 285.078 290.579 285.828 289.828C286.578 289.078 287 288.061 287 287V280L294 283C294.819 283.441 295.767 283.582 296.68 283.4C297.592 283.217 298.413 282.722 299 282C299.372 281.557 299.643 281.039 299.796 280.482C299.948 279.924 299.978 279.34 299.883 278.77C299.788 278.199 299.57 277.656 299.245 277.178C298.92 276.7 298.495 276.298 298 276L291 273L298 269C298.495 268.702 298.92 268.3 299.245 267.822C299.57 267.344 299.788 266.801 299.883 266.23C299.978 265.66 299.948 265.076 299.796 264.518C299.643 263.961 299.372 263.443 299 263C298.691 262.455 298.259 261.99 297.738 261.643C297.217 261.295 296.621 261.075 296 261C295.252 261.136 294.558 261.483 294 262L287 266V258C287 256.939 286.578 255.922 285.828 255.172C285.078 254.421 284.061 254 283 254ZM229 254C227.939 254 226.921 254.421 226.171 255.172C225.421 255.922 225 256.939 225 258V266L218 262C217.442 261.483 216.748 261.136 216 261C215.378 261.075 214.783 261.295 214.262 261.643C213.741 261.99 213.308 262.455 213 263C212.628 263.443 212.356 263.961 212.204 264.518C212.052 265.076 212.022 265.66 212.117 266.23C212.212 266.801 212.429 267.344 212.755 267.822C213.08 268.3 213.504 268.702 214 269L221 273L214 276C213.504 276.298 213.08 276.7 212.755 277.178C212.429 277.656 212.212 278.199 212.117 278.77C212.022 279.34 212.052 279.924 212.204 280.482C212.356 281.039 212.628 281.557 213 282C213.587 282.722 214.407 283.217 215.32 283.4C216.232 283.582 217.18 283.441 218 283L225 280V287C225 288.061 225.421 289.078 226.171 289.828C226.921 290.579 227.939 291 229 291C230.061 291 231.078 290.579 231.828 289.828C232.578 289.078 233 288.061 233 287V280L240 283C240.819 283.441 241.767 283.582 242.68 283.4C243.592 283.217 244.413 282.722 245 282C245.372 281.557 245.643 281.039 245.796 280.482C245.948 279.924 245.978 279.34 245.883 278.77C245.788 278.199 245.57 277.656 245.245 277.178C244.92 276.7 244.495 276.298 244 276L237 273L244 269C244.495 268.702 244.92 268.3 245.245 267.822C245.57 267.344 245.788 266.801 245.883 266.23C245.978 265.66 245.948 265.076 245.796 264.518C245.643 263.961 245.372 263.443 245 263C244.691 262.455 244.259 261.99 243.738 261.643C243.217 261.295 242.621 261.075 242 261C241.252 261.136 240.558 261.483 240 262L233 266V258C233 256.939 232.578 255.922 231.828 255.172C231.078 254.421 230.061 254 229 254Z" fill="#FFDA44"/>
</g>
</g>
<defs>
<clipPath id="clip0_1628_4236">
<rect width="512" height="512" fill="white"/>
</clipPath>
</defs>
</svg>
