<svg width="512" height="512" viewBox="0 0 512 512" fill="none" xmlns="http://www.w3.org/2000/svg">
<g clip-path="url(#clip0_1628_4247)">
<mask id="mask0_1628_4247" style="mask-type:luminance" maskUnits="userSpaceOnUse" x="0" y="0" width="512" height="512">
<path d="M256 512C397.385 512 512 397.385 512 256C512 114.615 397.385 0 256 0C114.615 0 0 114.615 0 256C0 397.385 114.615 512 256 512Z" fill="white"/>
</mask>
<g mask="url(#mask0_1628_4247)">
<path d="M0 0L192 256L0 512H47L512 323V289L480 256L512 223V189L47 0H0Z" fill="#EEEEEE"/>
<path d="M0 142V370L140 256L0 142Z" fill="#333333"/>
<path d="M192 256L0 95V142L114 256L0 370V417L192 256Z" fill="#FFDA44"/>
<path d="M512 223H223L0 0V94L161 256L0 418V512L223 289H512V223Z" fill="#6DA544"/>
<path d="M512 0H47L236 189H512V0Z" fill="#D80027"/>
<path d="M512 512H47L236 323H512V512Z" fill="#0052B4"/>
</g>
</g>
<defs>
<clipPath id="clip0_1628_4247">
<rect width="512" height="512" fill="white"/>
</clipPath>
</defs>
</svg>
