<svg width="512" height="512" viewBox="0 0 512 512" fill="none" xmlns="http://www.w3.org/2000/svg">
<g clip-path="url(#clip0_1628_4258)">
<mask id="mask0_1628_4258" style="mask-type:luminance" maskUnits="userSpaceOnUse" x="0" y="0" width="512" height="512">
<path d="M256 512C397.385 512 512 397.385 512 256C512 114.615 397.385 0 256 0C114.615 0 0 114.615 0 256C0 397.385 114.615 512 256 512Z" fill="white"/>
</mask>
<g mask="url(#mask0_1628_4258)">
<path d="M0 0H512V256L256 512H0V0Z" fill="#496E2D"/>
<path d="M473 166.999H406.3C406.3 161.085 403.951 155.413 399.768 151.231C395.586 147.049 389.914 144.699 384 144.699C378.086 144.699 372.414 147.049 368.232 151.231C364.049 155.413 361.7 161.085 361.7 166.999H295C295.207 172.959 297.722 178.606 302.013 182.748C306.304 186.89 312.036 189.203 318 189.199H317.2C317.2 201.499 327.2 211.499 339.5 211.499C339.5 223.799 349.5 233.699 361.7 233.699H406.3C418.6 233.699 428.5 223.699 428.5 211.499C440.8 211.499 450.8 201.499 450.8 189.199H450C455.964 189.203 461.696 186.89 465.987 182.748C470.278 178.606 472.793 172.959 473 166.999Z" fill="#FF9811"/>
<path d="M341.297 256H426.697L447.797 382.3L426.697 512H341.297L317.797 384L341.297 256Z" fill="#333333"/>
<path d="M256 256H341.3V512H256V256Z" fill="#D80027"/>
<path d="M426.703 256H512.003V512H426.703V256Z" fill="#FF9811"/>
</g>
</g>
<defs>
<clipPath id="clip0_1628_4258">
<rect width="512" height="512" fill="white"/>
</clipPath>
</defs>
</svg>
