<svg width="512" height="512" viewBox="0 0 512 512" fill="none" xmlns="http://www.w3.org/2000/svg">
<g clip-path="url(#clip0_1628_4268)">
<mask id="mask0_1628_4268" style="mask-type:luminance" maskUnits="userSpaceOnUse" x="0" y="0" width="512" height="512">
<path d="M256 512C397.385 512 512 397.385 512 256C512 114.615 397.385 0 256 0C114.615 0 0 114.615 0 256C0 397.385 114.615 512 256 512Z" fill="white"/>
</mask>
<g mask="url(#mask0_1628_4268)">
<path d="M31.3984 0H511.998V512H31.3984V0Z" fill="#6DA544"/>
<path d="M57.7969 73.3008H511.997V146.601L446.897 256.601L511.997 366.601V439.901H57.7969V73.3008Z" fill="#FFDA44"/>
<path d="M132 146.6H512V219.9L485 255.9L512 293.2V366.5H132V146.6Z" fill="#D80027"/>
<path d="M0 0V512L279.8 256L0 0Z" fill="#EEEEEE"/>
<path d="M103.003 189.199L119.503 240.199H173.103L129.703 271.799L146.303 322.799L102.903 291.299L59.5031 322.799L76.1031 271.799L32.7031 240.199H86.3031L103.003 189.199Z" fill="#D80027"/>
<path d="M148.498 260.201L105.298 244.901L101.898 213.901C101.469 211.697 100.599 209.602 99.3419 207.742C98.0843 205.881 96.4644 204.294 94.5792 203.074C92.694 201.854 90.5821 201.027 88.3699 200.642C86.1577 200.257 83.8905 200.322 81.704 200.833C79.5176 201.345 77.4566 202.292 75.6445 203.618C73.8324 204.944 72.3064 206.622 71.1576 208.551C70.0088 210.48 69.2609 212.622 68.9587 214.847C68.6564 217.072 68.806 219.335 69.3984 221.501L57.3984 233.601H78.8984C78.8984 256.001 62.1984 256.001 62.1984 278.301L71.3984 300.501H127.098L136.398 278.301C137.301 276.201 137.875 273.975 138.098 271.701C146.098 268.501 148.498 260.201 148.498 260.201Z" fill="#FFDA44"/>
<path d="M31.4 0L251.4 220H512V293.2H250.2L31.4 512H0L256 256L0 0H31.4Z" fill="#333333"/>
</g>
</g>
<defs>
<clipPath id="clip0_1628_4268">
<rect width="512" height="512" fill="white"/>
</clipPath>
</defs>
</svg>
